<?xml version="1.0" standalone="no"?>
<!DOCTYPE svg PUBLIC "-//W3C//DTD SVG 1.1//EN" "http://www.w3.org/Graphics/SVG/1.1/DTD/svg11.dtd" >
<svg xmlns="http://www.w3.org/2000/svg">
<metadata>
This is a custom SVG webfont generated by Font Squirrel.
Copyright   : 2007 Jan Maack published by FSI FontShop International GmbH
</metadata>
<defs>
<font id="SpeakBold" horiz-adv-x="1017" >
<font-face units-per-em="2048" ascent="1638" descent="-410" />
<missing-glyph horiz-adv-x="647" />
<glyph unicode=" "  horiz-adv-x="647" />
<glyph unicode="&#x09;" horiz-adv-x="647" />
<glyph unicode="&#xa0;" horiz-adv-x="647" />
<glyph unicode="!" horiz-adv-x="522" d="M195 55v68q0 29 19 48t48 19t48.5 -19t19.5 -48v-68q0 -29 -19.5 -47t-48.5 -18t-48 18t-19 47zM195 367v882q0 29 19 48.5t48 19.5t48.5 -19.5t19.5 -48.5v-882q0 -29 -19.5 -48.5t-48.5 -19.5t-48 19.5t-19 48.5z" />
<glyph unicode="&#x22;" horiz-adv-x="692" d="M154 911v338q0 29 19.5 48.5t48 19.5t48 -19.5t19.5 -48.5v-338q0 -29 -19.5 -48t-48 -19t-48 19t-19.5 48zM403 911v338q0 29 19.5 48.5t48.5 19.5t48.5 -19.5t19.5 -48.5v-338q0 -29 -19.5 -48t-48.5 -19t-48.5 19t-19.5 48z" />
<glyph unicode="#" horiz-adv-x="1210" d="M195 367q0 66 67 65h105l26 184h-88q-31 0 -49 17.5t-18 48.5q0 29 19 47.5t48 18.5h105l36 253q10 55 66 56q68 0 68 -64v-12l-31 -233h156l36 256q6 53 62 53q70 0 69 -64v-12l-32 -233h110q31 0 49.5 -18.5t18.5 -47.5q0 -66 -68 -66h-129l-26 -184h112q68 0 68 -65 q0 -29 -19.5 -47.5t-48.5 -18.5h-129l-37 -248q-6 -53 -65 -53q-68 0 -68 66v12l33 223h-158l-32 -248q-12 -53 -68 -53q-29 0 -47.5 17.5t-18.5 48.5v12l33 223h-88q-29 0 -48 18.5t-19 47.5zM502 432h157l27 184h-156z" />
<glyph unicode="$" horiz-adv-x="1003" d="M113 176q0 29 19.5 46.5t45.5 17.5q23 0 47 -19q131 -102 256 -102q127 0 200 64.5t73 174.5q0 68 -45 121t-113 86t-145.5 74t-145 82t-113 112.5t-45.5 163.5q0 133 93.5 224.5t226.5 103.5v41q0 31 18.5 49.5t49.5 18.5q29 0 48 -18.5t19 -49.5v-43q125 -27 229 -104 q29 -23 29 -58q0 -29 -19.5 -47t-46 -18t-40.5 14q-106 88 -230 88q-96 0 -166.5 -56.5t-70.5 -144.5q0 -80 62.5 -138t151.5 -98t178 -84t151.5 -125t62.5 -194q0 -139 -78 -234t-213 -124v-53q0 -29 -19.5 -48.5t-47.5 -19.5q-31 0 -49.5 19.5t-18.5 48.5v43 q-158 0 -326 129q-28 22 -28 57z" />
<glyph unicode="%" horiz-adv-x="1562" d="M88 965q0 164 68.5 261t185.5 97t186.5 -98.5t69.5 -259.5q0 -166 -68.5 -259.5t-187.5 -93.5q-117 0 -185.5 93.5t-68.5 259.5zM193 964.5q0 -116.5 39.5 -185t109.5 -68.5t111 68.5t41 185.5q0 111 -39 185.5t-113 74.5q-68 0 -108.5 -72t-40.5 -188.5zM305 43 q0 29 14 47l830 1213q14 27 53 26q18 0 31.5 -14.5t13.5 -28.5q0 -31 -14 -47l-830 -1212q-14 -27 -53 -27q-18 0 -31.5 14.5t-13.5 28.5zM938 346q0 164 68.5 261.5t185.5 97.5t186.5 -98.5t69.5 -260.5q0 -166 -68.5 -258t-187.5 -92q-117 0 -185.5 93t-68.5 257z M1042 346q0 -117 40 -185.5t110 -68.5t110.5 68.5t40.5 185.5q0 111 -38.5 185.5t-112.5 74.5q-68 0 -109 -71.5t-41 -188.5z" />
<glyph unicode="&#x26;" horiz-adv-x="1519" d="M195 373q0 125 68.5 203.5t187.5 144.5q-139 156 -140 278q0 135 90.5 226.5t225.5 91.5q131 0 222 -91t91 -220q0 -125 -72.5 -200t-201.5 -134l274 -332q70 100 70 180q0 68 65 68q29 0 49.5 -19.5t20.5 -48.5q0 -123 -111 -284q121 -104 221 -105q70 0 70 -63 q0 -68 -70 -68q-156 0 -309 137q-158 -147 -356 -147q-170 0 -282.5 108.5t-112.5 274.5zM334 373q0 -115 77.5 -184.5t178.5 -69.5q143 0 264 112l-315 385q-100 -47 -152.5 -101t-52.5 -142zM451 999q0 -66 129 -223q72 35 111.5 58.5t74.5 69.5t35 102q0 78 -46 129 t-128 51q-86 0 -131 -51.5t-45 -135.5z" />
<glyph unicode="'" horiz-adv-x="440" d="M154 911v338q0 29 19.5 48.5t48 19.5t48 -19.5t19.5 -48.5v-338q0 -29 -19.5 -48t-48 -19t-48 19t-19.5 48z" />
<glyph unicode="(" horiz-adv-x="847" d="M195 532q0 166 35.5 314.5t75.5 233.5t104.5 166t84 97.5t52.5 42.5q18 12 37 13q29 0 49 -20.5t20 -49.5q0 -37 -37 -61l-22 -19q-33 -27 -70 -74t-84 -130.5t-76.5 -218t-29.5 -294.5q0 -145 28.5 -265t63.5 -184.5t84 -114.5t67.5 -61t36.5 -22q37 -20 37 -61 q0 -29 -18.5 -46.5t-46.5 -17.5q-16 0 -35 7q-8 0 -42 19t-88 75.5t-104.5 136.5t-86 221t-35.5 313z" />
<glyph unicode=")" horiz-adv-x="847" d="M195 1329q0 29 20.5 49.5t48.5 20.5q18 0 37 -13q33 -27 52.5 -43t84 -97t104.5 -166t75.5 -233.5t35.5 -314.5q0 -172 -35.5 -313t-86 -221t-104.5 -136.5t-88 -75.5t-42 -19q-18 -6 -35 -7q-29 0 -47 17.5t-18 46.5q0 41 36 61q18 10 37 21.5t68 61.5t84 114.5 t63.5 184.5t28.5 265q0 158 -29.5 293.5t-76 219t-84 132t-72.5 72.5l-21 19q-36 24 -36 61z" />
<glyph unicode="*" horiz-adv-x="882" d="M113 1067q0 29 18.5 47.5t46.5 18.5q10 0 23 -5l172 -69v184q0 29 18.5 48.5t48.5 19.5q29 0 47.5 -19.5t18.5 -48.5v-184l176 69q12 4 14 5h9q25 0 45 -19.5t20 -48.5q0 -45 -43 -61l-180 -68l119 -162q14 -20 14 -39q0 -29 -20.5 -47t-49.5 -18q-37 0 -53 26l-119 166 l-119 -166q-18 -27 -53 -26q-29 0 -47 18.5t-18 46.5q0 18 14 39l119 162l-178 68q-43 18 -43 63z" />
<glyph unicode="+" horiz-adv-x="1228" d="M184 483.5q0 28.5 19.5 47t48.5 18.5h295v295q0 29 19.5 48t48 19t48 -19.5t19.5 -47.5v-295h295q29 0 48 -18.5t19 -47t-19 -47t-48 -18.5h-295v-299q0 -29 -19.5 -48.5t-48 -19.5t-48 19.5t-19.5 48.5v299h-295q-29 0 -48.5 18.5t-19.5 47z" />
<glyph unicode="," horiz-adv-x="514" d="M119 -145q0 25 18 49q61 66 62 219q0 29 19.5 48t48 19t48 -19t19.5 -48v-10q0 -205 -98 -303q-20 -20 -52 -21q-29 0 -47 18.5t-18 47.5z" />
<glyph unicode="-" horiz-adv-x="980" d="M195 483.5q0 28.5 19 47t48 18.5h457q29 0 48 -18.5t19 -47t-19 -47t-48 -18.5h-457q-29 0 -48 18.5t-19 47z" />
<glyph unicode="." horiz-adv-x="440" d="M154 55v68q0 29 19.5 48t48 19t48 -19t19.5 -48v-68q0 -29 -19.5 -47t-48 -18t-48 18t-19.5 47z" />
<glyph unicode="/" horiz-adv-x="829" d="M92 -121q0 10 6 27l514 1360q18 41 64 41q29 0 45 -18.5t16 -43.5q0 -10 -4 -22l-514 -1366q-16 -41 -61 -41q-31 0 -48.5 18t-17.5 45z" />
<glyph unicode="0" horiz-adv-x="1327" d="M195 651q0 311 125.5 494.5t343 183.5t344.5 -184t127 -494q0 -313 -125 -487t-346 -174q-219 0 -344 174t-125 487zM334 651q0 -248 88 -390t242 -142q152 0 241.5 143.5t89.5 388.5q0 238 -88 392.5t-243 154.5q-152 0 -241 -148.5t-89 -398.5z" />
<glyph unicode="1" horiz-adv-x="813" d="M205 1106q0 39 28 57l220 144q16 10 36 10q29 0 49.5 -19.5t20.5 -48.5v-1181q0 -29 -19.5 -48.5t-48 -19.5t-48 19.5t-19.5 48.5v1062l-115 -79q-16 -10 -37 -11q-29 0 -48 18.5t-19 47.5z" />
<glyph unicode="2" horiz-adv-x="1150" d="M195 66q0 82 63.5 180t154.5 189t182 181.5t154.5 182.5t63.5 166q0 72 -23.5 121t-62.5 72.5t-76 31.5t-78 8q-72 0 -139 -28.5t-100 -53.5q-16 -10 -37 -10q-29 0 -49.5 19.5t-20.5 48.5q0 33 37 57q147 98 309 98q43 0 84 -5t98.5 -27.5t97.5 -59.5t69.5 -107.5 t29.5 -164.5q0 -111 -78.5 -229t-177 -205t-205 -198.5t-145.5 -201.5h543q29 0 48 -18.5t19 -47t-19 -47t-48 -18.5h-627q-29 0 -48 18.5t-19 47.5z" />
<glyph unicode="3" horiz-adv-x="1181" d="M195 147q0 29 20.5 47.5t50.5 18.5q16 0 47 -23.5t95.5 -47t166.5 -23.5q115 0 195 69.5t80 167.5q0 86 -51 143.5t-117 78t-143 20.5h-50q-31 0 -49 18.5t-18 47t19.5 47t47.5 18.5h50q113 0 201.5 60.5t88.5 177.5q0 72 -27.5 122t-73.5 71.5t-83 29.5t-76 8 q-98 0 -227 -80q-14 -12 -39 -12q-29 0 -48 19.5t-19 48t28 53.5q29 29 115 65.5t190 36.5q174 0 287 -94t113 -268q0 -100 -55.5 -183.5t-153.5 -111.5q106 -18 167.5 -109.5t61.5 -206.5q0 -160 -124 -263t-290 -103q-100 0 -187 25.5t-121 45t-46 31.5q-26 24 -26 55z " />
<glyph unicode="4" horiz-adv-x="1234" d="M154 395q0 18 8 33q94 195 247.5 412t241.5 321.5t121 136.5q18 18 49 19q29 0 47.5 -18.5t18.5 -43.5q0 -31 -23 -53q-37 -37 -100.5 -106.5t-206.5 -262t-235 -372.5h444v418q0 29 19.5 48t48 19t48 -19.5t19.5 -47.5v-418h86q29 0 48.5 -18.5t19.5 -47t-19.5 -47 t-48.5 -18.5h-86v-262q0 -29 -19.5 -48.5t-48 -19.5t-48 19.5t-19.5 48.5v262h-545q-33 0 -50 19t-17 46z" />
<glyph unicode="5" horiz-adv-x="1161" d="M195 143q0 29 20.5 49.5t44.5 20.5q29 0 47 -16q10 -10 35 -25.5t81 -34t116 -18.5q119 0 204.5 78.5t85.5 240.5q0 119 -81.5 199t-208.5 80q-113 0 -205 -58q-16 -14 -41 -14q-59 0 -68 66v542q0 29 19.5 46.5t50.5 17.5h536q29 0 48.5 -17.5t19.5 -46t-19.5 -48 t-48.5 -19.5h-471v-375q86 37 179 37q184 0 307 -117t123 -293q0 -227 -130 -337.5t-300 -110.5t-289 80l-31 20q-24 20 -24 53z" />
<glyph unicode="6" horiz-adv-x="1234" d="M195 596q0 381 113.5 557t357.5 176q201 0 303 -102q23 -23 22 -51q0 -27 -16.5 -46.5t-44.5 -19.5q-31 0 -62 25q-63 63 -202 63q-53 0 -95.5 -10t-88.5 -48t-76.5 -100.5t-51 -176t-20.5 -267.5q0 -231 75.5 -354t221.5 -123q76 0 131 32.5t83.5 85t42 103.5t13.5 100 q0 45 -13.5 91.5t-42 92.5t-83.5 74.5t-131 28.5q-70 0 -113 -25q-14 -8 -31 -8q-27 0 -44 17.5t-17 48.5t49 61q63 37 156 37q113 0 197.5 -42t127.5 -109.5t63.5 -134t20.5 -132.5q0 -70 -20.5 -142.5t-63.5 -144t-128 -117.5t-197 -46q-211 0 -323.5 155.5t-112.5 450.5z " />
<glyph unicode="7" horiz-adv-x="1116" d="M133 1253.5q0 28.5 19.5 46t48.5 17.5h717q29 0 48 -17.5t19 -46.5q0 -53 -38 -147t-73.5 -161.5t-103.5 -186.5q-283 -506 -283 -690q0 -29 -19 -48.5t-48 -19.5t-48.5 19.5t-19.5 48.5q0 100 51.5 243.5t106.5 252t143 259.5q12 20 53.5 94t57.5 106t38.5 81t33.5 82 h-635q-29 0 -48.5 19.5t-19.5 48z" />
<glyph unicode="8" horiz-adv-x="1239" d="M184 367q0 100 45 180t99 121q33 23 47 28q-18 6 -41 25q-111 82 -111 248q0 100 41 175t105.5 112.5t127 55t121.5 17.5q164 0 283 -92t119 -268q0 -80 -39 -153t-90 -120q-29 -27 -41 -28q6 -2 20 -10l27 -13q59 -33 107.5 -103.5t48.5 -174.5q0 -184 -113 -280.5 t-322 -96.5q-195 0 -314.5 101.5t-119.5 275.5zM324 367q0 -125 88 -186.5t206 -61.5q295 0 295 248q0 201 -321 243l-78 11q-76 -4 -133 -74.5t-57 -179.5zM362 969q0 -123 88.5 -178.5t256.5 -69.5q61 4 117.5 82t56.5 166q0 121 -84 175t-178.5 54t-175.5 -54t-81 -175z " />
<glyph unicode="9" horiz-adv-x="1232" d="M195 877q0 53 11 110t40.5 119.5t75 111t118 80t164.5 31.5q211 0 323.5 -156.5t112.5 -451.5q0 -381 -112.5 -556t-358.5 -175q-94 0 -168.5 23.5t-101.5 44t-33 32.5q-23 23 -22 51q0 27 16 46.5t45 19.5q31 0 62 -25q63 -63 202 -63q53 0 95.5 10t88.5 48t76.5 100.5 t51 176t20.5 267.5q0 231 -75.5 354t-221.5 123q-76 0 -131 -32.5t-84 -85t-42 -103.5t-13 -100q0 -45 13 -91.5t42 -92.5t84 -74.5t131 -28.5q70 0 113 24q10 8 28 9q27 0 45.5 -17.5t18.5 -48.5t-49 -61q-63 -37 -156 -37q-113 0 -197.5 42t-127.5 109.5t-63.5 134 t-20.5 132.5z" />
<glyph unicode=":" horiz-adv-x="440" d="M154 55v68q0 29 19.5 48t48 19t48 -19t19.5 -48v-68q0 -29 -19.5 -47t-48 -18t-48 18t-19.5 47zM154 821v70q0 29 19.5 47t48 18t48 -18t19.5 -47v-70q0 -29 -19.5 -48t-48 -19t-48 19t-19.5 48z" />
<glyph unicode=";" horiz-adv-x="512" d="M143 -174q0 27 19 49q61 61 61 219q0 29 19.5 48.5t48 19.5t48 -19.5t19.5 -48.5v-10q0 -203 -100 -303q-18 -18 -49 -19q-29 0 -47.5 17.5t-18.5 46.5zM223 821v70q0 29 19.5 47t48 18t48 -18t19.5 -47v-70q0 -29 -19.5 -48t-48 -19t-48 19t-19.5 48z" />
<glyph unicode="&#x3c;" horiz-adv-x="1228" d="M182 481q0 35 37 58l727 370q16 10 35 11q27 0 45 -20.5t18 -49.5q0 -31 -40 -57l-613 -312l615 -321q35 -23 34 -62q0 -29 -20.5 -46t-44.5 -17q-16 0 -31 8l-725 379q-37 20 -37 59z" />
<glyph unicode="=" horiz-adv-x="1228" d="M182 358.5q0 28.5 19.5 47t48.5 18.5h727q29 0 48 -18.5t19 -47t-19 -47t-48 -18.5h-727q-29 0 -48.5 18.5t-19.5 47zM182 622.5q0 28.5 19.5 47t48.5 18.5h727q29 0 48 -18.5t19 -47t-19 -47t-48 -18.5h-727q-29 0 -48.5 18.5t-19.5 47z" />
<glyph unicode="&#x3e;" horiz-adv-x="1228" d="M182 850q0 29 17.5 49.5t44.5 20.5q12 0 37 -11q184 -94 272 -139q84 -45 243.5 -125t209.5 -106q39 -25 38 -58q0 -41 -38 -59l-723 -379q-18 -8 -33 -8q-23 0 -44.5 18.5t-21.5 44.5q0 39 37 62l613 321l-613 312q-39 24 -39 57z" />
<glyph unicode="?" horiz-adv-x="1052" d="M174 1163q0 29 25 49q10 10 39.5 31t107.5 47.5t160 26.5q160 0 267.5 -108.5t107.5 -274.5q0 -82 -37 -146.5t-89.5 -107.5t-104.5 -84t-89 -99.5t-37 -134.5q0 -29 -19.5 -48t-48 -19t-48 19.5t-19.5 47.5q0 123 49 200t137 143l31 26q45 35 68.5 57.5t45 61.5t21.5 84 q0 111 -66.5 181.5t-168.5 70.5q-119 0 -223 -76q-20 -14 -43 -14q-29 0 -47.5 19t-18.5 48zM389 55v68q0 29 19.5 48t48 19t48 -19t19.5 -48v-68q0 -29 -19.5 -47t-48 -18t-48 18t-19.5 47z" />
<glyph unicode="@" horiz-adv-x="1527" d="M113 649q0 274 194.5 471t468.5 197q295 0 468 -153.5t173 -418.5q0 -147 -106.5 -275t-251.5 -128q-49 0 -95 22.5t-57 65.5q-88 -88 -205 -88q-115 0 -178 64.5t-63 177.5q0 156 105.5 294t269.5 138q49 0 110.5 -20.5t97.5 -47.5q29 -20 29 -53q-8 -49 -25.5 -145.5 t-27.5 -159t-10 -78.5q0 -39 34 -39q92 0 163 86t71 186q0 199 -135 320t-367 121q-215 0 -369.5 -160t-154.5 -377q0 -215 154.5 -372.5t369.5 -157.5q154 0 305 100q14 10 33 10q29 0 47.5 -20.5t18.5 -48.5q0 -31 -33 -58q-162 -113 -371 -112q-276 0 -469.5 191.5 t-193.5 467.5zM600 584q0 -43 26.5 -77t82.5 -34q84 0 174 84l51 301q-53 29 -98 29q-98 0 -167 -97t-69 -206z" />
<glyph unicode="A" horiz-adv-x="1157" d="M51 61q0 6 6 31q12 45 79 257t172.5 507t170.5 414q23 47 99 47q82 0 100 -49q43 -88 115.5 -284t134 -376t116 -344t58.5 -172q6 -25 6 -31q0 -61 -70 -61q-45 0 -59 45q-10 25 -47 142.5t-68 203.5h-573q-25 -76 -60.5 -195.5t-48.5 -150.5q-14 -45 -65 -45 q-66 0 -66 61zM336 522h485q-135 406 -243 658q-99 -230 -242 -658z" />
<glyph unicode="B" horiz-adv-x="1103" d="M195 68v1185q0 29 18 46.5t47 17.5h250q55 0 94 -3t107.5 -21.5t111.5 -53.5t78 -106.5t35 -172t-56.5 -178t-93.5 -98.5q90 -27 148.5 -111t58.5 -206q0 -367 -483 -367h-248q-29 0 -48 19.5t-19 48.5zM330 131h180q344 0 344 236q0 233 -291 233h-233v-469zM330 731 h252q27 0 41 -2q174 78 174 232q0 225 -293 225h-174v-455z" />
<glyph unicode="C" horiz-adv-x="1230" d="M113 657q0 287 172 479.5t424 192.5q240 0 381 -108q29 -25 28 -58q0 -29 -20.5 -47t-45 -18t-40.5 14q-10 10 -40 27.5t-103.5 38t-159.5 20.5q-195 0 -326 -155.5t-131 -385.5q0 -233 123 -385.5t313 -152.5q160 0 313 86q14 10 35 10q29 0 48.5 -20.5t19.5 -49.5 q0 -37 -29 -53q-199 -102 -387 -102q-248 0 -411.5 189t-163.5 478z" />
<glyph unicode="D" horiz-adv-x="1316" d="M195 68v1183q0 29 18 47.5t47 18.5h354q262 0 426 -186.5t164 -477.5q0 -289 -163.5 -471t-426.5 -182h-354q-29 0 -47 19.5t-18 48.5zM330 131h284q205 0 328 144.5t123 377.5q0 236 -123 384.5t-328 148.5h-284v-1055z" />
<glyph unicode="E" horiz-adv-x="1026" d="M195 66v1187q0 29 19 46.5t48 17.5h535q29 0 48 -17.5t19 -46t-19.5 -48t-47.5 -19.5h-467v-428h432q29 0 48 -18.5t19 -47t-19 -47t-48 -18.5h-432v-496h506q29 0 48 -18.5t19 -47t-19.5 -47t-47.5 -18.5h-574q-29 0 -48 18.5t-19 47.5z" />
<glyph unicode="F" horiz-adv-x="966" d="M195 68v1185q0 29 19 46.5t48 17.5h535q29 0 48 -17.5t19 -46t-19.5 -48t-47.5 -19.5h-467v-428h432q29 0 48 -18.5t19 -47t-19 -47t-48 -18.5h-432v-559q0 -29 -19.5 -48.5t-48.5 -19.5t-48 19.5t-19 48.5z" />
<glyph unicode="G" horiz-adv-x="1277" d="M113 655q0 287 172 480.5t424 193.5q80 0 150.5 -16.5t106 -31.5t91.5 -44q35 -18 35 -61q0 -29 -21.5 -48.5t-48.5 -19.5q-14 0 -29 8q-143 82 -284 82q-197 0 -327 -156.5t-130 -386.5q0 -233 123 -384.5t313 -151.5q160 0 301 65v285q0 47 -12 58.5t-64 11.5h-155 q-29 0 -47.5 17t-18.5 46t18.5 48.5t47.5 19.5h155q131 0 171 -39t40 -166v-320q0 -45 -37 -61q-184 -94 -399 -94q-248 0 -411.5 188t-163.5 477z" />
<glyph unicode="H" horiz-adv-x="1267" d="M195 68v1181q0 29 19 48.5t48 19.5t48.5 -19.5t19.5 -48.5v-491h610v491q0 29 19.5 48.5t48 19.5t48 -19.5t19.5 -48.5v-1181q0 -29 -19.5 -48.5t-48 -19.5t-48 19.5t-19.5 48.5v559h-610v-559q0 -29 -19.5 -48.5t-48.5 -19.5t-48 19.5t-19 48.5z" />
<glyph unicode="I" horiz-adv-x="522" d="M195 68v1181q0 29 19 48.5t48 19.5t48.5 -19.5t19.5 -48.5v-1181q0 -29 -19.5 -48.5t-48.5 -19.5t-48 19.5t-19 48.5z" />
<glyph unicode="J" horiz-adv-x="546" d="M-225 -180q0 27 18.5 46t42.5 19q23 0 43 -14q51 -41 139 -41q74 0 137.5 65.5t63.5 204.5v1149q0 29 18.5 48.5t47 19.5t49 -19.5t20.5 -48.5v-1149q0 -209 -107.5 -305t-228.5 -96q-57 0 -108 14.5t-74.5 26.5t-32.5 20q-28 23 -28 60z" />
<glyph unicode="K" horiz-adv-x="1177" d="M195 68v1181q0 29 19 48.5t48 19.5t48.5 -19.5t19.5 -48.5v-506l551 551q23 23 51.5 23t45.5 -19.5t17 -46t-18 -47.5l-508 -506q348 -272 584 -596q12 -16 12 -36q0 -29 -18.5 -47.5t-47.5 -18.5q-39 0 -57 29q-252 350 -612 610v-571q0 -29 -19.5 -48.5t-48.5 -19.5 t-48 19.5t-19 48.5z" />
<glyph unicode="L" horiz-adv-x="956" d="M195 66v1183q0 29 19 48.5t48 19.5t48.5 -19.5t19.5 -48.5v-1118h508q29 0 48 -18.5t19 -47t-19.5 -47t-47.5 -18.5h-576q-29 0 -48 18.5t-19 47.5z" />
<glyph unicode="M" horiz-adv-x="1646" d="M154 68l131 1192q12 57 67 57h23q55 0 90 -47q88 -123 358 -1004q242 813 353 996q33 55 94 55h24q57 0 68 -57l131 -1186q0 -74 -63.5 -74t-69.5 59l-111 1067q-63 -152 -187 -535.5t-153 -492.5q-8 -29 -32.5 -46t-49.5 -17h-12q-25 0 -48.5 18.5t-29.5 42.5 q-41 147 -160.5 520t-179.5 510l-112 -1067q-10 -59 -70 -59q-61 0 -61 68z" />
<glyph unicode="N" horiz-adv-x="1259" d="M195 68v1181q0 29 19 48.5t48 19.5h25q53 0 84 -29q111 -111 331 -620q162 -362 230 -469v1050q0 29 19.5 48.5t49.5 19.5q29 0 47.5 -19.5t18.5 -48.5v-1181q0 -31 -18.5 -49.5t-47.5 -18.5h-24q-53 0 -84 31q-94 88 -342 631q-27 59 -68 150t-60.5 133t-45 91t-47.5 82 v-1050q0 -31 -19.5 -49.5t-48.5 -18.5t-48 18.5t-19 49.5z" />
<glyph unicode="O" horiz-adv-x="1341" d="M113 655q0 287 160.5 480.5t398.5 193.5q242 0 399.5 -191.5t157.5 -482t-158 -478t-399 -187.5q-238 0 -398.5 190t-160.5 475zM252 655q0 -227 120 -381.5t300 -154.5q184 0 301 151.5t117 384.5q0 236 -118 389.5t-300 153.5q-178 0 -299 -157t-121 -386z" />
<glyph unicode="P" horiz-adv-x="1001" d="M195 68v1181q0 29 19 48.5t48 19.5h303q164 0 274.5 -101.5t110.5 -252.5q0 -197 -114.5 -291t-270.5 -94h-80q-29 0 -48 18t-19 47t19.5 47.5t47.5 18.5h80q100 0 173 62.5t73 191.5q0 98 -68.5 160.5t-177.5 62.5h-235v-1118q0 -29 -19.5 -48.5t-48.5 -19.5t-48 19.5 t-19 48.5z" />
<glyph unicode="Q" horiz-adv-x="1339" d="M113 655q0 287 160.5 480.5t398.5 193.5q242 0 402.5 -191.5t160.5 -482.5q0 -264 -133 -440t-348 -213q61 -111 288 -111q33 0 78 6.5t60 6.5q74 0 73 -66q0 -61 -94 -71q-49 -4 -102 -5q-350 0 -473 236q-205 29 -338 215t-133 442zM252 655q0 -227 120 -381.5 t300 -154.5q184 0 304 151.5t120 385t-120 388t-304 154.5q-178 0 -299 -157t-121 -386z" />
<glyph unicode="R" horiz-adv-x="1103" d="M195 68v1181q0 29 19 48.5t48 19.5h303q168 0 276.5 -97.5t108.5 -246.5q0 -88 -30.5 -158t-76.5 -106.5t-83 -55t-62 -20.5q150 -98 285 -471q29 -74 29 -101q0 -23 -17.5 -42t-50.5 -19q-53 0 -65 49q-80 256 -177.5 402.5t-183.5 146.5h-33q-29 0 -48 18.5t-19 47 t19.5 47t47.5 18.5h80q33 0 66 7t78 28.5t73.5 75t28.5 133.5q0 92 -67.5 152.5t-178.5 60.5h-235v-1118q0 -29 -19.5 -48.5t-48.5 -19.5t-48 19.5t-19 48.5z" />
<glyph unicode="S" horiz-adv-x="1003" d="M113 176q0 29 18.5 46.5t44.5 17.5q25 0 49 -19q135 -102 256 -102q127 0 200 64.5t73 174.5q0 80 -62.5 139.5t-151.5 100.5t-178.5 86t-152 125t-62.5 188q0 150 112 241t263 91q141 0 309 -110q29 -23 29 -58q0 -29 -18.5 -47t-45 -18t-40.5 14q-106 88 -234 88 q-96 0 -165.5 -56.5t-69.5 -144.5q0 -78 62.5 -135t151.5 -97t178 -86t151.5 -127t62.5 -194q0 -168 -112.5 -268t-299.5 -100q-76 0 -142.5 20.5t-104 44t-93.5 64.5q-28 22 -28 57z" />
<glyph unicode="T" horiz-adv-x="985" d="M31 1253.5q0 28.5 18.5 46t46.5 17.5h795q29 0 47 -17.5t18 -46t-18 -48t-47 -19.5h-334v-1118q0 -29 -19.5 -48.5t-48 -19.5t-48 19.5t-19.5 48.5v1118h-326q-29 0 -47 19.5t-18 48z" />
<glyph unicode="U" horiz-adv-x="1253" d="M188 432v817q0 29 19.5 48.5t48.5 19.5t48.5 -19.5t19.5 -48.5v-813q0 -45 12 -92t42 -101.5t94.5 -89t154.5 -34.5q92 0 156.5 34.5t93 89t41 101.5t12.5 92v813q0 29 19.5 48.5t48 19.5t48 -19.5t19.5 -48.5v-817q0 -47 -8 -97t-37 -114.5t-75 -114t-129 -83 t-191.5 -33.5t-190.5 33.5t-127 83t-73.5 114t-37 114.5t-8.5 97z" />
<glyph unicode="V" horiz-adv-x="1155" d="M51 1255q0 61 66 62q51 0 67 -55q0 -8 65.5 -223.5t163 -494t162.5 -403.5q37 74 80 181.5t92.5 251t80 238.5t82 258t61.5 196q16 53 63 53q70 0 70 -64q0 -2 -4 -22q-313 -956 -422 -1182q-29 -51 -103 -51q-78 0 -100 49q-86 154 -230.5 583t-187.5 591q-6 22 -6 32z " />
<glyph unicode="W" horiz-adv-x="1589" d="M51 1249v11q0 27 19.5 42t48.5 15q55 0 65 -51q0 -10 45 -225.5t109.5 -492t103.5 -403.5q106 336 267 1072q4 31 28.5 48t57.5 17q72 0 86 -65q43 -203 124.5 -543t141.5 -529q39 125 102.5 402.5t108.5 496t47 222.5q12 51 68 51q29 0 47 -15.5t18 -41.5v-11l-4 -20 q-20 -137 -129 -614.5t-156 -563.5q-27 -51 -102 -51q-74 0 -100 51q-29 55 -106 334t-124 494q-16 47 -22 92q-6 -47 -25 -94q-49 -223 -125 -502t-106 -330q-27 -45 -97 -45q-72 0 -100 49q-47 84 -156.5 564.5t-130.5 615.5z" />
<glyph unicode="X" horiz-adv-x="1003" d="M51 66q0 16 10 32l385 617q-172 268 -354 497q-14 20 -14 41q0 29 21.5 46.5t47.5 17.5q31 0 54 -23q147 -186 325 -450l277 448q16 25 53 25q29 0 48.5 -17.5t19.5 -44.5q0 -20 -11 -36l-307 -500q215 -346 340 -623q8 -14 8 -30q0 -29 -19.5 -47.5t-47.5 -18.5 q-45 0 -60 37q-123 260 -301 553l-352 -557q-18 -33 -57 -33q-66 0 -66 66z" />
<glyph unicode="Y" horiz-adv-x="995" d="M51 1255q0 27 19.5 44.5t50.5 17.5q49 0 61 -45q33 -84 144.5 -323.5t169.5 -307.5q57 66 169.5 305.5t151.5 335.5q16 35 60 35q66 0 65 -62q0 -12 -4 -24l-18 -45q-68 -164 -176.5 -380t-180.5 -284v-454q0 -29 -19.5 -48.5t-48 -19.5t-48 19.5t-19.5 48.5v454 q-72 68 -175 270.5t-169 366.5l-29 72q-4 20 -4 24z" />
<glyph unicode="Z" horiz-adv-x="958" d="M51 66v22q0 35 17 64q100 201 645 1034h-594q-29 0 -48.5 19.5t-19.5 48t19.5 46t48.5 17.5h690q29 0 48.5 -17.5t19.5 -46.5v-24q0 -45 -23 -74q-80 -111 -313.5 -481.5t-331.5 -542.5h631q29 0 48 -18.5t19 -47t-19.5 -47t-47.5 -18.5h-721q-29 0 -48.5 18.5 t-19.5 47.5z" />
<glyph unicode="[" horiz-adv-x="765" d="M195 -160v1415q0 29 18 45.5t49 16.5h244q66 0 65 -62q0 -29 -18 -49t-47 -20h-176v-1278h176q29 0 47 -19.5t18 -48t-18 -46t-47 -17.5h-244q-29 0 -48 17t-19 46z" />
<glyph unicode="\" horiz-adv-x="849" d="M90 1354q0 29 21.5 45t50.5 16q43 0 59 -41l533 -1417q4 -12 4 -23q0 -29 -19.5 -47t-46.5 -18q-51 0 -65 43l-531 1417q-6 15 -6 25z" />
<glyph unicode="]" horiz-adv-x="765" d="M195 -159.5q0 28.5 19 48t48 19.5h174v1278h-174q-29 0 -48 20.5t-19 49t18 45t49 16.5h244q31 0 49 -16.5t18 -45.5v-1415q0 -29 -19 -46t-48 -17h-244q-29 0 -48 17.5t-19 46z" />
<glyph unicode="^" horiz-adv-x="1060" d="M123 541q0 18 10 43l338 694q18 39 61 39q45 0 60 -39l334 -694q12 -25 12 -45q0 -25 -20.5 -44.5t-49.5 -19.5q-47 0 -61 37l-275 582l-280 -582q-18 -35 -62 -35q-29 0 -48 17.5t-19 46.5z" />
<glyph unicode="_" horiz-adv-x="1048" d="M72 -127q0 29 19.5 47.5t47.5 18.5h770q29 0 48.5 -18.5t19.5 -47.5t-19.5 -47.5t-48.5 -18.5h-770q-29 0 -48 18.5t-19 47.5z" />
<glyph unicode="`" horiz-adv-x="686" d="M113 1292q0 31 17 49.5t44 18.5q4 0 21 -4l331 -137q45 -20 45 -64q0 -27 -16 -46t-45 -19q-16 0 -31 8l-321 133q-45 20 -45 61z" />
<glyph unicode="a" horiz-adv-x="935" d="M92 279q0 287 397 286h162v103q0 57 -48 108t-142 51q-117 0 -219 -53q-16 -10 -37 -10q-29 0 -47.5 19.5t-18.5 45.5q0 35 29 54q43 29 126 52t167 23q160 0 242.5 -90t82.5 -200v-453q0 -70 21 -78q57 -25 57 -71q0 -31 -18.5 -48.5t-46.5 -17.5q-78 0 -115 72 q-98 -82 -256 -82q-135 0 -235.5 73t-100.5 216zM231 279q0 -76 58.5 -118t138.5 -42q74 0 138.5 22.5t84.5 46.5v248h-162q-258 1 -258 -157z" />
<glyph unicode="b" d="M154 129v1212q0 29 19.5 48.5t48 19.5t48 -19.5t19.5 -48.5v-434q88 51 211 51q195 0 311.5 -132t116.5 -349q0 -221 -120 -354t-312 -133q-86 0 -180.5 24.5t-143.5 71.5q-18 20 -18 43zM289 164q92 -45 207 -45q141 0 216.5 106.5t75.5 251.5q0 162 -77.5 256 t-210.5 94q-66 0 -128.5 -20.5t-82.5 -36.5v-606z" />
<glyph unicode="c" horiz-adv-x="960" d="M92 477q0 203 137.5 342t333.5 139q139 0 260 -77q29 -16 29 -58q0 -29 -18.5 -47t-47.5 -18q-20 0 -36 10q-84 59 -187 59q-143 0 -237.5 -100t-94.5 -250q0 -145 75 -251.5t218 -106.5q119 0 244 69q14 8 35 9q27 0 46 -19.5t19 -48.5q0 -31 -34 -57q-150 -82 -310 -82 q-193 0 -312.5 133t-119.5 354z" />
<glyph unicode="d" horiz-adv-x="1015" d="M90 475q0 213 124 348t321 135q113 0 196 -51v434q0 29 19.5 48.5t48 19.5t48 -19.5t19.5 -48.5v-1126q0 -68 23 -78q57 -25 57 -69q0 -29 -19.5 -48.5t-47.5 -19.5q-76 0 -115 70q-133 -80 -240 -80q-193 0 -313.5 133t-120.5 352zM229 477q0 -145 76 -251.5t219 -106.5 q88 0 207 67v584q-92 57 -196 57q-135 0 -220.5 -97t-85.5 -253z" />
<glyph unicode="e" horiz-adv-x="958" d="M92 471q0 221 116 354t308 133q156 0 250 -86t94 -188q0 -84 -41 -141.5t-127 -89t-192.5 -45t-261.5 -15.5q12 -117 83.5 -195.5t184.5 -78.5q119 0 262 71q18 8 35 9q27 0 45 -19.5t18 -46.5q0 -37 -32 -57l-33 -17q-139 -70 -295 -69q-184 0 -299 132t-115 349z M231 516q262 4 376 44t114 124q0 51 -54.5 97t-150.5 46q-125 0 -200 -80.5t-85 -230.5z" />
<glyph unicode="f" horiz-adv-x="665" d="M10 880.5q0 28.5 19.5 47t48.5 18.5h106q6 117 38 204t73 134t95 74.5t94 36t79 8.5q92 0 162 -29q43 -14 43 -63q0 -61 -66 -62h-10q-4 0 -16 4q-59 18 -113 19q-37 0 -71.5 -12.5t-73.5 -44t-65.5 -100t-33.5 -169.5h236q29 0 48.5 -18.5t19.5 -47t-19.5 -47 t-48.5 -18.5h-238v-747q0 -29 -19 -48.5t-48 -19.5t-48.5 19.5t-19.5 48.5v747h-104q-29 0 -48.5 18.5t-19.5 47z" />
<glyph unicode="g" horiz-adv-x="1001" d="M0 -258q0 25 17.5 45t48.5 20q23 0 43 -14q121 -74 219 -74q82 0 155.5 26t142 102.5t83.5 197.5q-80 -55 -211 -55q-190 0 -307 132t-117 355q0 211 122.5 346t319.5 135q164 0 297 -81q35 -20 35 -64v-709q0 -139 -49 -243.5t-129 -161.5t-166 -84t-176 -27 q-158 0 -269 76l-30 21q-29 22 -29 57zM213 477q0 -164 78 -261t207 -97q61 0 126.5 25.5t88.5 48.5v589q-86 45 -197 45q-137 0 -220 -98t-83 -252z" />
<glyph unicode="h" horiz-adv-x="1019" d="M154 68v1273q0 29 19.5 48.5t48 19.5t48 -19.5t19.5 -48.5v-448q117 66 241 65q193 0 264.5 -87t71.5 -267v-536q0 -29 -19.5 -48.5t-48 -19.5t-48 19.5t-19.5 48.5v522q0 139 -48 188t-181 49q-127 0 -213 -55v-704q0 -29 -19.5 -48.5t-48 -19.5t-48 19.5t-19.5 48.5z " />
<glyph unicode="i" horiz-adv-x="440" d="M154 68v811q0 29 19.5 48t48 19t48 -19.5t19.5 -47.5v-811q0 -29 -19.5 -48.5t-48 -19.5t-48 19.5t-19.5 48.5zM154 1188v69q0 29 19.5 48.5t48 19.5t48 -19.5t19.5 -48.5v-69q0 -29 -19.5 -48.5t-48 -19.5t-48 19.5t-19.5 48.5z" />
<glyph unicode="j" horiz-adv-x="444" d="M-293 -295q0 27 19.5 47.5t48.5 20.5q25 0 49 -19q37 -37 131 -37q72 0 136.5 65.5t64.5 207.5v889q0 29 19.5 48t48 19t48 -19.5t19.5 -47.5v-889q0 -113 -34 -196t-88 -126t-108.5 -62.5t-105.5 -19.5q-82 0 -139.5 21.5t-77.5 42.5q-31 26 -31 55zM156 1188v72 q0 29 19.5 47t48 18t48 -18.5t19.5 -46.5v-72q0 -29 -19.5 -48.5t-48 -19.5t-48 19.5t-19.5 48.5z" />
<glyph unicode="k" horiz-adv-x="886" d="M154 68v1273q0 29 19.5 48.5t49.5 19.5q29 0 47.5 -19.5t18.5 -48.5v-753h24l336 338q20 20 51 20q29 0 48.5 -19.5t19.5 -45.5q0 -29 -20 -50l-302 -296q219 -158 400 -431q12 -18 12 -38q0 -27 -19.5 -46.5t-47.5 -19.5q-33 0 -52 29q-117 168 -230.5 277.5 t-176.5 150.5h-43v-389q0 -29 -18.5 -48.5t-47.5 -19.5q-31 0 -50 19.5t-19 48.5z" />
<glyph unicode="l" horiz-adv-x="489" d="M154 348v993q0 29 19.5 48.5t48 19.5t48 -19.5t19.5 -48.5v-993q0 -137 20.5 -177t83.5 -40q29 0 48.5 -18.5t19.5 -47t-19.5 -47t-48.5 -18.5q-139 0 -189 72.5t-50 275.5z" />
<glyph unicode="m" horiz-adv-x="1548" d="M154 68v813q0 29 17 47t46 18q63 0 64 -59q102 72 237 71q176 0 250 -86q131 86 299 86q172 0 250 -81.5t78 -266.5v-542q0 -29 -20.5 -48.5t-49.5 -19.5t-47 19.5t-18 48.5v522q0 139 -48.5 188t-173.5 49q-123 0 -219 -53q23 -74 23 -164v-542q0 -29 -19.5 -48.5 t-48.5 -19.5t-48 19.5t-19 48.5v522q0 139 -47.5 188t-170.5 49q-115 0 -200 -55v-704q0 -29 -19.5 -48.5t-48 -19.5t-48 19.5t-19.5 48.5z" />
<glyph unicode="n" d="M154 68v813q0 29 17 47t46 18t46.5 -17.5t17.5 -41.5q27 20 96 45.5t153 25.5q178 0 256 -81.5t78 -266.5v-542q0 -29 -19.5 -48.5t-48 -19.5t-48 19.5t-19.5 48.5v522q0 139 -48 188t-179 49q-127 0 -213 -55v-704q0 -29 -19.5 -48.5t-48 -19.5t-48 19.5t-19.5 48.5z " />
<glyph unicode="o" horiz-adv-x="1009" d="M92 471q0 219 115 353t299 134t298 -134t114 -353q0 -223 -111 -352t-301 -129q-184 0 -299 132t-115 349zM231 471q0 -162 74 -257t201 -95q129 0 200.5 93t71.5 259t-72.5 261t-199.5 95t-201 -96t-74 -260z" />
<glyph unicode="p" d="M154 -387v1268q0 27 17 46t46 19t46.5 -18.5t17.5 -38.5q100 70 217 69q193 0 311.5 -132t118.5 -347t-124 -352t-321 -137q-57 0 -115.5 17.5t-78.5 29.5v-424q0 -29 -19.5 -48.5t-48 -19.5t-48 19.5t-19.5 48.5zM289 178q86 -59 194 -59q137 0 221 102.5t84 257.5 q0 160 -77.5 254t-212.5 94q-117 0 -209 -57v-592z" />
<glyph unicode="q" horiz-adv-x="1019" d="M92 475q0 219 121 351t313 132q164 0 308 -84q33 -18 32 -57v-1208q0 -29 -19.5 -48.5t-48 -19.5t-48 19.5t-19.5 48.5v426q-96 -45 -213 -45q-193 0 -309.5 133t-116.5 352zM231 475q0 -162 78 -259t209 -97q61 0 126 19.5t87 37.5v604q-104 47 -205 47 q-143 0 -219 -104.5t-76 -247.5z" />
<glyph unicode="r" horiz-adv-x="720" d="M154 68v813q0 29 19.5 47t48 18t47 -18.5t18.5 -46.5v-90q16 55 86.5 111t163.5 56q49 0 99 -17t50 -60q0 -66 -65 -66q-12 0 -41 6t-43 6q-37 0 -73 -12t-79 -48t-69.5 -121t-26.5 -208v-370q0 -29 -19.5 -48.5t-48 -19.5t-48 19.5t-19.5 48.5z" />
<glyph unicode="s" horiz-adv-x="843" d="M92 135q0 29 19.5 46.5t46.5 17.5q23 0 39 -11q111 -70 227 -69q188 0 188 139q0 51 -49 89t-119.5 65.5t-142.5 59.5t-121 91.5t-49 141.5q0 123 96.5 188t223.5 65q139 0 237 -57q33 -14 33 -57q0 -29 -18.5 -46.5t-45.5 -17.5q-25 0 -41 8q-84 39 -165 39 q-76 0 -128.5 -29.5t-52.5 -92.5q0 -49 49.5 -85t120 -63t142 -59.5t121 -93t49.5 -146.5q0 -115 -91.5 -191.5t-236.5 -76.5q-166 0 -301 84q-31 24 -31 61z" />
<glyph unicode="t" horiz-adv-x="724" d="M4 882.5q0 28.5 19.5 46t48.5 17.5h102v213q0 29 19.5 48.5t48 19.5t48 -19.5t19.5 -48.5v-213h242q29 0 48 -17.5t19 -46t-19 -48t-48 -19.5h-242v-465q0 -137 54.5 -184t140.5 -47q51 0 94 24q14 8 31 9q27 0 46 -18.5t19 -47.5q0 -41 -32 -59q-66 -37 -152 -37 q-72 0 -124 12t-104.5 47t-80 111t-27.5 190v465h-102q-29 0 -48.5 19.5t-19.5 48z" />
<glyph unicode="u" d="M154 334v545q0 29 19.5 48t48 19t48 -19.5t19.5 -47.5v-525q0 -139 47 -187t180 -48q68 0 126 25.5t87 54.5v680q0 29 19.5 48t48 19t48 -19.5t19.5 -47.5v-811q0 -29 -17.5 -48.5t-46 -19.5t-46 18.5t-17.5 47.5v8q-102 -84 -250 -84q-180 0 -256.5 80t-76.5 264z" />
<glyph unicode="v" horiz-adv-x="886" d="M31 885q0 29 18.5 45t48.5 16q49 0 64 -47q143 -430 282 -749q139 319 283 749q16 47 64 47q29 0 48 -17.5t19 -45.5q0 -18 -8 -41q-25 -78 -143.5 -388.5t-171.5 -408.5q-29 -45 -91 -45q-70 0 -90 45q-53 98 -172 408.5t-143 388.5q-8 23 -8 43z" />
<glyph unicode="w" horiz-adv-x="1316" d="M31 881q0 66 67 65q55 0 66 -51q0 -8 31.5 -141t81 -316.5t85.5 -277.5q20 53 216 725q16 61 81 61q31 0 52.5 -17.5t27.5 -43.5q20 -90 97 -353.5t118 -371.5q37 96 86.5 277t81 314.5t31.5 141.5q10 53 68 53q66 0 65 -67q0 -4 -4 -33q-190 -719 -238 -803 q-27 -43 -90 -43q-59 0 -84 45q-23 47 -87 236.5t-101 332.5q-16 31 -23 68q-10 -47 -22 -68q-37 -143 -101.5 -332.5t-86.5 -236.5q-27 -45 -84 -45q-61 0 -91 43q-35 63 -126 377.5t-113 425.5q-4 29 -4 35z" />
<glyph unicode="x" horiz-adv-x="808" d="M31 66q0 23 12 38l297 416q-90 113 -266 299l-15 15q-20 29 -20 47q0 29 21.5 47t48.5 18q25 0 51 -22q111 -100 262 -291l203 285q23 29 55 28q29 0 49.5 -19.5t20.5 -47.5q0 -23 -17 -43l-227 -310q178 -238 262 -422q10 -25 10 -38q0 -29 -19.5 -47.5t-47.5 -18.5 q-45 0 -62 39q-80 166 -225 373l-270 -383q-23 -29 -56 -29q-29 0 -48 19.5t-19 46.5z" />
<glyph unicode="y" horiz-adv-x="862" d="M-221 -262q0 29 20.5 47t46.5 18q23 0 39 -14q31 -25 47.5 -36t56.5 -24.5t89 -13.5q98 0 164.5 65.5t146.5 262.5q-6 4 -39 55q-51 100 -127 283.5t-126 320t-56 158.5q-4 12 -4 25q0 61 69 61q43 0 64 -51q147 -430 250 -629q12 -29 31 -53q18 55 112 308t139 380 q18 45 64 45q29 0 48.5 -18.5t19.5 -46.5q0 -12 -9 -31l-274 -756q-109 -291 -215.5 -400.5t-257.5 -109.5q-162 0 -275 101q-24 18 -24 53z" />
<glyph unicode="z" horiz-adv-x="929" d="M92 68v14q0 23 17 51q39 74 217 302.5t307 379.5h-471q-29 0 -48.5 17.5t-19.5 46t19.5 48t48.5 19.5h573q68 0 68 -65v-17q0 -29 -23 -69q-47 -70 -262 -332t-258 -332h510q31 0 49.5 -17.5t18.5 -46t-18.5 -48t-49.5 -19.5h-612q-31 0 -48.5 18.5t-17.5 49.5z" />
<glyph unicode="{" horiz-adv-x="761" d="M154 549q0 39 28 59q2 0 11.5 6.5t13.5 10.5t12 13t11 24.5t3 33.5v418q0 106 76 160.5t199 54.5q102 0 102 -67q0 -63 -82 -64q-160 0 -159 -90v-412q0 -92 -47 -147q47 -55 47 -143v-412q0 -88 159 -88q80 0 80 -62q0 -70 -90 -69q-117 0 -201 47t-84 164v415 q0 18 -3 33t-11 24t-12 14t-14 11l-11 6q-28 21 -28 60z" />
<glyph unicode="|" horiz-adv-x="536" d="M201 -63v1366q0 29 18.5 48t48.5 19q29 0 48.5 -19.5t19.5 -47.5v-1366q0 -29 -19.5 -48.5t-48 -19.5t-48 19.5t-19.5 48.5z" />
<glyph unicode="}" horiz-adv-x="761" d="M154 1262q0 68 102 67q123 0 198.5 -54t75.5 -161v-418q0 -18 3.5 -33.5t11.5 -24.5t12 -13t13.5 -10.5t11.5 -6.5q29 -20 28.5 -59t-28.5 -60l-11 -6q-10 -6 -14 -11t-12 -14t-11.5 -23.5t-3.5 -33.5v-415q0 -117 -84 -164t-200 -47q-90 0 -90 69q0 61 80 62 q160 0 159 88v412q0 88 47 143q-47 55 -47 147v412q0 90 -159 90q-82 1 -82 64z" />
<glyph unicode="~" horiz-adv-x="800" d="M115 889q0 16 10 37q49 72 156 71q51 0 120.5 -21.5t120.5 -21.5q23 0 55.5 19.5t47.5 19.5q27 0 45 -16t18 -47q0 -14 -10 -31q-49 -72 -156 -72q-51 0 -120.5 21.5t-120.5 21.5q-23 0 -55.5 -19.5t-47.5 -19.5q-63 1 -63 58z" />
<glyph unicode="&#xa1;" horiz-adv-x="522" d="M195 -279v881q0 29 19 48.5t48 19.5t48.5 -19.5t19.5 -48.5v-881q0 -29 -19.5 -48t-48.5 -19t-48 19t-19 48zM195 840v69q0 29 19 47.5t48 18.5t48.5 -18.5t19.5 -47.5v-69q0 -29 -19.5 -48.5t-48.5 -19.5t-48 19.5t-19 48.5z" />
<glyph unicode="&#xa2;" horiz-adv-x="1286" d="M256 477q0 176 104.5 306t272.5 165v62q0 29 19.5 48t48 19t48 -19.5t19.5 -47.5v-54q119 -12 219 -75q29 -16 29 -58q0 -29 -18.5 -47t-47.5 -18q-20 0 -37 10q-84 59 -186 59q-143 0 -237.5 -100t-94.5 -250q0 -145 75 -251.5t218 -106.5q119 0 244 69q14 8 35 9 q27 0 46 -19.5t19 -48.5q0 -31 -35 -57q-104 -59 -229 -76v-49q0 -29 -19.5 -48.5t-48 -19.5t-48 19.5t-19.5 48.5v47q-168 12 -272.5 147t-104.5 336z" />
<glyph unicode="&#xa3;" horiz-adv-x="1366" d="M256 66q0 39 29 61q152 98 151 235q0 98 -20 193h-86q-29 0 -48.5 19.5t-19.5 48t19.5 46t48.5 17.5h67q-4 66 -4 94q0 252 115 385t270 133q113 0 166 -34q39 -23 39 -60q0 -25 -14.5 -44t-38.5 -19q-16 0 -35 6q-55 23 -117 22q-102 0 -176 -101t-74 -288q0 -45 7 -94 h301q29 0 47 -17.5t18 -46t-18.5 -48t-46.5 -19.5h-285l10 -61q10 -78 10 -132q0 -82 -32.5 -142t-71.5 -89h575q29 0 48.5 -18.5t19.5 -47t-19.5 -47t-48.5 -18.5h-718q-29 0 -48.5 18.5t-19.5 47.5z" />
<glyph unicode="&#xa4;" horiz-adv-x="1177" d="M193 573q0 131 75 226l-35 35q-20 20 -20 47q0 29 21.5 48t48.5 19q29 0 49 -18l35 -35q109 70 221 70q133 0 227 -70l35 35q18 18 47 18q27 0 47.5 -21.5t20.5 -49.5q0 -27 -17 -43l-37 -35q72 -106 72 -226q0 -123 -74 -223l33 -33q23 -23 23 -51q0 -27 -21.5 -47 t-50.5 -20q-31 0 -78 53q-96 -72 -227 -72t-226 72q-47 -53 -77 -53q-29 0 -50.5 20.5t-21.5 47t23 48.5l32 31q-75 102 -75 227zM332 573q0 -104 75.5 -183t180.5 -79q106 0 181 78t75 184.5t-75 183.5t-181 77q-104 0 -180 -77.5t-76 -183.5z" />
<glyph unicode="&#xa5;" horiz-adv-x="1390" d="M250 336q0 29 18.5 47t46.5 18h314v121h-314q-27 0 -46 18.5t-19 47t18.5 47t46.5 18.5h217q-49 90 -100 197.5t-105.5 225.5t-64.5 141q-10 16 -10 43q0 25 17.5 41t47.5 16q45 0 70 -53q270 -569 295 -611h25q23 37 55.5 102.5t59 120t87 182.5t97.5 206q25 53 73 53 q29 0 45.5 -18.5t16.5 -38.5q0 -18 -11 -43q-209 -438 -274 -564h188q29 0 47.5 -18.5t18.5 -47t-19.5 -47t-46.5 -18.5h-280v-121h280q29 0 47.5 -18t18.5 -47t-18.5 -47.5t-47.5 -18.5h-280v-202q0 -29 -19.5 -48.5t-48 -19.5t-48 19.5t-19.5 48.5v202h-314 q-29 0 -47 18.5t-18 47.5z" />
<glyph unicode="&#xa6;" horiz-adv-x="522" d="M195 68v485q0 29 19 48.5t48 19.5t48.5 -19.5t19.5 -48.5v-485q0 -29 -19.5 -48.5t-48.5 -19.5t-48 19.5t-19 48.5zM195 965v485q0 29 19 48.5t48 19.5t48.5 -19.5t19.5 -48.5v-485q0 -29 -19.5 -48.5t-48.5 -19.5t-48 19.5t-19 48.5z" />
<glyph unicode="&#xa7;" horiz-adv-x="1292" d="M297 -39q0 29 19.5 45.5t43.5 16.5q20 0 43 -13q131 -66 226 -65q88 0 137 47t49 114q0 70 -53 119t-128 81t-149.5 67t-128 99.5t-53.5 156.5q0 86 56.5 152.5t144.5 105.5q-76 47 -116 102t-40 139q0 125 95.5 190.5t224.5 65.5t245 -63q39 -20 39 -61 q0 -29 -18.5 -48.5t-44.5 -19.5q-14 0 -47 16q-90 51 -183 52q-66 0 -119 -29t-53 -94q0 -63 53.5 -108.5t128 -77t149.5 -68.5t128 -105.5t53 -167.5q0 -174 -176 -252q131 -90 131 -237q0 -121 -95 -211t-243 -90q-68 0 -138 19.5t-102 35.5t-50 29q-29 18 -29 57z M438 637q0 -39 17.5 -68.5t55.5 -55.5t69.5 -40t89.5 -39q16 -6 24 -10q76 23 123 67t47 105q0 43 -16.5 77t-55 61.5t-66.5 42t-89 42.5q-80 -25 -139.5 -72t-59.5 -110z" />
<glyph unicode="&#xa8;" horiz-adv-x="620" d="M113 1157v70q0 29 19.5 47t48 18t48 -18.5t19.5 -46.5v-70q0 -29 -19.5 -48t-48 -19t-48 19t-19.5 48zM373 1157v70q0 29 19.5 47t48 18t48 -18.5t19.5 -46.5v-70q0 -29 -19.5 -48t-48 -19t-48 19t-19.5 48z" />
<glyph unicode="&#xa9;" horiz-adv-x="1724" d="M195 838q0 274 195.5 470.5t469.5 196.5q276 0 474 -196.5t198 -470.5q0 -276 -197.5 -472t-474.5 -196q-274 0 -469.5 196t-195.5 472zM295 838q0 -236 167 -404t398 -168q236 0 404 168t168 404q0 233 -168 401t-404 168q-231 0 -398 -168t-167 -401zM537 850 q0 160 94 266.5t237 106.5q135 0 213 -60q23 -23 23 -43q0 -18 -15.5 -32.5t-33.5 -14.5q-16 0 -27 6q-68 47 -160 47q-98 0 -163.5 -79.5t-65.5 -196.5q0 -119 60.5 -198t156.5 -79q88 0 166 48q6 6 27 6q51 0 51 -49q0 -20 -19 -39q-94 -61 -225 -62q-139 0 -229 105.5 t-90 267.5z" />
<glyph unicode="&#xaa;" horiz-adv-x="1134" d="M266 815q0 219 309 219h101v68q0 47 -33 74.5t-86 27.5q-63 0 -120.5 -23.5t-67.5 -23.5q-29 0 -48.5 19.5t-19.5 46.5q0 14 8 28q51 84 248 84q68 0 118 -23.5t74.5 -55t40 -68.5t18.5 -57.5t3 -28.5v-352q0 -12 26.5 -35t26.5 -49q0 -72 -67 -72q-51 0 -82 47 q-86 -57 -180 -57q-106 0 -187.5 59t-81.5 172zM406 815q0 -51 37.5 -77.5t91.5 -26.5q96 0 141 49v158h-101q-169 -1 -169 -103z" />
<glyph unicode="&#xab;" horiz-adv-x="903" d="M133 469q0 20 10 37l203 295q20 27 55 26q29 0 48.5 -18t19.5 -47q0 -18 -14 -39l-179 -254l183 -268q12 -20 12 -37q0 -29 -21.5 -48.5t-50.5 -19.5q-31 0 -53 29l-205 309q-8 10 -8 35zM432 469q0 20 10 37l203 295q20 27 55 26q29 0 48.5 -18t19.5 -47q0 -18 -14 -39 l-179 -254l183 -268q12 -20 12 -37q0 -29 -20.5 -48.5t-49.5 -19.5q-33 0 -55 29l-205 309q-8 10 -8 35z" />
<glyph unicode="&#xac;" horiz-adv-x="1228" d="M160 485.5q0 28.5 19.5 46t47.5 17.5h772q29 0 48.5 -17.5t19.5 -46.5v-258q0 -29 -19.5 -48t-48 -19t-48 19.5t-19.5 47.5v191h-705q-29 0 -48 19.5t-19 48z" />
<glyph unicode="&#xad;" horiz-adv-x="899" d="M154 483.5q0 28.5 19.5 47t47.5 18.5h457q29 0 48 -18.5t19 -47t-19 -47t-48 -18.5h-457q-29 0 -48 18.5t-19 47z" />
<glyph unicode="&#xae;" horiz-adv-x="1724" d="M195 838q0 274 195.5 470.5t472 196.5t473 -195.5t196.5 -472t-195.5 -472t-474.5 -195.5q-276 0 -471.5 196t-195.5 472zM295 838q0 -236 167 -404t400 -168q236 0 403 168t167 404q0 233 -167 401t-403 168q-233 0 -400 -168t-167 -401zM647 535v634q0 23 14.5 37.5 t34.5 14.5h164q96 0 158.5 -56.5t62.5 -144.5q0 -49 -14 -86t-36.5 -56.5t-39 -28.5t-30.5 -13q86 -74 151 -285q2 -2 2 -10v-9q0 -47 -49 -47q-37 0 -47 37q-41 135 -93.5 211t-101.5 76h-78v-274q0 -49 -49 -49t-49 49zM745 903h115q23 0 45.5 6t48 34t25.5 77 q0 45 -33 74.5t-86 29.5h-115v-221z" />
<glyph unicode="&#xaf;" horiz-adv-x="817" d="M113 1157q0 29 19.5 46.5t47.5 17.5h457q29 0 48.5 -17.5t19.5 -46.5t-19.5 -48t-48.5 -19h-457q-29 0 -48 19t-19 48z" />
<glyph unicode="&#xb0;" horiz-adv-x="931" d="M152 885q0 164 85 264t226 100t230 -101t89 -263q0 -170 -85 -265.5t-234 -95.5q-147 0 -229 94.5t-82 266.5zM291 885q0 -106 46 -169t126 -63q84 0 132 62.5t48 169.5q0 96 -46 165.5t-134 69.5q-86 0 -129 -71.5t-43 -163.5z" />
<glyph unicode="&#xb1;" horiz-adv-x="1228" d="M184 65.5q0 28.5 19.5 47t48.5 18.5h725q29 0 48 -18.5t19 -47t-19 -47t-48 -18.5h-725q-29 0 -48.5 18.5t-19.5 47zM184 649.5q0 28.5 19.5 46t48.5 17.5h295v297q0 29 19.5 48t48 19t48 -19.5t19.5 -47.5v-297h295q29 0 48 -17.5t19 -46t-19 -48t-48 -19.5h-295v-297 q0 -29 -19.5 -48.5t-48 -19.5t-48 19.5t-19.5 48.5v297h-295q-29 0 -48.5 19.5t-19.5 48z" />
<glyph unicode="&#xb2;" horiz-adv-x="825" d="M186 668q0 41 28 88t56.5 79.5t79.5 84t76 78t49.5 63.5t24.5 63q0 100 -103 101q-59 0 -108 -35q-12 -12 -37 -12q-20 0 -33.5 15t-13.5 36q0 25 24 43q70 51 168 51q31 0 59.5 -6t65.5 -24.5t59.5 -61.5t22.5 -107q0 -106 -176 -270q-86 -84 -121 -137h248 q51 0 51 -49.5t-51 -49.5h-319q-18 0 -34 13.5t-16 36.5z" />
<glyph unicode="&#xb3;" horiz-adv-x="839" d="M188 708.5q0 22.5 15.5 36t36.5 13.5q18 0 41 -17q35 -31 118 -30q51 0 86 31.5t35 74.5q0 55 -41 81t-98 26h-29q-49 0 -49 49t49 49h29q53 0 90 25.5t37 76.5q0 100 -111 101q-59 0 -106 -37q-10 -10 -31 -10q-18 0 -33.5 14t-15.5 37q0 27 20 39q78 55 166 55 q90 0 152.5 -48t62.5 -147q0 -117 -82 -153q41 -18 68 -62.5t27 -93.5q0 -88 -66.5 -147.5t-159.5 -59.5q-137 0 -194 58q-17 16 -17 38.5z" />
<glyph unicode="&#xb4;" horiz-adv-x="686" d="M113 1151q0 49 43 63l325 138q14 6 27 6q29 0 48 -17.5t19 -46.5q0 -41 -43 -61l-327 -137q-16 -6 -27 -6q-27 0 -46 16t-19 45z" />
<glyph unicode="&#xb5;" horiz-adv-x="1015" d="M154 -154v1037q0 29 19.5 47t48 18t48 -18.5t19.5 -46.5v-543q0 -127 50 -174t177 -47q115 0 215 78v686q0 29 19.5 47t48 18t48 -18.5t19.5 -46.5v-815q0 -29 -17.5 -48.5t-46 -19.5t-46 16.5t-17.5 40.5q-106 -68 -223 -67.5t-168 26.5q-49 16 -59 35v-205 q0 -29 -19.5 -48t-48 -19t-48 19t-19.5 48z" />
<glyph unicode="&#xb6;" horiz-adv-x="1271" d="M154 963q0 152 108.5 253t269.5 101h519q29 0 48 -18.5t19 -47t-19.5 -47t-47.5 -18.5h-37v-1288q0 -29 -19.5 -48.5t-48 -19.5t-48 19.5t-19.5 48.5v1288h-105v-1288q0 -29 -19.5 -48.5t-48 -19.5t-48 19.5t-19.5 48.5v677h-107q-152 0 -265 95.5t-113 292.5z" />
<glyph unicode="&#xb7;" horiz-adv-x="479" d="M154 545q0 39 24.5 63.5t61 24.5t61.5 -24.5t25 -63.5q0 -37 -25 -60.5t-61.5 -23.5t-61 23.5t-24.5 60.5z" />
<glyph unicode="&#xb8;" horiz-adv-x="546" d="M113 -164q0 12 4 33l35 156q8 33 36 32q33 0 33 -39q0 -4 -12 -54t-16 -60q39 14 81 14q68 0 114 -47t46 -125q0 -88 -59.5 -137t-136.5 -49q-53 0 -84 18.5t-31 44.5q0 45 47 45q4 0 26.5 -6t47.5 -6q33 0 62.5 24.5t29.5 65.5q0 80 -70 80q-43 0 -71 -12l-19 -11 q-12 -4 -20 -4q-43 0 -43 37z" />
<glyph unicode="&#xb9;" horiz-adv-x="634" d="M156 1192q0 29 24 43l107 72q10 10 32 10q20 0 35 -14.5t15 -38.5v-592q0 -23 -14.5 -38.5t-37 -15.5t-37 15.5t-14.5 38.5v499l-41 -24q-8 -6 -22 -6q-18 0 -32.5 13t-14.5 38z" />
<glyph unicode="&#xba;" horiz-adv-x="1181" d="M266 954q0 170 91.5 275.5t234.5 105.5q141 0 232 -105.5t91 -275.5q0 -172 -87 -271t-236 -99q-143 0 -234.5 103t-91.5 267zM406 954q0 -109 50 -174t136 -65t135 64.5t49 174.5q0 115 -49 182.5t-135 67.5t-136 -68.5t-50 -181.5z" />
<glyph unicode="&#xbb;" horiz-adv-x="903" d="M133 164q0 20 12 37l181 268l-179 254q-14 20 -14 39q0 29 19.5 47t48.5 18q35 0 55 -26l205 -295q10 -25 10 -37q0 -18 -10 -35l-205 -309q-23 -29 -53 -29q-29 0 -49.5 19.5t-20.5 48.5zM432 164q0 16 12 37l181 268l-179 254q-12 16 -12 39q0 29 18.5 47t47.5 18 q37 0 57 -26l203 -295q10 -25 10 -37q0 -18 -10 -35l-203 -309q-23 -29 -55 -29q-29 0 -49.5 19.5t-20.5 48.5z" />
<glyph unicode="&#xbc;" horiz-adv-x="1546" d="M260 1192q0 29 25 43l106 72q10 10 33 10q20 0 34.5 -14.5t14.5 -38.5v-592q0 -23 -14.5 -38.5t-37 -15.5t-36.5 15.5t-14 38.5v499l-41 -24q-10 -6 -23 -6q-20 0 -33.5 13t-13.5 38zM287 43q0 29 14 47l829 1213q14 27 54 26q18 0 31.5 -14.5t13.5 -28.5q0 -31 -15 -47 l-829 -1212q-14 -27 -53 -27q-18 0 -31.5 14.5t-13.5 28.5zM780 215q0 8 6 25q49 109 129 222t117 154t62 66q16 16 41 16q23 0 36 -14t13 -33q0 -25 -17 -41l-28 -28q-150 -162 -232 -318h180v137q0 53 52 54q20 0 35.5 -14.5t15.5 -39.5v-137h27q55 0 55 -49t-55 -49h-27 v-113q0 -23 -15.5 -38t-35.5 -15q-23 0 -37.5 15.5t-14.5 37.5v113h-256q-51 0 -51 49z" />
<glyph unicode="&#xbd;" horiz-adv-x="1656" d="M260 1192q0 29 25 43l106 72q10 10 33 10q20 0 34.5 -14.5t14.5 -38.5v-592q0 -23 -14.5 -38.5t-37 -15.5t-36.5 15.5t-14 38.5v499l-41 -24q-10 -6 -23 -6q-20 0 -33.5 13t-13.5 38zM287 43q0 29 14 47l829 1213q14 27 54 26q18 0 31.5 -14.5t13.5 -28.5q0 -31 -15 -47 l-829 -1212q-14 -27 -53 -27q-18 0 -31.5 14.5t-13.5 28.5zM965 49q0 41 27.5 88t56 80t80 84t76 78t49 63.5t24.5 63.5q0 100 -102 100q-59 0 -109 -35q-12 -12 -37 -12q-20 0 -33.5 15.5t-13.5 35.5q0 25 25 43q70 51 168 52q31 0 59.5 -6.5t65 -25t59 -61.5t22.5 -106 q0 -106 -176 -270q-86 -84 -121 -138h248q51 0 51 -49t-51 -49h-319q-18 0 -33.5 13t-15.5 36z" />
<glyph unicode="&#xbe;" horiz-adv-x="1671" d="M188 708.5q0 22.5 15.5 36t36.5 13.5q18 0 41 -17q35 -31 118 -30q51 0 86 31.5t35 74.5q0 55 -41 81t-98 26h-29q-49 0 -49 49t49 49h29q53 0 90 25.5t37 76.5q0 100 -111 101q-59 0 -106 -37q-10 -10 -31 -10q-18 0 -33.5 14t-15.5 37q0 27 20 39q78 55 166 55 q90 0 152.5 -48t62.5 -147q0 -117 -82 -153q41 -18 68 -62.5t27 -93.5q0 -88 -66.5 -147.5t-159.5 -59.5q-137 0 -194 58q-17 16 -17 38.5zM399 43q0 29 15 47l829 1213q14 27 53 26q18 0 31.5 -14.5t13.5 -28.5q0 -31 -14 -47l-829 -1212q-14 -27 -54 -27q-18 0 -31.5 14.5 t-13.5 28.5zM903 215q0 8 6 25q49 109 129 222t117 154t62 66q16 16 40 16q23 0 36.5 -14t13.5 -33q0 -25 -17 -41l-28 -28q-150 -162 -232 -318h180v137q0 53 52 54q20 0 35.5 -14.5t15.5 -39.5v-137h26q55 0 55.5 -49t-55.5 -49h-26v-113q0 -23 -15.5 -38t-35.5 -15 q-23 0 -37.5 15.5t-14.5 37.5v113h-256q-51 0 -51 49z" />
<glyph unicode="&#xbf;" horiz-adv-x="1046" d="M168 37q0 86 37 149.5t90 102.5t105.5 78t89 98t36.5 141q0 29 19.5 48.5t48.5 19.5t48.5 -19.5t19.5 -48.5q0 -98 -37 -172t-89.5 -118t-103.5 -81.5t-88 -87t-37 -110.5q0 -111 65.5 -181.5t170.5 -70.5q115 0 221 78q20 14 45 14q29 0 47 -20.5t18 -49t-26 -49.5 q-12 -12 -41 -31.5t-105.5 -46t-158.5 -26.5q-160 0 -267.5 108.5t-107.5 274.5zM526 840v69q0 29 19.5 47.5t48.5 18.5t48.5 -18.5t19.5 -47.5v-69q0 -29 -19.5 -48.5t-48.5 -19.5t-48.5 19.5t-19.5 48.5z" />
<glyph unicode="&#xc0;" horiz-adv-x="1157" d="M51 61q0 6 6 31q12 45 79 257t172.5 507t170.5 414q23 47 99 47q82 0 100 -49q43 -88 115.5 -284t134 -376t116 -344t58.5 -172q6 -25 6 -31q0 -61 -70 -61q-45 0 -59 45q-10 25 -47 142.5t-68 203.5h-573q-25 -76 -60.5 -195.5t-48.5 -150.5q-14 -45 -65 -45 q-66 0 -66 61zM285 1702q0 31 17 49t44 18q4 0 21 -4l331 -137q45 -20 45 -63q0 -27 -16 -46.5t-45 -19.5q-16 0 -31 8l-321 133q-45 21 -45 62zM336 522h485q-135 406 -243 658q-99 -230 -242 -658z" />
<glyph unicode="&#xc1;" horiz-adv-x="1157" d="M51 61q0 6 6 31q12 45 79 257t172.5 507t170.5 414q23 47 99 47q82 0 100 -49q43 -88 115.5 -284t134 -376t116 -344t58.5 -172q6 -25 6 -31q0 -61 -70 -61q-45 0 -59 45q-10 25 -47 142.5t-68 203.5h-573q-25 -76 -60.5 -195.5t-48.5 -150.5q-14 -45 -65 -45 q-66 0 -66 61zM336 522h485q-135 406 -243 658q-99 -230 -242 -658zM410 1561q0 49 43 63l325 137q14 6 27 6q29 0 48 -17t19 -46q0 -41 -43 -62l-327 -137q-14 -6 -27 -6q-27 0 -46 16.5t-19 45.5z" />
<glyph unicode="&#xc2;" horiz-adv-x="1157" d="M51 61q0 6 6 31q12 45 79 257t172.5 507t170.5 414q23 47 99 47q82 0 100 -49q43 -88 115.5 -284t134 -376t116 -344t58.5 -172q6 -25 6 -31q0 -61 -70 -61q-45 0 -59 45q-10 25 -47 142.5t-68 203.5h-573q-25 -76 -60.5 -195.5t-48.5 -150.5q-14 -45 -65 -45 q-66 0 -66 61zM264 1563q0 39 35 57l248 131q16 10 32.5 10t32.5 -10l250 -133q31 -14 31 -55q0 -29 -19.5 -46.5t-48.5 -17.5q-16 0 -32 10l-213 113l-215 -113q-25 -10 -35 -10q-29 0 -47.5 18.5t-18.5 45.5zM336 522h485q-135 406 -243 658q-99 -230 -242 -658z" />
<glyph unicode="&#xc3;" horiz-adv-x="1157" d="M51 61q0 6 6 31q12 45 79 257t172.5 507t170.5 414q23 47 99 47q82 0 100 -49q43 -88 115.5 -284t134 -376t116 -344t58.5 -172q6 -25 6 -31q0 -61 -70 -61q-45 0 -59 45q-10 25 -47 142.5t-68 203.5h-573q-25 -76 -60.5 -195.5t-48.5 -150.5q-14 -45 -65 -45 q-66 0 -66 61zM295 1561q0 20 10 41q49 72 156 71q51 0 120.5 -21.5t120.5 -21.5q23 0 56 19.5t47 19.5q27 0 45 -16.5t18 -46.5q0 -18 -10 -35q-49 -72 -156 -72q-51 0 -120.5 21.5t-120.5 21.5q-23 0 -55.5 -19.5t-47.5 -19.5q-63 1 -63 58zM336 522h485 q-135 406 -243 658q-99 -230 -242 -658z" />
<glyph unicode="&#xc4;" horiz-adv-x="1157" d="M51 61q0 6 6 31q12 45 79 257t172.5 507t170.5 414q23 47 99 47q82 0 100 -49q43 -88 115.5 -284t134 -376t116 -344t58.5 -172q6 -25 6 -31q0 -61 -70 -61q-45 0 -59 45q-10 25 -47 142.5t-68 203.5h-573q-25 -76 -60.5 -195.5t-48.5 -150.5q-14 -45 -65 -45 q-66 0 -66 61zM336 522h485q-135 406 -243 658q-99 -230 -242 -658zM381 1567v69q0 29 19.5 47.5t48 18.5t48 -18.5t19.5 -47.5v-69q0 -29 -19.5 -48.5t-48 -19.5t-48 19.5t-19.5 48.5zM641 1567v69q0 29 19.5 47.5t48 18.5t48 -18.5t19.5 -47.5v-69q0 -29 -19.5 -48.5 t-48 -19.5t-48 19.5t-19.5 48.5z" />
<glyph unicode="&#xc5;" horiz-adv-x="1157" d="M51 61q0 6 6 31q12 45 79 257t172.5 507t170.5 414q23 47 99 47q82 0 100 -49q43 -88 115.5 -284t134 -376t116 -344t58.5 -172q6 -25 6 -31q0 -61 -70 -61q-45 0 -59 45q-10 25 -47 142.5t-68 203.5h-573q-25 -76 -60.5 -195.5t-48.5 -150.5q-14 -45 -65 -45 q-66 0 -66 61zM336 522h485q-135 406 -243 658q-99 -230 -242 -658zM414 1673q0 74 50 123t124 49t124 -49t50 -123t-50 -123t-124 -49t-124 49t-50 123zM508 1675q0 -33 23.5 -56.5t56.5 -23.5t56.5 23.5t23.5 56.5t-23.5 54.5t-56.5 21.5t-56.5 -21.5t-23.5 -54.5z" />
<glyph unicode="&#xc6;" horiz-adv-x="1613" d="M51 63q0 23 8 37q43 100 267.5 557t320.5 617q25 43 90 43h637q29 0 48.5 -17.5t19.5 -46t-19.5 -48t-48.5 -19.5h-487q45 -217 65 -428h387q29 0 48.5 -18.5t19.5 -47t-19.5 -47t-48.5 -18.5h-372q31 -305 30 -484v-12h416q29 0 48.5 -18.5t19.5 -47t-19.5 -47 t-48.5 -18.5h-483q-31 0 -49.5 18.5t-18.5 49.5q0 203 -31 557q-330 -14 -469 -205l-184 -383q-23 -37 -61 -37q-31 0 -48.5 18t-17.5 45zM467 645q51 41 145.5 73t204.5 36q-27 254 -67 432q-14 0 -19 -12q-18 -31 -39 -74l-67 -135q-131 -269 -158 -320z" />
<glyph unicode="&#xc7;" horiz-adv-x="1230" d="M113 657q0 287 172 479.5t424 192.5q240 0 381 -108q29 -25 28 -58q0 -29 -20.5 -47t-45 -18t-40.5 14q-10 10 -40 27.5t-103.5 38t-159.5 20.5q-195 0 -326 -155.5t-131 -385.5q0 -233 123 -385.5t313 -152.5q160 0 313 86q14 10 35 10q29 0 48.5 -20.5t19.5 -49.5 q0 -37 -29 -53q-199 -102 -387 -102h-14q-23 -82 -23 -86q39 14 82 14q68 0 114 -47t46 -125q0 -88 -59.5 -137t-137.5 -49q-53 0 -83.5 18.5t-30.5 44.5q0 45 47 45q4 0 26.5 -6t46.5 -6q33 0 63 24.5t30 65.5q0 80 -70 80q-43 0 -72 -12l-18 -11q-12 -4 -21 -4 q-43 0 -43 37q0 12 4 33l27 129q-215 29 -352 213t-137 446z" />
<glyph unicode="&#xc8;" horiz-adv-x="1026" d="M195 66v1187q0 29 19 46.5t48 17.5h535q29 0 48 -17.5t19 -46t-19.5 -48t-47.5 -19.5h-467v-428h432q29 0 48 -18.5t19 -47t-19 -47t-48 -18.5h-432v-496h506q29 0 48 -18.5t19 -47t-19.5 -47t-47.5 -18.5h-574q-29 0 -48 18.5t-19 47.5zM272 1702q0 31 17.5 49t44.5 18 q4 0 20 -4l332 -137q45 -20 45 -63q0 -27 -16.5 -46.5t-44.5 -19.5q-16 0 -31 8l-322 133q-45 21 -45 62z" />
<glyph unicode="&#xc9;" horiz-adv-x="1026" d="M195 66v1187q0 29 19 46.5t48 17.5h535q29 0 48 -17.5t19 -46t-19.5 -48t-47.5 -19.5h-467v-428h432q29 0 48 -18.5t19 -47t-19 -47t-48 -18.5h-432v-496h506q29 0 48 -18.5t19 -47t-19.5 -47t-47.5 -18.5h-574q-29 0 -48 18.5t-19 47.5zM307 1561q0 49 43 63l326 137 q14 6 26 6q29 0 48.5 -17t19.5 -46q0 -41 -43 -62l-328 -137q-14 -6 -26 -6q-27 0 -46.5 16.5t-19.5 45.5z" />
<glyph unicode="&#xca;" horiz-adv-x="1026" d="M195 66v1187q0 29 19 46.5t48 17.5h535q29 0 48 -17.5t19 -46t-19.5 -48t-47.5 -19.5h-467v-428h432q29 0 48 -18.5t19 -47t-19 -47t-48 -18.5h-432v-496h506q29 0 48 -18.5t19 -47t-19.5 -47t-47.5 -18.5h-574q-29 0 -48 18.5t-19 47.5zM209 1563q0 39 35 57l248 131 q16 10 32.5 10t32.5 -10l250 -133q31 -14 31 -55q0 -29 -19.5 -46.5t-48.5 -17.5q-16 0 -33 10l-213 113l-215 -113q-25 -10 -35 -10q-29 0 -47 18.5t-18 45.5z" />
<glyph unicode="&#xcb;" horiz-adv-x="1026" d="M195 66v1187q0 29 19 46.5t48 17.5h535q29 0 48 -17.5t19 -46t-19.5 -48t-47.5 -19.5h-467v-428h432q29 0 48 -18.5t19 -47t-19 -47t-48 -18.5h-432v-496h506q29 0 48 -18.5t19 -47t-19.5 -47t-47.5 -18.5h-574q-29 0 -48 18.5t-19 47.5zM334 1567v69q0 29 19.5 47.5 t48 18.5t48 -18.5t19.5 -47.5v-69q0 -29 -19.5 -48.5t-48 -19.5t-48 19.5t-19.5 48.5zM594 1567v69q0 29 19.5 47.5t48 18.5t48 -18.5t19.5 -47.5v-69q0 -29 -19.5 -48.5t-48 -19.5t-48 19.5t-19.5 48.5z" />
<glyph unicode="&#xcc;" horiz-adv-x="522" d="M-31 1702q0 31 16.5 49t43.5 18q4 0 20 -4l332 -137q45 -20 45 -63q0 -27 -16.5 -46.5t-44.5 -19.5q-16 0 -31 8l-322 133q-43 25 -43 62zM195 68v1181q0 29 19 48.5t48 19.5t48.5 -19.5t19.5 -48.5v-1181q0 -29 -19.5 -48.5t-48.5 -19.5t-48 19.5t-19 48.5z" />
<glyph unicode="&#xcd;" horiz-adv-x="522" d="M90 1561q0 49 43 63l326 137q14 6 26 6q29 0 48.5 -17t19.5 -46q0 -41 -43 -62l-328 -137q-14 -6 -26 -6q-27 0 -46.5 16.5t-19.5 45.5zM195 68v1181q0 29 19 48.5t48 19.5t48.5 -19.5t19.5 -48.5v-1181q0 -29 -19.5 -48.5t-48.5 -19.5t-48 19.5t-19 48.5z" />
<glyph unicode="&#xce;" horiz-adv-x="522" d="M-51 1563q0 39 35 57l245 131q16 10 33 10t33 -10l250 -133q31 -14 30 -55q0 -29 -19 -46.5t-48 -17.5q-16 0 -33 10l-213 113l-215 -113q-25 -10 -35 -10q-27 0 -45 18.5t-18 45.5zM195 68v1181q0 29 19 48.5t48 19.5t48.5 -19.5t19.5 -48.5v-1181q0 -29 -19.5 -48.5 t-48.5 -19.5t-48 19.5t-19 48.5z" />
<glyph unicode="&#xcf;" horiz-adv-x="522" d="M68 1567v69q0 29 19 47.5t48 18.5t48.5 -18.5t19.5 -47.5v-69q0 -29 -19.5 -48.5t-48.5 -19.5t-48 19.5t-19 48.5zM195 68v1181q0 29 19 48.5t48 19.5t48.5 -19.5t19.5 -48.5v-1181q0 -29 -19.5 -48.5t-48.5 -19.5t-48 19.5t-19 48.5zM328 1567v69q0 29 19.5 47.5 t48 18.5t48 -18.5t19.5 -47.5v-69q0 -29 -19.5 -48.5t-48 -19.5t-48 19.5t-19.5 48.5z" />
<glyph unicode="&#xd0;" horiz-adv-x="1388" d="M92 684q0 29 19.5 46.5t48.5 17.5h106v501q0 29 18.5 48.5t47.5 19.5h360q258 0 421 -186.5t163 -477.5q0 -289 -161 -471t-423 -182h-360q-29 0 -47.5 19.5t-18.5 48.5v548h-106q-29 0 -48.5 19.5t-19.5 48.5zM401 131h291q201 0 323 145.5t122 376.5q0 233 -123 383 t-322 150h-291v-438h322q29 0 48.5 -17.5t19.5 -46.5t-19.5 -48.5t-48.5 -19.5h-322v-485z" />
<glyph unicode="&#xd1;" horiz-adv-x="1259" d="M195 68v1181q0 29 19 48.5t48 19.5h25q53 0 84 -29q111 -111 331 -620q162 -362 230 -469v1050q0 29 19.5 48.5t49.5 19.5q29 0 47.5 -19.5t18.5 -48.5v-1181q0 -31 -18.5 -49.5t-47.5 -18.5h-24q-53 0 -84 31q-94 88 -342 631q-27 59 -68 150t-60.5 133t-45 91t-47.5 82 v-1050q0 -31 -19.5 -49.5t-48.5 -18.5t-48 18.5t-19 49.5zM350 1561q0 20 10 41q49 72 156 71q51 0 121 -21.5t121 -21.5q23 0 55.5 19.5t46.5 19.5q27 0 45.5 -16.5t18.5 -46.5q0 -18 -11 -35q-49 -72 -155 -72q-51 0 -121 21.5t-121 21.5q-23 0 -55.5 -19.5t-46.5 -19.5 q-64 1 -64 58z" />
<glyph unicode="&#xd2;" horiz-adv-x="1341" d="M113 655q0 287 160.5 480.5t398.5 193.5q242 0 399.5 -191.5t157.5 -482t-158 -478t-399 -187.5q-238 0 -398.5 190t-160.5 475zM252 655q0 -227 120 -381.5t300 -154.5q184 0 301 151.5t117 384.5q0 236 -118 389.5t-300 153.5q-178 0 -299 -157t-121 -386zM375 1702 q0 31 17.5 49t43.5 18q4 0 21 -4l331 -137q45 -20 46 -63q0 -27 -16.5 -46.5t-45.5 -19.5q-16 0 -31 8l-321 133q-45 21 -45 62z" />
<glyph unicode="&#xd3;" horiz-adv-x="1341" d="M113 655q0 287 160.5 480.5t398.5 193.5q242 0 399.5 -191.5t157.5 -482t-158 -478t-399 -187.5q-238 0 -398.5 190t-160.5 475zM252 655q0 -227 120 -381.5t300 -154.5q184 0 301 151.5t117 384.5q0 236 -118 389.5t-300 153.5q-178 0 -299 -157t-121 -386zM502 1561 q0 49 43 63l325 137q14 6 27 6q29 0 48.5 -17t19.5 -46q0 -41 -43 -62l-328 -137q-16 -6 -27 -6q-27 0 -46 16.5t-19 45.5z" />
<glyph unicode="&#xd4;" horiz-adv-x="1341" d="M113 655q0 287 160.5 480.5t398.5 193.5q242 0 399.5 -191.5t157.5 -482t-158 -478t-399 -187.5q-238 0 -398.5 190t-160.5 475zM252 655q0 -227 120 -381.5t300 -154.5q184 0 301 151.5t117 384.5q0 236 -118 389.5t-300 153.5q-178 0 -299 -157t-121 -386zM360 1563 q0 39 35 57l248 131q16 10 32.5 10t33.5 -10l249 -133q31 -14 31 -55q0 -29 -19.5 -46.5t-47.5 -17.5q-16 0 -33 10l-213 113l-215 -113q-25 -10 -35 -10q-29 0 -47.5 18.5t-18.5 45.5z" />
<glyph unicode="&#xd5;" horiz-adv-x="1341" d="M113 655q0 287 160.5 480.5t398.5 193.5q242 0 399.5 -191.5t157.5 -482t-158 -478t-399 -187.5q-238 0 -398.5 190t-160.5 475zM252 655q0 -227 120 -381.5t300 -154.5q184 0 301 151.5t117 384.5q0 236 -118 389.5t-300 153.5q-178 0 -299 -157t-121 -386zM387 1561 q0 20 10 41q49 72 156 71q51 0 120.5 -21.5t121.5 -21.5q23 0 55.5 19.5t46.5 19.5q27 0 45.5 -16.5t18.5 -46.5q0 -18 -11 -35q-49 -72 -155 -72q-51 0 -121 21.5t-121 21.5q-23 0 -55.5 -19.5t-46.5 -19.5q-64 1 -64 58z" />
<glyph unicode="&#xd6;" horiz-adv-x="1341" d="M113 655q0 287 160.5 480.5t398.5 193.5q242 0 399.5 -191.5t157.5 -482t-158 -478t-399 -187.5q-238 0 -398.5 190t-160.5 475zM252 655q0 -227 120 -381.5t300 -154.5q184 0 301 151.5t117 384.5q0 236 -118 389.5t-300 153.5q-178 0 -299 -157t-121 -386zM473 1567v69 q0 29 19.5 47.5t48 18.5t48 -18.5t19.5 -47.5v-69q0 -29 -19.5 -48.5t-48 -19.5t-48 19.5t-19.5 48.5zM733 1567v69q0 29 19.5 47.5t48 18.5t48 -18.5t19.5 -47.5v-69q0 -29 -19.5 -48.5t-48 -19.5t-48 19.5t-19.5 48.5z" />
<glyph unicode="&#xd7;" horiz-adv-x="1228" d="M207 149.5q0 28.5 20 47.5l289 290l-291 291q-18 18 -18 47q0 27 20.5 47.5t46.5 20.5q31 0 50 -21l288 -288l287 288q27 20 51 21q29 0 48.5 -20.5t19.5 -47.5q0 -29 -17 -47l-294 -291l286 -286q27 -20 27 -54q0 -23 -21.5 -44t-48.5 -21q-29 0 -49 20l-289 289 l-290 -289q-20 -20 -48 -20q-29 0 -48 19.5t-19 48z" />
<glyph unicode="&#xd8;" horiz-adv-x="1349" d="M113 657.5q0 286.5 161.5 479t399.5 192.5q152 0 282 -90l31 51q18 29 55 29q31 0 50.5 -16.5t19.5 -47.5q0 -25 -10 -36l-45 -66q180 -180 180 -496q0 -289 -161 -478t-402 -189q-154 0 -283 90l-29 -47q-20 -33 -59 -33q-27 0 -48.5 20.5t-21.5 47.5q0 18 13 36l41 66 q-174 201 -174 487.5zM252 657q0 -223 110 -364l525 831q-94 74 -213 74q-180 0 -301 -156t-121 -385zM461 193q100 -74 213 -74q184 0 304 152.5t120 385.5q0 223 -115 371z" />
<glyph unicode="&#xd9;" horiz-adv-x="1253" d="M188 432v817q0 29 19.5 48.5t48.5 19.5t48.5 -19.5t19.5 -48.5v-813q0 -45 12 -92t42 -101.5t94.5 -89t154.5 -34.5q92 0 156.5 34.5t93 89t41 101.5t12.5 92v813q0 29 19.5 48.5t48 19.5t48 -19.5t19.5 -48.5v-817q0 -47 -8 -97t-37 -114.5t-75 -114t-129 -83 t-191.5 -33.5t-190.5 33.5t-127 83t-73.5 114t-37 114.5t-8.5 97zM332 1702q0 31 17.5 49t43.5 18q4 0 21 -4l331 -137q45 -20 46 -63q0 -27 -16.5 -46.5t-45.5 -19.5q-16 0 -31 8l-321 133q-45 21 -45 62z" />
<glyph unicode="&#xda;" horiz-adv-x="1253" d="M188 432v817q0 29 19.5 48.5t48.5 19.5t48.5 -19.5t19.5 -48.5v-813q0 -45 12 -92t42 -101.5t94.5 -89t154.5 -34.5q92 0 156.5 34.5t93 89t41 101.5t12.5 92v813q0 29 19.5 48.5t48 19.5t48 -19.5t19.5 -48.5v-817q0 -47 -8 -97t-37 -114.5t-75 -114t-129 -83 t-191.5 -33.5t-190.5 33.5t-127 83t-73.5 114t-37 114.5t-8.5 97zM455 1561q0 49 43 63l325 137q14 6 27 6q29 0 48.5 -17t19.5 -46q0 -41 -44 -62l-327 -137q-14 -6 -27 -6q-27 0 -46 16.5t-19 45.5z" />
<glyph unicode="&#xdb;" horiz-adv-x="1253" d="M188 432v817q0 29 19.5 48.5t48.5 19.5t48.5 -19.5t19.5 -48.5v-813q0 -45 12 -92t42 -101.5t94.5 -89t154.5 -34.5q92 0 156.5 34.5t93 89t41 101.5t12.5 92v813q0 29 19.5 48.5t48 19.5t48 -19.5t19.5 -48.5v-817q0 -47 -8 -97t-37 -114.5t-75 -114t-129 -83 t-191.5 -33.5t-190.5 33.5t-127 83t-73.5 114t-37 114.5t-8.5 97zM317 1563q0 39 35 57l248 131q16 10 32.5 10t33.5 -10l249 -133q31 -14 31 -55q0 -29 -19.5 -46.5t-47.5 -17.5q-16 0 -33 10l-213 113l-215 -113q-25 -10 -35 -10q-29 0 -47.5 18.5t-18.5 45.5z" />
<glyph unicode="&#xdc;" horiz-adv-x="1253" d="M188 432v817q0 29 19.5 48.5t48.5 19.5t48.5 -19.5t19.5 -48.5v-813q0 -45 12 -92t42 -101.5t94.5 -89t154.5 -34.5q92 0 156.5 34.5t93 89t41 101.5t12.5 92v813q0 29 19.5 48.5t48 19.5t48 -19.5t19.5 -48.5v-817q0 -47 -8 -97t-37 -114.5t-75 -114t-129 -83 t-191.5 -33.5t-190.5 33.5t-127 83t-73.5 114t-37 114.5t-8.5 97zM436 1567v69q0 29 19.5 47.5t48 18.5t48 -18.5t19.5 -47.5v-69q0 -29 -19.5 -48.5t-48 -19.5t-48 19.5t-19.5 48.5zM696 1567v69q0 29 19.5 47.5t48.5 18.5t48 -18.5t19 -47.5v-69q0 -29 -19 -48.5 t-48 -19.5t-48.5 19.5t-19.5 48.5z" />
<glyph unicode="&#xdd;" horiz-adv-x="995" d="M51 1255q0 27 19.5 44.5t50.5 17.5q49 0 61 -45q33 -84 144.5 -323.5t169.5 -307.5q57 66 169.5 305.5t151.5 335.5q16 35 60 35q66 0 65 -62q0 -12 -4 -24l-18 -45q-68 -164 -176.5 -380t-180.5 -284v-454q0 -29 -19.5 -48.5t-48 -19.5t-48 19.5t-19.5 48.5v454 q-72 68 -175 270.5t-169 366.5l-29 72q-4 20 -4 24zM268 1561q0 49 43 63l326 137q14 6 27 6q29 0 48 -17t19 -46q0 -41 -43 -62l-328 -137q-16 -6 -26 -6q-27 0 -46.5 16.5t-19.5 45.5z" />
<glyph unicode="&#xde;" horiz-adv-x="1009" d="M154 68v1138q0 29 19.5 48.5t48 19.5t48 -19.5t19.5 -48.5v-155h207q184 0 304 -113t120 -285q0 -170 -120 -279.5t-304 -109.5h-207v-196q0 -29 -19.5 -48.5t-48 -19.5t-48 19.5t-19.5 48.5zM289 393h207q127 0 205.5 73t78.5 187.5t-81 190.5t-203 76h-207v-527z" />
<glyph unicode="&#xdf;" horiz-adv-x="1021" d="M154 68v931q0 195 99 289t230 94q143 0 247 -84t104 -245q0 -70 -33 -135.5t-73 -104.5t-72.5 -72.5t-32.5 -48.5q0 -12 32.5 -34.5t78.5 -55.5t92 -75t79 -107.5t33 -140.5q0 -145 -99.5 -227.5t-271.5 -82.5q-45 0 -91 14.5t-60 26.5q-39 31 -39 58q0 63 61 63 q20 0 33 -12q33 -20 96 -21q109 0 170.5 48.5t61.5 132.5q0 61 -32 110t-78 83t-91 63.5t-77 69.5t-32 87q0 61 66 139l37 37q102 102 102 185q0 102 -62.5 150t-148.5 48q-78 0 -136 -61.5t-58 -190.5v-931q0 -29 -19.5 -48.5t-48 -19.5t-48 19.5t-19.5 48.5z" />
<glyph unicode="&#xe0;" horiz-adv-x="935" d="M92 279q0 287 397 286h162v103q0 57 -48 108t-142 51q-117 0 -219 -53q-16 -10 -37 -10q-29 0 -47.5 19.5t-18.5 45.5q0 35 29 54q43 29 126 52t167 23q160 0 242.5 -90t82.5 -200v-453q0 -70 21 -78q57 -25 57 -71q0 -31 -18.5 -48.5t-46.5 -17.5q-78 0 -115 72 q-98 -82 -256 -82q-135 0 -235.5 73t-100.5 216zM231 279q0 -76 58.5 -118t138.5 -42q74 0 138.5 22.5t84.5 46.5v248h-162q-258 1 -258 -157zM254 1321q0 31 17.5 49.5t43.5 18.5q4 0 21 -5l332 -137q45 -20 45 -63q0 -27 -16.5 -46.5t-45.5 -19.5q-16 0 -30 8l-322 134 q-45 20 -45 61z" />
<glyph unicode="&#xe1;" horiz-adv-x="935" d="M92 279q0 287 397 286h162v103q0 57 -48 108t-142 51q-117 0 -219 -53q-16 -10 -37 -10q-29 0 -47.5 19.5t-18.5 45.5q0 35 29 54q43 29 126 52t167 23q160 0 242.5 -90t82.5 -200v-453q0 -70 21 -78q57 -25 57 -71q0 -31 -18.5 -48.5t-46.5 -17.5q-78 0 -115 72 q-98 -82 -256 -82q-135 0 -235.5 73t-100.5 216zM231 279q0 -76 58.5 -118t138.5 -42q74 0 138.5 22.5t84.5 46.5v248h-162q-258 1 -258 -157zM254 1180q0 49 43 63l326 137q14 6 26 6q29 0 48.5 -17t19.5 -46q0 -41 -43 -61l-328 -138q-14 -6 -27 -6q-27 0 -46 16.5 t-19 45.5z" />
<glyph unicode="&#xe2;" horiz-adv-x="935" d="M92 279q0 287 397 286h162v103q0 57 -48 108t-142 51q-117 0 -219 -53q-16 -10 -37 -10q-29 0 -47.5 19.5t-18.5 45.5q0 35 29 54q43 29 126 52t167 23q160 0 242.5 -90t82.5 -200v-453q0 -70 21 -78q57 -25 57 -71q0 -31 -18.5 -48.5t-46.5 -17.5q-78 0 -115 72 q-98 -82 -256 -82q-135 0 -235.5 73t-100.5 216zM143 1182q0 39 35 57l248 131q16 10 32.5 10t33.5 -10l249 -133q31 -14 31 -55q0 -29 -19.5 -46.5t-47.5 -17.5q-16 0 -33 10l-213 113l-215 -113q-25 -10 -35 -10q-29 0 -47.5 18.5t-18.5 45.5zM231 279q0 -76 58.5 -118 t138.5 -42q74 0 138.5 22.5t84.5 46.5v248h-162q-258 1 -258 -157z" />
<glyph unicode="&#xe3;" horiz-adv-x="935" d="M92 279q0 287 397 286h162v103q0 57 -48 108t-142 51q-117 0 -219 -53q-16 -10 -37 -10q-29 0 -47.5 19.5t-18.5 45.5q0 35 29 54q43 29 126 52t167 23q160 0 242.5 -90t82.5 -200v-453q0 -70 21 -78q57 -25 57 -71q0 -31 -18.5 -48.5t-46.5 -17.5q-78 0 -115 72 q-98 -82 -256 -82q-135 0 -235.5 73t-100.5 216zM170 1180q0 20 10 41q49 72 156 71q51 0 120.5 -21.5t121.5 -21.5q23 0 55.5 19.5t46.5 19.5q27 0 45 -16.5t18 -46.5q0 -18 -10 -35q-49 -72 -155 -72q-51 0 -121 21.5t-121 21.5q-23 0 -55.5 -19.5t-47.5 -19.5 q-63 1 -63 58zM231 279q0 -76 58.5 -118t138.5 -42q74 0 138.5 22.5t84.5 46.5v248h-162q-258 1 -258 -157z" />
<glyph unicode="&#xe4;" horiz-adv-x="935" d="M92 279q0 287 397 286h162v103q0 57 -48 108t-142 51q-117 0 -219 -53q-16 -10 -37 -10q-29 0 -47.5 19.5t-18.5 45.5q0 35 29 54q43 29 126 52t167 23q160 0 242.5 -90t82.5 -200v-453q0 -70 21 -78q57 -25 57 -71q0 -31 -18.5 -48.5t-46.5 -17.5q-78 0 -115 72 q-98 -82 -256 -82q-135 0 -235.5 73t-100.5 216zM231 279q0 -76 58.5 -118t138.5 -42q74 0 138.5 22.5t84.5 46.5v248h-162q-258 1 -258 -157zM281 1145v69q0 29 19 47.5t48 18.5t48.5 -18.5t19.5 -47.5v-69q0 -29 -19.5 -48.5t-48.5 -19.5t-48 19.5t-19 48.5zM541 1145v69 q0 29 19.5 47.5t48 18.5t48 -18.5t19.5 -47.5v-69q0 -29 -19.5 -48.5t-48 -19.5t-48 19.5t-19.5 48.5z" />
<glyph unicode="&#xe5;" horiz-adv-x="935" d="M92 279q0 287 397 286h162v103q0 57 -48 108t-142 51q-117 0 -219 -53q-16 -10 -37 -10q-29 0 -47.5 19.5t-18.5 45.5q0 35 29 54q43 29 126 52t167 23q160 0 242.5 -90t82.5 -200v-453q0 -70 21 -78q57 -25 57 -71q0 -31 -18.5 -48.5t-46.5 -17.5q-78 0 -115 72 q-98 -82 -256 -82q-135 0 -235.5 73t-100.5 216zM231 279q0 -76 58.5 -118t138.5 -42q74 0 138.5 22.5t84.5 46.5v248h-162q-258 1 -258 -157zM307 1292.5q0 73.5 50.5 122.5t124 49t123.5 -49t50 -122.5t-50 -123t-123.5 -49.5t-124 49.5t-50.5 123zM401 1294.5 q0 -32.5 24 -56.5t56.5 -24t56 24t23.5 56.5t-23.5 54t-56 21.5t-56.5 -21.5t-24 -54z" />
<glyph unicode="&#xe6;" horiz-adv-x="1460" d="M90 279q0 287 399 286h160v101q0 63 -51 112t-137 49q-123 0 -221 -55q-14 -8 -35 -8q-29 0 -47.5 19.5t-18.5 45.5q0 35 29 54q43 29 126 52t167 23q68 0 123 -19t84.5 -46t46 -50.5t18.5 -37.5q18 45 93 96t186 55h43q12 0 41 -4q123 -18 198.5 -100t75.5 -168 q0 -154 -134 -201t-452 -47v-211q70 -106 232 -106q125 0 219 65q20 12 43 13q29 0 48.5 -17.5t19.5 -46.5q0 -39 -31 -57q-131 -86 -301 -86q-217 0 -307 125q-111 -125 -277 -125q-137 0 -238.5 73t-101.5 216zM229 279q0 -76 59.5 -118t141.5 -42q119 0 219 106v211h-160 q-260 1 -260 -157zM784 565q252 0 349.5 23.5t97.5 95.5q0 49 -53.5 96t-143.5 47q-84 0 -149.5 -47t-100.5 -129v-86z" />
<glyph unicode="&#xe7;" horiz-adv-x="960" d="M92 477q0 203 137.5 342t333.5 139q139 0 260 -77q29 -16 29 -58q0 -29 -18.5 -47t-47.5 -18q-20 0 -36 10q-84 59 -187 59q-143 0 -237.5 -100t-94.5 -250q0 -145 75 -251.5t218 -106.5q119 0 244 69q14 8 35 9q27 0 46 -19.5t19 -48.5q0 -31 -34 -57q-150 -82 -310 -82 l-22 -86q39 14 82 14q68 0 113.5 -47t45.5 -125q0 -88 -59 -137t-137 -49q-53 0 -84 18.5t-31 44.5q0 45 47 45q4 0 26.5 -6t47.5 -6q33 0 62.5 24.5t29.5 65.5q0 80 -70 80q-43 0 -71 -12l-19 -11q-12 -4 -20 -4q-43 0 -43 37q0 12 4 33l27 127q-164 20 -262.5 151 t-98.5 330z" />
<glyph unicode="&#xe8;" horiz-adv-x="958" d="M92 471q0 221 116 354t308 133q156 0 250 -86t94 -188q0 -84 -41 -141.5t-127 -89t-192.5 -45t-261.5 -15.5q12 -117 83.5 -195.5t184.5 -78.5q119 0 262 71q18 8 35 9q27 0 45 -19.5t18 -46.5q0 -37 -32 -57l-33 -17q-139 -70 -295 -69q-184 0 -299 132t-115 349z M231 516q262 4 376 44t114 124q0 51 -54.5 97t-150.5 46q-125 0 -200 -80.5t-85 -230.5zM311 1321q0 31 17.5 49.5t44.5 18.5q4 0 20 -5l332 -137q45 -20 45 -63q0 -27 -16.5 -46.5t-44.5 -19.5q-16 0 -31 8l-322 134q-45 20 -45 61z" />
<glyph unicode="&#xe9;" horiz-adv-x="958" d="M92 471q0 221 116 354t308 133q156 0 250 -86t94 -188q0 -84 -41 -141.5t-127 -89t-192.5 -45t-261.5 -15.5q12 -117 83.5 -195.5t184.5 -78.5q119 0 262 71q18 8 35 9q27 0 45 -19.5t18 -46.5q0 -37 -32 -57l-33 -17q-139 -70 -295 -69q-184 0 -299 132t-115 349z M231 516q262 4 376 44t114 124q0 51 -54.5 97t-150.5 46q-125 0 -200 -80.5t-85 -230.5zM324 1180q0 49 43 63l325 137q14 6 27 6q29 0 48 -17t19 -46q0 -41 -43 -61l-327 -138q-14 -6 -27 -6q-27 0 -46 16.5t-19 45.5z" />
<glyph unicode="&#xea;" horiz-adv-x="958" d="M92 471q0 221 116 354t308 133q156 0 250 -86t94 -188q0 -84 -41 -141.5t-127 -89t-192.5 -45t-261.5 -15.5q12 -117 83.5 -195.5t184.5 -78.5q119 0 262 71q18 8 35 9q27 0 45 -19.5t18 -46.5q0 -37 -32 -57l-33 -17q-139 -70 -295 -69q-184 0 -299 132t-115 349z M215 1182q0 39 35 57l248 131q16 10 32.5 10t32.5 -10l250 -133q31 -14 31 -55q0 -29 -19.5 -46.5t-48.5 -17.5q-16 0 -33 10l-213 113l-215 -113q-25 -10 -34 -10q-29 0 -47.5 18.5t-18.5 45.5zM231 516q262 4 376 44t114 124q0 51 -54.5 97t-150.5 46q-125 0 -200 -80.5 t-85 -230.5z" />
<glyph unicode="&#xeb;" horiz-adv-x="958" d="M92 471q0 221 116 354t308 133q156 0 250 -86t94 -188q0 -84 -41 -141.5t-127 -89t-192.5 -45t-261.5 -15.5q12 -117 83.5 -195.5t184.5 -78.5q119 0 262 71q18 8 35 9q27 0 45 -19.5t18 -46.5q0 -37 -32 -57l-33 -17q-139 -70 -295 -69q-184 0 -299 132t-115 349z M231 516q262 4 376 44t114 124q0 51 -54.5 97t-150.5 46q-125 0 -200 -80.5t-85 -230.5zM336 1145v69q0 29 19.5 47.5t48 18.5t48 -18.5t19.5 -47.5v-69q0 -29 -19.5 -48.5t-48 -19.5t-48 19.5t-19.5 48.5zM596 1145v69q0 29 19.5 47.5t48 18.5t48 -18.5t19.5 -47.5v-69 q0 -29 -19.5 -48.5t-48 -19.5t-48 19.5t-19.5 48.5z" />
<glyph unicode="&#xec;" horiz-adv-x="440" d="M70 1294q0 31 17 49.5t44 18.5q4 0 21 -4l331 -137q45 -20 45 -64q0 -27 -16 -46t-45 -19q-16 0 -31 8l-321 133q-45 20 -45 61zM154 68v811q0 29 19.5 48t48 19t48 -19.5t19.5 -47.5v-811q0 -29 -19.5 -48.5t-48 -19.5t-48 19.5t-19.5 48.5z" />
<glyph unicode="&#xed;" horiz-adv-x="440" d="M-14 1180q0 47 41 63l325 137q14 6 27 6q29 0 48 -17t19 -46q0 -41 -43 -61l-327 -138q-14 -6 -27 -6q-27 0 -45 16.5t-18 45.5zM154 68v811q0 29 19.5 48t48 19t48 -19.5t19.5 -47.5v-811q0 -29 -19.5 -48.5t-48 -19.5t-48 19.5t-19.5 48.5z" />
<glyph unicode="&#xee;" horiz-adv-x="440" d="M-96 1182q0 39 35 57l245 131q16 10 32.5 10t33.5 -10l250 -133q31 -14 30 -55q0 -29 -19 -46.5t-48 -17.5q-16 0 -33 10l-213 113l-215 -113q-20 -10 -33 -10q-29 0 -47 18.5t-18 45.5zM154 68v811q0 29 19.5 48t48 19t48 -19.5t19.5 -47.5v-811q0 -29 -19.5 -48.5 t-48 -19.5t-48 19.5t-19.5 48.5z" />
<glyph unicode="&#xef;" horiz-adv-x="440" d="M25 1145v69q0 29 19 47.5t48 18.5t48.5 -18.5t19.5 -47.5v-69q0 -29 -19.5 -48.5t-48.5 -19.5t-48 19.5t-19 48.5zM154 68v811q0 29 19.5 48t48 19t48 -19.5t19.5 -47.5v-811q0 -29 -19.5 -48.5t-48 -19.5t-48 19.5t-19.5 48.5zM285 1145v69q0 29 19.5 47.5t48 18.5 t48 -18.5t19.5 -47.5v-69q0 -29 -19.5 -48.5t-48 -19.5t-48 19.5t-19.5 48.5z" />
<glyph unicode="&#xf0;" horiz-adv-x="991" d="M92 512q0 176 102.5 311t305.5 135q145 0 256 -110q-14 203 -146 326l-182 -89q-8 -8 -33 -8q-29 0 -46 17.5t-17 44.5q0 45 39 59l123 55q-78 43 -283 43q-76 0 -76 68q0 27 19.5 45t56.5 18q270 0 416 -98l121 60q14 6 30 6q29 0 47.5 -19.5t18.5 -48.5q0 -37 -35 -59 l-76 -39q160 -195 168 -512v-15q0 -348 -105.5 -530t-303.5 -182q-98 0 -173 36.5t-116 91t-67.5 128t-35 137t-8.5 129.5zM231 512q0 -393 261 -393q272 0 276 571q-137 137 -268 137q-139 0 -204 -93t-65 -222z" />
<glyph unicode="&#xf1;" d="M154 68v813q0 29 17 47t46 18t46.5 -17.5t17.5 -41.5q27 20 96 45.5t153 25.5q178 0 256 -81.5t78 -266.5v-542q0 -29 -19.5 -48.5t-48 -19.5t-48 19.5t-19.5 48.5v522q0 139 -48 188t-179 49q-127 0 -213 -55v-704q0 -29 -19.5 -48.5t-48 -19.5t-48 19.5t-19.5 48.5z M213 1180q0 20 10 41q49 72 156 71q51 0 120.5 -21.5t121.5 -21.5q23 0 55.5 19.5t46.5 19.5q27 0 45 -16.5t18 -46.5q0 -18 -10 -35q-49 -72 -155 -72q-51 0 -121 21.5t-121 21.5q-23 0 -55.5 -19.5t-47.5 -19.5q-63 1 -63 58z" />
<glyph unicode="&#xf2;" horiz-adv-x="1009" d="M92 471q0 219 115 353t299 134t298 -134t114 -353q0 -223 -111 -352t-301 -129q-184 0 -299 132t-115 349zM231 471q0 -162 74 -257t201 -95q129 0 200.5 93t71.5 259t-72.5 261t-199.5 95t-201 -96t-74 -260zM287 1321q0 31 17.5 49.5t43.5 18.5q4 0 21 -5l331 -137 q45 -20 45 -63q0 -27 -16 -46.5t-45 -19.5q-16 0 -31 8l-321 134q-45 20 -45 61z" />
<glyph unicode="&#xf3;" horiz-adv-x="1009" d="M92 471q0 219 115 353t299 134t298 -134t114 -353q0 -223 -111 -352t-301 -129q-184 0 -299 132t-115 349zM231 471q0 -162 74 -257t201 -95q129 0 200.5 93t71.5 259t-72.5 261t-199.5 95t-201 -96t-74 -260zM287 1180q0 49 43 63l325 137q14 6 27 6q29 0 48.5 -17 t19.5 -46q0 -41 -43 -61l-328 -138q-14 -6 -27 -6q-27 0 -46 16.5t-19 45.5z" />
<glyph unicode="&#xf4;" horiz-adv-x="1009" d="M92 471q0 219 115 353t299 134t298 -134t114 -353q0 -223 -111 -352t-301 -129q-184 0 -299 132t-115 349zM205 1182q0 39 35 57l247 131q16 10 33 10t33 -10l250 -133q31 -14 31 -55q0 -29 -19.5 -46.5t-48.5 -17.5q-16 0 -33 10l-213 113l-215 -113q-25 -10 -35 -10 q-29 0 -47 18.5t-18 45.5zM231 471q0 -162 74 -257t201 -95q129 0 200.5 93t71.5 259t-72.5 261t-199.5 95t-201 -96t-74 -260z" />
<glyph unicode="&#xf5;" horiz-adv-x="1009" d="M92 471q0 219 115 353t299 134t298 -134t114 -353q0 -223 -111 -352t-301 -129q-184 0 -299 132t-115 349zM229 1180q0 20 11 41q49 72 155 71q51 0 121 -21.5t121 -21.5q23 0 55.5 19.5t46.5 19.5q27 0 45.5 -16.5t18.5 -46.5q0 -18 -10 -35q-49 -72 -156 -72 q-51 0 -121 21.5t-121 21.5q-23 0 -55.5 -19.5t-46.5 -19.5q-64 1 -64 58zM231 471q0 -162 74 -257t201 -95q129 0 200.5 93t71.5 259t-72.5 261t-199.5 95t-201 -96t-74 -260z" />
<glyph unicode="&#xf6;" horiz-adv-x="1009" d="M92 471q0 219 115 353t299 134t298 -134t114 -353q0 -223 -111 -352t-301 -129q-184 0 -299 132t-115 349zM231 471q0 -162 74 -257t201 -95q129 0 200.5 93t71.5 259t-72.5 261t-199.5 95t-201 -96t-74 -260zM313 1145v69q0 29 19.5 47.5t48.5 18.5t48.5 -18.5 t19.5 -47.5v-69q0 -29 -19.5 -48.5t-48.5 -19.5t-48.5 19.5t-19.5 48.5zM573 1145v69q0 29 19.5 47.5t48.5 18.5t48.5 -18.5t19.5 -47.5v-69q0 -29 -19.5 -48.5t-48.5 -19.5t-48.5 19.5t-19.5 48.5z" />
<glyph unicode="&#xf7;" horiz-adv-x="1228" d="M160 483.5q0 28.5 19.5 47t47.5 18.5h774q29 0 48.5 -18.5t19.5 -47t-19.5 -47t-48.5 -18.5h-774q-29 0 -48 18.5t-19 47zM543 72v67q0 29 19.5 48.5t48 19.5t48 -19.5t19.5 -48.5v-67q0 -29 -19.5 -48.5t-48 -19.5t-48 19.5t-19.5 48.5zM543 834v67q0 29 19.5 48.5 t48 19.5t48 -19.5t19.5 -48.5v-67q0 -29 -20.5 -48.5t-49 -19.5t-47 19.5t-18.5 48.5z" />
<glyph unicode="&#xf8;" horiz-adv-x="1007" d="M92 471q0 219 113.5 353t298.5 134q115 0 203 -53l10 15q18 27 53 26q27 0 46.5 -17.5t19.5 -45.5q0 -23 -15 -43l-16 -25q113 -131 113 -344q0 -223 -112 -352t-302 -129q-102 0 -191 49q-20 -39 -61 -39q-25 0 -44.5 20.5t-19.5 47.5q0 14 7 22l16 27 q-119 131 -119 354zM231 471q0 -147 60 -227l342 547q-51 37 -129 36q-127 0 -200 -95t-73 -261zM387 152q51 -33 117 -33q131 0 202.5 101.5t71.5 250.5q0 125 -53 217z" />
<glyph unicode="&#xf9;" d="M154 334v545q0 29 19.5 48t48 19t48 -19.5t19.5 -47.5v-525q0 -139 47 -187t180 -48q68 0 126 25.5t87 54.5v680q0 29 19.5 48t48 19t48 -19.5t19.5 -47.5v-811q0 -29 -17.5 -48.5t-46 -19.5t-46 18.5t-17.5 47.5v8q-102 -84 -250 -84q-180 0 -256.5 80t-76.5 264z M281 1321q0 31 17 49.5t44 18.5q4 0 20 -5l332 -137q45 -20 45 -63q0 -27 -16 -46.5t-45 -19.5q-16 0 -31 8l-321 134q-45 20 -45 61z" />
<glyph unicode="&#xfa;" d="M154 334v545q0 29 19.5 48t48 19t48 -19.5t19.5 -47.5v-525q0 -139 47 -187t180 -48q68 0 126 25.5t87 54.5v680q0 29 19.5 48t48 19t48 -19.5t19.5 -47.5v-811q0 -29 -17.5 -48.5t-46 -19.5t-46 18.5t-17.5 47.5v8q-102 -84 -250 -84q-180 0 -256.5 80t-76.5 264z M281 1180q0 49 43 63l325 137q14 6 27 6q29 0 48 -17t19 -46q0 -41 -43 -61l-327 -138q-16 -6 -27 -6q-27 0 -46 16.5t-19 45.5z" />
<glyph unicode="&#xfb;" d="M154 334v545q0 29 19.5 48t48 19t48 -19.5t19.5 -47.5v-525q0 -139 47 -187t180 -48q68 0 126 25.5t87 54.5v680q0 29 19.5 48t48 19t48 -19.5t19.5 -47.5v-811q0 -29 -17.5 -48.5t-46 -19.5t-46 18.5t-17.5 47.5v8q-102 -84 -250 -84q-180 0 -256.5 80t-76.5 264z M195 1182q0 39 34 57l248 131q16 10 32.5 10t33.5 -10l250 -133q31 -14 30 -55q0 -29 -19.5 -46.5t-47.5 -17.5q-16 0 -33 10l-213 113l-215 -113q-25 -10 -35 -10q-29 0 -47 18.5t-18 45.5z" />
<glyph unicode="&#xfc;" d="M154 334v545q0 29 19.5 48t48 19t48 -19.5t19.5 -47.5v-525q0 -139 47 -187t180 -48q68 0 126 25.5t87 54.5v680q0 29 19.5 48t48 19t48 -19.5t19.5 -47.5v-811q0 -29 -17.5 -48.5t-46 -19.5t-46 18.5t-17.5 47.5v8q-102 -84 -250 -84q-180 0 -256.5 80t-76.5 264z M322 1145v69q0 29 19 47.5t48 18.5t48.5 -18.5t19.5 -47.5v-69q0 -29 -19.5 -48.5t-48.5 -19.5t-48 19.5t-19 48.5zM582 1145v69q0 29 19.5 47.5t48 18.5t48 -18.5t19.5 -47.5v-69q0 -29 -19.5 -48.5t-48 -19.5t-48 19.5t-19.5 48.5z" />
<glyph unicode="&#xfd;" horiz-adv-x="862" d="M-221 -262q0 29 20.5 47t46.5 18q23 0 39 -14q31 -25 47.5 -36t56.5 -24.5t89 -13.5q98 0 164.5 65.5t146.5 262.5q-6 4 -39 55q-51 100 -127 283.5t-126 320t-56 158.5q-4 12 -4 25q0 61 69 61q43 0 64 -51q147 -430 250 -629q12 -29 31 -53q18 55 112 308t139 380 q18 45 64 45q29 0 48.5 -18.5t19.5 -46.5q0 -12 -9 -31l-274 -756q-109 -291 -215.5 -400.5t-257.5 -109.5q-162 0 -275 101q-24 18 -24 53zM207 1151q0 49 43 63l325 138q14 6 27 6q29 0 48.5 -17.5t19.5 -46.5q0 -41 -43 -61l-328 -137q-16 -6 -27 -6q-27 0 -46 16t-19 45 z" />
<glyph unicode="&#xfe;" horiz-adv-x="1015" d="M154 -311v1622q0 29 19.5 47t48 18t48 -18.5t19.5 -46.5v-393q98 41 209 40q193 0 313.5 -131t120.5 -346q0 -209 -138.5 -350t-336.5 -141q-82 0 -168 41v-342q0 -29 -19.5 -48.5t-48 -19.5t-48 19.5t-19.5 48.5zM289 176q96 -57 168 -57q141 0 238.5 105.5t97.5 256.5 q0 160 -80 253t-215 93q-113 0 -209 -49v-602z" />
<glyph unicode="&#xff;" horiz-adv-x="862" d="M-221 -262q0 29 20.5 47t46.5 18q23 0 39 -14q31 -25 47.5 -36t56.5 -24.5t89 -13.5q98 0 164.5 65.5t146.5 262.5q-6 4 -39 55q-51 100 -127 283.5t-126 320t-56 158.5q-4 12 -4 25q0 61 69 61q43 0 64 -51q147 -430 250 -629q12 -29 31 -53q18 55 112 308t139 380 q18 45 64 45q29 0 48.5 -18.5t19.5 -46.5q0 -12 -9 -31l-274 -756q-109 -291 -215.5 -400.5t-257.5 -109.5q-162 0 -275 101q-24 18 -24 53zM242 1171v70q0 29 19.5 47.5t48 18.5t48 -18.5t19.5 -47.5v-70q0 -29 -19.5 -48t-48 -19t-48 19t-19.5 48zM502 1171v70 q0 29 19.5 47.5t48 18.5t48 -18.5t19.5 -47.5v-70q0 -29 -19.5 -48t-48 -19t-48 19t-19.5 48z" />
<glyph unicode="&#x152;" horiz-adv-x="1701" d="M113 653.5q0 288.5 139 476t356 187.5h858q29 0 48.5 -17.5t19.5 -46t-19.5 -48t-48.5 -19.5h-471v-428h435q29 0 48 -19.5t19 -48t-19.5 -46t-47.5 -17.5h-435v-496h508q29 0 47.5 -18.5t18.5 -47t-18.5 -47t-47.5 -18.5h-895q-221 0 -358 182.5t-137 471zM252 653 q0 -231 97 -376.5t259 -145.5h252v1055h-252q-158 0 -257 -150t-99 -383z" />
<glyph unicode="&#x153;" horiz-adv-x="1644" d="M90 471q0 219 114.5 353t299.5 134q117 0 214 -62t128 -165q29 102 132 164.5t224 62.5q156 0 250 -86t94 -188q0 -84 -41 -141.5t-127 -89t-192.5 -45t-261.5 -15.5q12 -117 83.5 -195.5t184.5 -78.5q119 0 262 71q18 8 35 9q27 0 45 -19.5t18 -46.5q0 -37 -32 -57 l-33 -17q-139 -70 -295 -69q-117 0 -219.5 63.5t-126.5 159.5q-25 -98 -123 -160.5t-219 -62.5q-184 0 -299 132t-115 349zM229 471q0 -162 74 -257t201 -95q129 0 201.5 94t72.5 258q0 166 -73.5 261t-200.5 95t-201 -96t-74 -260zM918 516q262 4 375.5 44t113.5 124 q0 51 -54.5 97t-150.5 46q-125 0 -199.5 -80.5t-84.5 -230.5z" />
<glyph unicode="&#x178;" horiz-adv-x="995" d="M51 1255q0 27 19.5 44.5t50.5 17.5q49 0 61 -45q33 -84 144.5 -323.5t169.5 -307.5q57 66 169.5 305.5t151.5 335.5q16 35 60 35q66 0 65 -62q0 -12 -4 -24l-18 -45q-68 -164 -176.5 -380t-180.5 -284v-454q0 -29 -19.5 -48.5t-48 -19.5t-48 19.5t-19.5 48.5v454 q-72 68 -175 270.5t-169 366.5l-29 72q-4 20 -4 24zM315 1567v69q0 29 19.5 47.5t48.5 18.5t48.5 -18.5t19.5 -47.5v-69q0 -29 -19.5 -48.5t-48.5 -19.5t-48.5 19.5t-19.5 48.5zM575 1567v69q0 29 19.5 47.5t48.5 18.5t48.5 -18.5t19.5 -47.5v-69q0 -29 -19.5 -48.5 t-48.5 -19.5t-48.5 19.5t-19.5 48.5z" />
<glyph unicode="&#x2c6;" horiz-adv-x="854" d="M113 1153q0 39 34 57l248 131q16 10 32.5 10.5t33.5 -10.5l250 -133q31 -14 30 -55q0 -29 -19.5 -46t-47.5 -17q-16 0 -33 10l-213 112l-215 -112q-25 -10 -35 -10q-29 0 -47 18t-18 45z" />
<glyph unicode="&#x2dc;" horiz-adv-x="798" d="M113 1151q0 20 10 41q49 72 156 72q51 0 120.5 -21.5t120.5 -21.5q23 0 55.5 19.5t47.5 19.5q27 0 45 -16.5t18 -47.5q0 -18 -10 -35q-49 -72 -156 -71q-51 0 -120.5 21.5t-120.5 21.5q-23 0 -56 -19.5t-47 -19.5q-63 0 -63 57z" />
<glyph unicode="&#x2000;" horiz-adv-x="921" />
<glyph unicode="&#x2001;" horiz-adv-x="1845" />
<glyph unicode="&#x2002;" horiz-adv-x="921" />
<glyph unicode="&#x2003;" horiz-adv-x="1845" />
<glyph unicode="&#x2004;" horiz-adv-x="614" />
<glyph unicode="&#x2005;" horiz-adv-x="460" />
<glyph unicode="&#x2006;" horiz-adv-x="307" />
<glyph unicode="&#x2007;" horiz-adv-x="307" />
<glyph unicode="&#x2008;" horiz-adv-x="229" />
<glyph unicode="&#x2009;" horiz-adv-x="368" />
<glyph unicode="&#x200a;" horiz-adv-x="102" />
<glyph unicode="&#x2010;" horiz-adv-x="980" d="M195 483.5q0 28.5 19 47t48 18.5h457q29 0 48 -18.5t19 -47t-19 -47t-48 -18.5h-457q-29 0 -48 18.5t-19 47z" />
<glyph unicode="&#x2011;" horiz-adv-x="980" d="M195 483.5q0 28.5 19 47t48 18.5h457q29 0 48 -18.5t19 -47t-19 -47t-48 -18.5h-457q-29 0 -48 18.5t-19 47z" />
<glyph unicode="&#x2012;" horiz-adv-x="980" d="M195 483.5q0 28.5 19 47t48 18.5h457q29 0 48 -18.5t19 -47t-19 -47t-48 -18.5h-457q-29 0 -48 18.5t-19 47z" />
<glyph unicode="&#x2013;" horiz-adv-x="1042" d="M166 481.5q0 28.5 19.5 47t47.5 18.5h574q29 0 48 -18.5t19 -47t-19 -47t-48 -18.5h-574q-29 0 -48 18.5t-19 47z" />
<glyph unicode="&#x2014;" horiz-adv-x="1267" d="M166 481.5q0 28.5 19.5 47t47.5 18.5h801q29 0 48.5 -18.5t19.5 -47t-19.5 -47t-48.5 -18.5h-801q-29 0 -48 18.5t-19 47z" />
<glyph unicode="&#x2018;" horiz-adv-x="479" d="M133 1239v10q0 29 19.5 48.5t48 19.5t48 -19.5t19.5 -48.5q0 -160 51 -215q23 -27 23 -51q0 -29 -19.5 -46t-48.5 -17q-53 0 -86.5 65.5t-44 132t-10.5 121.5z" />
<glyph unicode="&#x2019;" horiz-adv-x="479" d="M133 983q0 25 23 51q51 68 51 215q0 29 19.5 48.5t48 19.5t48 -19.5t19.5 -48.5v-10q0 -55 -10 -121.5t-44 -132t-87 -65.5q-29 0 -48.5 17t-19.5 46z" />
<glyph unicode="&#x201a;" horiz-adv-x="481" d="M133 -172q0 25 23 51q51 68 51 213q0 29 19.5 48.5t48 19.5t48 -19.5t19.5 -48.5v-10q0 -55 -10 -120.5t-44 -131.5t-87 -66q-29 0 -48.5 17.5t-19.5 46.5z" />
<glyph unicode="&#x201c;" horiz-adv-x="741" d="M133 1239v10q0 29 19.5 48.5t48 19.5t48 -19.5t19.5 -48.5q0 -160 51 -215q23 -27 23 -51q0 -29 -19.5 -46t-48.5 -17q-53 0 -86.5 65.5t-44 132t-10.5 121.5zM395 1239v10q0 29 19.5 48.5t48.5 19.5t48 -19.5t19 -48.5q0 -160 52 -215q23 -27 22 -51q0 -29 -19.5 -46 t-47.5 -17q-53 0 -87 65.5t-44.5 132t-10.5 121.5z" />
<glyph unicode="&#x201d;" horiz-adv-x="741" d="M133 983q0 25 23 51q51 68 51 215q0 29 19.5 48.5t48 19.5t48 -19.5t19.5 -48.5v-10q0 -55 -10 -121.5t-44 -132t-87 -65.5q-29 0 -48.5 17t-19.5 46zM395 983q0 25 23 51q51 68 51 215q0 29 19.5 48.5t48 19.5t48 -19.5t19.5 -48.5v-10q0 -55 -10 -121.5t-44 -132 t-87 -65.5q-29 0 -48.5 17t-19.5 46z" />
<glyph unicode="&#x201e;" horiz-adv-x="741" d="M133 -172q0 25 23 51q51 68 51 213q0 29 19.5 48.5t48 19.5t48 -19.5t19.5 -48.5v-10q0 -55 -10 -120.5t-44 -131.5t-87 -66q-29 0 -48.5 17.5t-19.5 46.5zM395 -172q0 25 23 51q51 68 51 213q0 29 19.5 48.5t48 19.5t48 -19.5t19.5 -48.5v-10q0 -55 -10 -120.5 t-44 -131.5t-87 -66q-29 0 -48.5 17.5t-19.5 46.5z" />
<glyph unicode="&#x2022;" horiz-adv-x="532" d="M147 532q0 51 35 86t84 35q51 0 85 -34.5t34 -86.5q0 -49 -34 -82.5t-85 -33.5q-49 0 -84 33.5t-35 82.5z" />
<glyph unicode="&#x2026;" horiz-adv-x="825" d="M147 55v68q0 29 19.5 48t48.5 19t48.5 -19t19.5 -48v-68q0 -29 -19.5 -47t-48.5 -18t-48.5 18t-19.5 47zM346 55v68q0 29 19.5 48t48 19t48 -19t19.5 -48v-68q0 -29 -19.5 -47t-48 -18t-48 18t-19.5 47zM545 55v68q0 29 19.5 48t48 19t48 -19t19.5 -48v-68 q0 -29 -19.5 -47t-48 -18t-48 18t-19.5 47z" />
<glyph unicode="&#x202f;" horiz-adv-x="368" />
<glyph unicode="&#x2039;" horiz-adv-x="600" d="M133 469q0 20 10 37l203 295q20 27 55 26q29 0 48.5 -18t19.5 -47q0 -18 -14 -39l-179 -254l183 -268q10 -20 10 -37q0 -29 -20.5 -47.5t-49.5 -18.5q-33 0 -53 27l-205 309q-8 10 -8 35z" />
<glyph unicode="&#x203a;" horiz-adv-x="602" d="M133 164q0 16 10 37l183 268l-179 254q-14 20 -14 39q0 27 19.5 46t48.5 19q37 0 55 -28l203 -293q10 -16 10 -37q0 -25 -8 -35l-205 -309q-20 -27 -55 -27q-29 0 -48.5 18.5t-19.5 47.5z" />
<glyph unicode="&#x205f;" horiz-adv-x="460" />
<glyph unicode="&#x20ac;" horiz-adv-x="1179" d="M133 520.5q0 28.5 19.5 47t48.5 18.5h35q-2 10 -3 26v76q0 20 3 31h-35q-29 0 -48.5 18.5t-19.5 47t19.5 47t48.5 18.5h51q43 207 175 343t304 136q143 0 254 -72q29 -16 29 -55q0 -29 -21.5 -48t-48.5 -19q-20 0 -39 12q-70 51 -174 51q-127 0 -215 -96t-123 -252h432 q29 0 48.5 -18.5t19.5 -47t-19.5 -47t-48.5 -18.5h-448q-4 -45 -4 -72v-35q0 -16 2 -26h450q29 0 48.5 -18.5t19.5 -47t-19.5 -47t-48.5 -18.5h-430q31 -147 116 -241.5t202 -94.5q51 0 92 11t63.5 23.5t73.5 45.5q20 10 39 10q31 0 49.5 -19.5t18.5 -50t-25 -49.5 q-143 -100 -311 -100q-176 0 -300 128t-161 337h-51q-29 0 -48.5 18.5t-19.5 47z" />
<glyph unicode="&#x2122;" horiz-adv-x="1523" d="M133 1460.5q0 22.5 14.5 35.5t34.5 13h420q20 0 34.5 -13t14.5 -35.5t-14 -36t-35 -13.5h-162v-577q0 -49 -51 -49.5t-51 49.5v577h-156q-20 0 -34.5 13.5t-14.5 36zM653 836l72 628q10 45 49 45h39q37 0 47 -36l160 -539l166 539q10 37 49 36h37q18 0 32.5 -14t16.5 -33 l70 -626q0 -51 -48 -52q-51 0 -53 43l-51 506l-158 -514q-12 -35 -47 -35h-28q-37 0 -48 35l-151 514l-53 -506q-2 -43 -51.5 -42.5t-49.5 51.5z" />
<glyph unicode="&#xe000;" horiz-adv-x="945" d="M0 945h945v-945h-945v945z" />
<glyph unicode="&#xfb01;" horiz-adv-x="1105" d="M10 880.5q0 28.5 19.5 47t48.5 18.5h102q6 117 41 204t79 134t103.5 74.5t102.5 36t88 8.5q207 0 332 -90q29 -20 28 -51v-72q0 -29 -19.5 -48.5t-48 -19.5t-48 19.5t-19.5 48.5v37q-94 45 -225 45q-45 0 -85 -12.5t-85 -44t-73.5 -100t-35.5 -169.5h238q29 0 48.5 -18.5 t19.5 -47t-19.5 -47t-48.5 -18.5h-240v-747q0 -29 -19.5 -48.5t-48 -19.5t-48 19.5t-19.5 48.5v747h-100q-29 0 -48.5 18.5t-19.5 47zM819 68v811q0 29 19.5 48t48 19t48 -19.5t19.5 -47.5v-811q0 -29 -19.5 -48.5t-48 -19.5t-48 19.5t-19.5 48.5z" />
<glyph unicode="&#xfb02;" horiz-adv-x="1155" d="M10 882.5q0 28.5 19.5 46t48.5 17.5h102q6 117 41 204t79 134t103.5 74.5t102.5 36t88 8.5q205 0 332 -90q31 -31 30 -64v-901q0 -127 20.5 -171t82.5 -44q29 0 48 -18.5t19 -47t-19.5 -48t-47.5 -19.5q-139 0 -188.5 72.5t-49.5 275.5v879q-94 45 -227 45 q-43 0 -84 -13.5t-85 -45t-73.5 -100.5t-36.5 -167h238q29 0 48.5 -17.5t19.5 -46t-19.5 -48t-48.5 -19.5h-240v-747q0 -29 -19.5 -48.5t-48 -19.5t-48 19.5t-19.5 48.5v747h-100q-29 0 -48.5 19.5t-19.5 48z" />
<glyph unicode="&#xfb03;" horiz-adv-x="1771" d="M1485 68v811q0 29 19.5 48t48 19t48 -19.5t19.5 -47.5v-811q0 -29 -19.5 -48.5t-48 -19.5t-48 19.5t-19.5 48.5zM1485 1188v69q0 29 19.5 48.5t48 19.5t48 -19.5t19.5 -48.5v-69q0 -29 -19.5 -48.5t-48 -19.5t-48 19.5t-19.5 48.5zM676 880.5q0 28.5 19.5 47t48.5 18.5 h106q6 117 38 204t73 134t95 74.5t94 36t79 8.5q92 0 162 -29q43 -14 43 -63q0 -61 -66 -62h-10q-4 0 -16 4q-59 18 -113 19q-37 0 -71.5 -12.5t-73.5 -44t-65.5 -100t-33.5 -169.5h236q29 0 48.5 -18.5t19.5 -47t-19.5 -47t-48.5 -18.5h-238v-747q0 -29 -19 -48.5 t-48 -19.5t-48.5 19.5t-19.5 48.5v747h-104q-29 0 -48.5 18.5t-19.5 47zM10 880.5q0 28.5 19.5 47t48.5 18.5h106q6 117 38 204t73 134t95 74.5t94 36t79 8.5q92 0 162 -29q43 -14 43 -63q0 -61 -66 -62h-10q-4 0 -16 4q-59 18 -113 19q-37 0 -71.5 -12.5t-73.5 -44 t-65.5 -100t-33.5 -169.5h236q29 0 48.5 -18.5t19.5 -47t-19.5 -47t-48.5 -18.5h-238v-747q0 -29 -19 -48.5t-48 -19.5t-48.5 19.5t-19.5 48.5v747h-104q-29 0 -48.5 18.5t-19.5 47z" />
<glyph unicode="&#xfb04;" horiz-adv-x="1820" d="M1485 348v993q0 29 19.5 48.5t48 19.5t48 -19.5t19.5 -48.5v-993q0 -137 20.5 -177t83.5 -40q29 0 48.5 -18.5t19.5 -47t-19.5 -47t-48.5 -18.5q-139 0 -189 72.5t-50 275.5zM676 880.5q0 28.5 19.5 47t48.5 18.5h106q6 117 38 204t73 134t95 74.5t94 36t79 8.5 q92 0 162 -29q43 -14 43 -63q0 -61 -66 -62h-10q-4 0 -16 4q-59 18 -113 19q-37 0 -71.5 -12.5t-73.5 -44t-65.5 -100t-33.5 -169.5h236q29 0 48.5 -18.5t19.5 -47t-19.5 -47t-48.5 -18.5h-238v-747q0 -29 -19 -48.5t-48 -19.5t-48.5 19.5t-19.5 48.5v747h-104 q-29 0 -48.5 18.5t-19.5 47zM10 880.5q0 28.5 19.5 47t48.5 18.5h106q6 117 38 204t73 134t95 74.5t94 36t79 8.5q92 0 162 -29q43 -14 43 -63q0 -61 -66 -62h-10q-4 0 -16 4q-59 18 -113 19q-37 0 -71.5 -12.5t-73.5 -44t-65.5 -100t-33.5 -169.5h236q29 0 48.5 -18.5 t19.5 -47t-19.5 -47t-48.5 -18.5h-238v-747q0 -29 -19 -48.5t-48 -19.5t-48.5 19.5t-19.5 48.5v747h-104q-29 0 -48.5 18.5t-19.5 47z" />
</font>
</defs>
</svg>
