<?xml version="1.0" standalone="no"?>
<!DOCTYPE svg PUBLIC "-//W3C//DTD SVG 1.1//EN" "http://www.w3.org/Graphics/SVG/1.1/DTD/svg11.dtd" >
<svg xmlns="http://www.w3.org/2000/svg">
<metadata>
This is a custom SVG webfont generated by Font Squirrel.
Copyright   : 2007 Jan Maack published by FSI FontShop International GmbH
</metadata>
<defs>
<font id="SpeakTFLight" horiz-adv-x="1228" >
<font-face units-per-em="2048" ascent="1638" descent="-410" />
<missing-glyph horiz-adv-x="716" />
<glyph unicode=" "  horiz-adv-x="716" />
<glyph unicode="&#x09;" horiz-adv-x="716" />
<glyph unicode="&#xa0;" horiz-adv-x="716" />
<glyph unicode="!" horiz-adv-x="458" d="M215 0v76q0 14 14.5 14t14.5 -14v-76q0 -12 -14.5 -12t-14.5 12zM215 303v991q0 14 14.5 14.5t14.5 -14.5v-991q0 -14 -14.5 -14t-14.5 14z" />
<glyph unicode="&#x22;" horiz-adv-x="593" d="M174 926v366q0 14 14.5 14.5t14.5 -14.5v-366q0 -14 -14.5 -14t-14.5 14zM391 926v366q0 14 14.5 14.5t14.5 -14.5v-366q0 -14 -14.5 -14t-14.5 14z" />
<glyph unicode="#" horiz-adv-x="1204" d="M215 338q0 14 14 14h166l43 312h-162q-14 0 -14 14t17 14h163l45 322q4 12 15 12q12 0 12 -16l-43 -318h289l45 322q0 12 12 12q14 0 14 -12l-45 -322h189q14 0 14 -14t-14 -14h-193l-43 -312h189q14 0 14 -14t-14 -14h-193l-45 -312q-2 -12 -14 -12t-12 10q0 8 6 49 l12 93q10 61 25 172h-289l-43 -312q-2 -12 -13 -12q-14 0 -14 16l43 308h-162q-14 0 -14 14zM422 352h289l45 312h-289z" />
<glyph unicode="$" d="M248 129q0 12 12 12q4 0 8 -3t6 -3q164 -119 314 -119q166 0 260 84t94 230q0 88 -48 154.5t-121 102.5t-158 78t-157.5 79.5t-120.5 109.5t-48 166q0 131 102.5 214t241.5 83v102q0 14 14.5 14.5t14.5 -14.5v-104q141 -6 272 -105q6 -2 6 -12q0 -14 -16 -14q-4 0 -6 2 q-129 102 -285 102q-127 0 -221.5 -74.5t-94.5 -193.5q0 -88 48.5 -154.5t121 -102.5t157.5 -77t157.5 -80t121 -109.5t48.5 -166.5q0 -139 -83 -228.5t-226 -105.5v-109q0 -14 -14.5 -14t-14.5 14v105q-14 -2 -33 -2h-12q-158 0 -334 125q-6 6 -6 14z" />
<glyph unicode="%" d="M72 973q0 160 58 251t165 91q104 0 163.5 -91t59.5 -251q0 -336 -223 -336t-223 336zM100 973q0 -307 194.5 -307t194.5 307q0 135 -48 224t-146 89q-92 0 -143.5 -83t-51.5 -230zM289 12q0 6 2 8l627 1295q4 6 12 6q12 0 12 -12q0 -8 -2 -11l-627 -1294q-4 -4 -10 -4 q-14 0 -14 12zM711 330q0 160 58 251t165 91q104 0 163.5 -91.5t59.5 -250.5q0 -334 -223 -334t-223 334zM739 330q0 -307 194.5 -307t194.5 307q0 135 -48 224t-146 89q-92 0 -143.5 -83t-51.5 -230z" />
<glyph unicode="&#x26;" horiz-adv-x="1529" d="M213 344q0 135 81 213t228 143q-4 6 -33.5 40t-50 59.5t-46 64.5t-39 80t-13.5 78q0 123 80 205t201 82q115 0 194.5 -82t79.5 -197q0 -70 -25.5 -123t-81 -94t-99.5 -64.5t-124 -58.5l396 -477q129 160 129 291q0 14 14 14t14 -14q0 -59 -35.5 -146.5t-99.5 -167.5 q158 -162 317 -161q14 0 14.5 -14.5t-14.5 -14.5q-168 0 -337 170q-156 -180 -383 -180q-158 0 -262.5 100t-104.5 254zM242 344q0 -152 102 -240t236 -88q207 0 362 174l-401 486q-74 -33 -116 -57.5t-90 -63.5t-70.5 -91t-22.5 -120zM369 1022q0 -119 180 -309 q20 10 76.5 37.5t78 40t61.5 40t56.5 52t30.5 63.5t14 84q0 102 -72.5 176t-172.5 74q-111 0 -181.5 -73.5t-70.5 -184.5z" />
<glyph unicode="'" horiz-adv-x="376" d="M174 926v366q0 14 14.5 14.5t14.5 -14.5v-366q0 -14 -14.5 -14t-14.5 14z" />
<glyph unicode="(" horiz-adv-x="802" d="M215 528q0 178 36 334t86 250t104.5 164t88 97.5t37.5 27.5q2 2 6 2q14 0 15 -14q0 -8 -6 -13l-27 -20q-39 -31 -84 -86.5t-100.5 -152.5t-91 -252.5t-35.5 -336.5q0 -168 34.5 -306t82 -218t99.5 -135t82.5 -75.5t37.5 -20.5q8 -2 8 -14.5t-15 -12.5q-8 0 -16 6 q-18 8 -43 25.5t-83 80t-102 141.5t-79 220t-35 309z" />
<glyph unicode=")" horiz-adv-x="802" d="M215 -242q0 8 10 15l25 16q41 23 86 69t99 130t90 225t36 315q0 180 -36 336t-91 253t-102 153.5t-86 85.5l-25 20q-6 4 -6 13q0 14 14 14q6 0 9 -2l26 -21q43 -33 89 -90t104.5 -158.5t95.5 -259t37 -344.5q0 -168 -36 -309t-80 -220t-101.5 -141.5t-83 -80t-43.5 -25.5 q-8 -6 -17 -6q-14 0 -14 12z" />
<glyph unicode="*" horiz-adv-x="862" d="M133 1096q0 12 12 12q2 0 5 -2q6 0 10 -2l256 -94v276q0 14 14 14t14 -14v-276l258 96q4 2 13 2q14 0 14 -12q0 -14 -14 -17l-262 -96l172 -231q6 -10 6 -15q0 -14 -15 -14q-4 0 -12 8l-174 236l-174 -236q-6 -6 -12 -6q-12 0 -13 12q0 4 7 15l172 231l-267 98 q-10 5 -10 15z" />
<glyph unicode="+" d="M209 463q0 14 14 14h377v377q0 14 14.5 14t14.5 -14v-377h377q14 0 14 -14t-14 -14h-377v-379q0 -14 -14.5 -14.5t-14.5 14.5v379h-377q-14 0 -14 14z" />
<glyph unicode="," horiz-adv-x="376" d="M86 -215q0 6 6 12q82 82 82 279q0 14 14.5 14t14.5 -14v-8q0 -199 -90 -289q-6 -6 -13 -6q-14 0 -14 12z" />
<glyph unicode="-" horiz-adv-x="954" d="M215 463q0 14 14 14h496q14 0 14 -14t-14 -14h-496q-14 0 -14 14z" />
<glyph unicode="." horiz-adv-x="376" d="M174 2v74q0 14 14.5 14t14.5 -14v-74q0 -12 -14.5 -12t-14.5 12z" />
<glyph unicode="/" horiz-adv-x="806" d="M113 -188q0 2 4 14l553 1462q2 8 12 8q12 0 12 -12q0 -2 -2 -4q0 -6 -2 -10l-551 -1463q-2 -8 -14 -7.5t-12 12.5z" />
<glyph unicode="0" d="M170 647q0 307 121 490.5t323 183.5q201 0 323 -185.5t122 -488.5q0 -311 -117 -484t-328 -173t-327.5 173t-116.5 484zM199 647q0 -297 110.5 -464t305 -167t305 167t110.5 464q0 168 -42 310.5t-139 238.5t-235 96q-190 0 -302.5 -175t-112.5 -470z" />
<glyph unicode="1" d="M322 14.5q0 14.5 14 14.5h311v1239l-215 -142q-2 -2 -6 -2q-14 0 -14 15q0 8 6 12l235 156q2 2 9 2q14 0 14 -15v-1265h366q14 0 14.5 -14.5t-14.5 -14.5h-706q-14 0 -14 14.5z" />
<glyph unicode="2" d="M244 12q0 82 68.5 182.5t167 197.5t197.5 194.5t167.5 203t68.5 195.5q0 94 -30.5 159.5t-84 95.5t-101.5 41t-101 11q-158 0 -291 -92q-2 0 -6 -2l-4 -2q-14 0 -14 14q0 6 6 11q152 100 309 100q39 0 78 -5t90 -25.5t88 -55.5t63.5 -99.5t26.5 -150.5 q0 -53 -25.5 -113.5t-51 -103.5t-93 -119t-94.5 -102l-113 -113q-98 -98 -144 -148t-96.5 -125t-52.5 -132h666q14 0 14 -14.5t-14 -14.5h-678q-16 0 -16 12z" />
<glyph unicode="3" d="M229 98q0 14 13 15q8 0 14 -7l18 -14q109 -76 308 -76q147 0 250.5 91.5t103.5 220.5q0 88 -36 152.5t-96.5 99t-125 50t-135.5 15.5h-56q-14 0 -14 14.5t14 14.5h56q143 0 256.5 80t113.5 233q0 80 -26.5 138.5t-62.5 89t-86 50t-87 23.5t-76 4q-147 0 -274 -90 q-10 -6 -14 -6q-12 0 -13 14q0 6 7 13q10 10 40.5 29.5t104.5 44t149 24.5q37 0 74 -4t93.5 -24.5t97.5 -53.5t71.5 -98.5t30.5 -153.5q0 -129 -77 -214t-208 -111q117 -18 197 -82t102 -172q8 -31 9 -80q0 -143 -112 -240.5t-271 -97.5q-104 0 -192.5 25.5t-116 43 t-40.5 29.5q-4 4 -4 10z" />
<glyph unicode="4" d="M145 369q0 2 5 14q59 141 151 290.5t164 247t166 205t114 127.5l52 52q4 4 10 4q12 0 12 -13q0 -6 -4 -10l-24 -24q-23 -27 -64 -73t-93 -106.5t-113.5 -141.5t-120 -167t-118 -189.5t-102.5 -201.5h613v655q0 14 14 14.5t14 -14.5v-655h166q14 0 14 -14.5t-14 -14.5 h-166v-340q0 -14 -14 -14t-14 14v340h-633q-15 1 -15 15z" />
<glyph unicode="5" d="M266 98q0 14 13 15l12 -4q8 -8 38.5 -27t102.5 -42.5t148 -23.5q156 0 265 97.5t109 302.5q0 154 -105.5 255t-268.5 101q-150 0 -250 -67q-4 -4 -15 -5q-14 0 -14 15v579q0 14 16 15h582q14 0 14 -14.5t-14 -14.5h-569v-543q111 63 250 64q174 0 288.5 -109.5 t114.5 -275.5q0 -219 -120 -322.5t-283 -103.5q-84 0 -161 25.5t-106.5 44t-40.5 28.5q-6 6 -6 10z" />
<glyph unicode="6" d="M215 588q0 381 108.5 557t340.5 176q94 0 166.5 -23.5t98 -45t25.5 -27.5q4 -4 4 -11q0 -14 -16 -14q-4 0 -10 6l-10 8q-10 8 -21.5 17.5t-35 21t-50.5 19.5t-66.5 14t-84.5 6q-68 0 -120 -12t-111.5 -55t-98.5 -117t-64.5 -207t-25.5 -313q0 -279 97 -425.5t284 -146.5 q98 0 170.5 41t109.5 105.5t54.5 129t17.5 126.5q0 57 -17.5 115.5t-54.5 118t-109.5 97t-170.5 37.5q-141 0 -238 -77q-2 -2 -6 -2q-14 0 -14 14q0 6 4 10q96 84 254 84q106 0 185 -40t119 -104.5t58.5 -128t18.5 -124.5q0 -68 -18.5 -136.5t-58.5 -137t-119 -111.5 t-185 -43q-199 0 -304.5 152.5t-105.5 445.5z" />
<glyph unicode="7" d="M193 1294.5q0 14.5 14 14.5h774q14 0 14 -19q0 -53 -35.5 -140t-71.5 -153.5t-116 -205.5q-80 -141 -115.5 -209t-93 -188t-82 -211t-24.5 -169q0 -14 -14.5 -14t-14.5 14q0 80 24.5 173.5t84 216t94.5 187t117 212.5q209 362 219 477h-760q-14 0 -14 14.5z" />
<glyph unicode="8" d="M215 338q0 139 69.5 232.5t172.5 119.5q-205 80 -205 299q0 92 37 161t95 103.5t116.5 51t115.5 16.5q154 0 262.5 -85t108.5 -247q0 -113 -67.5 -209t-153.5 -127q106 -29 181 -105.5t75 -209.5q0 -172 -103.5 -260t-302.5 -88q-184 0 -292.5 94t-108.5 254zM244 338 q0 -166 109.5 -244t262.5 -78q377 0 377 322q0 59 -15 106.5t-46 79t-61.5 53t-80 36t-79 21.5t-79.5 15t-67 13q-31 8 -51 8q-106 0 -188 -92.5t-82 -239.5zM281 989q0 -63 16 -113.5t52 -83t69 -53t93 -36t94 -20.5l102 -15q90 0 170.5 97t80.5 224q0 84 -34.5 147.5 t-90 95.5t-109.5 46t-107.5 14t-106.5 -14t-107.5 -46t-88 -95.5t-33.5 -147.5z" />
<glyph unicode="9" d="M215 891q0 66 18.5 134.5t58.5 138t118.5 113.5t185.5 44q199 0 303.5 -153.5t104.5 -446.5q0 -381 -108 -556t-339 -175q-94 0 -168 23.5t-99.5 45t-25.5 27.5q-4 4 -4 10q0 14 14 15q6 0 13 -7q25 -31 93.5 -59.5t176.5 -28.5q68 0 120 12.5t110.5 55.5t97.5 116.5 t64.5 206t25.5 314.5q0 279 -96.5 425t-282.5 146q-98 0 -172 -41t-111 -105.5t-53 -129t-16 -125.5q0 -59 16 -117.5t53 -118t111 -96.5t172 -37q137 0 235 80q4 4 11 4q14 0 14 -16q0 -6 -6 -12q-100 -84 -254 -84q-106 0 -185 39.5t-119 104t-58.5 128.5t-18.5 125z" />
<glyph unicode=":" horiz-adv-x="376" d="M174 0v76q0 14 14.5 14t14.5 -14v-76q0 -12 -14.5 -12t-14.5 12zM174 827v74q0 14 14.5 14t14.5 -14v-74q0 -14 -14.5 -14t-14.5 14z" />
<glyph unicode=";" horiz-adv-x="452" d="M164 -246q0 6 4 10q82 82 82 279q0 14 14.5 14t14.5 -14v-8q0 -199 -91 -289q-4 -4 -12 -4q-12 0 -12 12zM250 827v74q0 14 14.5 14t14.5 -14v-74q0 -14 -14.5 -14t-14.5 14z" />
<glyph unicode="&#x3c;" d="M207 461q0 10 6 12l786 399q2 2 9 2q12 0 12 -14q0 -10 -8 -12l-762 -387l762 -398q8 -2 8 -14t-14 -12q-6 0 -9 2l-784 410q-6 2 -6 12z" />
<glyph unicode="=" d="M209 360.5q0 14.5 14 14.5h783q14 0 14 -14.5t-14 -14.5h-783q-14 0 -14 14.5zM209 581.5q0 14.5 14 14.5h783q14 0 14 -14.5t-14 -14.5h-783q-14 0 -14 14.5z" />
<glyph unicode="&#x3e;" d="M207 49q0 12 8 14l762 398l-762 387q-8 2 -8 12q0 14 12 14q6 0 8 -2q51 -27 149.5 -77t145.5 -74q86 -43 258 -130t234 -118q6 -2 6 -12t-6 -12l-785 -410q-2 -2 -8 -2q-14 0 -14 12z" />
<glyph unicode="?" horiz-adv-x="1032" d="M195 1198q0 6 4 10q10 10 41.5 31t105.5 45.5t150 24.5q154 0 248 -99.5t94 -259.5q0 -70 -29 -127t-71 -92t-91 -78t-91 -85t-70.5 -113.5t-28.5 -163.5q0 -14 -14.5 -14.5t-14.5 14.5q2 223 164 354l51 41q59 47 85 71.5t53.5 78t27.5 114.5q0 145 -87 237.5t-226 92.5 q-131 0 -260 -80l-21 -14q-2 -2 -6 -2q-14 0 -14 14zM428 2v74q0 14 14.5 14t14.5 -14v-74q0 -12 -14.5 -12t-14.5 12z" />
<glyph unicode="@" horiz-adv-x="1552" d="M133 645q0 272 193.5 468t464.5 196q289 0 458.5 -151.5t169.5 -409.5q0 -160 -106.5 -270.5t-235.5 -110.5q-66 0 -96 39q-25 29 -25 83q-119 -119 -245 -118q-199 0 -199 202q0 145 94 277.5t248 132.5q49 0 108.5 -20.5t84.5 -40.5q6 -6 6 -13q-68 -387 -68 -422 q0 -43 16 -63q23 -29 76 -29q119 0 216.5 101.5t97.5 251.5q0 242 -163 387t-437 145q-258 0 -443.5 -187.5t-185.5 -447.5t184 -444.5t445 -184.5q199 0 356 109q2 2 8 2q12 0 12 -12q0 -8 -6 -13q-168 -113 -370 -112q-270 0 -464 192.5t-194 462.5zM541 571 q0 -137 114 -165q25 -6 56 -7q129 0 250 131l63 373q-57 35 -113 45q-31 6 -57 6q-139 0 -226 -125t-87 -258z" />
<glyph unicode="A" horiz-adv-x="1163" d="M72 14.5q0 14.5 10 38.5q94 313 164 512q182 545 278 721q12 23 56 23q45 0 55 -23q63 -125 175 -431t191.5 -549t79.5 -253q10 -25 10.5 -39t-12.5 -14q-10 0 -14 12q-14 55 -133 408h-705q-98 -309 -129 -408q-4 -12 -14 -12q-12 0 -12 14.5zM238 449h684 q-207 631 -312 823q-2 8 -30.5 8t-30.5 -8q-106 -198 -311 -823z" />
<glyph unicode="B" horiz-adv-x="1087" d="M215 14v1280q0 14 14 15h269q395 0 395 -328q0 -127 -67.5 -205t-149.5 -112q152 -27 215 -118t63 -208q0 -338 -458 -338h-267q-14 0 -14 14zM244 29h254q428 0 428 309q0 307 -371 307h-311v-616zM244 674h342q23 0 32 -2q16 4 33 10t60 30.5t72.5 55.5t55 88t25.5 125 q0 84 -30.5 145.5t-67.5 90t-97.5 44t-93 17.5t-81.5 2h-250v-606z" />
<glyph unicode="C" horiz-adv-x="1232" d="M133 653q0 285 166 476.5t416 191.5q225 0 377 -109q8 -6 8 -14q0 -12 -15 -12q-6 0 -10 4q-121 102 -360 102q-238 0 -395.5 -183t-157.5 -456q0 -276 150.5 -456.5t379.5 -180.5q195 0 369 97q2 2 8 2q14 0 14 -15q0 -10 -8 -12q-172 -98 -383 -98q-242 0 -400.5 187 t-158.5 476z" />
<glyph unicode="D" horiz-adv-x="1318" d="M215 14v1280q0 14 14 15h371q264 0 425 -184.5t161 -475.5q0 -289 -159 -469t-427 -180h-371q-14 0 -14 14zM244 29h356q256 0 406.5 171t150.5 449.5t-152.5 454.5t-404.5 176h-356v-1251z" />
<glyph unicode="E" horiz-adv-x="1007" d="M215 14v1280q0 14 14 15h582q14 0 14 -14.5t-14 -14.5h-567v-575h528q14 0 14 -14.5t-14 -14.5h-528v-647h606q14 0 14 -14.5t-14 -14.5h-621q-14 0 -14 14z" />
<glyph unicode="F" horiz-adv-x="948" d="M215 14v1280q0 14 14 15h582q14 0 14 -14.5t-14 -14.5h-567v-575h528q14 0 14 -14.5t-14 -14.5h-528v-662q0 -14 -14.5 -14t-14.5 14z" />
<glyph unicode="G" horiz-adv-x="1280" d="M133 651q0 285 166 477.5t416 192.5q78 0 151.5 -17.5t102 -30.5t90.5 -44q10 -6 10 -15q0 -14 -14 -14l-13 4q-158 88 -327 88q-238 0 -395.5 -184t-157.5 -457q0 -276 150.5 -455.5t379.5 -179.5q217 0 385 93v335q0 88 -23.5 111t-115.5 23h-168q-14 0 -14 14t14 14 h168q102 0 135 -30.5t33 -131.5v-346q0 -10 -8 -12q-180 -96 -406 -96q-242 0 -400.5 186t-158.5 475z" />
<glyph unicode="H" horiz-adv-x="1263" d="M215 14v1280q0 14 14.5 14.5t14.5 -14.5v-589h776v589q0 14 14.5 14.5t14.5 -14.5v-1280q0 -14 -14.5 -14t-14.5 14v662h-776v-662q0 -14 -14.5 -14t-14.5 14z" />
<glyph unicode="I" horiz-adv-x="458" d="M215 14v1280q0 14 14.5 14.5t14.5 -14.5v-1280q0 -14 -14.5 -14t-14.5 14z" />
<glyph unicode="J" horiz-adv-x="499" d="M-225 -233q0 14 14 14q2 0 4 -2q2 0 6 -2q66 -51 185 -51q96 0 184 84t88 264v1220q0 14 14.5 14.5t14.5 -14.5v-1220q0 -104 -31 -182t-80 -118t-97 -58.5t-93 -18.5q-127 0 -187 49l-14 8q-8 7 -8 13z" />
<glyph unicode="K" horiz-adv-x="1157" d="M215 14v1280q0 14 14.5 14.5t14.5 -14.5v-589h78q8 6 79 77q10 10 179.5 178t345.5 345q4 4 10 4q14 0 14 -13q0 -6 -6 -12l-594 -592q63 -43 140 -104.5t238 -223t292 -341.5q4 -4 4 -11q0 -12 -14 -12q-10 0 -13 6q-88 121 -187 233.5t-176 184.5t-151.5 133t-107.5 85 t-51 34h-80v-662q0 -14 -14.5 -14t-14.5 14z" />
<glyph unicode="L" horiz-adv-x="937" d="M215 14v1280q0 14 14.5 14.5t14.5 -14.5v-1265h608q14 0 14 -14.5t-14 -14.5h-623q-14 0 -14 14z" />
<glyph unicode="M" horiz-adv-x="1683" d="M174 16l145 1280q0 12 15 13h24q27 0 48 -27q70 -100 216 -544.5t209 -669.5h15q70 242 214 672.5t216 531.5q25 37 49 37h29q12 0 12 -13l143 -1280q0 -16 -12 -16q-16 0 -16 12q-82 705 -121 1102q-14 137 -19 168h-12q-55 0 -223 -489.5t-232 -729.5q-10 -25 -28 -24 h-15q-23 0 -28 24q-55 219 -224 719t-221 500h-12q-4 -31 -18 -168q-8 -72 -22.5 -200t-46.5 -396t-58 -506q0 -12 -15 -12q-12 0 -12 16z" />
<glyph unicode="N" horiz-adv-x="1255" d="M215 14v1280q0 14 14 15h25q33 0 49 -17q59 -59 330 -622q254 -545 338 -629q12 -12 41 -12v1265q0 14 14 14.5t14 -14.5v-1280q0 -14 -14 -14h-25q-43 0 -83 57q-102 141 -310 596q-96 209 -198 408q-92 186 -125 209q-14 10 -41 10v-1266q0 -14 -14.5 -14t-14.5 14z " />
<glyph unicode="O" horiz-adv-x="1353" d="M133 651.5q0 284.5 156.5 477t388.5 192.5q236 0 389.5 -190.5t153.5 -479.5q0 -291 -153 -476t-390 -185q-233 0 -389 188.5t-156 473zM162 651.5q0 -272.5 147.5 -454t368.5 -181.5q225 0 369.5 179.5t144.5 455.5q0 279 -144.5 460t-369.5 181q-221 0 -368.5 -184 t-147.5 -456.5z" />
<glyph unicode="P" horiz-adv-x="983" d="M215 14v1280q0 14 14 15h330q152 0 252 -93.5t100 -232.5q0 -184 -104.5 -272t-247.5 -88h-184q-14 0 -14.5 14t14.5 14h184q129 0 226.5 81t97.5 251q0 127 -92.5 212t-231.5 85h-315v-1266q0 -14 -14.5 -14t-14.5 14z" />
<glyph unicode="Q" horiz-adv-x="1349" d="M133 651q0 285 154.5 477.5t388.5 192.5q236 0 389.5 -190.5t153.5 -479.5q0 -299 -159 -480t-409 -181q115 -221 441 -221q33 0 64.5 3t51 5t21.5 2q14 0 14 -12.5t-14 -14.5q-45 -10 -135 -10q-350 0 -476 250q-209 20 -347 206.5t-138 452.5zM162 651.5 q0 -272.5 146.5 -454t367.5 -181.5q225 0 369.5 179.5t144.5 455.5q0 279 -144.5 460t-369.5 181q-221 0 -367.5 -184t-146.5 -456.5z" />
<glyph unicode="R" horiz-adv-x="1093" d="M215 14v1280q0 14 14 15h330q154 0 253 -89.5t99 -226.5q0 -168 -92 -253t-229 -93q203 -94 358 -528q33 -92 33 -105q0 -14 -12.5 -14t-16.5 10q-94 299 -217 467t-254 168h-106q-14 0 -14.5 14.5t14.5 14.5h184q31 0 63.5 4t83 22.5t86 50t63.5 95t28 147.5 q0 125 -91.5 206t-232.5 81h-315v-1266q0 -14 -14.5 -14t-14.5 14z" />
<glyph unicode="S" horiz-adv-x="991" d="M133 129q0 14 14 14q4 0 15 -8q164 -119 313 -119q166 0 260 84t94 230q0 88 -48 154.5t-120.5 102.5t-157.5 78t-158 79.5t-121 109.5t-48 166q0 133 102.5 217t241.5 84q154 0 301 -111q8 -6 8 -12q0 -16 -16 -16q-4 0 -8 4q-135 106 -285 106q-127 0 -221 -76.5 t-94 -195.5q0 -104 67.5 -177t163.5 -115t191.5 -86t163 -122t67.5 -190q0 -156 -104.5 -248t-278.5 -92q-180 0 -334 127q-8 6 -8 12z" />
<glyph unicode="T" horiz-adv-x="987" d="M51 1294.5q0 14.5 15 14.5h856q14 0 14 -14.5t-14 -14.5h-418v-1266q0 -14 -14.5 -14t-14.5 14v1266h-409q-15 0 -15 14.5z" />
<glyph unicode="U" horiz-adv-x="1220" d="M195 408v886q0 14 14 14.5t14 -14.5v-882q0 -39 7.5 -82t33 -101.5t65.5 -103.5t112.5 -77t169 -32t169 32t112.5 77t65.5 103.5t32.5 101.5t7 82v882q0 14 14.5 14.5t14.5 -14.5v-886q0 -55 -16.5 -116t-56.5 -134.5t-129 -120.5t-214 -47t-214 47t-129 120.5t-56 134.5 t-16 116z" />
<glyph unicode="V" horiz-adv-x="1163" d="M72 1286v10q0 12 14 13q8 0 12 -11q2 -4 36 -110.5t84 -264t107.5 -327.5t119 -326.5t104.5 -232.5q2 -8 30.5 -8t30.5 8q29 57 69 156.5t82 214t85 239.5t82 239.5t69.5 207t49.5 149.5l18 57q2 8 12 9q14 0 15 -13l-2 -2q0 -4 -1.5 -8t-1.5 -8q-29 -106 -196.5 -591.5 t-255.5 -663.5q-10 -23 -55 -23q-43 0 -56 23q-90 162 -231 581.5t-217 673.5z" />
<glyph unicode="W" horiz-adv-x="1634" d="M72 1296q0 12 14 13q10 0 14 -11q0 -12 59.5 -292.5t134.5 -595t107 -375.5q6 -6 35 -6q23 0 29 6q18 35 54 156.5t80 290.5t79 310.5t70.5 292t37.5 160.5q6 25 35 25q31 0 37 -25q41 -201 154.5 -666.5t154.5 -543.5q6 -6 31 -6t31 6q35 61 110.5 375.5t136 595 t60.5 292.5q4 10 12 11q14 0 15 -13q0 -16 -9 -47l-30 -153q-61 -313 -145.5 -658.5t-125.5 -414.5q-12 -23 -55 -23q-45 0 -55 23q-45 86 -155.5 544.5t-156.5 671.5q-4 4 -10 4q-4 0 -8 -4q-258 -1100 -326 -1219q-12 -20 -51 -20q-47 0 -59 23q-47 82 -142.5 502.5 t-154.5 723.5q-8 31 -8 47z" />
<glyph unicode="X" horiz-adv-x="1005" d="M72 14q0 4 2 6l438 699q-59 94 -122.5 186t-111 157.5t-87 117t-60.5 77.5l-20 27q-4 8 -5 14q0 10 15 11q8 0 14 -9q6 -6 54.5 -68.5t146.5 -201.5t192 -287l349 560q4 6 12 6q12 0 12 -13q0 -6 -2 -8l-354 -569q219 -342 387 -699q2 -2 2 -8q0 -12 -12.5 -12t-14.5 8 q-162 342 -379 684l-430 -686q-4 -6 -12 -6q-14 0 -14 14z" />
<glyph unicode="Y" horiz-adv-x="995" d="M72 1296q0 12 14 13q8 0 12 -11l21 -47q23 -47 52.5 -109.5t70.5 -145.5t79.5 -159.5t78.5 -148.5t67 -113q6 -8 30.5 -8t30.5 8q33 49 81 139.5t96.5 187.5t90.5 185.5t70.5 148.5t30.5 62q4 10 14 11q12 0 13 -13q0 -4 -2 -6l-2 -6q-297 -629 -367 -721 q-20 -23 -41 -22v-527q0 -14 -14.5 -14t-14.5 14v527q-20 0 -41 22q-57 76 -366 721z" />
<glyph unicode="Z" horiz-adv-x="952" d="M72 14v23q0 20 12 43q70 131 357.5 589.5t367.5 571.5q0 2 3 6t5 10.5t2 12.5v10h-733q-14 0 -14 14.5t14 14.5h748q14 0 14 -15v-24q0 -25 -14 -45q-84 -115 -376 -582t-347 -575q-10 -25 -11 -31v-8h766q14 0 14.5 -14.5t-14.5 -14.5h-780q-14 0 -14 14z" />
<glyph unicode="[" horiz-adv-x="720" d="M215 -135v1429q0 14 14 15h263q14 0 14 -14.5t-14 -14.5h-248v-1401h248q14 0 14 -14.5t-14 -14.5h-263q-14 1 -14 15z" />
<glyph unicode="\" horiz-adv-x="827" d="M113 1403q0 12 12 12t14 -8l574 -1526q2 -4 2 -10q0 -12 -12.5 -12t-14.5 8l-573 1526q-2 2 -2 10z" />
<glyph unicode="]" horiz-adv-x="720" d="M215 -135.5q0 14.5 14 14.5h248v1401h-248q-14 0 -14 14.5t14 14.5h263q14 0 14 -15v-1429q0 -14 -14 -15h-263q-14 0 -14 14.5z" />
<glyph unicode="^" horiz-adv-x="1050" d="M143 528q0 2 19 41l354 729q2 8 12.5 8.5t12.5 -8.5l348 -729q18 -39 18 -41q0 -14 -16 -14q-10 0 -12 8l-351 738l-356 -738q-2 -8 -14 -8q-15 0 -15 14z" />
<glyph unicode="_" horiz-adv-x="1046" d="M92 -127q0 14 14 14h834q14 0 14 -14t-14 -14h-834q-14 0 -14 14z" />
<glyph unicode="`" horiz-adv-x="647" d="M133 1278q0 14 14 14q2 0 15 -4l346 -147q6 -2 6 -14.5t-14 -12.5q-4 0 -23 8l-325 138q-19 10 -19 18z" />
<glyph unicode="a" horiz-adv-x="919" d="M113 242q0 256 366 256h234v161q0 82 -66.5 157t-195.5 75q-156 0 -263 -62q-2 0 -6 -3t-8 -3q-12 0 -12 13q0 8 8 14q121 70 281 70q141 0 215.5 -82t74.5 -179v-522q0 -94 60 -106l12 -2q14 0 14 -14.5t-14 -14.5q-10 0 -26.5 4t-42 28.5t-29.5 67.5 q-111 -111 -301 -110q-121 0 -211 64.5t-90 187.5zM141 242q0 -109 81 -167.5t192 -58.5q203 0 299 121v332h-234q-338 0 -338 -227z" />
<glyph unicode="b" horiz-adv-x="1003" d="M174 84v1311q0 14 14.5 14t14.5 -14v-553q137 78 289 78q184 0 291.5 -126t107.5 -337q0 -213 -110.5 -340t-295.5 -127q-174 0 -305 80q-6 4 -6 14zM203 90q137 -74 282 -74q182 0 279.5 130t97.5 311q0 203 -99 318.5t-271 115.5q-160 0 -289 -82v-719z" />
<glyph unicode="c" horiz-adv-x="942" d="M113 457q0 197 130 330t318 133q129 0 248 -80q6 -4 6 -13q0 -14 -14 -14q-4 0 -6 2q-109 76 -234 76q-178 0 -299 -124t-121 -310q0 -115 38 -212.5t126 -163t213 -65.5q152 0 291 78q2 2 8 2q12 0 12 -14q0 -8 -6 -12q-131 -80 -305 -80q-184 0 -294.5 127t-110.5 340z " />
<glyph unicode="d" horiz-adv-x="1009" d="M113 455q0 197 130 331t320 134q113 0 240 -78v553q0 14 14 14t14 -14v-1256q0 -51 19.5 -77.5t40.5 -30.5l12 -2q14 0 14.5 -14.5t-14.5 -14.5q-8 0 -23.5 4t-40 28.5t-32.5 65.5q-166 -109 -287 -108q-182 0 -294.5 127t-112.5 338zM141 455q0 -180 97.5 -309.5 t281.5 -129.5q117 0 283 113v680q-127 82 -240 82q-180 0 -301 -126t-121 -310z" />
<glyph unicode="e" horiz-adv-x="942" d="M113 451q0 215 109.5 342t289.5 127q141 0 225 -76t84 -164q0 -150 -167 -204t-511 -54q0 -170 97.5 -288t259.5 -118q139 0 282 66l27 12q2 2 8 2q12 0 12 -12q0 -10 -6 -12q-6 -6 -47 -24.5t-121 -38t-155 -19.5q-174 0 -280.5 126t-106.5 335zM141 449q354 0 503 54 t149 177q0 76 -77 143.5t-204 67.5q-168 0 -269.5 -113.5t-101.5 -328.5z" />
<glyph unicode="f" horiz-adv-x="653" d="M31 893q0 14 14 14h170q2 125 29.5 220.5t65.5 145.5t90.5 79.5t90 38t78.5 8.5q78 0 156 -25q10 -4 10 -14q0 -12 -12 -12h-8l-13 4q-63 18 -133 18q-35 0 -66.5 -6t-70.5 -23.5t-69.5 -51.5t-58.5 -82t-43 -125.5t-17 -174.5h317q14 0 14 -14t-14 -14h-317v-865 q0 -14 -14.5 -14t-14.5 14v865h-170q-14 0 -14 14z" />
<glyph unicode="g" horiz-adv-x="993" d="M20 -338q0 12 13 12l4 -2q4 0 6 -2q119 -86 272 -86q55 0 112.5 11.5t125.5 43t119 82t85 137.5t34 197v51q-127 -117 -291 -116q-180 0 -288 126t-108 341q0 203 122 333t313 130q143 0 268 -89q12 -8 12 -16v-760q0 -143 -52 -246.5t-134 -155.5t-161 -74.5t-157 -22.5 q-74 0 -144.5 22.5t-101 41t-38.5 26.5q-11 10 -11 16zM133 457q0 -203 99.5 -322t267.5 -119t291 129v664q-139 82 -252 82q-178 0 -292 -122t-114 -312z" />
<glyph unicode="h" horiz-adv-x="1001" d="M174 14v1381q0 14 14.5 14t14.5 -14v-557q143 82 291 82q190 0 261.5 -75t71.5 -272v-559q0 -14 -14 -14t-14 14v559q0 184 -63.5 251t-241.5 67q-74 0 -156 -25.5t-135 -60.5v-791q0 -14 -14.5 -14t-14.5 14z" />
<glyph unicode="i" horiz-adv-x="376" d="M174 14v879q0 14 14.5 14t14.5 -14v-879q0 -14 -14.5 -14t-14.5 14zM174 1227v76q0 14 14.5 14t14.5 -14v-76q0 -14 -14.5 -14t-14.5 14z" />
<glyph unicode="j" horiz-adv-x="387" d="M-299 -375q0 12 14 13q6 0 13 -7q68 -49 182 -49q43 0 87 16.5t88 53.5t71.5 109.5t27.5 168.5v963q0 14 14.5 14t14.5 -14v-963q0 -104 -30.5 -182t-80 -118t-97.5 -58t-95 -18q-121 0 -201 57q-8 6 -8 14zM184 1227v76q0 14 14.5 14t14.5 -14v-76q0 -14 -14.5 -14 t-14.5 14z" />
<glyph unicode="k" horiz-adv-x="866" d="M174 14v1381q0 14 14.5 14t14.5 -14v-875h104q6 4 51 49q16 14 336 332q6 6 13 6q14 0 14 -14q0 -6 -6 -12l-379 -373q43 -23 99.5 -65t164 -154.5t207.5 -257.5q8 -8 8 -19q0 -12 -12 -12q-10 0 -21 16q-229 330 -422 445l-51 31h-106v-478q0 -14 -14.5 -14t-14.5 14z " />
<glyph unicode="l" horiz-adv-x="440" d="M174 317v1078q0 14 14.5 14t14.5 -14v-1078q0 -170 34.5 -229t137.5 -59q14 0 14 -14.5t-14 -14.5q-115 0 -158 67.5t-43 249.5z" />
<glyph unicode="m" horiz-adv-x="1572" d="M174 14v879q0 14 14.5 14t14.5 -14v-55q141 82 278 82q193 0 258 -84q55 37 149.5 60.5t176.5 23.5q180 0 257 -76t77 -269v-561q0 -14 -14.5 -14t-14.5 14v561q0 180 -68.5 248t-236.5 68q-78 0 -167 -23.5t-142 -56.5q47 -80 47 -236v-561q0 -14 -14.5 -14t-14.5 14 v561q0 180 -63.5 248t-229.5 68q-152 0 -278 -84v-793q0 -14 -14.5 -14t-14.5 14z" />
<glyph unicode="n" horiz-adv-x="999" d="M174 14v879q0 14 14.5 14t14.5 -14v-55q143 82 291 82q188 0 259.5 -75t71.5 -270v-561q0 -14 -14 -14t-14 14v561q0 182 -64.5 249t-238.5 67q-74 0 -156 -25.5t-135 -60.5v-791q0 -14 -14.5 -14t-14.5 14z" />
<glyph unicode="o" horiz-adv-x="999" d="M113 451q0 213 106.5 341t280.5 128t280.5 -128t106.5 -341q0 -215 -103.5 -338t-283.5 -123q-174 0 -280.5 126t-106.5 335zM141 451q0 -199 97.5 -317t261.5 -118q170 0 264 115t94 319.5t-96 322.5t-262 118q-162 0 -260.5 -119.5t-98.5 -320.5z" />
<glyph unicode="p" horiz-adv-x="1003" d="M174 -477v1370q0 14 14.5 14t14.5 -14v-51q127 78 282 78q184 0 295 -125t111 -334q0 -201 -129 -336t-320 -135q-115 0 -239 80v-547q0 -14 -14.5 -14t-14.5 14zM203 104q139 -88 239 -88q178 0 299 128t121 317q0 197 -102.5 313.5t-274.5 116.5q-152 0 -282 -82v-705z " />
<glyph unicode="q" horiz-adv-x="1005" d="M113 455q0 211 112.5 338t294.5 127q141 0 303 -93q8 -2 8 -12v-1307q0 -14 -14 -14t-14 14v555q-59 -33 -143.5 -53t-147.5 -20q-180 0 -289.5 126t-109.5 339zM141 455q0 -201 101.5 -320t269.5 -119q63 0 150.5 22.5t140.5 57.5v709q-150 86 -283 86 q-184 0 -281.5 -127t-97.5 -309z" />
<glyph unicode="r" horiz-adv-x="690" d="M174 14v879q0 14 14.5 14t14.5 -14v-250q39 145 130 211t195 66q61 0 99 -17q12 -6 12 -14q0 -14 -14 -15l-17 5q-39 12 -80 12q-37 0 -72.5 -7t-83.5 -36t-83 -77t-60.5 -140t-25.5 -215v-402q0 -14 -14.5 -14t-14.5 14z" />
<glyph unicode="s" horiz-adv-x="817" d="M113 86q0 14 14 14q4 0 14 -6q6 -6 39 -22.5t100.5 -36t133.5 -19.5q115 0 188.5 61.5t73.5 160.5q0 61 -53.5 108t-129 80t-151.5 67.5t-129 87t-53 119.5q0 104 84 162t198 58q119 0 222 -56q10 -6 10 -14q0 -14 -15 -14q-4 0 -16 6q-94 49 -201 49q-100 0 -177 -49 t-77 -142q0 -74 81 -131t177.5 -91t177.5 -96.5t81 -143.5q0 -109 -82 -178.5t-209 -69.5q-72 0 -144.5 20.5t-107.5 39t-41 24.5q-8 6 -8 12z" />
<glyph unicode="t" horiz-adv-x="686" d="M4 893q0 14 14 14h170v289q0 14 14.5 14t14.5 -14v-289h320q14 0 14 -14t-14 -14h-320v-557q0 -96 23.5 -161t66.5 -94.5t85 -40t100 -10.5q68 0 120 31q2 2 9 2q14 0 14 -12t-8 -14q-57 -33 -135 -33q-63 0 -110.5 11t-94.5 43t-73 102.5t-26 175.5v557h-170 q-14 0 -14 14z" />
<glyph unicode="u" horiz-adv-x="999" d="M174 332v561q0 14 14.5 14t14.5 -14v-561q0 -180 55 -249t231 -69q174 0 308 133v746q0 14 14 14t14 -14v-879q0 -14 -14 -14t-14 14v97q-133 -121 -311.5 -121t-245 71.5t-66.5 270.5z" />
<glyph unicode="v" horiz-adv-x="876" d="M51 893q0 14 15 14q10 0 14 -10l16 -51q10 -25 61.5 -167t90.5 -245.5t90 -225.5t82 -177q6 -2 18.5 -2t16.5 2q43 84 129 299t150.5 389t64.5 178q4 10 12 10q14 0 14 -14l-12 -37q-43 -127 -162 -431t-172 -407q-8 -18 -41 -18q-29 0 -43 18q-113 188 -332 838z" />
<glyph unicode="w" horiz-adv-x="1347" d="M51 895q0 12 15 12q12 0 14 -12q0 -6 51 -198.5t114.5 -408.5t88.5 -255q4 -4 18.5 -4t16.5 2q33 53 140 398t136 456q2 20 31 20t31 -20q14 -78 124.5 -438.5t143.5 -413.5q4 -4 18 -4t19 6q23 41 86 255t116.5 407.5t53.5 197.5q2 12 14 12q14 0 14 -12l-2 -2 q0 -4 -1 -8t-1 -8q-45 -172 -135 -484.5t-123 -374.5q-10 -18 -41 -18q-35 0 -43 18q-33 59 -144.5 422t-125.5 439h-6q-14 -74 -130 -436.5t-151 -426.5q-10 -16 -41 -16q-33 0 -43 18q-33 59 -131 402.5t-123 456.5q0 4 -1 8t-1 8z" />
<glyph unicode="x" horiz-adv-x="794" d="M51 12q0 6 2 8l348 486q-154 199 -321 366l-10 11q-6 6 -7 12q0 12 15 12q6 0 12 -6q195 -195 328 -373l268 373q6 6 12 6q14 0 15 -14q0 -6 -4 -10l-273 -377q186 -248 305 -483q2 -2 2 -11q0 -12 -12 -12t-14 8q-102 203 -299 473l-340 -475q-4 -6 -12 -6q-15 0 -15 12 z" />
<glyph unicode="y" horiz-adv-x="860" d="M-213 -344q0 14 14 14q6 0 13 -6l14 -12q16 -12 19 -14.5t17.5 -12.5t22 -13t22.5 -10.5t28.5 -10.5t31 -7t38 -5t42.5 -1q131 0 220 86t188 338q-10 2 -23 14q-55 80 -145 293t-151.5 381t-67.5 191q0 4 -2 10q-2 2 -2 4q0 12 16 12q8 0 12 -10q0 -6 63.5 -180 t154.5 -390t145 -294q4 -4 10 -4q102 285 119 325q27 76 97.5 269.5t98.5 273.5q4 10 13 10q14 0 14 -12q0 -6 -12 -39l-287 -793q-78 -215 -150.5 -328.5t-141 -149.5t-169.5 -36q-90 0 -141 22.5t-115 72.5q-6 6 -6 12z" />
<glyph unicode="z" horiz-adv-x="915" d="M113 14q0 33 8 47q55 102 438 580q145 184 170 219q6 8 6 19h-606q-14 0 -14 14t14 14h623q12 0 12 -12v-16q0 -14 -10 -33q-14 -20 -172 -221q-109 -135 -205 -260q-211 -279 -232 -316q-6 -12 -6 -20h649q14 0 14.5 -14.5t-14.5 -14.5h-663q-12 0 -12 14z" />
<glyph unicode="{" horiz-adv-x="724" d="M174 579.5q0 14.5 14 14.5q10 0 23.5 6t32 41t18.5 94v408q0 172 225 172q63 0 64 -17q0 -14 -14 -14q-2 0 -16.5 1t-33.5 1q-76 0 -136 -30.5t-60 -112.5v-408q0 -119 -64 -157q63 -39 64 -158v-404q0 -80 59.5 -111.5t136.5 -31.5q14 0 24.5 1t17 2t8.5 1q14 0 14 -14 q0 -18 -64 -19q-37 0 -70.5 7.5t-71.5 23.5t-60.5 53t-22.5 88v404q0 59 -18.5 95t-31.5 43t-24 7q-14 0 -14 14.5z" />
<glyph unicode="|" horiz-adv-x="458" d="M215 -127v1479q0 14 14.5 14t14.5 -14v-1479q0 -14 -14.5 -14t-14.5 14z" />
<glyph unicode="}" horiz-adv-x="724" d="M174 -137q0 14 14 14l17 -2q14 -2 33 -2q74 0 135 33t61 110v404q0 119 64 158q-63 39 -64 157v408q0 82 -60.5 112.5t-135.5 30.5h-33l-17 -2q-14 0 -14 14q0 16 64 17q225 0 225 -172v-408q0 -59 18.5 -94t31.5 -41t24 -6q14 0 14 -14.5t-12 -14.5q-8 0 -22.5 -7 t-34 -43t-19.5 -95v-404q0 -51 -22.5 -88t-60.5 -53t-72 -23.5t-70 -7.5q-64 1 -64 19z" />
<glyph unicode="~" horiz-adv-x="770" d="M133 909q0 4 6 11q57 45 117 45q66 0 137 -27q55 -23 121 -23q51 0 100 37q4 4 11 4q12 0 12 -12q0 -6 -6 -12l-10 -8q-57 -35 -107 -35q-68 0 -129 22q-72 27 -129 27q-49 0 -98 -39q-4 -4 -11 -4q-14 0 -14 14z" />
<glyph unicode="&#xa1;" horiz-adv-x="458" d="M215 -360v983q0 14 14.5 14t14.5 -14v-983q0 -14 -14.5 -14t-14.5 14zM215 850v74q0 14 14.5 14t14.5 -14v-74q0 -14 -14.5 -14t-14.5 14z" />
<glyph unicode="&#xa2;" d="M266 457q0 182 116 313t290 148v108q0 14 14 14t14 -14v-106h15q129 0 248 -80q6 -4 6 -13q0 -14 -13 -14q-6 0 -8 2q-104 76 -233 76q-20 0 -58 -4q-156 -20 -259 -140t-103 -290q0 -115 38 -212.5t126 -163t213 -65.5q158 0 276 72q14 8 21 8q14 0 14 -14q0 -8 -6 -12 q-117 -70 -277 -80v-103q0 -14 -14 -14t-14 14v103q-184 0 -295 127t-111 340z" />
<glyph unicode="&#xa3;" d="M215 12.5q0 12.5 6 14.5q111 70 151 140.5t40 166.5q0 49 -31 264h-145q-14 0 -14.5 14.5t14.5 14.5h141q-10 82 -10 157q0 244 105.5 373t250.5 129q80 0 156 -24q12 -4 12 -15q0 -14 -12 -14l-17 4q-59 20 -139 20q-135 0 -231.5 -120.5t-96.5 -352.5q0 -76 11 -157 h378q14 0 14.5 -14.5t-14.5 -14.5h-374q31 -242 30 -264q0 -96 -36.5 -166t-131.5 -139h736q14 0 14 -14.5t-14 -14.5h-779q-14 0 -14 12.5z" />
<glyph unicode="&#xa4;" horiz-adv-x="1161" d="M215 561q0 145 98 248l-73 74q-4 4 -4 12q0 12 14 12q6 0 10 -4l74 -74q106 96 248 97q145 0 247 -99l74 76q4 4 10 4q14 0 15 -14q0 -6 -4 -10l-76 -74q98 -102 98 -248q0 -141 -96 -248l74 -73q4 -4 4 -11q0 -14 -15 -14q-6 0 -10 4l-74 74q-102 -98 -247 -98 q-147 0 -250 98l-72 -74q-4 -4 -10 -4q-14 0 -14 14q0 6 4 11l73 71q-98 103 -98 250zM244 561q0 -139 99 -238.5t238.5 -99.5t239 99.5t99.5 238.5t-99.5 238.5t-239 99.5t-238.5 -99.5t-99 -238.5z" />
<glyph unicode="&#xa5;" d="M193 364.5q0 14.5 14 14.5h395v166h-395q-14 0 -14 14t14 14h346q-68 131 -185.5 372t-168.5 343q-2 2 -2 8q0 12 14 13q10 0 12 -9q285 -575 314 -630q35 -72 49 -97h61q4 6 47 97q84 178 314 630q2 8 12 9q14 0 14 -13q0 -6 -2 -8q-51 -102 -169 -342.5t-185 -372.5 h313q14 0 14.5 -14t-14.5 -14h-360v-166h360q14 0 14.5 -14.5t-14.5 -14.5h-360v-336q0 -14 -14.5 -14t-14.5 14v336h-395q-14 0 -14 14.5z" />
<glyph unicode="&#xa6;" horiz-adv-x="458" d="M215 14v525q0 14 14.5 14t14.5 -14v-525q0 -14 -14.5 -14t-14.5 14zM215 985v526q0 14 14.5 14.5t14.5 -14.5v-526q0 -14 -14.5 -14t-14.5 14z" />
<glyph unicode="&#xa7;" d="M297 608q0 66 29.5 120t79 89t88 54.5t79.5 31.5q-2 2 -37.5 18.5t-43 19.5t-37 20.5t-37.5 26.5t-27.5 29.5t-26 40t-13.5 46t-7 57.5q0 104 86 161.5t201 57.5q59 0 116.5 -15t84 -28.5t40.5 -23.5q8 -6 9 -15q0 -14 -15 -14q-8 0 -12 4q-127 63 -223 64 q-104 0 -181 -49.5t-77 -141.5q0 -49 12 -84t44 -60.5t52.5 -37.5t69.5 -35l129 -63q49 -25 69.5 -36t63.5 -41t62.5 -56.5t37 -68.5t17.5 -91q0 -96 -75 -165t-155 -97q90 -45 141.5 -104.5t51.5 -170.5q0 -106 -82 -177t-209 -71q-72 0 -145.5 21.5t-108.5 40t-41 24.5 q-6 4 -6 13q0 12 12 12q8 0 13 -4q8 -8 44 -24.5t102.5 -35t129.5 -18.5q115 0 188.5 61.5t73.5 157.5q0 47 -13 86t-27.5 62.5t-47.5 47t-51 34t-61 30.5l-152 76q-51 27 -77.5 41t-64.5 43t-55.5 62.5t-17.5 74.5zM326 608q0 -37 17 -67.5t63.5 -61t80 -49t111.5 -55.5 l68 -33q20 6 52 22.5t77 46t75.5 77t30.5 100.5t-18.5 94t-56.5 72.5t-74.5 54t-92.5 51.5l-24 12l-25 13l-59 -21q-82 -27 -153.5 -93.5t-71.5 -162.5z" />
<glyph unicode="&#xa8;" horiz-adv-x="561" d="M133 1128v74q0 14 14.5 14.5t14.5 -14.5v-74q0 -14 -14.5 -14t-14.5 14zM399 1128v74q0 14 14.5 14.5t14.5 -14.5v-74q0 -14 -14.5 -14t-14.5 14z" />
<glyph unicode="&#xa9;" horiz-adv-x="1761" d="M215 845.5q0 274.5 195.5 470t470 195.5t470 -195.5t195.5 -470t-195.5 -470t-470 -195.5t-470 195.5t-195.5 470zM244 846q0 -262 187 -449.5t449.5 -187.5t450 187.5t187.5 449.5t-187.5 449.5t-450 187.5t-449.5 -187.5t-187 -449.5zM578 860q0 152 89 253t222 101 q127 0 201 -55q6 -6 6 -12q0 -14 -13 -14q-6 0 -8 2q-82 51 -186 51q-121 0 -202 -93.5t-81 -232.5q0 -141 77 -234.5t194 -93.5q96 0 190 52q2 2 8 2q12 0 12 -15q0 -10 -6 -12q-96 -55 -204 -55q-129 0 -214 101t-85 255z" />
<glyph unicode="&#xaa;" horiz-adv-x="1024" d="M246 823q0 193 272 193h168v117q0 74 -52 120.5t-136 46.5q-53 0 -101.5 -12t-74 -24.5t-27.5 -12.5q-14 0 -14 13q0 6 8 12q23 18 82 34.5t127 16.5q57 0 100 -19.5t64.5 -45t35 -57t15.5 -48t2 -24.5v-385q0 -33 12 -51.5t21.5 -21.5t17.5 -3q12 0 12 -14.5t-14 -14.5 q-57 0 -74 70q-82 -82 -217 -82q-90 0 -158.5 50t-68.5 142zM274 823q0 -80 59.5 -122t139.5 -42q139 0 213 91v239h-168q-244 0 -244 -166z" />
<glyph unicode="&#xab;" horiz-adv-x="835" d="M154 449q0 4 2 6l217 317q4 6 12 6q14 0 14 -12q0 -6 -4 -10l-213 -307l213 -324q4 -4 4 -10q0 -12 -14 -13q-10 0 -12 9l-217 329q-2 3 -2 9zM436 449q0 4 2 6l217 317q4 6 13 6q14 0 14 -12q0 -6 -4 -10l-213 -307l213 -324q4 -4 4 -10q0 -12 -14 -13q-10 0 -13 9 l-217 329q-2 3 -2 9z" />
<glyph unicode="&#xac;" d="M182 463q0 14 15 14h835q14 0 15 -14v-277q0 -14 -14.5 -14t-14.5 14v263h-821q-15 0 -15 14z" />
<glyph unicode="&#xad;" horiz-adv-x="872" d="M174 463q0 14 14 14h496q14 0 14 -14t-14 -14h-496q-14 0 -14 14z" />
<glyph unicode="&#xae;" horiz-adv-x="1761" d="M215 845.5q0 274.5 195.5 470t470 195.5t470 -195.5t195.5 -470t-195.5 -470t-470 -195.5t-470 195.5t-195.5 470zM244 846q0 -262 187 -449.5t449.5 -187.5t450 187.5t187.5 449.5t-187.5 449.5t-450 187.5t-449.5 -187.5t-187 -449.5zM690 528v670q0 14 17 14h172 q84 0 138 -49t54 -123q0 -158 -156 -186q111 -72 191 -317q2 -4 2 -11q0 -12 -14 -12q-10 0 -15 10q-47 154 -111.5 240t-129.5 86h-119v-322q0 -14 -14.5 -14t-14.5 14zM719 879h160q20 0 42.5 5t52.5 19.5t49 50t19 86.5q0 63 -46 103.5t-117 40.5h-160v-305z" />
<glyph unicode="&#xaf;" horiz-adv-x="790" d="M133 1128.5q0 14.5 14 14.5h496q14 0 14 -14.5t-14 -14.5h-496q-14 0 -14 14.5z" />
<glyph unicode="&#xb0;" horiz-adv-x="899" d="M174 897q0 154 74 246t201 92q125 0 200.5 -92t75.5 -246q0 -156 -73.5 -243t-203 -87t-202 87t-72.5 243zM201 897q0 -143 65.5 -223t182 -80t183 80t66.5 223q0 127 -64.5 219t-184.5 92q-127 0 -187.5 -93t-60.5 -218z" />
<glyph unicode="&#xb1;" d="M209 14.5q0 14.5 14 14.5h783q14 0 14 -14.5t-14 -14.5h-783q-14 0 -14 14.5zM209 598q0 14 14 14h377v377q0 14 14.5 14.5t14.5 -14.5v-377h377q14 0 14 -14t-14 -14h-377v-379q0 -14 -14.5 -14.5t-14.5 14.5v379h-377q-14 0 -14 14z" />
<glyph unicode="&#xb2;" horiz-adv-x="798" d="M209 641q0 51 53 119.5t117.5 125t118 127t53.5 126.5q0 70 -40 108.5t-114 38.5q-53 0 -131 -39l-10 -6q-2 -2 -8 -2q-14 0 -15 14q0 8 7 11l12 8q80 43 145 43q37 0 73 -9.5t73 -52.5t37 -114q0 -74 -80 -164t-167 -176t-95 -144h331q14 0 14.5 -14t-14.5 -14h-344 q-16 0 -16 14z" />
<glyph unicode="&#xb3;" horiz-adv-x="811" d="M211 684q0 14 14 14q8 0 17 -8q47 -41 155 -41q66 0 120 42t54 108q0 158 -221 157q-14 0 -14 14.5t16 14.5q207 0 207 154q0 72 -45 109.5t-119 37.5q-80 0 -139 -45q-2 -2 -8 -2q-12 0 -12 12q0 6 4 11l12 8q55 45 143 45q25 0 50.5 -5t61.5 -21.5t58.5 -54.5t22.5 -95 q0 -61 -35 -105.5t-94 -60.5q141 -43 141 -174q0 -74 -60.5 -126t-142.5 -52q-121 0 -180 51q-6 6 -6 12z" />
<glyph unicode="&#xb4;" horiz-adv-x="649" d="M133 1126.5q0 12.5 12 16.5l342 145q12 4 15 4q14 0 14 -12t-8 -14l-346 -148q-12 -4 -15 -4q-14 0 -14 12.5z" />
<glyph unicode="&#xb5;" horiz-adv-x="1001" d="M174 -223v1116q0 14 14.5 14t14.5 -14v-610q0 -147 73.5 -207t231.5 -60q178 0 291 113v764q0 14 14 14t14 -14v-879q0 -14 -14 -14t-14 14v82q-41 -41 -123 -73.5t-168 -32.5q-272 0 -305 153v-366q0 -14 -14.5 -14t-14.5 14z" />
<glyph unicode="&#xb6;" horiz-adv-x="1191" d="M174 983q0 139 100.5 232.5t251.5 93.5h478q14 0 14 -14.5t-14 -14.5h-99v-1448q0 -14 -14 -14t-14 14v1448h-150v-1448q0 -14 -14.5 -14t-14.5 14v791h-172q-143 0 -247.5 88t-104.5 272z" />
<glyph unicode="&#xb7;" horiz-adv-x="417" d="M174 532.5q0 34.5 35 34.5t35 -34.5t-35 -34.5t-35 34.5z" />
<glyph unicode="&#xb8;" horiz-adv-x="528" d="M133 -174l41 178q4 10 12 10q14 0 15 -14l-33 -147q57 20 96 20q53 0 92 -40t39 -107q0 -74 -53 -116t-111 -42q-33 0 -54 6t-27.5 12t-6.5 13q0 14 15 14q2 0 9 -4t23.5 -8t40.5 -4q49 0 92.5 33.5t43.5 95.5q0 57 -31 87.5t-72 30.5q-70 0 -108 -28q-4 -4 -11 -4 q-12 0 -12 14z" />
<glyph unicode="&#xb9;" horiz-adv-x="520" d="M129 1217q0 8 6 12l117 78q2 2 8 2q14 0 14 -15v-653q0 -14 -14 -14t-14 14v629l-90 -62q-8 -6 -15 -6q-12 1 -12 15z" />
<glyph unicode="&#xba;" horiz-adv-x="1069" d="M246 975q0 158 80 255t209 97t208.5 -97t79.5 -255q0 -160 -76.5 -252t-211.5 -92q-129 0 -209 95t-80 249zM274 975q0 -145 71 -230.5t190 -85.5q123 0 191.5 83t68.5 233q0 147 -71 235t-189 88q-117 0 -189 -88t-72 -235z" />
<glyph unicode="&#xbb;" horiz-adv-x="835" d="M154 115q0 6 4 10l213 324l-213 307q-4 4 -4 10q0 12 14 12q8 0 12 -6l217 -317q2 -2 2 -6q0 -6 -2 -9l-217 -329q-2 -8 -12 -9q-14 1 -14 13zM436 115q0 6 4 10l213 324l-213 307q-4 4 -4 10q0 12 15 12q8 0 12 -6l217 -317q2 -2 2 -6q0 -6 -2 -9l-217 -329 q-2 -8 -12 -9q-15 1 -15 13z" />
<glyph unicode="&#xbc;" horiz-adv-x="1533" d="M287 1217q0 8 6 12l117 78q2 2 8 2q14 0 14 -15v-653q0 -14 -14.5 -14t-14.5 14v629l-90 -62q-10 -6 -14 -6q-12 1 -12 15zM295 12q0 6 2 8l893 1295q2 6 12 6q14 0 15 -12q0 -2 -3 -4q-2 -2 -2 -7l-893 -1294q-4 -4 -10 -4q-14 0 -14 12zM807 199q0 2 2 4q2 6 2 10 q63 145 165.5 276.5t162.5 184.5q10 10 16 10q14 0 14 -12q0 -8 -10 -19l-35 -37q-186 -197 -282 -405h297v326q0 16 14 16t14 -16v-326h78q16 0 16.5 -14.5t-16.5 -14.5h-78v-166q0 -16 -14 -16t-14 16v166h-316q-16 1 -16 17z" />
<glyph unicode="&#xbd;" horiz-adv-x="1628" d="M287 1217q0 8 6 12l117 78q2 2 8 2q14 0 14 -15v-653q0 -14 -14.5 -14t-14.5 14v629l-90 -62q-10 -6 -14 -6q-12 1 -12 15zM295 12q0 6 2 8l893 1295q2 6 12 6q14 0 15 -12q0 -2 -3 -4q-2 -2 -2 -7l-893 -1294q-4 -4 -10 -4q-14 0 -14 12zM977 14q0 51 53 120t117.5 125 t118 127t53.5 126q0 70 -40 108.5t-114 38.5q-53 0 -131 -38l-10 -7q-2 -2 -8 -2q-14 0 -15 15q0 8 7 10l12 8q80 43 145 43q37 0 73 -9t73 -52t37 -115q0 -74 -80 -164t-167 -176t-95 -143h331q14 0 14.5 -14.5t-14.5 -14.5h-344q-16 0 -16 14z" />
<glyph unicode="&#xbe;" horiz-adv-x="1585" d="M276 682q0 14 15 14q8 0 16 -8q47 -41 154 -41q63 0 115.5 42t52.5 108q0 154 -215 153q-14 0 -14.5 14.5t16.5 14.5q205 0 205 147q0 72 -45.5 110t-116.5 38q-78 0 -137 -45q-2 -2 -9 -2q-12 0 -12 12q0 6 4 10l12 8q55 45 142 46q23 0 49.5 -5.5t61 -21.5t57 -54 t22.5 -96q0 -119 -127 -159q135 -41 135 -170q0 -74 -57 -126.5t-139 -52.5q-119 0 -178 52q-7 6 -7 12zM356 12q0 6 2 8l893 1295q2 6 13 6q14 0 14 -12q0 -2 -2 -4t-2 -7l-893 -1294q-4 -4 -10 -4q-15 0 -15 12zM868 199q0 2 2 4q2 6 2 10q63 145 166 276.5t162 184.5 q10 10 17 10q14 0 14 -12q0 -8 -10 -19l-35 -37q-186 -197 -283 -405h297v326q0 16 14.5 16t14.5 -16v-326h78q16 0 16 -14.5t-16 -14.5h-78v-166q0 -16 -14.5 -16t-14.5 16v166h-315q-17 1 -17 17z" />
<glyph unicode="&#xbf;" horiz-adv-x="1032" d="M195 -16q0 84 39.5 146.5t95 105.5t112 89t96.5 123.5t40 186.5q0 14 14 14t14 -14q0 -111 -40 -194t-96 -131t-111.5 -90t-95.5 -100.5t-40 -135.5q0 -143 87 -236.5t227 -93.5q150 0 258 80l22 14q2 2 6 2q14 0 15 -14q0 -6 -4 -10q-10 -10 -41 -30t-106 -45.5 t-150 -25.5q-150 0 -246 101.5t-96 257.5zM578 850v74q0 14 14 14t14 -14v-74q0 -14 -14 -14t-14 14z" />
<glyph unicode="&#xc0;" horiz-adv-x="1163" d="M72 14.5q0 14.5 10 38.5q94 313 164 512q182 545 278 721q12 23 56 23q45 0 55 -23q63 -125 175 -431t191.5 -549t79.5 -253q10 -25 10.5 -39t-12.5 -14q-10 0 -14 12q-14 55 -133 408h-705q-98 -309 -129 -408q-4 -12 -14 -12q-12 0 -12 14.5zM238 449h684 q-207 631 -312 823q-2 8 -30.5 8t-30.5 -8q-106 -198 -311 -823zM326 1688q0 14 14 14q2 0 14 -4l346 -148q6 -2 6.5 -14t-14.5 -12q-4 0 -22 8l-326 137q-18 11 -18 19z" />
<glyph unicode="&#xc1;" horiz-adv-x="1163" d="M72 14.5q0 14.5 10 38.5q94 313 164 512q182 545 278 721q12 23 56 23q45 0 55 -23q63 -125 175 -431t191.5 -549t79.5 -253q10 -25 10.5 -39t-12.5 -14q-10 0 -14 12q-14 55 -133 408h-705q-98 -309 -129 -408q-4 -12 -14 -12q-12 0 -12 14.5zM238 449h684 q-207 631 -312 823q-2 8 -30.5 8t-30.5 -8q-106 -198 -311 -823zM449 1536q0 12 12 16l342 146q12 4 14 4q14 0 14 -12.5t-8 -14.5l-346 -147q-12 -4 -14 -4q-14 0 -14 12z" />
<glyph unicode="&#xc2;" horiz-adv-x="1163" d="M72 14.5q0 14.5 10 38.5q94 313 164 512q182 545 278 721q12 23 56 23q45 0 55 -23q63 -125 175 -431t191.5 -549t79.5 -253q10 -25 10.5 -39t-12.5 -14q-10 0 -14 12q-14 55 -133 408h-705q-98 -309 -129 -408q-4 -12 -14 -12q-12 0 -12 14.5zM238 449h684 q-207 631 -312 823q-2 8 -30.5 8t-30.5 -8q-106 -198 -311 -823zM299 1536q0 10 10 16l262 136q2 2 10.5 2t10.5 -2l262 -138q8 -2 8 -12q0 -14 -12 -14q-6 0 -8 2l-260 135l-256 -131q-2 0 -6.5 -3t-8.5 -3q-12 0 -12 12z" />
<glyph unicode="&#xc3;" horiz-adv-x="1163" d="M72 14.5q0 14.5 10 38.5q94 313 164 512q182 545 278 721q12 23 56 23q45 0 55 -23q63 -125 175 -431t191.5 -549t79.5 -253q10 -25 10.5 -39t-12.5 -14q-10 0 -14 12q-14 55 -133 408h-705q-98 -309 -129 -408q-4 -12 -14 -12q-12 0 -12 14.5zM238 449h684 q-207 631 -312 823q-2 8 -30.5 8t-30.5 -8q-106 -198 -311 -823zM330 1544q0 6 6 12q45 45 117 46q59 0 126.5 -25t129.5 -25q16 0 31.5 4.5t27.5 9.5t21.5 10t15.5 9l6 4q4 4 10 4q12 0 13 -14q0 -6 -7 -12q-55 -43 -118 -43q-61 0 -129 24.5t-127 24.5q-61 0 -99 -37 q-4 -4 -10 -4q-14 0 -14 12z" />
<glyph unicode="&#xc4;" horiz-adv-x="1163" d="M72 14.5q0 14.5 10 38.5q94 313 164 512q182 545 278 721q12 23 56 23q45 0 55 -23q63 -125 175 -431t191.5 -549t79.5 -253q10 -25 10.5 -39t-12.5 -14q-10 0 -14 12q-14 55 -133 408h-705q-98 -309 -129 -408q-4 -12 -14 -12q-12 0 -12 14.5zM238 449h684 q-207 631 -312 823q-2 8 -30.5 8t-30.5 -8q-106 -198 -311 -823zM430 1538v74q0 14 14.5 14t14.5 -14v-74q0 -14 -14.5 -14t-14.5 14zM696 1538v74q0 14 14.5 14t14.5 -14v-74q0 -14 -14.5 -14t-14.5 14z" />
<glyph unicode="&#xc5;" horiz-adv-x="1163" d="M72 14.5q0 14.5 10 38.5q94 313 164 512q182 545 278 721q12 23 56 23q45 0 55 -23q63 -125 175 -431t191.5 -549t79.5 -253q10 -25 10.5 -39t-12.5 -14q-10 0 -14 12q-14 55 -133 408h-705q-98 -309 -129 -408q-4 -12 -14 -12q-12 0 -12 14.5zM238 449h684 q-207 631 -312 823q-2 8 -30.5 8t-30.5 -8q-106 -198 -311 -823zM457 1657q0 55 39 94t94 39t94 -39t39 -94t-39 -94t-94 -39t-94 39t-39 94zM485 1657q0 -43 31 -74t74 -31t73.5 31t30.5 74t-30.5 73.5t-73.5 30.5t-74 -30.5t-31 -73.5z" />
<glyph unicode="&#xc6;" horiz-adv-x="1654" d="M72 12l10 25q61 143 292.5 610t334.5 639q16 23 49 23h688q14 0 14 -14.5t-14 -14.5h-600q43 -182 88 -575h473q14 0 14 -14.5t-14 -14.5h-469q41 -461 41 -639v-8h508q14 0 14 -14.5t-14 -14.5h-522q-14 0 -15 14q0 244 -41 662q-207 -4 -350 -58.5t-260 -193.5 l-201 -416q-6 -8 -14 -8q-12 0 -12 12zM340 508q197 188 567 197q-43 375 -90 575h-59q-18 0 -27 -8q-117 -203 -391 -764z" />
<glyph unicode="&#xc7;" horiz-adv-x="1232" d="M133 653q0 285 166 476.5t416 191.5q238 0 377 -104q8 -6 8 -15q0 -12 -15 -12q-6 0 -10 4q-39 35 -132 66.5t-228 31.5q-238 0 -395.5 -183t-157.5 -456q0 -276 150.5 -456.5t379.5 -180.5q195 0 369 97q2 2 8 2q14 0 14 -15q0 -10 -8 -12q-172 -98 -383 -98 q-23 0 -59 4l-31 -141q51 18 96 18q51 0 90 -39t39 -106q0 -74 -52 -115t-109 -41q-88 0 -88 29q0 14 14 14q2 0 9 -4t23.5 -8t41.5 -4q49 0 92 33.5t43 95.5q0 57 -31 87.5t-72 30.5q-70 0 -108 -28q-4 -4 -10 -4q-12 0 -13 14l39 172q-209 29 -341 211t-132 444z" />
<glyph unicode="&#xc8;" horiz-adv-x="1007" d="M215 14v1280q0 14 14 15h582q14 0 14 -14.5t-14 -14.5h-567v-575h528q14 0 14 -14.5t-14 -14.5h-528v-647h606q14 0 14 -14.5t-14 -14.5h-621q-14 0 -14 14zM301 1688q0 14 14 14q2 0 15 -4l346 -148q6 -2 6 -14t-14 -12q-4 0 -23 8l-326 137q-18 11 -18 19z" />
<glyph unicode="&#xc9;" horiz-adv-x="1007" d="M215 14v1280q0 14 14 15h582q14 0 14 -14.5t-14 -14.5h-567v-575h528q14 0 14 -14.5t-14 -14.5h-528v-647h606q14 0 14 -14.5t-14 -14.5h-621q-14 0 -14 14zM322 1536q0 12 12 16l342 146q12 4 14 4q14 0 14.5 -12.5t-8.5 -14.5l-346 -147q-12 -4 -14 -4q-14 0 -14 12z " />
<glyph unicode="&#xca;" horiz-adv-x="1007" d="M215 14v1280q0 14 14 15h582q14 0 14 -14.5t-14 -14.5h-567v-575h528q14 0 14 -14.5t-14 -14.5h-528v-647h606q14 0 14 -14.5t-14 -14.5h-621q-14 0 -14 14zM240 1536q0 10 10 16l262 136q2 2 10 2t10 -2l263 -138q8 -2 8 -12q0 -14 -12 -14q-6 0 -9 2l-260 135 l-256 -131q-2 0 -6 -3t-8 -3q-12 0 -12 12z" />
<glyph unicode="&#xcb;" horiz-adv-x="1007" d="M215 14v1280q0 14 14 15h582q14 0 14 -14.5t-14 -14.5h-567v-575h528q14 0 14 -14.5t-14 -14.5h-528v-647h606q14 0 14 -14.5t-14 -14.5h-621q-14 0 -14 14zM369 1538v74q0 14 14 14t14 -14v-74q0 -14 -14 -14t-14 14zM635 1538v74q0 14 14.5 14t14.5 -14v-74 q0 -14 -14.5 -14t-14.5 14z" />
<glyph unicode="&#xcc;" horiz-adv-x="458" d="M-20 1688q0 14 14 14q4 0 12 -4l346 -148q6 -2 6 -14t-14 -12q-4 0 -22 8l-324 137q-18 11 -18 19zM215 14v1280q0 14 14.5 14.5t14.5 -14.5v-1280q0 -14 -14.5 -14t-14.5 14z" />
<glyph unicode="&#xcd;" horiz-adv-x="458" d="M102 1536q0 12 13 16l342 146q12 4 14 4q14 0 14 -12.5t-8 -14.5l-346 -147q-12 -4 -14 -4q-15 0 -15 12zM215 14v1280q0 14 14.5 14.5t14.5 -14.5v-1280q0 -14 -14.5 -14t-14.5 14z" />
<glyph unicode="&#xce;" horiz-adv-x="458" d="M-49 1536q0 10 10 16l260 136q2 2 10.5 2t10.5 -2l262 -138q8 -2 8 -12q0 -14 -12 -14q-6 0 -8 2l-261 135l-254 -131q-2 0 -6 -3t-8 -3q-12 0 -12 12zM215 14v1280q0 14 14.5 14.5t14.5 -14.5v-1280q0 -14 -14.5 -14t-14.5 14z" />
<glyph unicode="&#xcf;" horiz-adv-x="458" d="M82 1538v74q0 14 14.5 14t14.5 -14v-74q0 -14 -14.5 -14t-14.5 14zM215 14v1280q0 14 14.5 14.5t14.5 -14.5v-1280q0 -14 -14.5 -14t-14.5 14zM348 1538v74q0 14 14.5 14t14.5 -14v-74q0 -14 -14.5 -14t-14.5 14z" />
<glyph unicode="&#xd0;" horiz-adv-x="1402" d="M113 678q0 14 14 14h174v602q0 14 12 15h394q250 0 407.5 -185.5t157.5 -474.5q0 -287 -157 -468t-408 -181h-394q-12 0 -12 14v650h-174q-14 0 -14 14zM330 29h377q242 0 389 172t147 448.5t-149.5 453.5t-386.5 177h-377v-588h405q14 0 14.5 -14t-14.5 -14h-405v-635z " />
<glyph unicode="&#xd1;" horiz-adv-x="1255" d="M215 14v1280q0 14 14 15h25q33 0 49 -17q59 -59 330 -622q254 -545 338 -629q12 -12 41 -12v1265q0 14 14 14.5t14 -14.5v-1280q0 -14 -14 -14h-25q-43 0 -83 57q-102 141 -310 596q-96 209 -198 408q-92 186 -125 209q-14 10 -41 10v-1266q0 -14 -14.5 -14t-14.5 14z M365 1544q0 6 6 12q45 45 116 46q59 0 127 -25t129 -25q16 0 32 4.5t28 9.5t21.5 10t15.5 9l6 4q4 4 10 4q12 0 12 -14q0 -6 -6 -12q-55 -43 -119 -43q-61 0 -128.5 24.5t-127.5 24.5q-61 0 -98 -37q-4 -4 -10 -4q-14 0 -14 12z" />
<glyph unicode="&#xd2;" horiz-adv-x="1353" d="M133 651.5q0 284.5 156.5 477t388.5 192.5q236 0 389.5 -190.5t153.5 -479.5q0 -291 -153 -476t-390 -185q-233 0 -389 188.5t-156 473zM162 651.5q0 -272.5 147.5 -454t368.5 -181.5q225 0 369.5 179.5t144.5 455.5q0 279 -144.5 460t-369.5 181q-221 0 -368.5 -184 t-147.5 -456.5zM424 1688q0 14 14 14q2 0 15 -4l346 -148q6 -2 6 -14t-14 -12q-4 0 -23 8l-326 137q-18 11 -18 19z" />
<glyph unicode="&#xd3;" horiz-adv-x="1353" d="M133 651.5q0 284.5 156.5 477t388.5 192.5q236 0 389.5 -190.5t153.5 -479.5q0 -291 -153 -476t-390 -185q-233 0 -389 188.5t-156 473zM162 651.5q0 -272.5 147.5 -454t368.5 -181.5q225 0 369.5 179.5t144.5 455.5q0 279 -144.5 460t-369.5 181q-221 0 -368.5 -184 t-147.5 -456.5zM547 1536q0 12 12 16l342 146q12 4 14 4q14 0 14.5 -12.5t-7.5 -14.5l-347 -147q-12 -4 -14 -4q-14 0 -14 12z" />
<glyph unicode="&#xd4;" horiz-adv-x="1353" d="M133 651.5q0 284.5 156.5 477t388.5 192.5q236 0 389.5 -190.5t153.5 -479.5q0 -291 -153 -476t-390 -185q-233 0 -389 188.5t-156 473zM162 651.5q0 -272.5 147.5 -454t368.5 -181.5q225 0 369.5 179.5t144.5 455.5q0 279 -144.5 460t-369.5 181q-221 0 -368.5 -184 t-147.5 -456.5zM397 1536q0 10 11 16l262 136q2 2 10 2t10 -2l262 -138q8 -2 9 -12q0 -14 -13 -14q-6 0 -8 2l-260 135l-256 -131q-2 0 -6 -3t-8 -3q-13 0 -13 12z" />
<glyph unicode="&#xd5;" horiz-adv-x="1353" d="M133 651.5q0 284.5 156.5 477t388.5 192.5q236 0 389.5 -190.5t153.5 -479.5q0 -291 -153 -476t-390 -185q-233 0 -389 188.5t-156 473zM162 651.5q0 -272.5 147.5 -454t368.5 -181.5q225 0 369.5 179.5t144.5 455.5q0 279 -144.5 460t-369.5 181q-221 0 -368.5 -184 t-147.5 -456.5zM418 1544q0 6 6 12q45 45 117 46q59 0 126.5 -25t129.5 -25q16 0 31.5 4.5t27.5 9.5t21.5 10t15.5 9l6 4q4 4 10 4q12 0 13 -14q0 -6 -7 -12q-55 -43 -118 -43q-61 0 -129 24.5t-127 24.5q-61 0 -99 -37q-4 -4 -10 -4q-14 0 -14 12z" />
<glyph unicode="&#xd6;" horiz-adv-x="1353" d="M133 651.5q0 284.5 156.5 477t388.5 192.5q236 0 389.5 -190.5t153.5 -479.5q0 -291 -153 -476t-390 -185q-233 0 -389 188.5t-156 473zM162 651.5q0 -272.5 147.5 -454t368.5 -181.5q225 0 369.5 179.5t144.5 455.5q0 279 -144.5 460t-369.5 181q-221 0 -368.5 -184 t-147.5 -456.5zM518 1538v74q0 14 14.5 14t14.5 -14v-74q0 -14 -14.5 -14t-14.5 14zM784 1538v74q0 14 14.5 14t14.5 -14v-74q0 -14 -14.5 -14t-14.5 14z" />
<glyph unicode="&#xd7;" d="M233 834q0 14 15 14q6 0 10 -4l356 -357l355 357q4 4 12 4q12 0 12 -14q0 -6 -4 -11l-356 -354l352 -352q8 -8 8 -15q0 -12 -14 -12q-6 0 -12 6l-353 353l-356 -355q-4 -4 -10 -4q-12 0 -12 12q0 6 4 11l354 356l-354 354q-7 7 -7 11z" />
<glyph unicode="&#xd8;" horiz-adv-x="1355" d="M133 653q0 285 156.5 476.5t388.5 191.5q178 0 321 -123l68 107q2 6 12 6q12 0 13 -15q0 -4 -2 -6l-70 -110q203 -197 203 -527q0 -289 -154 -476t-391 -187q-184 0 -324 123l-63 -103q-6 -10 -15 -10q-14 0 -14 12q0 4 4 13l68 106q-201 196 -201 522zM162 653 q0 -311 186 -497l637 1018q-135 119 -307 118q-221 0 -368.5 -184.5t-147.5 -454.5zM369 137q133 -121 309 -121q223 0 369.5 180.5t146.5 456.5q0 317 -188 502z" />
<glyph unicode="&#xd9;" horiz-adv-x="1220" d="M195 408v886q0 14 14 14.5t14 -14.5v-882q0 -39 7.5 -82t33 -101.5t65.5 -103.5t112.5 -77t169 -32t169 32t112.5 77t65.5 103.5t32.5 101.5t7 82v882q0 14 14.5 14.5t14.5 -14.5v-886q0 -55 -16.5 -116t-56.5 -134.5t-129 -120.5t-214 -47t-214 47t-129 120.5t-56 134.5 t-16 116zM358 1688q0 14 15 14q2 0 14 -4l346 -148q6 -2 6 -14t-14 -12q-4 0 -23 8l-325 137q-19 11 -19 19z" />
<glyph unicode="&#xda;" horiz-adv-x="1220" d="M195 408v886q0 14 14 14.5t14 -14.5v-882q0 -39 7.5 -82t33 -101.5t65.5 -103.5t112.5 -77t169 -32t169 32t112.5 77t65.5 103.5t32.5 101.5t7 82v882q0 14 14.5 14.5t14.5 -14.5v-886q0 -55 -16.5 -116t-56.5 -134.5t-129 -120.5t-214 -47t-214 47t-129 120.5t-56 134.5 t-16 116zM483 1536q0 12 13 16l342 146q12 4 14 4q14 0 14 -12.5t-8 -14.5l-346 -147q-12 -4 -14 -4q-15 0 -15 12z" />
<glyph unicode="&#xdb;" horiz-adv-x="1220" d="M195 408v886q0 14 14 14.5t14 -14.5v-882q0 -39 7.5 -82t33 -101.5t65.5 -103.5t112.5 -77t169 -32t169 32t112.5 77t65.5 103.5t32.5 101.5t7 82v882q0 14 14.5 14.5t14.5 -14.5v-886q0 -55 -16.5 -116t-56.5 -134.5t-129 -120.5t-214 -47t-214 47t-129 120.5t-56 134.5 t-16 116zM334 1536q0 10 10 16l262 136q2 2 10.5 2t10.5 -2l262 -138q8 -2 8 -12q0 -14 -12 -14q-6 0 -8 2l-261 135l-256 -131q-2 0 -6 -3t-8 -3q-12 0 -12 12z" />
<glyph unicode="&#xdc;" horiz-adv-x="1220" d="M195 408v886q0 14 14 14.5t14 -14.5v-882q0 -39 7.5 -82t33 -101.5t65.5 -103.5t112.5 -77t169 -32t169 32t112.5 77t65.5 103.5t32.5 101.5t7 82v882q0 14 14.5 14.5t14.5 -14.5v-886q0 -55 -16.5 -116t-56.5 -134.5t-129 -120.5t-214 -47t-214 47t-129 120.5t-56 134.5 t-16 116zM489 1538v74q0 14 14.5 14t14.5 -14v-74q0 -14 -14.5 -14t-14.5 14zM756 1538v74q0 14 14 14t14 -14v-74q0 -14 -14 -14t-14 14z" />
<glyph unicode="&#xdd;" horiz-adv-x="995" d="M72 1296q0 12 14 13q8 0 12 -11l21 -47q23 -47 52.5 -109.5t70.5 -145.5t79.5 -159.5t78.5 -148.5t67 -113q6 -8 30.5 -8t30.5 8q33 49 81 139.5t96.5 187.5t90.5 185.5t70.5 148.5t30.5 62q4 10 14 11q12 0 13 -13q0 -4 -2 -6l-2 -6q-297 -629 -367 -721 q-20 -23 -41 -22v-527q0 -14 -14.5 -14t-14.5 14v527q-20 0 -41 22q-57 76 -366 721zM289 1536q0 12 12 16l342 146q12 4 14 4q14 0 14.5 -12.5t-7.5 -14.5l-347 -147q-12 -4 -14 -4q-14 0 -14 12z" />
<glyph unicode="&#xde;" horiz-adv-x="991" d="M174 14v1231q0 14 14.5 14.5t14.5 -14.5v-225h282q172 0 284 -104.5t112 -266.5q0 -160 -112 -262t-284 -102h-282v-271q0 -14 -14.5 -14t-14.5 14zM203 313h282q162 0 264.5 93.5t102.5 243t-103.5 245.5t-263.5 96h-282v-678z" />
<glyph unicode="&#xdf;" horiz-adv-x="1013" d="M174 14v1008q0 182 90 269t209 87q129 0 221 -75.5t92 -221.5q0 -74 -34.5 -137t-75.5 -98t-76 -77t-35 -79q0 -29 35 -60.5t84 -65.5t98 -74.5t84 -105.5t35 -142q0 -131 -90 -204t-246 -73q-72 0 -125 18.5t-71.5 35t-18.5 22.5q-4 4 -4 10q0 12 12 12q6 0 13 -6 q57 -63 194 -63q143 0 225 65.5t82 182.5q0 74 -34.5 135t-83.5 100t-98.5 72t-84 68.5t-34.5 72.5q0 45 34.5 90t75.5 79t76 93.5t35 128.5q0 135 -85 202t-200 67q-109 0 -189.5 -80t-80.5 -248v-1008q0 -14 -14.5 -14t-14.5 14z" />
<glyph unicode="&#xe0;" horiz-adv-x="919" d="M113 242q0 256 366 256h234v161q0 82 -66.5 157t-195.5 75q-156 0 -263 -62q-2 0 -6 -3t-8 -3q-12 0 -12 13q0 8 8 14q121 70 281 70q141 0 215.5 -82t74.5 -179v-522q0 -94 60 -106l12 -2q14 0 14 -14.5t-14 -14.5q-10 0 -26.5 4t-42 28.5t-29.5 67.5 q-111 -111 -301 -110q-121 0 -211 64.5t-90 187.5zM141 242q0 -109 81 -167.5t192 -58.5q203 0 299 121v332h-234q-338 0 -338 -227zM268 1278q0 14 15 14q2 0 14 -4l346 -147q6 -2 6 -14.5t-14 -12.5q-4 0 -23 8l-325 138q-19 10 -19 18z" />
<glyph unicode="&#xe1;" horiz-adv-x="919" d="M113 242q0 256 366 256h234v161q0 82 -66.5 157t-195.5 75q-156 0 -263 -62q-2 0 -6 -3t-8 -3q-12 0 -12 13q0 8 8 14q121 70 281 70q141 0 215.5 -82t74.5 -179v-522q0 -94 60 -106l12 -2q14 0 14 -14.5t-14 -14.5q-10 0 -26.5 4t-42 28.5t-29.5 67.5 q-111 -111 -301 -110q-121 0 -211 64.5t-90 187.5zM141 242q0 -109 81 -167.5t192 -58.5q203 0 299 121v332h-234q-338 0 -338 -227zM268 1126.5q0 12.5 13 16.5l342 145q12 4 14 4q14 0 14 -12t-8 -14l-346 -148q-12 -4 -14 -4q-15 0 -15 12.5z" />
<glyph unicode="&#xe2;" horiz-adv-x="919" d="M113 242q0 256 366 256h234v161q0 82 -66.5 157t-195.5 75q-156 0 -263 -62q-2 0 -6 -3t-8 -3q-12 0 -12 13q0 8 8 14q121 70 281 70q141 0 215.5 -82t74.5 -179v-522q0 -94 60 -106l12 -2q14 0 14 -14.5t-14 -14.5q-10 0 -26.5 4t-42 28.5t-29.5 67.5 q-111 -111 -301 -110q-121 0 -211 64.5t-90 187.5zM141 242q0 -109 81 -167.5t192 -58.5q203 0 299 121v332h-234q-338 0 -338 -227zM186 1126q0 10 11 17l262 135q2 2 10 2t10 -2l262 -137q8 -2 9 -13q0 -14 -13 -14q-6 0 -8 2l-260 135l-256 -131q-2 0 -6 -3t-8 -3 q-13 0 -13 12z" />
<glyph unicode="&#xe3;" horiz-adv-x="919" d="M113 242q0 256 366 256h234v161q0 82 -66.5 157t-195.5 75q-156 0 -263 -62q-2 0 -6 -3t-8 -3q-12 0 -12 13q0 8 8 14q121 70 281 70q141 0 215.5 -82t74.5 -179v-522q0 -94 60 -106l12 -2q14 0 14 -14.5t-14 -14.5q-10 0 -26.5 4t-42 28.5t-29.5 67.5 q-111 -111 -301 -110q-121 0 -211 64.5t-90 187.5zM141 242q0 -109 81 -167.5t192 -58.5q203 0 299 121v332h-234q-338 0 -338 -227zM184 1135q0 6 6 12q45 45 117 45q59 0 127 -24.5t129 -24.5q16 0 31.5 4t28 9t21.5 10t15 10l7 4q4 4 10 4q12 0 12 -15q0 -6 -6 -12 q-55 -43 -119 -43q-61 0 -128.5 24.5t-127.5 24.5q-61 0 -98 -37q-4 -4 -10 -4q-15 1 -15 13z" />
<glyph unicode="&#xe4;" horiz-adv-x="919" d="M113 242q0 256 366 256h234v161q0 82 -66.5 157t-195.5 75q-156 0 -263 -62q-2 0 -6 -3t-8 -3q-12 0 -12 13q0 8 8 14q121 70 281 70q141 0 215.5 -82t74.5 -179v-522q0 -94 60 -106l12 -2q14 0 14 -14.5t-14 -14.5q-10 0 -26.5 4t-42 28.5t-29.5 67.5 q-111 -111 -301 -110q-121 0 -211 64.5t-90 187.5zM141 242q0 -109 81 -167.5t192 -58.5q203 0 299 121v332h-234q-338 0 -338 -227zM315 1087v74q0 14 14.5 14.5t14.5 -14.5v-74q0 -14 -14.5 -14t-14.5 14zM582 1087v74q0 14 14 14.5t14 -14.5v-74q0 -14 -14 -14t-14 14z " />
<glyph unicode="&#xe5;" horiz-adv-x="919" d="M113 242q0 256 366 256h234v161q0 82 -66.5 157t-195.5 75q-156 0 -263 -62q-2 0 -6 -3t-8 -3q-12 0 -12 13q0 8 8 14q121 70 281 70q141 0 215.5 -82t74.5 -179v-522q0 -94 60 -106l12 -2q14 0 14 -14.5t-14 -14.5q-10 0 -26.5 4t-42 28.5t-29.5 67.5 q-111 -111 -301 -110q-121 0 -211 64.5t-90 187.5zM141 242q0 -109 81 -167.5t192 -58.5q203 0 299 121v332h-234q-338 0 -338 -227zM338 1247.5q0 55.5 39 94t94 38.5t94 -38.5t39 -94t-39 -94.5t-94 -39t-94 39t-39 94.5zM367 1247q0 -43 30.5 -73.5t73.5 -30.5t73.5 30.5 t30.5 73.5t-30.5 74t-73.5 31t-73.5 -31t-30.5 -74z" />
<glyph unicode="&#xe6;" horiz-adv-x="1484" d="M113 244q0 260 368 260h234v151q0 45 -21.5 95.5t-85 95.5t-155.5 45q-131 0 -250 -57q-25 -12 -29 -13q-12 0 -12 15q0 8 8 14q139 70 283 70q125 0 196.5 -66t85.5 -147q86 170 266 204q31 8 70 9q135 0 218 -77t83 -163q0 -131 -134 -168t-495 -37v-307 q96 -152 306 -152q133 0 245 66l21 12q2 2 8 2q12 0 12 -12q0 -10 -6 -12q-8 -8 -37.5 -24.5t-99.5 -37t-143 -20.5q-41 0 -82 6q-152 20 -240 147q-104 -123 -242 -147q-35 -6 -67 -6q-121 0 -213 65.5t-92 188.5zM141 244q0 -111 83 -169.5t194 -58.5q170 0 297 154v305 h-234q-340 0 -340 -231zM743 504q123 0 194 1t149.5 7t118.5 17.5t76 31t49 48t13 71.5q0 76 -74.5 143.5t-197.5 67.5q-111 0 -198 -63.5t-130 -174.5v-149z" />
<glyph unicode="&#xe7;" horiz-adv-x="942" d="M113 457q0 197 130 330t318 133q129 0 248 -80q6 -4 6 -13q0 -14 -14 -14q-4 0 -6 2q-109 76 -234 76q-178 0 -299 -124t-121 -310q0 -115 38 -212.5t126 -163t213 -65.5q152 0 291 78q2 2 8 2q12 0 12 -14q0 -8 -6 -12q-131 -80 -305 -80h-22l-31 -137q51 18 96 18 q51 0 90 -39t39 -106q0 -74 -52 -115t-110 -41q-88 0 -88 29q0 14 15 14q2 0 9 -4t23.5 -8t40.5 -4q49 0 92.5 33.5t43.5 95.5q0 57 -31 87.5t-72 30.5q-70 0 -108 -28q-4 -4 -11 -4q-12 0 -12 14l37 168q-160 12 -257 140t-97 323z" />
<glyph unicode="&#xe8;" horiz-adv-x="942" d="M113 451q0 215 109.5 342t289.5 127q141 0 225 -76t84 -164q0 -150 -167 -204t-511 -54q0 -170 97.5 -288t259.5 -118q139 0 282 66l27 12q2 2 8 2q12 0 12 -12q0 -10 -6 -12q-6 -6 -47 -24.5t-121 -38t-155 -19.5q-174 0 -280.5 126t-106.5 335zM141 449q354 0 503 54 t149 177q0 76 -77 143.5t-204 67.5q-168 0 -269.5 -113.5t-101.5 -328.5zM342 1278q0 14 14 14q2 0 15 -4l346 -147q6 -2 6 -14.5t-14 -12.5q-4 0 -23 8l-326 138q-18 10 -18 18z" />
<glyph unicode="&#xe9;" horiz-adv-x="942" d="M113 451q0 215 109.5 342t289.5 127q141 0 225 -76t84 -164q0 -150 -167 -204t-511 -54q0 -170 97.5 -288t259.5 -118q139 0 282 66l27 12q2 2 8 2q12 0 12 -12q0 -10 -6 -12q-6 -6 -47 -24.5t-121 -38t-155 -19.5q-174 0 -280.5 126t-106.5 335zM141 449q354 0 503 54 t149 177q0 76 -77 143.5t-204 67.5q-168 0 -269.5 -113.5t-101.5 -328.5zM342 1126.5q0 12.5 12 16.5l342 145q12 4 15 4q14 0 14 -12t-8 -14l-346 -148q-12 -4 -15 -4q-14 0 -14 12.5z" />
<glyph unicode="&#xea;" horiz-adv-x="942" d="M113 451q0 215 109.5 342t289.5 127q141 0 225 -76t84 -164q0 -150 -167 -204t-511 -54q0 -170 97.5 -288t259.5 -118q139 0 282 66l27 12q2 2 8 2q12 0 12 -12q0 -10 -6 -12q-6 -6 -47 -24.5t-121 -38t-155 -19.5q-174 0 -280.5 126t-106.5 335zM141 449q354 0 503 54 t149 177q0 76 -77 143.5t-204 67.5q-168 0 -269.5 -113.5t-101.5 -328.5zM260 1126q0 10 10 17l262 135q2 2 10.5 2t10.5 -2l262 -137q8 -2 8 -13q0 -14 -12 -14q-6 0 -8 2l-260 135l-256 -131q-2 0 -6.5 -3t-8.5 -3q-12 0 -12 12z" />
<glyph unicode="&#xeb;" horiz-adv-x="942" d="M113 451q0 215 109.5 342t289.5 127q141 0 225 -76t84 -164q0 -150 -167 -204t-511 -54q0 -170 97.5 -288t259.5 -118q139 0 282 66l27 12q2 2 8 2q12 0 12 -12q0 -10 -6 -12q-6 -6 -47 -24.5t-121 -38t-155 -19.5q-174 0 -280.5 126t-106.5 335zM141 449q354 0 503 54 t149 177q0 76 -77 143.5t-204 67.5q-168 0 -269.5 -113.5t-101.5 -328.5zM389 1087v74q0 14 14.5 14.5t14.5 -14.5v-74q0 -14 -14.5 -14t-14.5 14zM655 1087v74q0 14 14.5 14.5t14.5 -14.5v-74q0 -14 -14.5 -14t-14.5 14z" />
<glyph unicode="&#xec;" horiz-adv-x="376" d="M-2 1284q0 14 12 14q2 0 15 -4l346 -147q6 -4 6 -14q0 -12 -15 -13q-4 0 -22 8l-326 138q-16 10 -16 18zM174 14v879q0 14 14.5 14t14.5 -14v-879q0 -14 -14.5 -14t-14.5 14z" />
<glyph unicode="&#xed;" horiz-adv-x="376" d="M0 1126.5q0 12.5 10 16.5l342 145q12 4 15 4q14 0 14 -12t-8 -14l-346 -148q-12 -4 -15 -4q-12 0 -12 12.5zM174 14v879q0 14 14.5 14t14.5 -14v-879q0 -14 -14.5 -14t-14.5 14z" />
<glyph unicode="&#xee;" horiz-adv-x="376" d="M-100 1126q0 10 10 17l260 135q2 2 10 2t10 -2l263 -137q8 -2 8 -13q0 -14 -12 -14q-6 0 -9 2l-260 135l-254 -131q-2 0 -6 -3t-8 -3q-12 0 -12 12zM174 14v879q0 14 14.5 14t14.5 -14v-879q0 -14 -14.5 -14t-14.5 14z" />
<glyph unicode="&#xef;" horiz-adv-x="376" d="M39 1087v74q0 14 14.5 14.5t14.5 -14.5v-74q0 -14 -14.5 -14t-14.5 14zM174 14v879q0 14 14.5 14t14.5 -14v-879q0 -14 -14.5 -14t-14.5 14zM305 1087v74q0 14 14.5 14.5t14.5 -14.5v-74q0 -14 -14.5 -14t-14.5 14z" />
<glyph unicode="&#xf0;" horiz-adv-x="976" d="M111 496q0 78 20.5 149.5t63.5 135t118.5 101.5t175.5 38q172 0 347 -166q-14 346 -220 522l-225 -111l-12 -4q-12 0 -12 15q0 8 10 14l215 104q-137 106 -418 107h-10q-14 0 -14 14.5t14 14.5h39q272 0 422 -119l157 78q2 2 9 2q12 0 12 -15q0 -10 -8 -12l-148 -76 q211 -182 219 -571v-15q0 -348 -99 -530t-286 -182q-113 0 -191.5 50t-114.5 134t-50 160t-14 162zM139 496q0 -479 342 -480q176 0 266.5 178.5t90.5 516.5q-180 180 -349 180q-178 0 -264 -117.5t-86 -277.5z" />
<glyph unicode="&#xf1;" horiz-adv-x="999" d="M174 14v879q0 14 14.5 14t14.5 -14v-55q143 82 291 82q188 0 259.5 -75t71.5 -270v-561q0 -14 -14 -14t-14 14v561q0 182 -64.5 249t-238.5 67q-74 0 -156 -25.5t-135 -60.5v-791q0 -14 -14.5 -14t-14.5 14zM229 1135q0 6 7 12q45 45 116 45q59 0 127 -24.5t129 -24.5 q16 0 31.5 4t28 9t21.5 10t16 10l6 4q4 4 10 4q12 0 12 -15q0 -6 -6 -12q-55 -43 -119 -43q-61 0 -128.5 24.5t-127.5 24.5q-61 0 -98 -37q-4 -4 -10 -4q-15 1 -15 13z" />
<glyph unicode="&#xf2;" horiz-adv-x="999" d="M113 451q0 213 106.5 341t280.5 128t280.5 -128t106.5 -341q0 -215 -103.5 -338t-283.5 -123q-174 0 -280.5 126t-106.5 335zM141 451q0 -199 97.5 -317t261.5 -118q170 0 264 115t94 319.5t-96 322.5t-262 118q-162 0 -260.5 -119.5t-98.5 -320.5zM305 1278q0 14 14 14 q2 0 15 -4l346 -147q6 -2 6 -14.5t-14 -12.5q-4 0 -23 8l-325 138q-19 10 -19 18z" />
<glyph unicode="&#xf3;" horiz-adv-x="999" d="M113 451q0 213 106.5 341t280.5 128t280.5 -128t106.5 -341q0 -215 -103.5 -338t-283.5 -123q-174 0 -280.5 126t-106.5 335zM141 451q0 -199 97.5 -317t261.5 -118q170 0 264 115t94 319.5t-96 322.5t-262 118q-162 0 -260.5 -119.5t-98.5 -320.5zM305 1126.5 q0 12.5 12 16.5l342 145q12 4 15 4q14 0 14 -12t-8 -14l-346 -148q-12 -4 -15 -4q-14 0 -14 12.5z" />
<glyph unicode="&#xf4;" horiz-adv-x="999" d="M113 451q0 213 106.5 341t280.5 128t280.5 -128t106.5 -341q0 -215 -103.5 -338t-283.5 -123q-174 0 -280.5 126t-106.5 335zM141 451q0 -199 97.5 -317t261.5 -118q170 0 264 115t94 319.5t-96 322.5t-262 118q-162 0 -260.5 -119.5t-98.5 -320.5zM223 1126q0 10 10 17 l263 135q2 2 10 2t10 -2l262 -137q8 -2 8 -13q0 -14 -12 -14q-6 0 -8 2l-260 135l-256 -131q-2 0 -6 -3t-8 -3q-13 0 -13 12z" />
<glyph unicode="&#xf5;" horiz-adv-x="999" d="M113 451q0 213 106.5 341t280.5 128t280.5 -128t106.5 -341q0 -215 -103.5 -338t-283.5 -123q-174 0 -280.5 126t-106.5 335zM141 451q0 -199 97.5 -317t261.5 -118q170 0 264 115t94 319.5t-96 322.5t-262 118q-162 0 -260.5 -119.5t-98.5 -320.5zM248 1135q0 6 6 12 q45 45 117 45q59 0 126.5 -24.5t129.5 -24.5q16 0 31.5 4t27.5 9t21.5 10t15.5 10l6 4q4 4 10 4q12 0 13 -15q0 -6 -7 -12q-55 -43 -118 -43q-61 0 -129 24.5t-127 24.5q-61 0 -99 -37q-4 -4 -10 -4q-14 1 -14 13z" />
<glyph unicode="&#xf6;" horiz-adv-x="999" d="M113 451q0 213 106.5 341t280.5 128t280.5 -128t106.5 -341q0 -215 -103.5 -338t-283.5 -123q-174 0 -280.5 126t-106.5 335zM141 451q0 -199 97.5 -317t261.5 -118q170 0 264 115t94 319.5t-96 322.5t-262 118q-162 0 -260.5 -119.5t-98.5 -320.5zM352 1087v74 q0 14 14.5 14.5t14.5 -14.5v-74q0 -14 -14.5 -14t-14.5 14zM618 1087v74q0 14 14.5 14.5t14.5 -14.5v-74q0 -14 -14.5 -14t-14.5 14z" />
<glyph unicode="&#xf7;" d="M182 463q0 14 15 14h835q14 0 14.5 -14t-14.5 -14h-835q-15 0 -15 14zM600 18v74q0 14 14.5 14t14.5 -14v-74q0 -14 -14.5 -14t-14.5 14zM600 844v74q0 14 14.5 14t14.5 -14v-74q0 -14 -14.5 -14t-14.5 14z" />
<glyph unicode="&#xf8;" horiz-adv-x="1001" d="M113 451q0 213 106.5 341t280.5 128q139 0 233 -80l39 59q2 8 12 8q14 0 15 -12q0 -2 -2 -4t-2 -6l-41 -64q133 -133 133 -370q0 -215 -103.5 -338t-283.5 -123q-127 0 -221 69l-35 -53q-2 -6 -13 -6q-12 0 -12 12q0 4 4 13l33 53q-143 127 -143 373zM141 451 q0 -231 129 -351l449 715q-84 76 -219 76q-162 0 -260.5 -119.5t-98.5 -320.5zM293 82q90 -66 207 -66q170 0 264 115t94 320q0 86 -14 141q-29 129 -105 205z" />
<glyph unicode="&#xf9;" horiz-adv-x="999" d="M174 332v561q0 14 14.5 14t14.5 -14v-561q0 -180 55 -249t231 -69q174 0 308 133v746q0 14 14 14t14 -14v-879q0 -14 -14 -14t-14 14v97q-133 -121 -311.5 -121t-245 71.5t-66.5 270.5zM297 1278q0 14 14 14q2 0 15 -4l346 -147q6 -2 6 -14.5t-14 -12.5q-4 0 -23 8 l-326 138q-18 10 -18 18z" />
<glyph unicode="&#xfa;" horiz-adv-x="999" d="M174 332v561q0 14 14.5 14t14.5 -14v-561q0 -180 55 -249t231 -69q174 0 308 133v746q0 14 14 14t14 -14v-879q0 -14 -14 -14t-14 14v97q-133 -121 -311.5 -121t-245 71.5t-66.5 270.5zM297 1126.5q0 12.5 12 16.5l342 145q12 4 15 4q14 0 14 -12t-8 -14l-346 -148 q-12 -4 -15 -4q-14 0 -14 12.5z" />
<glyph unicode="&#xfb;" horiz-adv-x="999" d="M174 332v561q0 14 14.5 14t14.5 -14v-561q0 -180 55 -249t231 -69q174 0 308 133v746q0 14 14 14t14 -14v-879q0 -14 -14 -14t-14 14v97q-133 -121 -311.5 -121t-245 71.5t-66.5 270.5zM215 1126q0 10 10 17l262 135q2 2 10.5 2t10.5 -2l262 -137q8 -2 8 -13 q0 -14 -12 -14q-6 0 -8 2l-260 135l-256 -131q-2 0 -6.5 -3t-8.5 -3q-12 0 -12 12z" />
<glyph unicode="&#xfc;" horiz-adv-x="999" d="M174 332v561q0 14 14.5 14t14.5 -14v-561q0 -180 55 -249t231 -69q174 0 308 133v746q0 14 14 14t14 -14v-879q0 -14 -14 -14t-14 14v97q-133 -121 -311.5 -121t-245 71.5t-66.5 270.5zM344 1087v74q0 14 14.5 14.5t14.5 -14.5v-74q0 -14 -14.5 -14t-14.5 14zM610 1087 v74q0 14 14.5 14.5t14.5 -14.5v-74q0 -14 -14.5 -14t-14.5 14z" />
<glyph unicode="&#xfd;" horiz-adv-x="860" d="M-213 -344q0 14 14 14q6 0 13 -6l14 -12q16 -12 19 -14.5t17.5 -12.5t22 -13t22.5 -10.5t28.5 -10.5t31 -7t38 -5t42.5 -1q131 0 220 86t188 338q-10 2 -23 14q-55 80 -145 293t-151.5 381t-67.5 191q0 4 -2 10q-2 2 -2 4q0 12 16 12q8 0 12 -10q0 -6 63.5 -180 t154.5 -390t145 -294q4 -4 10 -4q102 285 119 325q27 76 97.5 269.5t98.5 273.5q4 10 13 10q14 0 14 -12q0 -6 -12 -39l-287 -793q-78 -215 -150.5 -328.5t-141 -149.5t-169.5 -36q-90 0 -141 22.5t-115 72.5q-6 6 -6 12zM236 1126.5q0 12.5 12 16.5l342 145q12 4 14 4 q14 0 14 -12t-8 -14l-346 -148q-12 -4 -14 -4q-14 0 -14 12.5z" />
<glyph unicode="&#xfe;" horiz-adv-x="1007" d="M174 -395v1753q0 14 14.5 14t14.5 -14v-512q121 74 284 74q184 0 296 -125t112 -334q0 -201 -130 -336t-321 -135q-117 0 -241 80v-465q0 -14 -14.5 -14t-14.5 14zM203 102q135 -86 241 -86q178 0 300 128t122 317q0 197 -103.5 313.5t-275.5 116.5t-284 -76v-713z" />
<glyph unicode="&#xff;" horiz-adv-x="860" d="M-213 -344q0 14 14 14q6 0 13 -6l14 -12q16 -12 19 -14.5t17.5 -12.5t22 -13t22.5 -10.5t28.5 -10.5t31 -7t38 -5t42.5 -1q131 0 220 86t188 338q-10 2 -23 14q-55 80 -145 293t-151.5 381t-67.5 191q0 4 -2 10q-2 2 -2 4q0 12 16 12q8 0 12 -10q0 -6 63.5 -180 t154.5 -390t145 -294q4 -4 10 -4q102 285 119 325q27 76 97.5 269.5t98.5 273.5q4 10 13 10q14 0 14 -12q0 -6 -12 -39l-287 -793q-78 -215 -150.5 -328.5t-141 -149.5t-169.5 -36q-90 0 -141 22.5t-115 72.5q-6 6 -6 12zM283 1128v74q0 14 14 14.5t14 -14.5v-74 q0 -14 -14 -14t-14 14zM549 1128v74q0 14 14.5 14.5t14.5 -14.5v-74q0 -14 -14.5 -14t-14.5 14z" />
<glyph unicode="&#x152;" horiz-adv-x="1742" d="M133 649q0 289 135 474.5t353 185.5h915q14 0 14 -14.5t-14 -14.5h-567v-575h528q14 0 14 -14.5t-14 -14.5h-528v-647h606q14 0 14 -14.5t-14 -14.5h-954q-219 0 -353.5 180t-134.5 469zM162 649q0 -279 126 -449.5t333 -170.5h319v1251h-319q-205 0 -332 -177.5 t-127 -453.5z" />
<glyph unicode="&#x153;" horiz-adv-x="1689" d="M113 451q0 213 106.5 341t280.5 128q147 0 245.5 -87.5t126.5 -240.5q25 117 97.5 198.5t179.5 112.5q59 16 111 17q141 0 226 -76t85 -164q0 -150 -168 -204t-514 -54q27 -406 391 -406q72 0 138.5 19.5t104.5 40t40 20.5q14 0 14 -12q0 -10 -6 -12q-8 -8 -40 -24.5 t-103.5 -37t-147.5 -20.5q-342 0 -406 334q-27 -158 -126 -246t-248 -88q-174 0 -280.5 126t-106.5 335zM141 451q0 -199 97.5 -317t261.5 -118q170 0 265 115t95 320v20q-6 197 -103.5 308.5t-256.5 111.5q-162 0 -260.5 -119.5t-98.5 -320.5zM889 451q354 0 503.5 53 t149.5 176q0 76 -76.5 143.5t-205.5 67.5q-160 0 -265.5 -116t-105.5 -294v-30z" />
<glyph unicode="&#x178;" horiz-adv-x="995" d="M72 1296q0 12 14 13q8 0 12 -11l21 -47q23 -47 52.5 -109.5t70.5 -145.5t79.5 -159.5t78.5 -148.5t67 -113q6 -8 30.5 -8t30.5 8q33 49 81 139.5t96.5 187.5t90.5 185.5t70.5 148.5t30.5 62q4 10 14 11q12 0 13 -13q0 -4 -2 -6l-2 -6q-297 -629 -367 -721 q-20 -23 -41 -22v-527q0 -14 -14.5 -14t-14.5 14v527q-20 0 -41 22q-57 76 -366 721zM356 1538v74q0 14 14.5 14t14.5 -14v-74q0 -14 -14.5 -14t-14.5 14zM623 1538v74q0 14 14 14t14 -14v-74q0 -14 -14 -14t-14 14z" />
<glyph unicode="&#x2c6;" horiz-adv-x="829" d="M133 1126q0 10 10 17l263 135q2 2 10 2t10 -2l262 -137q8 -2 8 -13q0 -14 -12 -14q-6 0 -8 2l-260 135l-256 -131q-2 0 -6 -3t-9 -3q-12 0 -12 12z" />
<glyph unicode="&#x2dc;" horiz-adv-x="770" d="M133 1135q0 6 6 12q45 45 117 45q59 0 127 -24.5t129 -24.5q16 0 31.5 4t28 9t21.5 10t15 10l6 4q4 4 11 4q12 0 12 -15q0 -6 -6 -12q-55 -43 -119 -43q-61 0 -129 24.5t-127 24.5q-61 0 -98 -37q-4 -4 -11 -4q-14 1 -14 13z" />
<glyph unicode="&#x2000;" horiz-adv-x="894" />
<glyph unicode="&#x2001;" horiz-adv-x="1789" />
<glyph unicode="&#x2002;" horiz-adv-x="894" />
<glyph unicode="&#x2003;" horiz-adv-x="1789" />
<glyph unicode="&#x2004;" horiz-adv-x="595" />
<glyph unicode="&#x2005;" horiz-adv-x="446" />
<glyph unicode="&#x2006;" horiz-adv-x="296" />
<glyph unicode="&#x2007;" horiz-adv-x="296" />
<glyph unicode="&#x2008;" horiz-adv-x="223" />
<glyph unicode="&#x2009;" horiz-adv-x="356" />
<glyph unicode="&#x200a;" horiz-adv-x="98" />
<glyph unicode="&#x2010;" horiz-adv-x="954" d="M215 463q0 14 14 14h496q14 0 14 -14t-14 -14h-496q-14 0 -14 14z" />
<glyph unicode="&#x2011;" horiz-adv-x="954" d="M215 463q0 14 14 14h496q14 0 14 -14t-14 -14h-496q-14 0 -14 14z" />
<glyph unicode="&#x2012;" horiz-adv-x="954" d="M215 463q0 14 14 14h496q14 0 14 -14t-14 -14h-496q-14 0 -14 14z" />
<glyph unicode="&#x2013;" horiz-adv-x="1079" d="M215 460.5q0 14.5 14 14.5h621q14 0 14 -14.5t-14 -14.5h-621q-14 0 -14 14.5z" />
<glyph unicode="&#x2014;" horiz-adv-x="1325" d="M215 460.5q0 14.5 14 14.5h867q14 0 14 -14.5t-14 -14.5h-867q-14 0 -14 14.5z" />
<glyph unicode="&#x2018;" horiz-adv-x="421" d="M154 1286v8q0 14 14 14.5t14 -14.5v-8q0 -197 82 -270q4 -4 4 -10q0 -14 -14 -15q-6 0 -10 4q-90 90 -90 291z" />
<glyph unicode="&#x2019;" horiz-adv-x="421" d="M154 1006q0 6 4 10q82 74 82 270v8q0 14 14 14.5t14 -14.5v-8q0 -195 -90 -291q-4 -4 -10 -4q-14 1 -14 15z" />
<glyph unicode="&#x201a;" horiz-adv-x="421" d="M154 -244q0 6 4 11q82 74 82 268v8q0 14 14 14t14 -14v-8q0 -193 -90 -289q-4 -4 -12 -4q-12 0 -12 14z" />
<glyph unicode="&#x201c;" horiz-adv-x="655" d="M154 1286v8q0 14 14 14.5t14 -14.5v-8q0 -197 82 -270q4 -4 4 -10q0 -14 -14 -15q-6 0 -10 4q-90 90 -90 291zM387 1286v8q0 14 14.5 14.5t14.5 -14.5v-8q0 -188 82 -270q4 -4 4 -10q0 -14 -15 -15q-6 0 -10 4q-90 90 -90 291z" />
<glyph unicode="&#x201d;" horiz-adv-x="655" d="M154 1006q0 6 4 10q82 74 82 270v8q0 14 14 14.5t14 -14.5v-8q0 -195 -90 -291q-4 -4 -10 -4q-14 1 -14 15zM387 1006q0 6 4 10q82 74 82 270v8q0 14 14.5 14.5t14.5 -14.5v-8q0 -195 -90 -291q-4 -4 -11 -4q-14 1 -14 15z" />
<glyph unicode="&#x201e;" horiz-adv-x="655" d="M154 -244q0 6 4 11q82 74 82 268v8q0 14 14 14t14 -14v-8q0 -193 -90 -289q-4 -4 -10 -4q-14 0 -14 14zM387 -244q0 6 4 11q82 74 82 268v8q0 14 14.5 14t14.5 -14v-8q0 -193 -90 -289q-4 -4 -11 -4q-14 0 -14 14z" />
<glyph unicode="&#x2022;" horiz-adv-x="448" d="M154 518q0 29 21.5 50.5t50 21.5t49 -21.5t20.5 -50.5t-20.5 -49t-49 -20t-50 20t-21.5 49z" />
<glyph unicode="&#x2026;" horiz-adv-x="663" d="M154 2v74q0 14 14 14t14 -14v-74q0 -12 -14 -12t-14 12zM317 2v74q0 14 14.5 14t14.5 -14v-74q0 -12 -14.5 -12t-14.5 12zM481 2v74q0 14 14.5 14t14.5 -14v-74q0 -12 -14.5 -12t-14.5 12z" />
<glyph unicode="&#x202f;" horiz-adv-x="356" />
<glyph unicode="&#x2039;" horiz-adv-x="550" d="M156 449q0 4 4 12l213 311q4 6 12 6q12 0 12 -12q0 -8 -2 -10l-213 -307l213 -324q2 -2 2 -8q0 -12 -12 -13q-8 0 -12 7l-213 325z" />
<glyph unicode="&#x203a;" horiz-adv-x="552" d="M156 117q0 6 2 8l213 324l-213 307q-2 2 -2 10q0 12 12 12q8 0 12 -6l213 -311q4 -8 4 -12l-4 -13l-213 -325q-4 -6 -12 -7q-12 1 -12 13z" />
<glyph unicode="&#x205f;" horiz-adv-x="446" />
<glyph unicode="&#x20ac;" d="M184 559q0 14 15 14h106q-4 49 -4 78q0 55 6 105h-108q-14 0 -14.5 14t14.5 14h110q29 236 156 386.5t299 150.5q139 0 250 -70q6 -2 6 -12q0 -14 -14 -14q-4 0 -9.5 4t-7.5 4q-104 59 -225 59q-162 0 -279.5 -142t-146.5 -366h543q14 0 14 -14t-14 -14h-547 q-6 -49 -6 -105q0 -29 4 -78h549q14 0 14 -14t-14 -14h-547q25 -236 137.5 -382.5t273.5 -146.5q154 0 289 95q2 2 8 2q12 0 13 -15q0 -6 -4 -10q-137 -98 -306 -98q-176 0 -294.5 152.5t-143.5 402.5h-108q-15 0 -15 14z" />
<glyph unicode="&#x2122;" horiz-adv-x="1521" d="M154 1497q0 14 14 14h440q14 0 15 -14q0 -12 -15 -12h-209v-645q0 -14 -14 -14.5t-14 14.5v645h-203q-14 0 -14 12zM668 842l75 657q0 12 15 12h41q8 0 12 -10l199 -647h12l205 647q4 10 14 10h41q12 0 12 -12l74 -657q0 -12 -10 -17q-16 0 -17 13l-71 647h-19 q-10 -27 -28 -88q-6 -18 -33 -103.5t-65 -202t-81 -255.5q-4 -10 -12 -11h-33q-8 0 -12 11l-199 649h-18l-74 -647q0 -12 -14 -12t-14 16z" />
<glyph unicode="&#xe000;" horiz-adv-x="905" d="M0 905h905v-905h-905v905z" />
<glyph unicode="&#xfb01;" horiz-adv-x="1030" d="M31 893q0 14 14 14h166q2 125 31.5 220.5t71.5 145.5t97.5 79.5t96.5 38t80 8.5q147 0 262 -82q6 -2 6 -10v-78q0 -14 -14.5 -14.5t-14.5 14.5v69q-104 72 -239 72q-43 0 -83 -9t-89 -39t-86 -78t-62.5 -135t-27.5 -202h321q14 0 14 -14t-14 -14h-321v-865 q0 -14 -14.5 -14t-14.5 14v865h-166q-14 0 -14 14zM827 14v879q0 14 14.5 14t14.5 -14v-879q0 -14 -14.5 -14t-14.5 14z" />
<glyph unicode="&#xfb02;" horiz-adv-x="1093" d="M31 893q0 14 14 14h166q2 125 31.5 220.5t71.5 145.5t97.5 79.5t96.5 38t80 8.5q147 0 262 -82q6 -2 6 -10v-990q0 -170 35 -229t137 -59q14 0 14 -14.5t-14 -14.5q-115 0 -158 67.5t-43 249.5v981q-104 72 -239 72q-43 0 -83 -9t-89 -39t-86 -78t-62.5 -135t-27.5 -202 h321q14 0 14 -14t-14 -14h-321v-865q0 -14 -14.5 -14t-14.5 14v865h-166q-14 0 -14 14z" />
<glyph unicode="&#xfb03;" horiz-adv-x="1683" d="M1481 14v879q0 14 14.5 14t14.5 -14v-879q0 -14 -14.5 -14t-14.5 14zM1481 1227v76q0 14 14.5 14t14.5 -14v-76q0 -14 -14.5 -14t-14.5 14zM684 893q0 14 14 14h170q2 125 29.5 220.5t65.5 145.5t90.5 79.5t90 38t78.5 8.5q78 0 156 -25q10 -4 10 -14q0 -12 -12 -12h-8 l-13 4q-63 18 -133 18q-35 0 -66.5 -6t-70.5 -23.5t-69.5 -51.5t-58.5 -82t-43 -125.5t-17 -174.5h317q14 0 14 -14t-14 -14h-317v-865q0 -14 -14.5 -14t-14.5 14v865h-170q-14 0 -14 14zM31 893q0 14 14 14h170q2 125 29.5 220.5t65.5 145.5t90.5 79.5t90 38t78.5 8.5 q78 0 156 -25q10 -4 10 -14q0 -12 -12 -12h-8l-13 4q-63 18 -133 18q-35 0 -66.5 -6t-70.5 -23.5t-69.5 -51.5t-58.5 -82t-43 -125.5t-17 -174.5h317q14 0 14 -14t-14 -14h-317v-865q0 -14 -14.5 -14t-14.5 14v865h-170q-14 0 -14 14z" />
<glyph unicode="&#xfb04;" horiz-adv-x="1746" d="M1481 317v1078q0 14 14.5 14t14.5 -14v-1078q0 -170 34.5 -229t137.5 -59q14 0 14 -14.5t-14 -14.5q-115 0 -158 67.5t-43 249.5zM684 893q0 14 14 14h170q2 125 29.5 220.5t65.5 145.5t90.5 79.5t90 38t78.5 8.5q78 0 156 -25q10 -4 10 -14q0 -12 -12 -12h-8l-13 4 q-63 18 -133 18q-35 0 -66.5 -6t-70.5 -23.5t-69.5 -51.5t-58.5 -82t-43 -125.5t-17 -174.5h317q14 0 14 -14t-14 -14h-317v-865q0 -14 -14.5 -14t-14.5 14v865h-170q-14 0 -14 14zM31 893q0 14 14 14h170q2 125 29.5 220.5t65.5 145.5t90.5 79.5t90 38t78.5 8.5 q78 0 156 -25q10 -4 10 -14q0 -12 -12 -12h-8l-13 4q-63 18 -133 18q-35 0 -66.5 -6t-70.5 -23.5t-69.5 -51.5t-58.5 -82t-43 -125.5t-17 -174.5h317q14 0 14 -14t-14 -14h-317v-865q0 -14 -14.5 -14t-14.5 14v865h-170q-14 0 -14 14z" />
</font>
</defs>
</svg>
