<?xml version="1.0" standalone="no"?>
<!DOCTYPE svg PUBLIC "-//W3C//DTD SVG 1.1//EN" "http://www.w3.org/Graphics/SVG/1.1/DTD/svg11.dtd" >
<svg xmlns="http://www.w3.org/2000/svg">
<metadata>
This is a custom SVG webfont generated by Font Squirrel.
Copyright   : 2007 Jan Maack published by FSI FontShop International GmbH
</metadata>
<defs>
<font id="SpeakHeavy" horiz-adv-x="1026" >
<font-face units-per-em="2048" ascent="1638" descent="-410" />
<missing-glyph horiz-adv-x="614" />
<glyph unicode=" "  horiz-adv-x="614" />
<glyph unicode="&#x09;" horiz-adv-x="614" />
<glyph unicode="&#xa0;" horiz-adv-x="614" />
<glyph unicode="!" horiz-adv-x="552" d="M184 80v65q0 41 26 67t66.5 26t66.5 -26t26 -67v-65q0 -41 -26 -65.5t-66.5 -24.5t-66.5 24.5t-26 65.5zM184 395v834q0 41 26 66.5t66.5 25.5t66.5 -25.5t26 -66.5v-834q0 -41 -26 -66.5t-66.5 -25.5t-66.5 25.5t-26 66.5z" />
<glyph unicode="&#x22;" horiz-adv-x="737" d="M143 905v324q0 41 26 66.5t66.5 25.5t66.5 -25.5t26 -66.5v-324q0 -41 -26 -66.5t-66.5 -25.5t-66.5 25.5t-26 66.5zM410 905v324q0 41 25.5 66.5t66.5 25.5t66.5 -25.5t25.5 -66.5v-324q0 -41 -25.5 -66.5t-66.5 -25.5t-66.5 25.5t-25.5 66.5z" />
<glyph unicode="#" horiz-adv-x="1214" d="M184 379q0 41 26 65.5t66 24.5h78l17 127h-54q-39 0 -65.5 23.5t-26.5 64.5t27 65.5t65 24.5h78l31 221q4 33 28.5 54.5t61.5 21.5q43 0 69.5 -22.5t26.5 -65.5l-28 -209h94l33 223q10 74 86 74q43 0 68.5 -23.5t25.5 -64.5v-16l-27 -193h74q39 0 65.5 -24.5t26.5 -65.5 t-25.5 -64.5t-66.5 -23.5h-100l-17 -127h76q41 0 66.5 -24.5t25.5 -65.5t-25.5 -64.5t-66.5 -23.5h-100l-33 -215q-12 -76 -90 -76q-92 0 -92 90l28 201h-96l-29 -215q-14 -76 -92 -76q-41 0 -65.5 24.5t-24.5 65.5l27 201h-54q-39 0 -65.5 23.5t-26.5 64.5zM539 469h96 l16 127h-94z" />
<glyph unicode="$" horiz-adv-x="1011" d="M102 199q0 37 27 61.5t64 24.5h10q4 0 16 -4q10 -4 54 -37t98.5 -55.5t113.5 -22.5q109 0 171.5 56.5t62.5 150.5q0 68 -60.5 120t-146.5 92t-171 86t-145.5 127t-60.5 189q0 135 87 224t220 110v20q0 41 26 67t66.5 26t65.5 -26t25 -67v-22q88 -18 170 -62.5t82 -111.5 q0 -39 -27 -65.5t-62 -26.5q-37 0 -57 18q-98 84 -205 84q-82 0 -141 -48t-59 -120q0 -70 60 -121t146 -90t171 -84t145.5 -126t60.5 -193q0 -141 -74.5 -237.5t-209.5 -131.5v-29q0 -39 -25 -66.5t-65.5 -27.5t-66.5 28t-26 66v17q-49 4 -69 10q-80 20 -163 68.5t-101 99.5 q-7 15 -7 29z" />
<glyph unicode="%" horiz-adv-x="1607" d="M68 965q0 164 74.5 263t193.5 99q121 0 195.5 -99.5t74.5 -262.5q0 -166 -73.5 -261.5t-196.5 -95.5t-195.5 95.5t-72.5 261.5zM207 965q0 -106 34.5 -168t94 -62t95.5 61.5t36 168.5q0 100 -34 167.5t-97 67.5q-57 0 -93 -65.5t-36 -169.5zM313 72q0 23 25 61l801 1155 q25 33 67 33q70 0 70 -72q0 -20 -29 -65l-796 -1151q-25 -33 -68 -33q-70 0 -70 72zM967 350q0 164 74.5 263.5t193.5 99.5q121 0 195.5 -99.5t74.5 -263.5q0 -166 -72.5 -260t-197.5 -94q-123 0 -195.5 94t-72.5 260zM1106 350q0 -106 35 -167.5t94 -61.5t95 61.5t36 167.5 q0 100 -34 168t-97 68q-57 0 -93 -66t-36 -170z" />
<glyph unicode="&#x26;" horiz-adv-x="1513" d="M184 385q0 119 62.5 199t169.5 145q-119 152 -119 260q0 141 96 236.5t238 95.5q137 0 233.5 -95.5t96.5 -230.5q0 -123 -66 -197.5t-182 -133.5l217 -263q41 66 41 127q0 43 23.5 68t66.5 25q41 0 67.5 -26t26.5 -67q0 -121 -96 -270q100 -80 176 -80q94 0 94 -86 q0 -92 -96 -92q-145 0 -295 121q-156 -131 -342 -131q-176 0 -294 113.5t-118 281.5zM375 385q0 -98 67.5 -158.5t153.5 -60.5q111 0 215 86l-272 336q-80 -41 -122 -86t-42 -117zM487 989q0 -55 74 -145l29 -35q45 23 70.5 38t54 37.5t42 50.5t13.5 60q0 147 -139 148 q-144 0 -144 -154z" />
<glyph unicode="'" horiz-adv-x="471" d="M143 905v324q0 41 26 66.5t66.5 25.5t66.5 -25.5t26 -66.5v-324q0 -41 -26 -66.5t-66.5 -25.5t-66.5 25.5t-26 66.5z" />
<glyph unicode="(" horiz-adv-x="868" d="M184 535q0 158 34 300t76 230t99.5 164t88 103.5t57.5 47.5q23 16 51 17q41 0 67.5 -27t26.5 -67q0 -49 -51 -86q-4 0 -28.5 -21.5t-63.5 -75t-76 -126t-63.5 -195.5t-26.5 -264q0 -133 25.5 -244t57 -170.5t74.5 -105.5t62.5 -57t36.5 -19q51 -25 51 -84 q0 -43 -25.5 -67t-68.5 -24q-25 0 -41 9l-15 6q-14 8 -34.5 21.5t-48 35t-57.5 54t-59.5 73.5t-56 99.5t-47 126t-33 157t-12.5 189.5z" />
<glyph unicode=")" horiz-adv-x="868" d="M184 1303q0 41 27 67.5t68 26.5q29 0 51 -17q27 -20 57.5 -47.5t87.5 -103.5t99 -164t76 -230.5t34 -299.5q0 -172 -37 -314.5t-87 -221.5t-106.5 -134t-90 -73.5t-41.5 -18.5q-16 -8 -41 -9q-43 0 -69 24t-26 67q0 59 52 84q16 8 35.5 19t62.5 57t74.5 105.5t57.5 170 t26 244.5q0 141 -27 264t-63.5 195.5t-75.5 126t-63.5 75t-28.5 21.5q-52 37 -52 86z" />
<glyph unicode="*" horiz-adv-x="890" d="M102 1057q0 39 28 66.5t63 27.5q6 0 18 -4l12 -2l129 -49v133q0 41 25.5 66.5t66.5 25.5t66 -25.5t25 -66.5v-135q12 4 51 21.5t66.5 26.5t45.5 9q35 0 62.5 -27.5t27.5 -66.5q0 -55 -59 -84l-141 -53l94 -125q20 -27 20 -54q0 -41 -27.5 -66.5t-66.5 -25.5q-35 0 -51 15 q-16 12 -36.5 36.5t-44 61.5t-34.5 51l-92 -125q-27 -39 -74 -39q-37 0 -62.5 26.5t-27.5 65.5q0 29 21 56l94 125l-141 51q-58 27 -58 84z" />
<glyph unicode="+" horiz-adv-x="1228" d="M174 494q0 41 25.5 64.5t66.5 23.5h256v258q0 41 25.5 66.5t66.5 25.5t67 -25.5t26 -66.5v-258h256q41 0 66.5 -23.5t25.5 -64.5t-25.5 -66t-66.5 -25h-256v-262q0 -41 -26 -66.5t-67 -25.5t-66.5 25.5t-25.5 66.5v262h-256q-41 0 -66.5 25t-25.5 66z" />
<glyph unicode="," horiz-adv-x="577" d="M133 -113q0 33 27 66q31 33 40 68.5t9 123.5q0 41 25.5 67t66.5 26t66.5 -26t25.5 -67v-12q0 -207 -102 -309q-27 -27 -66 -27q-41 0 -66.5 24.5t-25.5 65.5z" />
<glyph unicode="-" horiz-adv-x="993" d="M184 491.5q0 40.5 26 65.5t66 25h441q41 0 66.5 -25t25.5 -65.5t-25.5 -64.5t-66.5 -24h-441q-41 0 -66.5 24t-25.5 64.5z" />
<glyph unicode="." horiz-adv-x="471" d="M143 80v65q0 41 26 67t66.5 26t66.5 -26t26 -67v-65q0 -41 -26 -65.5t-66.5 -24.5t-66.5 24.5t-26 65.5z" />
<glyph unicode="/" horiz-adv-x="839" d="M82 -88q0 8 6 27q37 96 103.5 272t82.5 219q236 618 312 825q27 55 86 56q41 0 63.5 -27t22.5 -59q0 -8 -6 -29l-494 -1317q-25 -57 -84 -57q-45 0 -68.5 25.5t-23.5 64.5z" />
<glyph unicode="0" horiz-adv-x="1331" d="M184 653q0 311 130 495.5t352 184.5q225 0 353 -183t128 -497q0 -315 -127 -489t-354 -174q-223 0 -352.5 175t-129.5 488zM375 653q0 -225 77.5 -356t213 -131t213 131t77.5 356q0 227 -78.5 364.5t-212 137.5t-212 -137.5t-78.5 -364.5z" />
<glyph unicode="1" horiz-adv-x="835" d="M195 1090q0 55 41 79l208 138q29 14 54 14q41 0 66.5 -25.5t25.5 -66.5v-1137q0 -41 -26.5 -66.5t-65.5 -25.5q-41 0 -66.5 25.5t-25.5 66.5v975l-68 -53q-25 -14 -49 -15q-41 0 -67.5 26t-26.5 65z" />
<glyph unicode="2" horiz-adv-x="1157" d="M184 90q0 80 61.5 177.5t149.5 186.5t175 176t148.5 173t61.5 151q0 80 -36.5 128t-77.5 60.5t-88 12.5q-98 0 -218 -76l-20 -10q-12 -6 -29 -6q-41 0 -67.5 26.5t-26.5 65.5q0 49 49 82q152 96 312 96q45 0 87 -6t100 -28.5t101 -60.5t74 -111.5t31 -172.5 q0 -51 -21.5 -107t-44 -97t-79 -105.5t-83 -92.5t-99.5 -99.5t-89 -87.5q-115 -115 -156 -187h482q41 0 66.5 -23.5t25.5 -64.5t-25.5 -65.5t-66.5 -24.5h-605q-41 0 -66.5 24.5t-25.5 65.5z" />
<glyph unicode="3" horiz-adv-x="1189" d="M184 170q0 39 29 65.5t66 26.5q25 0 47 -15.5t41.5 -32.5t75 -32.5t137.5 -15.5q96 0 165.5 61.5t69.5 143.5q0 106 -82 156.5t-188 50.5h-47q-43 0 -67.5 23.5t-24.5 64.5t25.5 65.5t66.5 24.5h47q96 0 174 51t78 149q0 80 -44 128.5t-88 59.5t-92 11q-100 0 -204 -76 q-23 -16 -52 -16q-41 0 -66.5 26.5t-25.5 65.5q0 41 37 74q25 18 60.5 38.5t107.5 43t143 22.5q180 0 297 -97t117 -280q0 -72 -23.5 -128t-58.5 -87.5t-55.5 -45t-34.5 -19.5q2 0 6 -2t11.5 -5t15.5 -7q57 -23 107.5 -96.5t50.5 -194.5q0 -160 -127 -270.5t-299 -110.5 q-100 0 -186.5 23.5t-120 44t-50.5 36.5q-39 39 -39 76z" />
<glyph unicode="4" horiz-adv-x="1241" d="M143 408q0 25 11 41q96 182 240.5 390t233.5 317.5t120 139.5q25 25 67 25q39 0 64.5 -25.5t25.5 -60.5q0 -39 -31 -74q-2 0 -33.5 -32.5t-87 -97t-118 -142.5t-132 -183.5t-122.5 -207.5h360v309q0 41 26 66.5t66.5 25.5t66.5 -25.5t26 -66.5v-309h49q41 0 66.5 -24.5 t25.5 -65.5t-25.5 -65t-66.5 -24h-49v-227q0 -41 -26 -66.5t-66.5 -25.5t-66.5 25.5t-26 66.5v227h-503q-47 0 -71 27t-24 62z" />
<glyph unicode="5" horiz-adv-x="1169" d="M184 166q0 37 28 65.5t62 28.5q41 0 64 -22q2 0 11 -7.5t17.5 -12.5t22.5 -13t29.5 -14.5t35 -12.5t42 -9t47.5 -3q102 0 177 70.5t75 212.5q0 104 -71 173.5t-181 69.5q-100 0 -183 -55q-23 -16 -55 -16q-82 0 -90 88v524q0 41 25.5 64.5t66.5 23.5h516q41 0 66.5 -23.5 t25.5 -64.5t-25.5 -65.5t-66.5 -24.5h-424v-297q74 25 144 24q190 0 316 -119.5t126 -301.5q0 -231 -134 -345t-308 -114q-199 0 -324 102q-35 29 -35 74z" />
<glyph unicode="6" horiz-adv-x="1241" d="M184 600q0 383 116 558t366 175q90 0 167.5 -26.5t102.5 -45t39 -32.5q33 -31 33 -72q0 -37 -22.5 -63.5t-61.5 -26.5q-33 0 -84 35q-74 53 -174 53q-47 0 -84 -10t-78 -44t-68.5 -92.5t-45 -163t-17.5 -245.5q0 -209 66.5 -321.5t193.5 -112.5q84 0 139 51t74.5 111.5 t19.5 122.5q0 90 -56 169.5t-177 79.5q-27 0 -55 -4q-6 0 -17.5 -3t-17.5 -3q-37 0 -62.5 23.5t-25.5 64.5q0 59 69 84q45 16 109 17q117 0 204 -43t132 -112t66.5 -137.5t21.5 -135.5q0 -72 -21.5 -146t-66.5 -147.5t-132 -120.5t-204 -47q-215 0 -332 157.5t-117 452.5z " />
<glyph unicode="7" horiz-adv-x="1120" d="M123 1233q0 41 25.5 64.5t66.5 23.5h690q43 0 67.5 -24.5t24.5 -67.5q0 -102 -211 -486q-268 -483 -268 -651q0 -41 -25.5 -66.5t-66.5 -25.5t-66.5 25.5t-25.5 66.5q0 225 295 742q133 244 159 309h-573q-41 0 -66.5 24.5t-25.5 65.5z" />
<glyph unicode="8" horiz-adv-x="1259" d="M184 381q0 178 162 317q-8 0 -35.5 23.5t-59.5 88t-32 148.5q0 104 42 182.5t108.5 118t132 57t127.5 17.5q170 0 292.5 -95t122.5 -280q0 -139 -145 -284q45 -23 88 -66q88 -96 88 -227q0 -190 -115.5 -290.5t-330.5 -100.5q-201 0 -323 104.5t-122 286.5zM375 381 q0 -106 75.5 -160.5t178.5 -54.5q106 0 181 49t75 166q0 166 -271 205l-92 12q-59 -6 -103 -65.5t-44 -151.5zM410 958q0 -195 307 -213q49 8 93 75t44 138q0 102 -70.5 149.5t-154.5 47.5q-80 0 -149.5 -47.5t-69.5 -149.5z" />
<glyph unicode="9" horiz-adv-x="1241" d="M184 870q0 70 21.5 145t66.5 149.5t132.5 121.5t203.5 47q215 0 332 -158.5t117 -453.5q0 -381 -117 -556t-365 -175q-90 0 -165.5 24.5t-106.5 46t-37 31.5q-33 31 -33 72q0 39 23 64.5t61 25.5q33 0 61 -22.5t74 -44t123 -21.5q47 0 84 10t78 44t69 92.5t45 163 t17 245.5q0 209 -66.5 321.5t-193.5 112.5q-84 0 -139 -51t-74.5 -111.5t-19.5 -122.5q0 -90 56 -169.5t177 -79.5q27 0 56 4q6 0 16 3t16 3q37 0 63.5 -24.5t26.5 -63.5q0 -59 -69 -84q-49 -16 -109 -17q-117 0 -204 43t-132 112t-66.5 137t-21.5 136z" />
<glyph unicode=":" horiz-adv-x="471" d="M143 80v65q0 41 26 67t66.5 26t66.5 -26t26 -67v-65q0 -41 -26 -65.5t-66.5 -24.5t-66.5 24.5t-26 65.5zM143 819v66q0 41 26 66.5t66.5 25.5t66.5 -25.5t26 -66.5v-66q0 -41 -26 -66.5t-66.5 -25.5t-66.5 25.5t-26 66.5z" />
<glyph unicode=";" horiz-adv-x="538" d="M133 -139q0 39 27 65q31 31 41 72t10 121q0 41 24.5 66.5t65.5 25.5t67.5 -25.5t26.5 -66.5v-13q0 -205 -104 -309q-27 -27 -66 -26q-41 0 -66.5 24.5t-25.5 65.5zM211 819v66q0 41 25.5 66.5t66.5 25.5t66.5 -25.5t25.5 -66.5v-66q0 -41 -25.5 -66.5t-66.5 -25.5 t-66.5 25.5t-25.5 66.5z" />
<glyph unicode="&#x3c;" horiz-adv-x="1228" d="M172 489q0 49 53 80l697 359q25 12 49 12q37 0 61.5 -27.5t24.5 -66.5q0 -51 -56 -80l-540 -277l543 -284q49 -27 49 -84q0 -39 -29 -63.5t-61 -24.5q-14 0 -43 12l-695 365q-31 18 -42 33t-11 46z" />
<glyph unicode="=" horiz-adv-x="1228" d="M172 358q0 41 25.5 64.5t66.5 23.5h701q41 0 66.5 -23.5t25.5 -64.5t-25.5 -65.5t-66.5 -24.5h-701q-41 0 -66.5 24.5t-25.5 65.5zM172 641q0 41 25.5 65.5t66.5 24.5h701q41 0 66.5 -23.5t25.5 -64.5t-25.5 -65.5t-66.5 -24.5h-701q-41 0 -66.5 23.5t-25.5 64.5z" />
<glyph unicode="&#x3e;" horiz-adv-x="1228" d="M172 846q0 39 24.5 66.5t61.5 27.5q25 0 49 -12q86 -45 262 -135q51 -27 144.5 -75t166 -85t124.5 -64q53 -31 53 -80q0 -31 -11.5 -46t-41.5 -33l-695 -365q-29 -12 -43 -12q-33 0 -61.5 24.5t-28.5 63.5q0 57 49 84l543 284l-541 277q-55 29 -55 80z" />
<glyph unicode="?" horiz-adv-x="1062" d="M164 1147q0 39 35 67q12 12 40.5 33t106.5 47.5t164 26.5q166 0 277.5 -111.5t111.5 -283.5q0 -102 -54 -179t-117.5 -117t-118 -100.5t-54.5 -134.5q0 -41 -25.5 -66.5t-66.5 -25.5t-66.5 25.5t-25.5 66.5q0 82 30.5 149.5t58 95.5t91.5 79q10 10 16 14l23 19 q41 31 61.5 50t39 53t18.5 71q0 96 -55.5 156.5t-143.5 60.5q-94 0 -195 -70q-29 -18 -61 -18q-41 0 -65.5 26.5t-24.5 65.5zM371 80v65q0 41 25.5 67t66.5 26t66.5 -26t25.5 -67v-65q0 -41 -25.5 -65.5t-66.5 -24.5t-66.5 24.5t-25.5 65.5z" />
<glyph unicode="@" horiz-adv-x="1515" d="M102 651.5q0 276.5 197 473t471 196.5q297 0 470 -154.5t173 -423.5q0 -156 -114.5 -284.5t-274.5 -128.5q-45 0 -80 17.5t-47 32.5t-12 21q-72 -72 -187 -71q-121 0 -189.5 70.5t-68.5 189.5q0 164 109.5 303t277.5 139q49 0 113 -20.5t104 -50.5q39 -31 39 -74 q0 -12 -31.5 -178t-31.5 -187q0 -16 12 -16q23 0 60 18q57 29 95 87.5t38 131.5q0 180 -124 290t-331 110q-195 0 -337 -146.5t-142 -345.5q0 -197 141 -341t338 -144q143 0 281 98q14 12 45 12q39 0 64.5 -27.5t25.5 -66.5q0 -47 -45 -80q-162 -113 -371 -112 q-276 0 -472 192.5t-196 469zM629 590q0 -33 19.5 -58.5t49.5 -25.5q82 0 148 63l47 267q-35 20 -66 20q-86 0 -142 -84t-56 -182z" />
<glyph unicode="A" horiz-adv-x="1155" d="M41 84q0 10 4 27q2 4 26.5 83.5t55.5 179t76 232.5t87 252t88 230.5t81 173.5q29 59 119 59q98 0 120 -64q76 -162 229.5 -602t182.5 -544q4 -16 4 -27q0 -39 -24.5 -61.5t-71.5 -22.5q-57 0 -80 59q-41 113 -107 320h-512q-16 -49 -36.5 -120t-35 -120t-26.5 -80 q-23 -59 -90 -59q-90 0 -90 84zM383 557h391q-96 299 -162 457q-27 59 -34 88l-7 -17q-6 -14 -14 -36.5t-14 -34.5q-58 -138 -160 -457z" />
<glyph unicode="B" horiz-adv-x="1112" d="M184 92v1141q0 41 24.5 64.5t65.5 23.5h242q55 0 95 -3t111 -22.5t116 -55.5t80.5 -110.5t35.5 -179.5q0 -115 -116 -258q172 -94 172 -311q0 -381 -494 -381h-237q-41 0 -68 25.5t-27 66.5zM369 178h147q303 0 303 203q0 199 -252 199h-198v-402zM369 758h252 q143 66 143 192q0 193 -254 193h-141v-385z" />
<glyph unicode="C" horiz-adv-x="1228" d="M102 659.5q0 288.5 173.5 481t429.5 192.5q139 0 238 -34.5t144 -73.5q39 -33 39 -78q0 -37 -28.5 -63.5t-61.5 -26.5q-31 0 -55 18q-94 80 -276 80q-176 0 -294 -142.5t-118 -353t111.5 -352t281.5 -141.5q139 0 287 82q33 14 49 14q37 0 64.5 -28.5t27.5 -65.5 q0 -53 -39 -74q-203 -104 -389 -104q-252 0 -418 190.5t-166 479z" />
<glyph unicode="D" horiz-adv-x="1314" d="M184 92v1139q0 41 24.5 65.5t65.5 24.5h349q262 0 425.5 -187.5t163.5 -478.5q0 -287 -163.5 -471t-425.5 -184h-349q-41 0 -65.5 25.5t-24.5 66.5zM369 178h254q182 0 290.5 133t108.5 344q0 215 -108.5 351.5t-290.5 136.5h-254v-965z" />
<glyph unicode="E" horiz-adv-x="1034" d="M184 90v1143q0 41 24.5 64.5t65.5 23.5h519q41 0 65.5 -23.5t24.5 -64.5t-24.5 -65.5t-65.5 -24.5h-424v-361h391q41 0 65.5 -23.5t24.5 -64.5t-24.5 -65.5t-65.5 -24.5h-391v-426h462q41 0 66 -23.5t25 -64.5t-25 -65.5t-66 -24.5h-557q-41 0 -65.5 24.5t-24.5 65.5z " />
<glyph unicode="F" horiz-adv-x="974" d="M184 92v1141q0 41 24.5 64.5t65.5 23.5h519q41 0 65.5 -23.5t24.5 -64.5t-24.5 -65.5t-65.5 -24.5h-424v-361h391q41 0 65.5 -23.5t24.5 -64.5t-24.5 -65.5t-65.5 -24.5h-391v-512q0 -41 -27 -66.5t-68 -25.5t-65.5 25.5t-24.5 66.5z" />
<glyph unicode="G" horiz-adv-x="1275" d="M102 657.5q0 288.5 173.5 482t429.5 193.5q186 0 350 -92q47 -29 47 -84q0 -37 -29 -64.5t-65 -27.5q-20 0 -37 10q-139 80 -266 80q-176 0 -294 -143.5t-118 -354.5t111.5 -351t281.5 -140q135 0 262 55v260q0 27 -7 33t-38 6h-151q-90 0 -90 86q0 41 24.5 66.5 t65.5 25.5h151q143 0 186.5 -41t43.5 -182v-307q0 -61 -50 -84q-193 -94 -397 -94q-252 0 -418 189.5t-166 478z" />
<glyph unicode="H" horiz-adv-x="1269" d="M184 92v1139q0 41 26 65.5t66.5 24.5t66.5 -24.5t26 -65.5v-449h532v449q0 41 25.5 65.5t66.5 24.5t66.5 -24.5t25.5 -65.5v-1139q0 -41 -25.5 -66.5t-66.5 -25.5t-66.5 25.5t-25.5 66.5v512h-532v-512q0 -41 -26 -66.5t-66.5 -25.5t-66.5 25.5t-26 66.5z" />
<glyph unicode="I" horiz-adv-x="552" d="M184 92v1139q0 41 26 65.5t66.5 24.5t66.5 -24.5t26 -65.5v-1139q0 -41 -26 -66.5t-66.5 -25.5t-66.5 25.5t-26 66.5z" />
<glyph unicode="J" horiz-adv-x="569" d="M-225 -156q0 37 24.5 63.5t59.5 26.5q25 0 57 -20q59 -37 120.5 -37t113 57.5t51.5 178.5v1118q0 41 25.5 65.5t66.5 24.5t66.5 -24.5t25.5 -65.5v-1118q0 -115 -35 -200t-91 -129t-111.5 -64.5t-110.5 -20.5q-82 0 -144.5 23.5t-80.5 41.5q-37 29 -37 80z" />
<glyph unicode="K" horiz-adv-x="1187" d="M184 92v1139q0 41 27 65.5t65 24.5q41 0 67 -24.5t26 -65.5v-434l239 239q43 45 131 133l121 121q31 31 70 31t63.5 -26.5t24.5 -63.5q0 -35 -27 -66l-465 -465q297 -227 543 -561q16 -23 16 -49q0 -41 -25.5 -65.5t-66.5 -24.5q-49 0 -75 39q-233 319 -486 508l-63 49 v-504q0 -41 -26 -66.5t-66.5 -25.5t-66.5 25.5t-26 66.5z" />
<glyph unicode="L" horiz-adv-x="964" d="M184 90v1141q0 41 26 65.5t66.5 24.5t66.5 -24.5t26 -65.5v-1053h460q43 0 69 -23.5t26 -64.5t-27 -65.5t-68 -24.5h-553q-41 0 -66.5 24.5t-25.5 65.5z" />
<glyph unicode="M" horiz-adv-x="1630" d="M143 96l127 1147q12 78 92 78h21q70 0 109 -57q94 -137 323 -887q215 711 318 878q37 66 112 66h23q35 0 61.5 -21.5t30.5 -56.5l127 -1141q0 -43 -21.5 -72.5t-66.5 -29.5q-86 0 -94 82q-18 176 -37 344q-14 113 -36 335t-24 238l-41 -116q-37 -100 -81 -234.5 t-74.5 -235t-59 -193.5t-32.5 -105q-10 -35 -39 -58.5t-60 -23.5h-12q-31 0 -59.5 23.5t-38.5 58.5q-2 6 -22.5 77.5t-39.5 129.5l-45 153q-80 268 -145 434l-37 90q-18 -176 -37 -344q-12 -111 -33.5 -320.5t-25.5 -252.5q-10 -82 -96.5 -82t-86.5 96z" />
<glyph unicode="N" horiz-adv-x="1261" d="M184 92v1137q0 41 26 66.5t66 25.5h25q37 0 73 -22.5t61.5 -51t57 -83t48 -87.5t45 -98.5t37.5 -81.5q16 -37 49 -112.5t49 -110.5q92 -213 131 -287q8 -14 23.5 -43t17.5 -33v918q0 41 25.5 66.5t66.5 25.5t66.5 -25.5t25.5 -66.5v-1137q0 -41 -25.5 -66.5t-66.5 -25.5 h-20q-63 0 -101 37q-68 68 -196 319q-20 39 -43 87.5t-50.5 109.5t-44.5 96q-23 47 -63.5 145.5t-65.5 149.5q-20 45 -32 66v-918q0 -41 -26 -66.5t-66.5 -25.5t-66.5 25.5t-26 66.5z" />
<glyph unicode="O" horiz-adv-x="1335" d="M102 657q0 289 163 482.5t403 193.5q246 0 405.5 -190.5t159.5 -485.5q0 -291 -160 -479t-405 -188q-240 0 -403 191t-163 476zM293 657q0 -207 107.5 -349t267.5 -142q164 0 269 139t105 352q0 215 -105.5 356.5t-268.5 141.5q-160 0 -267.5 -144.5t-107.5 -353.5z" />
<glyph unicode="P" horiz-adv-x="1009" d="M184 92v1137q0 41 26 66.5t66 25.5h293q168 0 284 -105.5t116 -263.5q0 -203 -119 -299t-281 -96h-30q-43 0 -69 23.5t-26 64.5t27 65.5t68 24.5h30q84 0 146.5 53.5t62.5 163.5q0 80 -59.5 135.5t-149.5 55.5h-200v-1051q0 -41 -26 -66.5t-66.5 -25.5t-66.5 25.5 t-26 66.5z" />
<glyph unicode="Q" horiz-adv-x="1333" d="M102 657q0 289 164 482.5t404 193.5q246 0 408.5 -190.5t162.5 -485.5q0 -246 -122 -421t-316 -228q39 -59 217 -59q27 0 70 7t65 7q49 0 75.5 -24.5t26.5 -67.5q0 -86 -131 -96q-49 -4 -86 -4q-344 0 -473 229q-201 33 -333 220t-132 437zM293 657q0 -207 108.5 -349 t268.5 -142q166 0 273.5 140t107.5 351q0 215 -107.5 356.5t-273.5 141.5q-160 0 -268.5 -144.5t-108.5 -353.5z" />
<glyph unicode="R" horiz-adv-x="1107" d="M184 92v1137q0 41 26 66.5t66 25.5h293q172 0 286 -101.5t114 -256.5q0 -162 -111 -265q-51 -47 -108 -71q133 -109 249 -445q27 -74 27 -98q0 -29 -25.5 -56.5t-68.5 -27.5q-63 0 -88 68q-72 231 -158 370.5t-149 139.5q-41 0 -68 26q-25 27 -25 62q0 41 26 65.5 t67 24.5h32q27 0 54.5 6t66.5 24.5t63.5 63.5t24.5 113q0 78 -58 129t-151 51h-200v-1051q0 -41 -26 -66.5t-66.5 -25.5t-66.5 25.5t-26 66.5z" />
<glyph unicode="S" horiz-adv-x="1009" d="M102 199q0 37 26 61.5t62.5 24.5t63.5 -23q117 -96 229 -96q109 0 171.5 56.5t62.5 150.5q0 68 -60.5 120t-145.5 92t-171 87t-146.5 127t-60.5 188q0 156 117 251t274 95q145 0 314 -110q37 -27 36 -78q0 -39 -25.5 -64.5t-62 -25.5t-55.5 18q-96 82 -207 82 q-82 0 -141 -48t-59 -120q0 -68 60 -118t145 -89t171 -84t146.5 -128t60.5 -195q0 -174 -116.5 -278.5t-307.5 -104.5q-104 0 -180 32.5t-162 96.5q-39 27 -39 80z" />
<glyph unicode="T" horiz-adv-x="985" d="M20 1233q0 41 25 64.5t66 23.5h763q41 0 66 -23.5t25 -64.5t-25 -65.5t-66 -24.5h-292v-1051q0 -41 -26 -66.5t-66.5 -25.5t-66.5 25.5t-26 66.5v1051h-286q-41 0 -66 24.5t-25 65.5z" />
<glyph unicode="U" horiz-adv-x="1267" d="M184 442v789q0 41 27 65.5t68 24.5q39 0 64.5 -24.5t25.5 -65.5v-785q0 -43 11 -86t37.5 -90t83 -75.5t134.5 -28.5t134 28.5t82 75.5t37 90t11 86v785q0 41 25.5 65.5t66.5 24.5t66.5 -24.5t25.5 -65.5v-789q0 -51 -9 -103t-37.5 -117.5t-76 -115t-132.5 -83 t-195.5 -33.5t-195.5 33.5t-131 83t-75.5 115t-38 117.5t-8.5 103z" />
<glyph unicode="V" horiz-adv-x="1150" d="M41 1235q0 39 24.5 62.5t67.5 23.5q74 0 94 -72q0 -6 58.5 -195.5t144.5 -445.5t143 -387q43 96 99.5 256t90.5 262.5t96.5 303t66.5 210.5q25 68 88 68q96 0 96 -86q0 -6 -4 -27q-301 -909 -410 -1142q-29 -66 -123 -66q-92 0 -120 61q-80 150 -220.5 563.5 t-183.5 571.5q-8 23 -8 39z" />
<glyph unicode="W" horiz-adv-x="1568" d="M41 1235v8q0 35 26.5 56.5t65.5 21.5q72 0 92 -70q0 -10 36 -191t89 -427t90 -379q37 123 88.5 328.5t96.5 395t55 226.5q23 84 108 84q92 0 111 -84q168 -762 223 -940q37 131 92.5 377t92 425t36.5 185q20 70 93 70q39 0 65.5 -21.5t26.5 -56.5v-8q0 -8 -2 -14 q-12 -92 -123 -581.5t-158 -573.5q-37 -66 -123 -66q-96 0 -125 66q-53 113 -211 802q-10 -39 -33.5 -132t-37 -146t-35 -136t-35.5 -136.5t-31.5 -110.5t-31 -94t-23.5 -56q-33 -57 -115 -57q-86 0 -120 61q-47 84 -158 573.5t-123 586.5q-2 6 -2 14z" />
<glyph unicode="X" horiz-adv-x="1003" d="M41 90q0 25 14 45l361 578q-45 74 -82 131t-74 107l-55.5 75t-62.5 79t-58 73q-18 25 -18 55q0 37 28.5 62.5t65.5 25.5q41 0 71 -31q86 -106 293 -399l244 397q20 33 74 33q39 0 65.5 -24.5t26.5 -61.5q0 -29 -14 -49l-285 -467q180 -289 319 -588q8 -16 9 -41 q0 -41 -27 -65.5t-66 -24.5q-55 0 -82 49q-129 268 -262 494l-317 -498q-27 -45 -78 -45q-90 0 -90 90z" />
<glyph unicode="Y" horiz-adv-x="995" d="M41 1235q0 37 26.5 61.5t69.5 24.5q59 0 84 -61q174 -422 277 -568q66 100 154.5 293t121.5 275q25 61 84 61q43 0 69.5 -24.5t26.5 -61.5q0 -16 -6 -31q-31 -84 -137 -308t-182 -333q-16 -25 -39 -47v-424q0 -41 -25.5 -66.5t-66.5 -25.5t-66.5 25.5t-25.5 66.5v424 q-16 16 -39 51q-78 111 -192 344.5t-128 292.5q-6 15 -6 31z" />
<glyph unicode="Z" horiz-adv-x="960" d="M41 90v23q0 35 20 71q106 207 590 959h-518q-41 0 -65.5 24.5t-24.5 65.5t24.5 64.5t65.5 23.5h666q41 0 66.5 -23.5t25.5 -64.5v-25q0 -45 -27 -86q-289 -432 -598 -944h561q41 0 67 -23.5t26 -64.5t-26 -65.5t-67 -24.5h-694q-41 0 -66.5 24.5t-25.5 65.5z" />
<glyph unicode="[" horiz-adv-x="786" d="M184 -170v1405q0 41 24.5 63.5t67.5 22.5h236q90 0 90 -86q0 -41 -24.5 -66.5t-65.5 -25.5h-141v-1223h141q41 0 65.5 -24.5t24.5 -65.5t-24.5 -64.5t-65.5 -23.5h-236q-41 0 -66.5 23.5t-25.5 64.5z" />
<glyph unicode="\" horiz-adv-x="860" d="M82 1329q0 41 28.5 63.5t69.5 22.5q55 0 80 -57l512 -1364q6 -18 6 -29q0 -37 -27.5 -63.5t-64.5 -26.5q-63 0 -88 57l-510 1368q-6 15 -6 29z" />
<glyph unicode="]" horiz-adv-x="788" d="M184 -170q0 41 26 65.5t66 24.5h140v1223h-140q-41 0 -66.5 25.5t-25.5 66.5t24.5 63.5t67.5 22.5h236q39 0 65.5 -22.5t26.5 -63.5v-1405q0 -41 -25.5 -64.5t-66.5 -23.5h-236q-39 0 -65.5 23.5t-26.5 64.5z" />
<glyph unicode="^" horiz-adv-x="1064" d="M113 547q0 27 8 45l330 678q25 51 84 51q57 0 81 -51l326 -678q10 -25 10 -47q0 -37 -26.5 -62.5t-67.5 -25.5q-61 0 -86 51l-237 508l-246 -508q-27 -49 -84 -49q-37 0 -64.5 25.5t-27.5 62.5z" />
<glyph unicode="_" horiz-adv-x="1048" d="M61 -129q0 41 26 65.5t67 24.5h741q41 0 66.5 -24.5t25.5 -65.5t-25.5 -64.5t-66.5 -23.5h-741q-41 0 -67 23.5t-26 64.5z" />
<glyph unicode="`" horiz-adv-x="704" d="M102 1300q0 41 26 65t65 24q12 0 16 -3l336 -137q57 -25 57 -86q0 -27 -12 -45q-27 -39 -78 -39q-18 0 -33 6l-319 134q-58 26 -58 81z" />
<glyph unicode="a" horiz-adv-x="944" d="M82 295q0 301 412 301h129v76q0 47 -39 87t-117 40q-113 0 -201 -51q-18 -10 -49 -11q-39 0 -61.5 25.5t-22.5 62.5q0 47 35 72q45 31 129 55.5t170 24.5q168 0 254 -94.5t86 -210.5v-490q31 0 53.5 -27.5t22.5 -64.5q0 -41 -26 -65.5t-64 -24.5q-78 0 -123 57 q-104 -68 -236 -67q-141 0 -246.5 77.5t-105.5 227.5zM272 295q0 -59 49.5 -94t112.5 -35q84 0 189 47v209h-129q-222 0 -222 -127z" />
<glyph unicode="b" d="M143 152v1167q0 41 26 65.5t66.5 24.5t66.5 -24.5t26 -65.5v-381q68 39 176 39q203 0 321.5 -134t118.5 -356q0 -225 -124 -361t-320 -136q-88 0 -186.5 26.5t-145.5 77.5q-25 29 -25 58zM328 199q80 -33 172 -33q123 0 188.5 96t65.5 225q0 143 -68 227.5t-182 84.5 q-96 0 -176 -47v-553z" />
<glyph unicode="c" horiz-adv-x="968" d="M82 487q0 207 140 348.5t343 141.5q143 0 264 -78q41 -25 41 -78q0 -39 -26.5 -65.5t-65.5 -26.5q-33 0 -51 16q-72 53 -162 54q-125 0 -209 -90.5t-84 -221.5q0 -129 65.5 -225t188.5 -96q106 0 222 65q23 12 47 13q37 0 64.5 -25.5t27.5 -66.5q0 -47 -49 -78 q-154 -84 -312 -84q-199 0 -321.5 136t-122.5 361z" />
<glyph unicode="d" horiz-adv-x="1019" d="M80 485q0 221 119.5 356.5t320.5 135.5q94 0 176 -39v381q0 41 26 65.5t66.5 24.5t66.5 -24.5t26 -65.5v-1137q33 0 55 -26.5t22 -63.5q0 -41 -25.5 -66.5t-66.5 -25.5q-70 0 -123 57q-98 -68 -217 -67q-199 0 -322.5 136t-123.5 359zM270 487q0 -129 65.5 -225 t190.5 -96q70 0 170 47v539q-98 47 -176 47q-115 0 -182.5 -84.5t-67.5 -227.5z" />
<glyph unicode="e" horiz-adv-x="966" d="M82 481q0 223 117.5 359.5t318.5 136.5q160 0 261.5 -93t101.5 -198q0 -117 -77 -185.5t-202 -93t-321 -28.5q20 -94 79.5 -153.5t147.5 -59.5q43 0 92 14.5t98 34.5l50 21q20 10 47 10q37 0 63.5 -26.5t26.5 -63.5q0 -47 -47 -78l-33 -17q-137 -72 -297 -71 q-190 0 -308 135t-118 356zM274 549q219 4 316.5 36.5t97.5 100.5q0 39 -46 76t-124 37q-102 0 -165 -65.5t-79 -184.5z" />
<glyph unicode="f" horiz-adv-x="671" d="M2 872q0 41 25.5 67t66.5 26h76q10 113 44 196.5t76 128.5t96 73t94 35t81 7q88 0 164 -31q59 -23 59 -86q0 -39 -25.5 -62.5t-64.5 -23.5q-2 0 -12 3t-18 3q-74 18 -103 19q-70 0 -131 -56.5t-76 -205.5h199q41 0 66.5 -26t25.5 -67t-24.5 -63.5t-67.5 -22.5h-201v-694 q0 -41 -25.5 -66.5t-66.5 -25.5t-66.5 25.5t-25.5 66.5v694h-74q-43 0 -67.5 22.5t-24.5 63.5z" />
<glyph unicode="g" horiz-adv-x="1005" d="M-8 -221q0 33 23.5 62.5t64.5 29.5q33 0 59 -21q92 -68 195 -67q113 0 208 60.5t130 195.5q-92 -49 -174 -49q-195 0 -316 135t-121 360q0 217 122 354.5t323 137.5q92 0 179 -27.5t132 -52.5q45 -27 45 -86v-682q0 -137 -48 -242.5t-128 -165t-169 -88t-183 -28.5 q-170 0 -305 98q-37 25 -37 76zM252 485q0 -145 66.5 -232t179.5 -87q72 0 180 49v555q-70 29 -172 29q-119 0 -186.5 -87.5t-67.5 -226.5z" />
<glyph unicode="h" d="M143 92v1225q0 41 26 66.5t66.5 25.5t66.5 -25.5t26 -66.5v-397q96 57 219 57q174 0 255 -85t81 -265v-535q0 -41 -26 -66.5t-66.5 -25.5t-66.5 25.5t-26 66.5v506q0 117 -41 159t-151 42q-100 0 -178 -43v-664q0 -41 -26 -66.5t-66.5 -25.5t-66.5 25.5t-26 66.5z" />
<glyph unicode="i" horiz-adv-x="471" d="M143 92v780q0 41 26 67t66.5 26t66.5 -26t26 -67v-780q0 -41 -26 -66.5t-66.5 -25.5t-66.5 25.5t-26 66.5zM143 1169v68q0 41 26 66.5t66.5 25.5t66.5 -25.5t26 -66.5v-68q0 -41 -26 -66.5t-66.5 -25.5t-66.5 25.5t-26 66.5z" />
<glyph unicode="j" horiz-adv-x="454" d="M-305 -256q0 37 25.5 64.5t66.5 27.5q33 0 66 -24q39 -31 106 -31q59 0 113.5 58.5t54.5 176.5v856q0 41 25.5 67t66.5 26t66.5 -26t25.5 -67v-856q0 -115 -35.5 -199.5t-93 -128.5t-114 -64.5t-109.5 -20.5q-84 0 -144.5 23.5t-78.5 41.5q-41 33 -41 76zM127 1169v70 q0 41 25.5 65.5t66.5 24.5t66.5 -24.5t25.5 -65.5v-70q0 -41 -25.5 -66.5t-66.5 -25.5t-66.5 26.5t-25.5 65.5z" />
<glyph unicode="k" horiz-adv-x="894" d="M143 92v1225q0 41 26 66.5t66.5 25.5t66.5 -25.5t26 -66.5v-680l301 301q27 27 67 27q35 0 63.5 -29t28.5 -64q0 -39 -28 -67l-264 -262q176 -125 364 -400q14 -20 14 -53q0 -37 -25.5 -63.5t-66.5 -26.5q-51 0 -71 39q-104 147 -206 250.5t-165 146.5h-12v-344 q0 -41 -26 -66.5t-66.5 -25.5t-66.5 25.5t-26 66.5z" />
<glyph unicode="l" horiz-adv-x="514" d="M143 362v955q0 41 26 66.5t66.5 25.5t66.5 -25.5t26 -66.5v-955q0 -104 15 -144t58 -40q41 0 67 -23.5t26 -64.5t-26 -65.5t-67 -24.5q-150 0 -204 75.5t-54 286.5z" />
<glyph unicode="m" horiz-adv-x="1536" d="M143 92v782q0 90 86 91q59 0 84 -54q90 66 224 66q166 0 245 -88q135 88 287 88q166 0 245 -85t79 -265v-535q0 -41 -27 -66.5t-68 -25.5t-65.5 25.5t-24.5 66.5v506q0 117 -40 159t-142 42t-178 -43q12 -59 12 -129v-535q0 -41 -25.5 -66.5t-66.5 -25.5t-66.5 25.5 t-25.5 66.5v506q0 115 -40 158t-134 43q-109 0 -174 -43v-664q0 -41 -26 -66.5t-66.5 -25.5t-66.5 25.5t-26 66.5z" />
<glyph unicode="n" d="M143 92v782q0 90 86 91q55 0 84 -54q106 66 234 66q174 0 255 -85t81 -265v-535q0 -41 -26 -66.5t-66.5 -25.5t-66.5 25.5t-26 66.5v506q0 117 -41 159t-151 42q-86 0 -178 -43v-664q0 -41 -26 -66.5t-66.5 -25.5t-66.5 25.5t-26 66.5z" />
<glyph unicode="o" horiz-adv-x="1013" d="M82 481q0 223 117.5 359.5t308.5 136.5q188 0 306 -136t118 -360q0 -229 -113.5 -360t-310.5 -131q-190 0 -308 135t-118 356zM272 481q0 -143 63.5 -229t172.5 -86q111 0 172 84t61 231.5t-62.5 232.5t-170.5 85q-111 0 -173.5 -85.5t-62.5 -232.5z" />
<glyph unicode="p" d="M143 -344v1218q0 41 27 66t68 25q57 0 75 -54q82 66 191 66q197 0 318.5 -134t121.5 -356q0 -223 -121 -360t-319 -137q-78 0 -176 33v-367q0 -41 -26 -66.5t-66.5 -25.5t-66.5 25.5t-26 66.5zM328 213q76 -47 176 -47q117 0 183.5 92t66.5 229q0 141 -66.5 226.5 t-183.5 85.5q-86 0 -176 -47v-539z" />
<glyph unicode="q" d="M82 485q0 221 124 356.5t322 135.5q168 0 312 -80q43 -27 43 -78v-1163q0 -41 -26 -66.5t-66.5 -25.5t-66.5 25.5t-26 66.5v367q-72 -33 -176 -33q-201 0 -320.5 136t-119.5 359zM272 485q0 -145 68 -232t182 -87q78 0 176 47v555q-76 31 -170 31q-123 0 -189.5 -93.5 t-66.5 -220.5z" />
<glyph unicode="r" horiz-adv-x="735" d="M143 92v782q0 41 26 66t66.5 25t64.5 -25t24 -66v-22q92 125 217 125q117 0 155 -49q18 -23 19 -51q0 -39 -24.5 -66t-63.5 -27q-12 0 -42 7.5t-44 7.5q-33 0 -64 -12.5t-67.5 -45t-59 -108.5t-22.5 -184v-357q0 -41 -26 -66.5t-66.5 -25.5t-66.5 25.5t-26 66.5z" />
<glyph unicode="s" horiz-adv-x="856" d="M82 158q0 37 26.5 62.5t63.5 25.5q27 0 51 -15q25 -20 83.5 -42.5t121.5 -22.5q156 0 156 94q0 53 -48.5 88t-116 59.5t-136 55.5t-116.5 92t-48 152q0 131 100 200.5t235.5 69.5t245.5 -57q41 -23 41 -78q0 -41 -23.5 -64.5t-60.5 -23.5q-18 0 -53 10q-104 35 -149 35 q-145 0 -146 -92q0 -43 48.5 -73t116 -54.5t136 -57.5t116.5 -97.5t48 -158.5q0 -115 -96 -195.5t-250 -80.5q-74 0 -147.5 20.5t-107.5 38t-52 29.5q-39 27 -39 80z" />
<glyph unicode="t" horiz-adv-x="743" d="M4 877q0 41 25.5 64.5t66.5 23.5h72v178q0 41 25.5 66.5t66.5 25.5t66.5 -25.5t25.5 -66.5v-178h207q41 0 66.5 -23.5t25.5 -64.5t-25.5 -66t-66.5 -25h-207v-421q0 -199 158 -199q43 0 82 22q16 10 41 11q37 0 63.5 -23.5t26.5 -64.5q0 -55 -45 -82q-86 -39 -160 -39 t-129 13t-109.5 49t-83 115t-28.5 198v421h-72q-41 0 -66.5 25t-25.5 66z" />
<glyph unicode="u" d="M143 338v534q0 41 26 67t66.5 26t66.5 -26t26 -67v-505q0 -117 41 -159t151 -42q100 0 178 57v649q0 41 26 67t66.5 26t66.5 -26t26 -67v-782q0 -90 -86 -90q-55 0 -84 53q-104 -63 -234 -63q-174 0 -255 84t-81 264z" />
<glyph unicode="v" horiz-adv-x="892" d="M20 881q0 37 28 60.5t67 23.5q61 0 86 -66q113 -328 225 -606q16 -39 20 -43q4 4 21 43q106 264 225 608q23 63 84 64q39 0 67.5 -25t28.5 -61q0 -25 -8 -43q0 -4 -60.5 -161t-136 -347.5t-110.5 -257.5q-37 -70 -111 -70q-80 0 -110 57q-37 66 -114 260.5t-136 356.5 l-57 162q-9 22 -9 45z" />
<glyph unicode="w" horiz-adv-x="1302" d="M20 872q0 43 25 68t68 25q76 0 90 -70q90 -401 168 -623q27 80 178 613q27 80 104 80q41 0 70 -23.5t35 -56.5q16 -55 53 -188.5t65.5 -231.5t59.5 -186q31 98 71 247.5t66.5 255t26.5 111.5q14 72 92 72q43 0 66.5 -26t23.5 -69q0 -8 -6 -39q-20 -115 -106.5 -413.5 t-120.5 -362.5q-33 -55 -113 -55q-72 0 -102 59q-66 137 -181 555q-139 -473 -180 -555q-31 -59 -102 -59q-82 0 -113 55q-35 63 -123 365.5t-108 410.5q-7 31 -7 41z" />
<glyph unicode="x" horiz-adv-x="815" d="M20 90q0 33 17 55l274 383q-115 139 -241 267l-15 14q-27 31 -26 65q0 39 28.5 65t65.5 26t70 -31q8 -8 39.5 -41t58 -59.5t64.5 -69.5t69 -82l172 244q33 39 76 39q37 0 65.5 -28t28.5 -65q0 -31 -14 -51l-213 -284q160 -209 245 -402q10 -25 11 -45q0 -35 -30 -62.5 t-65 -27.5q-53 0 -82 49q-102 203 -192 330l-240 -340q-27 -39 -73 -39q-39 0 -66 26.5t-27 63.5z" />
<glyph unicode="y" horiz-adv-x="864" d="M-223 -223q0 37 28.5 63.5t61.5 26.5t55 -21q29 -25 44.5 -35t49 -21t76.5 -11q82 0 141.5 58.5t124.5 223.5q-14 23 -41 80q-51 109 -120.5 280t-113.5 287.5t-52 141.5q-4 12 -4 31q0 41 25.5 62.5t66.5 21.5q31 0 55.5 -20.5t32.5 -51.5q18 -47 53 -144.5t56.5 -157 t56.5 -141t69 -151.5q31 88 108 290t116 314q27 61 86 62q37 0 64.5 -26t27.5 -65q0 -12 -6 -28l-267 -737q-104 -281 -215.5 -394.5t-263.5 -113.5q-180 0 -282 102q-33 29 -33 74z" />
<glyph unicode="z" horiz-adv-x="935" d="M82 90q0 68 244 389q115 150 256 307h-406q-41 0 -66.5 24t-25.5 64.5t25.5 65.5t66.5 25h551q39 0 65.5 -25t26.5 -66q0 -20 -6 -42.5t-13 -39t-23.5 -40t-25 -33.5t-30 -37t-27.5 -33l-94 -112q-229 -274 -281 -359h443q41 0 66.5 -23.5t25.5 -64.5t-25.5 -65.5 t-66.5 -24.5h-590q-41 0 -65.5 24.5t-24.5 65.5z" />
<glyph unicode="{" horiz-adv-x="780" d="M143 537q0 39 37 74.5t39 66.5v420q0 113 78 174t221 61q43 0 81 -21.5t38 -70.5q0 -39 -23.5 -62.5t-64.5 -23.5q-145 0 -146 -65v-412q0 -86 -41 -141q41 -59 41 -138v-415q0 -63 138 -64q41 0 67.5 -24.5t26.5 -59.5q0 -45 -28.5 -69.5t-74.5 -24.5q-131 0 -222 52 t-91 177v428q0 39 -38 63t-38 75z" />
<glyph unicode="|" horiz-adv-x="573" d="M195 -33v1313q0 41 25.5 66.5t66.5 25.5t66.5 -25.5t25.5 -66.5v-1313q0 -41 -25.5 -66.5t-66.5 -25.5t-66.5 25.5t-25.5 66.5z" />
<glyph unicode="}" horiz-adv-x="780" d="M143 1241q0 49 37 70.5t82 21.5q121 0 210 -57t89 -176v-422q0 -39 38 -65.5t38 -75.5q0 -33 -38 -69t-38 -69v-430q0 -117 -88 -172t-225 -55q-45 0 -74 24.5t-29 69.5q0 37 27 60.5t68 23.5q137 0 137 64v415q0 78 41 138q-41 55 -41 141v412q0 66 -146 65 q-88 0 -88 86z" />
<glyph unicode="~" horiz-adv-x="815" d="M102 891q0 39 49.5 81t141.5 42q37 0 111.5 -21.5t117.5 -21.5q23 0 51.5 19.5t49.5 19.5q37 0 63.5 -24.5t26.5 -61.5q0 -57 -60.5 -92t-130.5 -35q-39 0 -113.5 21.5t-115.5 21.5q-20 0 -47 -19.5t-47 -19.5q-39 0 -68 25.5t-29 64.5z" />
<glyph unicode="&#xa1;" horiz-adv-x="552" d="M184 -240v832q0 41 26 66.5t66.5 25.5t66.5 -25.5t26 -66.5v-832q0 -41 -26 -66.5t-66.5 -25.5t-66.5 25.5t-26 66.5zM184 836v65q0 41 26 66.5t66.5 25.5t66.5 -25.5t26 -66.5v-65q0 -41 -26 -67t-66.5 -26t-66.5 26t-26 67z" />
<glyph unicode="&#xa2;" horiz-adv-x="1294" d="M246 487q0 174 102.5 306.5t261.5 169.5v36q0 39 26 66t66.5 27t67.5 -26t27 -67v-24q121 -27 196 -76q41 -25 41 -78q0 -37 -26.5 -64.5t-63.5 -27.5q-23 0 -85 31t-87 35q-29 4 -45 4q-123 0 -207 -91.5t-84 -220.5t65.5 -225t188.5 -96q113 0 219 65q20 12 47 13 q39 0 66 -25.5t27 -66.5q0 -47 -45 -76q-102 -61 -207 -76v-25q0 -39 -27 -66.5t-67.5 -27.5t-66.5 28t-26 66v23q-166 20 -265 155t-99 334z" />
<glyph unicode="&#xa3;" horiz-adv-x="1368" d="M246 90q0 53 41 84q133 84 133 203q0 82 -17 160h-59q-41 0 -66.5 23.5t-25.5 64.5t25.5 65.5t66.5 24.5h35q-2 12 -2 33v30q0 256 118.5 391.5t280.5 135.5q49 0 94 -7.5t89.5 -34t44.5 -71.5q0 -41 -31 -72q-23 -23 -47.5 -22.5t-72.5 15.5t-77 15q-88 0 -151.5 -92 t-63.5 -258q0 -14 4 -63h264q41 0 67 -24.5t26 -65.5t-26 -64.5t-67 -23.5h-239q14 -90 14 -160q0 -115 -74 -199h500q41 0 66.5 -23.5t25.5 -64.5t-25.5 -65.5t-66.5 -24.5h-692q-41 0 -66.5 24.5t-25.5 65.5z" />
<glyph unicode="&#xa4;" horiz-adv-x="1185" d="M184 580q0 123 62 215l-29 30q-14 23 -14 49q0 35 29.5 64t64.5 29q43 0 68 -25l18 -16q100 57 209 57q127 0 215 -57l37 30q20 10 45 11q37 0 64.5 -26t29.5 -67q0 -39 -43 -79q61 -104 61 -215q0 -115 -63 -213l12 -13q33 -33 33 -71.5t-26.5 -66.5t-67.5 -28 q-37 0 -82 43q-104 -57 -215 -57q-131 0 -215 57q-43 -41 -80 -41t-65.5 26t-28.5 67q0 37 30 67l13 12q-62 114 -62 218zM373 579.5q0 -92.5 64.5 -160t154.5 -67.5t155.5 67.5t65.5 160.5q0 90 -65.5 157.5t-155.5 67.5t-154.5 -66.5t-64.5 -159z" />
<glyph unicode="&#xa5;" horiz-adv-x="1406" d="M246 319.5q0 40.5 26.5 65.5t65.5 25h274v102h-274q-39 0 -65.5 24.5t-26.5 65.5t26.5 64.5t65.5 23.5h156q-70 123 -144 287t-96 227q-6 18 -6 37q0 35 25.5 57.5t70.5 22.5q29 0 45 -12q20 -14 39 -52q139 -334 244 -512l33 -53q111 178 276 565q23 41 40 52.5t56 11.5 q41 0 62.5 -25.5t21.5 -54.5q0 -23 -6 -37q-129 -307 -244 -514h127q39 0 65.5 -23.5t26.5 -64.5t-26.5 -65.5t-65.5 -24.5h-241v-102h241q39 0 65.5 -25t26.5 -65.5t-26.5 -64.5t-65.5 -24h-241v-139q0 -41 -26 -66.5t-66.5 -25.5t-66.5 25.5t-26 66.5v139h-274 q-39 0 -65.5 24t-26.5 64.5z" />
<glyph unicode="&#xa6;" horiz-adv-x="552" d="M184 92v467q0 41 26 66.5t66.5 25.5t66.5 -25.5t26 -66.5v-467q0 -41 -26 -66.5t-66.5 -25.5t-66.5 25.5t-26 66.5zM184 954v467q0 41 26 66.5t66.5 25.5t66.5 -25.5t26 -66.5v-467q0 -41 -26 -66.5t-66.5 -25.5t-66.5 25.5t-26 66.5z" />
<glyph unicode="&#xa7;" horiz-adv-x="1302" d="M287 621q0 74 39 135t88 92q25 16 47 31q-12 6 -27 16q-104 82 -104 217q0 133 100 202.5t238 69.5q61 0 123.5 -16t92 -31.5t44.5 -25.5q16 -10 29.5 -34t13.5 -44q0 -43 -25.5 -66.5t-68.5 -23.5q-20 0 -50 12q-88 51 -159 51q-57 0 -103.5 -25.5t-46.5 -68.5t45 -75.5 t182 -100.5q137 -72 185 -121q86 -86 86 -215q0 -137 -154 -231q121 -94 121 -242q0 -129 -97.5 -215t-244.5 -86q-76 0 -150.5 20.5t-111.5 40t-45 27.5q-41 27 -41 78q0 37 26.5 64.5t63.5 27.5q31 0 51 -14q92 -68 207 -68q68 0 111 36t43 89q0 33 -14.5 60.5t-52.5 55 t-56.5 39t-74.5 39t-60 29.5q-55 29 -73 39t-63 40t-62 52.5t-34.5 60.5t-17.5 79zM475 621q0 -37 131 -103l15 -6l88 -45q43 20 80.5 57t37.5 76q0 98 -143 164l-45 20q-29 -8 -61.5 -23.5t-67.5 -53t-35 -86.5z" />
<glyph unicode="&#xa8;" horiz-adv-x="647" d="M102 1169v70q0 41 26 65.5t67 24.5t66.5 -24.5t25.5 -65.5v-70q0 -41 -25.5 -65.5t-66.5 -24.5t-67 24.5t-26 65.5zM360 1169v70q0 41 26 65.5t67 24.5t66.5 -24.5t25.5 -65.5v-70q0 -41 -25.5 -65.5t-66.5 -24.5t-67 24.5t-26 65.5z" />
<glyph unicode="&#xa9;" horiz-adv-x="1705" d="M184 834q0 276 195.5 472.5t472 196.5t473.5 -196.5t197 -472.5q0 -279 -196 -473.5t-474 -194.5q-276 0 -472 194.5t-196 473.5zM317 834q0 -221 157 -381t378 -160t379 159.5t158 381.5q0 217 -159 376.5t-378 159.5t-377 -159.5t-158 -376.5zM518 844 q0 166 97.5 274.5t244.5 108.5q139 0 217 -62q31 -25 31 -57q0 -25 -20.5 -44.5t-47.5 -19.5q-18 0 -34 9q-76 45 -146 45q-90 0 -148.5 -72t-58.5 -182q0 -106 55.5 -179t139.5 -73t153 45q14 8 35 8q31 0 50.5 -17.5t19.5 -45.5q0 -35 -25 -54q-92 -63 -233 -63 q-143 0 -236.5 107.5t-93.5 271.5z" />
<glyph unicode="&#xaa;" horiz-adv-x="1187" d="M276 811q0 231 326 231h70v45q0 33 -23.5 52.5t-64.5 19.5q-55 0 -107.5 -22.5t-73.5 -22.5q-39 0 -65.5 26.5t-26.5 63.5q0 20 8 35q45 100 265 100q72 0 125 -25.5t79.5 -58t43 -72.5t20.5 -62.5t4 -33.5v-337q55 -14 55 -88q0 -86 -98 -91q-43 0 -86 35 q-98 -45 -164 -45q-115 0 -201 64.5t-86 185.5zM465 811q0 -39 28.5 -57.5t69.5 -18.5q76 0 109 31v119h-70q-137 0 -137 -74z" />
<glyph unicode="&#xab;" horiz-adv-x="933" d="M123 477q0 33 14 53l197 283q27 39 76 39q41 0 66.5 -26.5t25.5 -65.5q0 -27 -19 -53l-161 -230l165 -239q16 -29 17 -52q0 -39 -27.5 -65.5t-68.5 -26.5q-47 0 -74 39l-199 299q-12 20 -12 45zM430 477q0 33 14 53l197 283q27 39 76 39q41 0 66.5 -26.5t25.5 -65.5 q0 -27 -18 -53l-162 -230l166 -239q16 -29 16 -52q0 -39 -27.5 -65.5t-68.5 -26.5q-47 0 -74 39l-199 299q-12 20 -12 45z" />
<glyph unicode="&#xac;" horiz-adv-x="1228" d="M150 496q0 43 24.5 66.5t67.5 23.5h743q43 0 67.5 -23.5t24.5 -66.5v-248q0 -41 -25.5 -66.5t-66.5 -25.5q-39 0 -65.5 25.5t-26.5 66.5v158h-651q-41 0 -66.5 24.5t-25.5 65.5z" />
<glyph unicode="&#xad;" horiz-adv-x="911" d="M143 491.5q0 40.5 26 65.5t67 25h440q41 0 66.5 -25t25.5 -65.5t-25.5 -64.5t-66.5 -24h-440q-41 0 -67 24t-26 64.5z" />
<glyph unicode="&#xae;" horiz-adv-x="1705" d="M184 834q0 274 197 471.5t473 197.5t472 -196.5t196 -472.5q0 -279 -194.5 -473.5t-473.5 -194.5q-276 0 -473 196t-197 472zM319 834q0 -221 157 -381t378 -160t379 159.5t158 381.5q0 217 -159 376.5t-378 159.5t-377 -159.5t-158 -376.5zM627 539v618q0 31 18.5 49.5 t46.5 18.5h160q102 0 167.5 -60.5t65.5 -152.5q0 -80 -35.5 -126t-68.5 -59q70 -70 133 -270q2 -2 2 -12v-10q0 -63 -63 -64q-51 0 -64 49q-39 125 -85 196.5t-89 71.5h-57v-249q0 -31 -17.5 -49.5t-48 -18.5t-48 18.5t-17.5 49.5zM758 915h94q18 0 36.5 5.5t39 28 t20.5 63.5q0 37 -26.5 60.5t-69.5 23.5h-94v-181z" />
<glyph unicode="&#xaf;" horiz-adv-x="829" d="M102 1169q0 41 26 64.5t67 23.5h440q41 0 66.5 -23.5t25.5 -64.5t-25.5 -65.5t-66.5 -24.5h-440q-41 0 -67 24.5t-26 65.5z" />
<glyph unicode="&#xb0;" horiz-adv-x="948" d="M143 879q0 170 89.5 274t238.5 104q147 0 240.5 -105t93.5 -273q0 -178 -89 -276.5t-245 -98.5q-154 0 -241 98.5t-87 276.5zM332 879q0 -92 37 -144.5t102.5 -52.5t105 53t39.5 144q0 82 -37.5 141t-107.5 59q-72 0 -105.5 -60t-33.5 -140z" />
<glyph unicode="&#xb1;" horiz-adv-x="1228" d="M174 90q0 41 25.5 64.5t66.5 23.5h697q41 0 66.5 -23.5t25.5 -64.5t-25.5 -65.5t-66.5 -24.5h-697q-41 0 -66.5 24.5t-25.5 65.5zM174 668q0 41 25.5 64.5t66.5 23.5h256v264q0 41 25.5 66.5t66.5 25.5t67 -25.5t26 -66.5v-264h256q41 0 66.5 -23.5t25.5 -64.5 t-25.5 -65.5t-66.5 -24.5h-256v-256q0 -41 -26 -67t-67 -26t-66.5 26t-25.5 67v256h-256q-41 0 -66.5 24.5t-25.5 65.5z" />
<glyph unicode="&#xb2;" horiz-adv-x="837" d="M170 678q0 43 27.5 91t56.5 81t80 84l54 54q15 15 41 45t35 49.5t9 35.5q0 45 -25.5 63.5t-56.5 18.5q-43 0 -100 -33q-12 -12 -41 -12q-27 0 -44.5 19.5t-17.5 46.5q0 33 31 55q80 51 172 51q31 0 62.5 -7t70.5 -25.5t63.5 -64.5t24.5 -112q0 -47 -29.5 -98t-61.5 -86 t-89 -88l-55 -55q-29 -29 -43 -50h209q29 0 47 -17t18 -46q0 -63 -65 -64h-310q-25 0 -44 17.5t-19 46.5z" />
<glyph unicode="&#xb3;" horiz-adv-x="851" d="M174 717q0 29 19.5 46t44 17t51.5 -20q43 -25 104 -25q43 0 72 25.5t29 60.5q0 45 -35 66.5t-84 21.5h-27q-63 0 -63 63.5t63 63.5h27q43 0 74.5 20.5t31.5 61.5q0 82 -90 82q-53 0 -96 -33q-12 -12 -37 -12t-44 18.5t-19 47.5q0 35 28 51q16 16 62.5 35.5t105.5 19.5 q102 0 166 -48t64 -157q0 -45 -23 -88t-59 -59q41 -18 67.5 -63.5t26.5 -88.5q0 -94 -69.5 -154.5t-170.5 -60.5q-141 0 -200 60q-19 18 -19 49z" />
<glyph unicode="&#xb4;" horiz-adv-x="704" d="M102 1163q0 61 58 86l317 131l19 6q4 2 16 3q39 0 64.5 -25t25.5 -64q0 -55 -57 -81l-320 -134q-14 -6 -32 -6q-37 0 -64 22.5t-27 61.5z" />
<glyph unicode="&#xb5;" horiz-adv-x="1024" d="M143 -121v998q0 41 26 65.5t66.5 24.5t66.5 -24.5t26 -65.5v-510q0 -117 40 -159t152 -42q31 0 63.5 9t54 20.5t42.5 21.5l18 12v648q0 41 26 65.5t66.5 24.5t66.5 -24.5t26 -65.5v-785q0 -39 -26 -65.5t-66 -26.5q-49 0 -74 39q-102 -49 -197 -49q-135 0 -192 49v-160 q0 -41 -26 -66.5t-66.5 -25.5t-66.5 25.5t-26 66.5z" />
<glyph unicode="&#xb6;" horiz-adv-x="1308" d="M143 952q0 160 113 264.5t281 104.5h536q41 0 66.5 -24.5t25.5 -65.5t-25.5 -65.5t-66.5 -24.5h-10v-1213q0 -41 -25.5 -66.5t-66.5 -25.5t-66.5 25.5t-25.5 66.5v1213h-84v-1213q0 -41 -26 -66.5t-66.5 -25.5t-66.5 25.5t-26 66.5v625h-73q-156 0 -275 98t-119 301z" />
<glyph unicode="&#xb7;" horiz-adv-x="507" d="M143 551q0 49 32 81t79 32t79 -32t32 -81q0 -47 -32 -78t-79 -31t-79 31t-32 78z" />
<glyph unicode="&#xb8;" horiz-adv-x="555" d="M102 -158q0 10 4 31l35 160q10 45 49 45q41 0 41 -49q0 -4 -3 -15.5t-8 -30t-9 -30.5l-6 -25q29 12 76 13q74 0 123 -51.5t49 -135.5q0 -92 -63.5 -145t-149.5 -53q-55 0 -90 21.5t-35 55.5q0 59 61 60q4 0 27.5 -4t46.5 -4q27 0 49.5 20.5t22.5 48.5q0 63 -56 64 q-37 0 -66.5 -13.5t-39.5 -13.5q-58 0 -58 51z" />
<glyph unicode="&#xb9;" horiz-adv-x="624" d="M139 1184q0 33 31 55l104 70q16 12 39 12q27 0 46.5 -18.5t19.5 -49.5v-571q0 -31 -19.5 -49.5t-48 -18.5t-47 18.5t-18.5 49.5v455l-17 -11q-10 -8 -28 -8q-25 0 -43.5 18.5t-18.5 47.5z" />
<glyph unicode="&#xba;" horiz-adv-x="1234" d="M276 946q0 174 96.5 283.5t245.5 109.5q147 0 243.5 -109.5t96.5 -283.5q0 -180 -91 -282.5t-249 -102.5q-150 0 -246 107.5t-96 277.5zM465 946q0 -92 42 -149.5t111.5 -57.5t110.5 56.5t41 150.5q0 98 -41 156.5t-110.5 58.5t-111.5 -59.5t-42 -155.5z" />
<glyph unicode="&#xbb;" horiz-adv-x="933" d="M123 186q0 23 16 52l166 239l-162 230q-18 27 -18 53q0 39 25.5 65.5t66.5 26.5q49 0 76 -39l196 -283q14 -20 15 -53q0 -25 -12 -45l-199 -299q-27 -39 -74 -39q-41 0 -68.5 26.5t-27.5 65.5zM430 186q0 23 16 52l166 239l-161 230q-18 27 -19 53q0 39 25.5 65.5 t66.5 26.5q49 0 76 -39l197 -283q14 -20 14 -53q0 -25 -12 -45l-199 -299q-27 -39 -74 -39q-41 0 -68.5 26.5t-27.5 65.5z" />
<glyph unicode="&#xbc;" horiz-adv-x="1552" d="M242 1184q0 33 30 55l105 70q16 12 39 12q27 0 46 -18.5t19 -49.5v-571q0 -31 -19.5 -49.5t-48 -18.5t-47 18.5t-18.5 49.5v455l-16 -11q-10 -8 -29 -8q-25 0 -43 18.5t-18 47.5zM274 72q0 23 25 61l801 1155q25 33 67 33q70 0 70 -72q0 -20 -29 -65l-796 -1151 q-25 -33 -68 -33q-70 0 -70 72zM831 223q0 8 9 31q113 246 299 432q20 20 51 21q29 0 46 -18.5t17 -43.5q0 -31 -20 -51l-25 -25q-125 -125 -213 -282h133v75q0 31 19.5 49.5t46.5 18.5t47.5 -18.5t20.5 -49.5v-75h8q70 0 69.5 -63.5t-69.5 -63.5h-8v-92q0 -29 -20.5 -48.5 t-47.5 -19.5t-46.5 18.5t-19.5 49.5v92h-231q-33 0 -49.5 18t-16.5 45z" />
<glyph unicode="&#xbd;" horiz-adv-x="1669" d="M242 1184q0 33 30 55l105 70q16 12 39 12q27 0 46 -18.5t19 -49.5v-571q0 -31 -19.5 -49.5t-48 -18.5t-47 18.5t-18.5 49.5v455l-16 -11q-10 -8 -29 -8q-25 0 -43 18.5t-18 47.5zM274 72q0 23 25 61l801 1155q25 33 67 33q70 0 70 -72q0 -20 -29 -65l-796 -1151 q-25 -33 -68 -33q-70 0 -70 72zM930 63q0 43 27.5 91.5t56 81t80.5 83.5l54 55q15 15 40.5 45t35 49t9.5 36q0 45 -25.5 63.5t-56.5 18.5q-43 0 -100 -33q-12 -12 -41 -12q-27 0 -44.5 19.5t-17.5 45.5q0 33 31 56q80 51 172 51q31 0 62.5 -7.5t70.5 -25.5t63.5 -64.5 t24.5 -111.5q0 -47 -29.5 -98.5t-61.5 -86t-89 -88.5l-55 -55q-27 -29 -43 -49h209q29 0 47 -17.5t18 -46.5q0 -63 -65 -63h-310q-25 0 -44 17t-19 46z" />
<glyph unicode="&#xbe;" horiz-adv-x="1712" d="M174 717q0 29 19.5 46t44 17t51.5 -20q43 -25 104 -25q43 0 72 25.5t29 60.5q0 45 -35 66.5t-84 21.5h-27q-63 0 -63 63.5t63 63.5h27q43 0 74.5 20.5t31.5 61.5q0 82 -90 82q-53 0 -96 -33q-12 -12 -37 -12t-44 18.5t-19 47.5q0 35 28 51q16 16 62.5 35.5t105.5 19.5 q102 0 166 -48t64 -157q0 -45 -23 -88t-59 -59q41 -18 67.5 -63.5t26.5 -88.5q0 -94 -69.5 -154.5t-170.5 -60.5q-141 0 -200 60q-19 18 -19 49zM369 72q0 23 24 61l801 1155q25 33 68 33q70 0 69 -72q0 -20 -28 -65l-797 -1151q-25 -33 -68 -33q-69 0 -69 72zM926 223 q0 8 8 31q113 246 299 432q20 20 51 21q29 0 46.5 -18.5t17.5 -43.5q0 -31 -21 -51l-24 -25q-125 -125 -213 -282h133v75q0 31 19.5 49.5t46 18.5t47 -18.5t20.5 -49.5v-75h8q70 0 70 -63.5t-70 -63.5h-8v-92q0 -29 -20.5 -48.5t-47 -19.5t-46 18.5t-19.5 49.5v92h-232 q-33 0 -49 18t-16 45z" />
<glyph unicode="&#xbf;" horiz-adv-x="1054" d="M156 61q0 86 35.5 149.5t86 101.5t101.5 73t87 87t36 120q0 41 25.5 66.5t66.5 25.5t66.5 -25.5t25.5 -66.5q0 -92 -35 -162t-85 -112t-100 -77.5t-85 -79.5t-35 -100q0 -94 55.5 -155.5t143.5 -61.5q90 0 194 72q27 18 62 18q41 0 65.5 -26.5t24.5 -65.5t-35 -67 q-12 -12 -41 -31.5t-107.5 -48.5t-162.5 -29q-166 0 -277.5 112.5t-111.5 282.5zM502 836v65q0 41 25.5 66.5t66.5 25.5t66.5 -25.5t25.5 -66.5v-65q0 -41 -25.5 -67t-66.5 -26t-66.5 26t-25.5 67z" />
<glyph unicode="&#xc0;" horiz-adv-x="1155" d="M41 84q0 10 4 27q2 4 26.5 83.5t55.5 179t76 232.5t87 252t88 230.5t81 173.5q29 59 119 59q98 0 120 -64q76 -162 229.5 -602t182.5 -544q4 -16 4 -27q0 -39 -24.5 -61.5t-71.5 -22.5q-57 0 -80 59q-41 113 -107 320h-512q-16 -49 -36.5 -120t-35 -120t-26.5 -80 q-23 -59 -90 -59q-90 0 -90 84zM266 1710q0 41 25.5 64.5t64.5 23.5q12 0 17 -2l336 -137q57 -25 57 -86q0 -27 -12 -45q-27 -39 -78 -39q-18 0 -33 6l-319 133q-58 27 -58 82zM383 557h391q-96 299 -162 457q-27 59 -34 88l-7 -17q-6 -14 -14 -36.5t-14 -34.5 q-58 -138 -160 -457z" />
<glyph unicode="&#xc1;" horiz-adv-x="1155" d="M41 84q0 10 4 27q2 4 26.5 83.5t55.5 179t76 232.5t87 252t88 230.5t81 173.5q29 59 119 59q98 0 120 -64q76 -162 229.5 -602t182.5 -544q4 -16 4 -27q0 -39 -24.5 -61.5t-71.5 -22.5q-57 0 -80 59q-41 113 -107 320h-512q-16 -49 -36.5 -120t-35 -120t-26.5 -80 q-23 -59 -90 -59q-90 0 -90 84zM383 557h391q-96 299 -162 457q-27 59 -34 88l-7 -17q-6 -14 -14 -36.5t-14 -34.5q-58 -138 -160 -457zM391 1573q0 61 58 86l317 131l18 6q4 2 17 2q39 0 64.5 -24.5t25.5 -63.5q0 -55 -57 -82l-320 -133q-14 -6 -33 -6q-37 0 -63.5 22.5 t-26.5 61.5z" />
<glyph unicode="&#xc2;" horiz-adv-x="1155" d="M41 84q0 10 4 27q2 4 26.5 83.5t55.5 179t76 232.5t87 252t88 230.5t81 173.5q29 59 119 59q98 0 120 -64q76 -162 229.5 -602t182.5 -544q4 -16 4 -27q0 -39 -24.5 -61.5t-71.5 -22.5q-57 0 -80 59q-41 113 -107 320h-512q-16 -49 -36.5 -120t-35 -120t-26.5 -80 q-23 -59 -90 -59q-90 0 -90 84zM248 1575q0 53 47 78l240 129q23 12 45 12q14 0 43 -12l243 -131q43 -23 43 -78q0 -39 -26.5 -61.5t-67.5 -22.5q-16 0 -45 12l-190 103l-197 -103q-25 -12 -43 -12q-41 0 -66.5 24.5t-25.5 61.5zM383 557h391q-96 299 -162 457 q-27 59 -34 88l-7 -17q-6 -14 -14 -36.5t-14 -34.5q-58 -138 -160 -457z" />
<glyph unicode="&#xc3;" horiz-adv-x="1155" d="M41 84q0 10 4 27q2 4 26.5 83.5t55.5 179t76 232.5t87 252t88 230.5t81 173.5q29 59 119 59q98 0 120 -64q76 -162 229.5 -602t182.5 -544q4 -16 4 -27q0 -39 -24.5 -61.5t-71.5 -22.5q-57 0 -80 59q-41 113 -107 320h-512q-16 -49 -36.5 -120t-35 -120t-26.5 -80 q-23 -59 -90 -59q-90 0 -90 84zM279 1575q0 63 58 99t130 36q45 0 110.5 -21.5t116.5 -21.5q18 0 45 17.5t54 17.5q37 0 65.5 -25.5t28.5 -62.5q0 -61 -60.5 -93t-132.5 -32q-47 0 -110.5 21.5t-116.5 21.5q-16 0 -46 -16.5t-50 -16.5q-39 0 -65.5 19.5t-26.5 56.5zM383 557 h391q-96 299 -162 457q-27 59 -34 88l-7 -17q-6 -14 -14 -36.5t-14 -34.5q-58 -138 -160 -457z" />
<glyph unicode="&#xc4;" horiz-adv-x="1155" d="M41 84q0 10 4 27q2 4 26.5 83.5t55.5 179t76 232.5t87 252t88 230.5t81 173.5q29 59 119 59q98 0 120 -64q76 -162 229.5 -602t182.5 -544q4 -16 4 -27q0 -39 -24.5 -61.5t-71.5 -22.5q-57 0 -80 59q-41 113 -107 320h-512q-16 -49 -36.5 -120t-35 -120t-26.5 -80 q-23 -59 -90 -59q-90 0 -90 84zM356 1581v66q0 41 26 66.5t66.5 25.5t66.5 -25.5t26 -66.5v-66q0 -41 -26 -66.5t-66.5 -25.5t-66.5 25.5t-26 66.5zM383 557h391q-96 299 -162 457q-27 59 -34 88l-7 -17q-6 -14 -14 -36.5t-14 -34.5q-58 -138 -160 -457zM614 1581v66 q0 41 26 66.5t67 25.5t66.5 -25.5t25.5 -66.5v-66q0 -41 -25.5 -66.5t-66.5 -25.5t-67 25.5t-26 66.5z" />
<glyph unicode="&#xc5;" horiz-adv-x="1155" d="M41 84q0 10 4 27q2 4 26.5 83.5t55.5 179t76 232.5t87 252t88 230.5t81 173.5q29 59 119 59q98 0 120 -64q76 -162 229.5 -602t182.5 -544q4 -16 4 -27q0 -39 -24.5 -61.5t-71.5 -22.5q-57 0 -80 59q-41 113 -107 320h-512q-16 -49 -36.5 -120t-35 -120t-26.5 -80 q-23 -59 -90 -59q-90 0 -90 84zM383 557h391q-96 299 -162 457q-27 59 -34 88l-7 -17q-6 -14 -14 -36.5t-14 -34.5q-58 -138 -160 -457zM389 1681q0 80 56.5 135.5t138.5 55.5q80 0 134 -55.5t54 -135.5q0 -84 -53 -138t-135 -54t-138.5 54t-56.5 138zM518 1683 q0 -29 19.5 -48t48.5 -19q25 0 45 19.5t20 47.5q0 25 -20.5 44.5t-44.5 19.5q-29 0 -48.5 -19.5t-19.5 -44.5z" />
<glyph unicode="&#xc6;" horiz-adv-x="1593" d="M41 88q0 27 8 41q18 55 245.5 519t323.5 620q33 53 111 53h612q41 0 67 -23.5t26 -64.5t-26 -65.5t-67 -24.5h-434q33 -193 54 -361h348q41 0 66.5 -24.5t25.5 -65.5t-25.5 -64.5t-66.5 -23.5h-328q25 -252 25 -411v-15h372q41 0 66.5 -23.5t25.5 -64.5t-25.5 -65.5 t-66.5 -24.5h-465q-41 0 -66.5 25.5t-25.5 66.5q0 207 -26 508q-291 -18 -402 -182l-178 -369q-27 -49 -84 -49q-41 0 -65.5 25.5t-24.5 62.5zM524 709q152 63 252 69q-35 262 -51 330q-66 -118 -201 -399z" />
<glyph unicode="&#xc7;" horiz-adv-x="1228" d="M102 659q0 289 173.5 481.5t429.5 192.5q139 0 238 -34.5t144 -73.5q39 -33 39 -78q0 -39 -25.5 -63.5t-64.5 -24.5q-35 0 -63 20q-117 76 -268 76q-176 0 -294 -142.5t-118 -353t111.5 -352t281.5 -141.5q143 0 287 82q27 14 49 14q39 0 65.5 -25.5t26.5 -64.5 q0 -57 -39 -78q-197 -102 -383 -104l-16 -62q29 12 76 13q74 0 123 -51.5t49 -135.5q0 -92 -63.5 -145t-149.5 -53q-55 0 -90 21.5t-35 55.5q0 59 61 60q4 0 27.5 -4t46.5 -4q27 0 49.5 20.5t22.5 48.5q0 63 -56 64q-37 0 -66.5 -13.5t-39.5 -13.5q-57 0 -58 51q0 10 5 31 l26 123q-221 29 -361.5 214t-140.5 449z" />
<glyph unicode="&#xc8;" horiz-adv-x="1034" d="M184 90v1143q0 41 24.5 64.5t65.5 23.5h519q41 0 65.5 -23.5t24.5 -64.5t-24.5 -65.5t-65.5 -24.5h-424v-361h391q41 0 65.5 -23.5t24.5 -64.5t-24.5 -65.5t-65.5 -24.5h-391v-426h462q41 0 66 -23.5t25 -64.5t-25 -65.5t-66 -24.5h-557q-41 0 -65.5 24.5t-24.5 65.5z M258 1710q0 41 25.5 64.5t64.5 23.5q12 0 17 -2l335 -137q57 -25 58 -86q0 -27 -13 -45q-27 -39 -77 -39q-18 0 -33 6l-320 133q-57 27 -57 82z" />
<glyph unicode="&#xc9;" horiz-adv-x="1034" d="M184 90v1143q0 41 24.5 64.5t65.5 23.5h519q41 0 65.5 -23.5t24.5 -64.5t-24.5 -65.5t-65.5 -24.5h-424v-361h391q41 0 65.5 -23.5t24.5 -64.5t-24.5 -65.5t-65.5 -24.5h-391v-426h462q41 0 66 -23.5t25 -64.5t-25 -65.5t-66 -24.5h-557q-41 0 -65.5 24.5t-24.5 65.5z M299 1573q0 61 57 86l318 131l18 6q4 2 17 2q39 0 64.5 -24.5t25.5 -63.5q0 -55 -58 -82l-319 -133q-14 -6 -33 -6q-37 0 -63.5 22.5t-26.5 61.5z" />
<glyph unicode="&#xca;" horiz-adv-x="1034" d="M184 90v1143q0 41 24.5 64.5t65.5 23.5h519q41 0 65.5 -23.5t24.5 -64.5t-24.5 -65.5t-65.5 -24.5h-424v-361h391q41 0 65.5 -23.5t24.5 -64.5t-24.5 -65.5t-65.5 -24.5h-391v-426h462q41 0 66 -23.5t25 -64.5t-25 -65.5t-66 -24.5h-557q-41 0 -65.5 24.5t-24.5 65.5z M193 1575q0 53 47 78l239 129q20 12 45 12q14 0 43 -12l244 -131q43 -23 43 -78q0 -39 -26.5 -61.5t-67.5 -22.5q-16 0 -45 12l-191 103l-196 -103q-25 -12 -43 -12q-41 0 -66.5 24.5t-25.5 61.5z" />
<glyph unicode="&#xcb;" horiz-adv-x="1034" d="M184 90v1143q0 41 24.5 64.5t65.5 23.5h519q41 0 65.5 -23.5t24.5 -64.5t-24.5 -65.5t-65.5 -24.5h-424v-361h391q41 0 65.5 -23.5t24.5 -64.5t-24.5 -65.5t-65.5 -24.5h-391v-426h462q41 0 66 -23.5t25 -64.5t-25 -65.5t-66 -24.5h-557q-41 0 -65.5 24.5t-24.5 65.5z M315 1579v70q0 41 26 65.5t67 24.5t66.5 -24.5t25.5 -65.5v-70q0 -41 -25.5 -65.5t-66.5 -24.5t-67 24.5t-26 65.5zM573 1579v70q0 41 26 65.5t67 24.5t66.5 -24.5t25.5 -65.5v-70q0 -41 -25.5 -65.5t-66.5 -24.5t-67 24.5t-26 65.5z" />
<glyph unicode="&#xcc;" horiz-adv-x="552" d="M-35 1710q0 41 24.5 64.5t63.5 23.5q12 0 17 -2l336 -137q57 -25 57 -86q0 -27 -12 -45q-27 -39 -78 -39q-18 0 -33 6l-320 133q-55 31 -55 82zM184 92v1139q0 41 26 65.5t66.5 24.5t66.5 -24.5t26 -65.5v-1139q0 -41 -26 -66.5t-66.5 -25.5t-66.5 25.5t-26 66.5z" />
<glyph unicode="&#xcd;" horiz-adv-x="552" d="M84 1573q0 61 57 86l318 131l18 6q4 2 17 2q39 0 64.5 -24.5t25.5 -63.5q0 -55 -58 -82l-319 -133q-14 -6 -33 -6q-37 0 -63.5 22.5t-26.5 61.5zM184 92v1139q0 41 26 65.5t66.5 24.5t66.5 -24.5t26 -65.5v-1139q0 -41 -26 -66.5t-66.5 -25.5t-66.5 25.5t-26 66.5z" />
<glyph unicode="&#xce;" horiz-adv-x="552" d="M-53 1575q0 53 47 78l237 129q23 12 45 12q14 0 43 -12l244 -131q43 -23 43 -78q0 -39 -26.5 -61.5t-67.5 -22.5q-16 0 -45 12l-191 103l-196 -103q-25 -12 -43 -12q-39 0 -64.5 24.5t-25.5 61.5zM184 92v1139q0 41 26 65.5t66.5 24.5t66.5 -24.5t26 -65.5v-1139 q0 -41 -26 -66.5t-66.5 -25.5t-66.5 25.5t-26 66.5z" />
<glyph unicode="&#xcf;" horiz-adv-x="552" d="M61 1579v70q0 41 26 65.5t67 24.5t66.5 -24.5t25.5 -65.5v-70q0 -41 -25.5 -65.5t-66.5 -24.5t-67 24.5t-26 65.5zM184 92v1139q0 41 26 65.5t66.5 24.5t66.5 -24.5t26 -65.5v-1139q0 -41 -26 -66.5t-66.5 -25.5t-66.5 25.5t-26 66.5zM319 1579v70q0 41 26 65.5t67 24.5 t66.5 -24.5t25.5 -65.5v-70q0 -41 -25.5 -65.5t-66.5 -24.5t-67 24.5t-26 65.5z" />
<glyph unicode="&#xd0;" horiz-adv-x="1380" d="M82 686q0 41 25.5 64.5t66.5 23.5h76v455q0 41 24.5 66.5t65.5 25.5h346q260 0 426 -187.5t166 -478.5q0 -287 -165 -471t-427 -184h-346q-41 0 -65.5 25.5t-24.5 66.5v504h-76q-41 0 -66.5 24.5t-25.5 65.5zM434 178h252q180 0 290.5 133t110.5 344q0 213 -110.5 350.5 t-290.5 137.5h-252v-369h283q41 0 66.5 -23.5t25.5 -64.5t-25.5 -65.5t-66.5 -24.5h-283v-418z" />
<glyph unicode="&#xd1;" horiz-adv-x="1261" d="M184 92v1137q0 41 26 66.5t66 25.5h25q37 0 73 -22.5t61.5 -51t57 -83t48 -87.5t45 -98.5t37.5 -81.5q16 -37 49 -112.5t49 -110.5q92 -213 131 -287q8 -14 23.5 -43t17.5 -33v918q0 41 25.5 66.5t66.5 25.5t66.5 -25.5t25.5 -66.5v-1137q0 -41 -25.5 -66.5t-66.5 -25.5 h-20q-63 0 -101 37q-68 68 -196 319q-20 39 -43 87.5t-50.5 109.5t-44.5 96q-23 47 -63.5 145.5t-65.5 149.5q-20 45 -32 66v-918q0 -41 -26 -66.5t-66.5 -25.5t-66.5 25.5t-26 66.5zM342 1575q0 63 58.5 99t129.5 36q47 0 111 -21.5t117 -21.5q18 0 44.5 17.5t53.5 17.5 q37 0 65.5 -25.5t28.5 -62.5q0 -61 -60.5 -93t-131.5 -32q-45 0 -110.5 21.5t-117.5 21.5q-16 0 -45.5 -16.5t-50.5 -16.5q-39 0 -65.5 19.5t-26.5 56.5z" />
<glyph unicode="&#xd2;" horiz-adv-x="1335" d="M102 657q0 289 163 482.5t403 193.5q246 0 405.5 -190.5t159.5 -485.5q0 -291 -160 -479t-405 -188q-240 0 -403 191t-163 476zM293 657q0 -207 107.5 -349t267.5 -142q164 0 269 139t105 352q0 215 -105.5 356.5t-268.5 141.5q-160 0 -267.5 -144.5t-107.5 -353.5z M352 1710q0 41 25.5 64.5t64.5 23.5q12 0 17 -2l336 -137q57 -25 57 -86q0 -27 -12 -45q-27 -39 -78 -39q-18 0 -33 6l-319 133q-58 27 -58 82z" />
<glyph unicode="&#xd3;" horiz-adv-x="1335" d="M102 657q0 289 163 482.5t403 193.5q246 0 405.5 -190.5t159.5 -485.5q0 -291 -160 -479t-405 -188q-240 0 -403 191t-163 476zM293 657q0 -207 107.5 -349t267.5 -142q164 0 269 139t105 352q0 215 -105.5 356.5t-268.5 141.5q-160 0 -267.5 -144.5t-107.5 -353.5z M481 1573q0 61 58 86l317 131l18 6q4 2 17 2q39 0 64.5 -24.5t25.5 -63.5q0 -55 -57 -82l-320 -133q-14 -6 -33 -6q-37 0 -63.5 22.5t-26.5 61.5z" />
<glyph unicode="&#xd4;" horiz-adv-x="1335" d="M102 657q0 289 163 482.5t403 193.5q246 0 405.5 -190.5t159.5 -485.5q0 -291 -160 -479t-405 -188q-240 0 -403 191t-163 476zM293 657q0 -207 107.5 -349t267.5 -142q164 0 269 139t105 352q0 215 -105.5 356.5t-268.5 141.5q-160 0 -267.5 -144.5t-107.5 -353.5z M342 1575q0 53 47 78l240 129q23 12 45 12q14 0 43 -12l244 -131q43 -23 43 -78q0 -39 -27 -61.5t-68 -22.5q-16 0 -45 12l-190 103l-197 -103q-25 -12 -43 -12q-41 0 -66.5 24.5t-25.5 61.5z" />
<glyph unicode="&#xd5;" horiz-adv-x="1335" d="M102 657q0 289 163 482.5t403 193.5q246 0 405.5 -190.5t159.5 -485.5q0 -291 -160 -479t-405 -188q-240 0 -403 191t-163 476zM293 657q0 -207 107.5 -349t267.5 -142q164 0 269 139t105 352q0 215 -105.5 356.5t-268.5 141.5q-160 0 -267.5 -144.5t-107.5 -353.5z M371 1575q0 63 58 99t130 36q47 0 110.5 -21.5t116.5 -21.5q18 0 45 17.5t54 17.5q37 0 65.5 -25.5t28.5 -62.5q0 -61 -60.5 -93t-132.5 -32q-45 0 -110.5 21.5t-116.5 21.5q-16 0 -46 -16.5t-50 -16.5q-39 0 -65.5 19.5t-26.5 56.5z" />
<glyph unicode="&#xd6;" horiz-adv-x="1335" d="M102 657q0 289 163 482.5t403 193.5q246 0 405.5 -190.5t159.5 -485.5q0 -291 -160 -479t-405 -188q-240 0 -403 191t-163 476zM293 657q0 -207 107.5 -349t267.5 -142q164 0 269 139t105 352q0 215 -105.5 356.5t-268.5 141.5q-160 0 -267.5 -144.5t-107.5 -353.5z M453 1579v70q0 41 25.5 65.5t66.5 24.5t66.5 -24.5t25.5 -65.5v-70q0 -41 -25.5 -65.5t-66.5 -24.5t-66.5 24.5t-25.5 65.5zM711 1579v70q0 41 25.5 65.5t66.5 24.5t66.5 -24.5t25.5 -65.5v-70q0 -41 -25.5 -65.5t-66.5 -24.5t-66.5 24.5t-25.5 65.5z" />
<glyph unicode="&#xd7;" horiz-adv-x="1228" d="M195 172q0 37 26 64l260 260l-262 260q-25 27 -24 65q0 35 29.5 63.5t64.5 28.5q39 0 67 -28l256 -256l256 256q33 29 70 28.5t64.5 -28t27.5 -64.5t-22 -63l-265 -262l256 -256q33 -27 33 -72q0 -33 -29.5 -61.5t-64.5 -28.5q-39 0 -68 28l-258 259l-260 -259 q-29 -29 -65 -28q-39 0 -65.5 27.5t-26.5 66.5z" />
<glyph unicode="&#xd8;" horiz-adv-x="1345" d="M102 659q0 287 164 480.5t406 193.5q141 0 264 -76l14 25q25 41 76 41q39 0 67.5 -23.5t28.5 -64.5q0 -29 -14 -49l-33 -45q168 -176 168 -482q0 -289 -162.5 -479t-408.5 -190q-139 0 -264 73l-13 -20q-25 -43 -80 -43q-35 0 -64.5 28.5t-29.5 65.5q0 27 15 49l28 45 q-162 203 -162 471zM293 659q0 -170 78 -303l469 746q-68 53 -168 53q-162 0 -270.5 -143.5t-108.5 -352.5zM504 219q78 -53 168 -53q166 0 273.5 141.5t107.5 351.5q0 184 -80 310z" />
<glyph unicode="&#xd9;" horiz-adv-x="1267" d="M184 442v789q0 41 27 65.5t68 24.5q39 0 64.5 -24.5t25.5 -65.5v-785q0 -43 11 -86t37.5 -90t83 -75.5t134.5 -28.5t134 28.5t82 75.5t37 90t11 86v785q0 41 25.5 65.5t66.5 24.5t66.5 -24.5t25.5 -65.5v-789q0 -51 -9 -103t-37.5 -117.5t-76 -115t-132.5 -83 t-195.5 -33.5t-195.5 33.5t-131 83t-75.5 115t-38 117.5t-8.5 103zM317 1710q0 41 26 64.5t65 23.5q12 0 16 -2l336 -137q57 -25 57 -86q0 -27 -12 -45q-27 -39 -78 -39q-18 0 -33 6l-319 133q-58 27 -58 82z" />
<glyph unicode="&#xda;" horiz-adv-x="1267" d="M184 442v789q0 41 27 65.5t68 24.5q39 0 64.5 -24.5t25.5 -65.5v-785q0 -43 11 -86t37.5 -90t83 -75.5t134.5 -28.5t134 28.5t82 75.5t37 90t11 86v785q0 41 25.5 65.5t66.5 24.5t66.5 -24.5t25.5 -65.5v-789q0 -51 -9 -103t-37.5 -117.5t-76 -115t-132.5 -83 t-195.5 -33.5t-195.5 33.5t-131 83t-75.5 115t-38 117.5t-8.5 103zM440 1573q0 61 58 86l317 131l19 6q4 2 16 2q39 0 64.5 -24.5t25.5 -63.5q0 -55 -57 -82l-320 -133q-14 -6 -33 -6q-37 0 -63.5 22.5t-26.5 61.5z" />
<glyph unicode="&#xdb;" horiz-adv-x="1267" d="M184 442v789q0 41 27 65.5t68 24.5q39 0 64.5 -24.5t25.5 -65.5v-785q0 -43 11 -86t37.5 -90t83 -75.5t134.5 -28.5t134 28.5t82 75.5t37 90t11 86v785q0 41 25.5 65.5t66.5 24.5t66.5 -24.5t25.5 -65.5v-789q0 -51 -9 -103t-37.5 -117.5t-76 -115t-132.5 -83 t-195.5 -33.5t-195.5 33.5t-131 83t-75.5 115t-38 117.5t-8.5 103zM309 1575q0 53 47 78l240 129q23 12 45 12q14 0 43 -12l244 -131q43 -23 43 -78q0 -39 -26.5 -61.5t-67.5 -22.5q-16 0 -46 12l-190 103l-197 -103q-25 -12 -43 -12q-41 0 -66.5 24.5t-25.5 61.5z" />
<glyph unicode="&#xdc;" horiz-adv-x="1267" d="M184 442v789q0 41 27 65.5t68 24.5q39 0 64.5 -24.5t25.5 -65.5v-785q0 -43 11 -86t37.5 -90t83 -75.5t134.5 -28.5t134 28.5t82 75.5t37 90t11 86v785q0 41 25.5 65.5t66.5 24.5t66.5 -24.5t25.5 -65.5v-789q0 -51 -9 -103t-37.5 -117.5t-76 -115t-132.5 -83 t-195.5 -33.5t-195.5 33.5t-131 83t-75.5 115t-38 117.5t-8.5 103zM412 1579v70q0 41 25.5 65.5t66.5 24.5t66.5 -24.5t25.5 -65.5v-70q0 -41 -25.5 -65.5t-66.5 -24.5t-66.5 24.5t-25.5 65.5zM670 1579v70q0 41 25.5 65.5t66.5 24.5t66.5 -24.5t25.5 -65.5v-70 q0 -41 -25.5 -65.5t-66.5 -24.5t-66.5 24.5t-25.5 65.5z" />
<glyph unicode="&#xdd;" horiz-adv-x="995" d="M41 1235q0 37 26.5 61.5t69.5 24.5q59 0 84 -61q174 -422 277 -568q66 100 154.5 293t121.5 275q25 61 84 61q43 0 69.5 -24.5t26.5 -61.5q0 -16 -6 -31q-31 -84 -137 -308t-182 -333q-16 -25 -39 -47v-424q0 -41 -25.5 -66.5t-66.5 -25.5t-66.5 25.5t-25.5 66.5v424 q-16 16 -39 51q-78 111 -192 344.5t-128 292.5q-6 15 -6 31zM258 1573q0 61 57 86l318 131l18 6q4 2 17 2q39 0 64.5 -24.5t25.5 -63.5q0 -55 -58 -82l-319 -133q-14 -6 -33 -6q-37 0 -63.5 22.5t-26.5 61.5z" />
<glyph unicode="&#xde;" horiz-adv-x="1017" d="M143 92v1096q0 41 26 66.5t66.5 25.5t66.5 -25.5t26 -66.5v-123h174q186 0 310 -115.5t124 -294.5q0 -176 -123 -288.5t-311 -112.5h-174v-162q0 -41 -26 -66.5t-66.5 -25.5t-66.5 25.5t-26 66.5zM328 432h174q109 0 176 62.5t67 160.5q0 100 -68.5 166t-174.5 66h-174 v-455z" />
<glyph unicode="&#xdf;" d="M143 92v897q0 201 104.5 298t239.5 97q150 0 258.5 -89t108.5 -255q0 -86 -51 -167.5t-102.5 -129t-51.5 -51.5t32 -22.5t77 -50t89 -74.5t75.5 -109.5t31.5 -140.5q0 -152 -103 -238t-282 -86q-35 0 -71 6q-94 20 -95 95q0 35 20.5 63.5t59.5 28.5q12 0 40 -6t46 -6 q90 0 142.5 38.5t52.5 104.5q0 68 -46 121t-102.5 83.5t-102.5 81t-46 111.5q0 63 49 120.5t98.5 113t49.5 114.5q0 84 -52.5 124t-124.5 40q-63 0 -111 -53t-48 -162v-897q0 -41 -26 -66.5t-66.5 -25.5t-66.5 25.5t-26 66.5z" />
<glyph unicode="&#xe0;" horiz-adv-x="944" d="M82 295q0 301 412 301h129v76q0 47 -39 87t-117 40q-113 0 -201 -51q-18 -10 -49 -11q-39 0 -61.5 25.5t-22.5 62.5q0 47 35 72q45 31 129 55.5t170 24.5q168 0 254 -94.5t86 -210.5v-490q31 0 53.5 -27.5t22.5 -64.5q0 -41 -26 -65.5t-64 -24.5q-78 0 -123 57 q-104 -68 -236 -67q-141 0 -246.5 77.5t-105.5 227.5zM246 1341q0 41 25.5 65t64.5 24q12 0 16 -3l336 -137q57 -25 57 -86q0 -27 -12 -45q-27 -39 -78 -39q-18 0 -32 6l-320 134q-57 26 -57 81zM272 295q0 -59 49.5 -94t112.5 -35q84 0 189 47v209h-129q-222 0 -222 -127z " />
<glyph unicode="&#xe1;" horiz-adv-x="944" d="M82 295q0 301 412 301h129v76q0 47 -39 87t-117 40q-113 0 -201 -51q-18 -10 -49 -11q-39 0 -61.5 25.5t-22.5 62.5q0 47 35 72q45 31 129 55.5t170 24.5q168 0 254 -94.5t86 -210.5v-490q31 0 53.5 -27.5t22.5 -64.5q0 -41 -26 -65.5t-64 -24.5q-78 0 -123 57 q-104 -68 -236 -67q-141 0 -246.5 77.5t-105.5 227.5zM246 1204q0 61 57 86l318 131l18 6q4 2 16 3q39 0 64.5 -25t25.5 -64q0 -55 -57 -81l-319 -134q-14 -6 -33 -6q-37 0 -63.5 22.5t-26.5 61.5zM272 295q0 -59 49.5 -94t112.5 -35q84 0 189 47v209h-129q-222 0 -222 -127 z" />
<glyph unicode="&#xe2;" horiz-adv-x="944" d="M82 295q0 301 412 301h129v76q0 47 -39 87t-117 40q-113 0 -201 -51q-18 -10 -49 -11q-39 0 -61.5 25.5t-22.5 62.5q0 47 35 72q45 31 129 55.5t170 24.5q168 0 254 -94.5t86 -210.5v-490q31 0 53.5 -27.5t22.5 -64.5q0 -41 -26 -65.5t-64 -24.5q-78 0 -123 57 q-104 -68 -236 -67q-141 0 -246.5 77.5t-105.5 227.5zM123 1206q0 53 47 78l240 129q20 12 45 12q14 0 43 -12l243 -131q43 -23 43 -78q0 -39 -26.5 -61.5t-67.5 -22.5q-16 0 -45 13l-190 102l-197 -102q-25 -12 -43 -13q-41 0 -66.5 24.5t-25.5 61.5zM272 295 q0 -59 49.5 -94t112.5 -35q84 0 189 47v209h-129q-222 0 -222 -127z" />
<glyph unicode="&#xe3;" horiz-adv-x="944" d="M82 295q0 301 412 301h129v76q0 47 -39 87t-117 40q-113 0 -201 -51q-18 -10 -49 -11q-39 0 -61.5 25.5t-22.5 62.5q0 47 35 72q45 31 129 55.5t170 24.5q168 0 254 -94.5t86 -210.5v-490q31 0 53.5 -27.5t22.5 -64.5q0 -41 -26 -65.5t-64 -24.5q-78 0 -123 57 q-104 -68 -236 -67q-141 0 -246.5 77.5t-105.5 227.5zM162 1206q0 63 58.5 99t129.5 36q47 0 110.5 -21.5t117.5 -21.5q18 0 44.5 17.5t53.5 17.5q37 0 65.5 -25.5t28.5 -62.5q0 -61 -60.5 -93t-131.5 -32q-45 0 -111 21.5t-117 21.5q-16 0 -46 -16.5t-50 -16.5 q-39 0 -65.5 19.5t-26.5 56.5zM272 295q0 -59 49.5 -94t112.5 -35q84 0 189 47v209h-129q-222 0 -222 -127z" />
<glyph unicode="&#xe4;" horiz-adv-x="944" d="M82 295q0 301 412 301h129v76q0 47 -39 87t-117 40q-113 0 -201 -51q-18 -10 -49 -11q-39 0 -61.5 25.5t-22.5 62.5q0 47 35 72q45 31 129 55.5t170 24.5q168 0 254 -94.5t86 -210.5v-490q31 0 53.5 -27.5t22.5 -64.5q0 -41 -26 -65.5t-64 -24.5q-78 0 -123 57 q-104 -68 -236 -67q-141 0 -246.5 77.5t-105.5 227.5zM262 1169v70q0 41 25.5 65.5t66.5 24.5t66.5 -24.5t25.5 -65.5v-70q0 -41 -25.5 -65.5t-66.5 -24.5t-66.5 24.5t-25.5 65.5zM272 295q0 -59 49.5 -94t112.5 -35q84 0 189 47v209h-129q-222 0 -222 -127zM520 1169v70 q0 41 25.5 65.5t66.5 24.5t67 -24.5t26 -65.5v-70q0 -41 -26 -65.5t-67 -24.5t-66.5 24.5t-25.5 65.5z" />
<glyph unicode="&#xe5;" horiz-adv-x="944" d="M82 295q0 301 412 301h129v76q0 47 -39 87t-117 40q-113 0 -201 -51q-18 -10 -49 -11q-39 0 -61.5 25.5t-22.5 62.5q0 47 35 72q45 31 129 55.5t170 24.5q168 0 254 -94.5t86 -210.5v-490q31 0 53.5 -27.5t22.5 -64.5q0 -41 -26 -65.5t-64 -24.5q-78 0 -123 57 q-104 -68 -236 -67q-141 0 -246.5 77.5t-105.5 227.5zM272 295q0 -59 49.5 -94t112.5 -35q84 0 189 47v209h-129q-222 0 -222 -127zM289 1313q0 80 56 135t138 55q80 0 134.5 -55t54.5 -135q0 -84 -53.5 -138.5t-135.5 -54.5t-138 54.5t-56 138.5zM418 1315 q0 -29 19.5 -48.5t47.5 -19.5q25 0 45.5 19.5t20.5 48.5q0 25 -20.5 44t-45.5 19q-29 0 -48 -19t-19 -44z" />
<glyph unicode="&#xe6;" horiz-adv-x="1447" d="M80 297q0 299 414 299h124v74q0 59 -44 94t-109 35q-113 0 -209 -56q-14 -6 -37 -6q-41 0 -65.5 25.5t-24.5 62.5q0 43 39 72q45 31 128 55.5t169 24.5q186 0 266 -125q16 23 44 46.5t95.5 51t147.5 27.5q160 0 255 -92t95 -199q0 -70 -26.5 -118t-69.5 -76.5t-119 -44 t-154.5 -20.5t-195.5 -5v-170q57 -86 192 -86q82 0 185 61q29 16 59 17q37 0 64.5 -25.5t27.5 -62.5q0 -51 -41 -78q-133 -88 -295 -88q-225 0 -299 112q-113 -113 -260 -112q-143 0 -249.5 78.5t-106.5 228.5zM270 297q0 -59 52.5 -95t113.5 -36q92 0 182 86v170h-124 q-224 0 -224 -125zM803 596q207 0 291 18.5t84 71.5q0 39 -41 76t-119 37q-72 0 -128 -40t-87 -110v-53z" />
<glyph unicode="&#xe7;" horiz-adv-x="968" d="M82 487q0 207 140 348.5t343 141.5q143 0 264 -78q41 -25 41 -78q0 -39 -26.5 -65.5t-65.5 -26.5q-33 0 -51 16q-72 53 -162 54q-125 0 -209 -90.5t-84 -221.5q0 -129 65.5 -225t188.5 -96q106 0 222 65q23 12 47 13q37 0 64.5 -25.5t27.5 -66.5q0 -47 -49 -78 q-152 -82 -301 -84l-17 -62q29 12 76 13q74 0 123 -51.5t49 -135.5q0 -92 -63.5 -145t-149.5 -53q-55 0 -90 21.5t-35 55.5q0 59 62 60q4 0 27.5 -4t45.5 -4q27 0 49.5 20.5t22.5 48.5q0 63 -55 64q-37 0 -67 -13.5t-40 -13.5q-57 0 -57 51q0 10 4 31l27 123 q-164 20 -265.5 155t-101.5 336z" />
<glyph unicode="&#xe8;" horiz-adv-x="966" d="M82 481q0 223 117.5 359.5t318.5 136.5q160 0 261.5 -93t101.5 -198q0 -117 -77 -185.5t-202 -93t-321 -28.5q20 -94 79.5 -153.5t147.5 -59.5q43 0 92 14.5t98 34.5l50 21q20 10 47 10q37 0 63.5 -26.5t26.5 -63.5q0 -47 -47 -78l-33 -17q-137 -72 -297 -71 q-190 0 -308 135t-118 356zM274 549q219 4 316.5 36.5t97.5 100.5q0 39 -46 76t-124 37q-102 0 -165 -65.5t-79 -184.5zM295 1341q0 41 25.5 65t64.5 24q12 0 16 -3l336 -137q57 -25 58 -86q0 -27 -13 -45q-27 -39 -77 -39q-18 0 -33 6l-320 134q-57 26 -57 81z" />
<glyph unicode="&#xe9;" horiz-adv-x="966" d="M82 481q0 223 117.5 359.5t318.5 136.5q160 0 261.5 -93t101.5 -198q0 -117 -77 -185.5t-202 -93t-321 -28.5q20 -94 79.5 -153.5t147.5 -59.5q43 0 92 14.5t98 34.5l50 21q20 10 47 10q37 0 63.5 -26.5t26.5 -63.5q0 -47 -47 -78l-33 -17q-137 -72 -297 -71 q-190 0 -308 135t-118 356zM274 549q219 4 316.5 36.5t97.5 100.5q0 39 -46 76t-124 37q-102 0 -165 -65.5t-79 -184.5zM315 1204q0 61 58 86l317 131l19 6q4 2 16 3q39 0 64.5 -25t25.5 -64q0 -55 -57 -81l-320 -134q-14 -6 -32 -6q-37 0 -64 22.5t-27 61.5z" />
<glyph unicode="&#xea;" horiz-adv-x="966" d="M82 481q0 223 117.5 359.5t318.5 136.5q160 0 261.5 -93t101.5 -198q0 -117 -77 -185.5t-202 -93t-321 -28.5q20 -94 79.5 -153.5t147.5 -59.5q43 0 92 14.5t98 34.5l50 21q20 10 47 10q37 0 63.5 -26.5t26.5 -63.5q0 -47 -47 -78l-33 -17q-137 -72 -297 -71 q-190 0 -308 135t-118 356zM193 1206q0 53 47 78l239 129q20 12 45 12q14 0 43 -12l244 -131q43 -23 43 -78q0 -39 -26.5 -61.5t-67.5 -22.5q-16 0 -45 13l-191 102l-196 -102q-25 -12 -43 -13q-41 0 -66.5 24.5t-25.5 61.5zM274 549q219 4 316.5 36.5t97.5 100.5 q0 39 -46 76t-124 37q-102 0 -165 -65.5t-79 -184.5z" />
<glyph unicode="&#xeb;" horiz-adv-x="966" d="M82 481q0 223 117.5 359.5t318.5 136.5q160 0 261.5 -93t101.5 -198q0 -117 -77 -185.5t-202 -93t-321 -28.5q20 -94 79.5 -153.5t147.5 -59.5q43 0 92 14.5t98 34.5l50 21q20 10 47 10q37 0 63.5 -26.5t26.5 -63.5q0 -47 -47 -78l-33 -17q-137 -72 -297 -71 q-190 0 -308 135t-118 356zM274 549q219 4 316.5 36.5t97.5 100.5q0 39 -46 76t-124 37q-102 0 -165 -65.5t-79 -184.5zM311 1169v70q0 41 25.5 65.5t66.5 24.5t67 -24.5t26 -65.5v-70q0 -41 -26 -65.5t-67 -24.5t-66.5 24.5t-25.5 65.5zM569 1169v70q0 41 26 65.5 t66.5 24.5t66.5 -24.5t26 -65.5v-70q0 -41 -26 -65.5t-66.5 -24.5t-66.5 24.5t-26 65.5z" />
<glyph unicode="&#xec;" horiz-adv-x="471" d="M-12 1300q0 41 24.5 65t63.5 24q12 0 16 -3l336 -137q57 -25 57 -86q0 -27 -12 -45q-27 -39 -78 -39q-18 0 -33 6l-319 134q-55 26 -55 81zM143 90v782q0 41 26 67t66.5 26t66.5 -26t26 -67v-782q0 -41 -26 -65.5t-66.5 -24.5t-66.5 24.5t-26 65.5z" />
<glyph unicode="&#xed;" horiz-adv-x="471" d="M-20 1204q0 61 55 86l317 131l19 6q4 2 16 3q39 0 64.5 -25t25.5 -64q0 -55 -57 -81l-320 -134q-14 -6 -32 -6q-37 0 -62.5 22.5t-25.5 61.5zM143 90v782q0 41 26 67t66.5 26t66.5 -26t26 -67v-782q0 -41 -26 -65.5t-66.5 -24.5t-66.5 24.5t-26 65.5z" />
<glyph unicode="&#xee;" horiz-adv-x="471" d="M-94 1206q0 53 47 78l237 129q23 12 46 12q14 0 43 -12l243 -131q43 -23 43 -78q0 -39 -26.5 -61.5t-67.5 -22.5q-16 0 -45 13l-190 102l-197 -102q-25 -12 -41 -13q-41 0 -66.5 24.5t-25.5 61.5zM143 90v782q0 41 26 67t66.5 26t66.5 -26t26 -67v-782q0 -41 -26 -65.5 t-66.5 -24.5t-66.5 24.5t-26 65.5z" />
<glyph unicode="&#xef;" horiz-adv-x="471" d="M16 1169v70q0 41 26 65.5t67 24.5t66.5 -24.5t25.5 -65.5v-70q0 -41 -25.5 -65.5t-66.5 -24.5t-67 24.5t-26 65.5zM143 90v782q0 41 26 67t66.5 26t66.5 -26t26 -67v-782q0 -41 -26 -65.5t-66.5 -24.5t-66.5 24.5t-26 65.5zM274 1169v70q0 41 26 65.5t67 24.5t66.5 -24.5 t25.5 -65.5v-70q0 -41 -25.5 -65.5t-66.5 -24.5t-67 24.5t-26 65.5z" />
<glyph unicode="&#xf0;" horiz-adv-x="999" d="M82 520q0 178 106.5 317.5t315.5 139.5q119 0 215 -82q-14 133 -111 229l-162 -77q-25 -10 -43 -11q-39 0 -63.5 24.5t-24.5 61.5q0 57 52 80l82 33q-18 8 -48 10q-63 6 -188 10q-41 2 -65.5 25t-24.5 55q0 92 92 92q279 0 416 -90l100 52q16 8 41 8q39 0 64.5 -27 t25.5 -67q0 -55 -45 -80l-43 -23q135 -190 144 -483v-15q0 -348 -108 -530t-312 -182q-125 0 -213 53t-129 140t-57.5 169t-16.5 168zM272 520q0 -354 226 -354q227 0 237 514q-137 119 -231 119q-119 0 -175.5 -83t-56.5 -196z" />
<glyph unicode="&#xf1;" d="M143 92v782q0 90 86 91q55 0 84 -54q106 66 234 66q174 0 255 -85t81 -265v-535q0 -41 -26 -66.5t-66.5 -25.5t-66.5 25.5t-26 66.5v506q0 117 -41 159t-151 42q-86 0 -178 -43v-664q0 -41 -26 -66.5t-66.5 -25.5t-66.5 25.5t-26 66.5zM205 1206q0 63 58.5 99t129.5 36 q45 0 110.5 -21.5t117.5 -21.5q18 0 44.5 17.5t53.5 17.5q37 0 65.5 -25.5t28.5 -62.5q0 -61 -60.5 -93t-131.5 -32q-47 0 -111 21.5t-117 21.5q-16 0 -46 -16.5t-50 -16.5q-39 0 -65.5 19.5t-26.5 56.5z" />
<glyph unicode="&#xf2;" horiz-adv-x="1013" d="M82 481q0 223 117.5 359.5t308.5 136.5q188 0 306 -136t118 -360q0 -229 -113.5 -360t-310.5 -131q-190 0 -308 135t-118 356zM272 481q0 -143 63.5 -229t172.5 -86q111 0 172 84t61 231.5t-62.5 232.5t-170.5 85q-111 0 -173.5 -85.5t-62.5 -232.5zM279 1341 q0 41 25.5 65t64.5 24q12 0 16 -3l336 -137q57 -25 57 -86q0 -27 -12 -45q-27 -39 -78 -39q-18 0 -33 6l-319 134q-57 26 -57 81z" />
<glyph unicode="&#xf3;" horiz-adv-x="1013" d="M82 481q0 223 117.5 359.5t308.5 136.5q188 0 306 -136t118 -360q0 -229 -113.5 -360t-310.5 -131q-190 0 -308 135t-118 356zM272 481q0 -143 63.5 -229t172.5 -86q111 0 172 84t61 231.5t-62.5 232.5t-170.5 85q-111 0 -173.5 -85.5t-62.5 -232.5zM279 1204q0 61 57 86 l317 131l19 6q4 2 16 3q39 0 64.5 -25t25.5 -64q0 -55 -57 -81l-320 -134q-14 -6 -32 -6q-37 0 -63.5 22.5t-26.5 61.5z" />
<glyph unicode="&#xf4;" horiz-adv-x="1013" d="M82 481q0 223 117.5 359.5t308.5 136.5q188 0 306 -136t118 -360q0 -229 -113.5 -360t-310.5 -131q-190 0 -308 135t-118 356zM195 1206q0 53 47 78l239 129q23 12 45 12q14 0 43 -12l244 -131q43 -23 43 -78q0 -39 -26.5 -61.5t-67.5 -22.5q-16 0 -45 13l-191 102 l-196 -102q-25 -12 -43 -13q-41 0 -66.5 24.5t-25.5 61.5zM272 481q0 -143 63.5 -229t172.5 -86q111 0 172 84t61 231.5t-62.5 232.5t-170.5 85q-111 0 -173.5 -85.5t-62.5 -232.5z" />
<glyph unicode="&#xf5;" horiz-adv-x="1013" d="M82 481q0 223 117.5 359.5t308.5 136.5q188 0 306 -136t118 -360q0 -229 -113.5 -360t-310.5 -131q-190 0 -308 135t-118 356zM221 1206q0 63 58.5 99t130.5 36q45 0 110.5 -21.5t116.5 -21.5q18 0 45 17.5t53 17.5q37 0 65.5 -25.5t28.5 -62.5q0 -61 -60 -93t-132 -32 q-47 0 -110.5 21.5t-116.5 21.5q-16 0 -46 -16.5t-51 -16.5q-39 0 -65.5 19.5t-26.5 56.5zM272 481q0 -143 63.5 -229t172.5 -86q111 0 172 84t61 231.5t-62.5 232.5t-170.5 85q-111 0 -173.5 -85.5t-62.5 -232.5z" />
<glyph unicode="&#xf6;" horiz-adv-x="1013" d="M82 481q0 223 117.5 359.5t308.5 136.5q188 0 306 -136t118 -360q0 -229 -113.5 -360t-310.5 -131q-190 0 -308 135t-118 356zM272 481q0 -143 63.5 -229t172.5 -86q111 0 172 84t61 231.5t-62.5 232.5t-170.5 85q-111 0 -173.5 -85.5t-62.5 -232.5zM295 1169v70 q0 41 25.5 65.5t66.5 24.5t66.5 -24.5t25.5 -65.5v-70q0 -41 -25.5 -65.5t-66.5 -24.5t-66.5 24.5t-25.5 65.5zM553 1169v70q0 41 25.5 65.5t66.5 24.5t66.5 -24.5t25.5 -65.5v-70q0 -41 -25.5 -65.5t-66.5 -24.5t-66.5 24.5t-25.5 65.5z" />
<glyph unicode="&#xf7;" horiz-adv-x="1228" d="M150 491.5q0 40.5 25.5 65.5t66.5 25h745q41 0 66.5 -25t25.5 -65.5t-25.5 -64.5t-66.5 -24h-745q-41 0 -66.5 24t-25.5 64.5zM518 94v68q0 41 25.5 66.5t66.5 25.5t66.5 -25.5t25.5 -66.5v-68q0 -41 -25.5 -65.5t-66.5 -24.5t-66.5 24.5t-25.5 65.5zM518 829v66 q0 41 25.5 66.5t66.5 25.5t66.5 -25.5t25.5 -66.5v-66q0 -41 -26.5 -66.5t-67.5 -25.5t-65.5 25.5t-24.5 66.5z" />
<glyph unicode="&#xf8;" horiz-adv-x="1011" d="M76 481q0 221 119.5 358.5t310.5 137.5q102 0 184 -41q33 27 70 27q29 0 49 -15q39 -25 39 -76q0 -29 -12 -53l-5 -6q104 -145 105 -332q0 -227 -117 -359t-313 -132q-80 0 -176 39q-29 -29 -62 -29q-27 0 -47 12q-45 29 -45 80q0 6 4 23l8 20q-112 147 -112 346z M266 481q0 -100 31 -168l295 465q-39 20 -86 21q-111 0 -175.5 -86.5t-64.5 -231.5zM430 184q37 -18 76 -18q117 0 178 94t61 221q0 84 -24 154z" />
<glyph unicode="&#xf9;" d="M143 338v534q0 41 26 67t66.5 26t66.5 -26t26 -67v-505q0 -117 41 -159t151 -42q100 0 178 57v649q0 41 26 67t66.5 26t66.5 -26t26 -67v-782q0 -90 -86 -90q-55 0 -84 53q-104 -63 -234 -63q-174 0 -255 84t-81 264zM272 1341q0 41 26 65t64 24q12 0 17 -3l336 -137 q57 -25 57 -86q0 -27 -12 -45q-27 -39 -78 -39q-18 0 -33 6l-319 134q-58 26 -58 81z" />
<glyph unicode="&#xfa;" d="M143 338v534q0 41 26 67t66.5 26t66.5 -26t26 -67v-505q0 -117 41 -159t151 -42q100 0 178 57v649q0 41 26 67t66.5 26t66.5 -26t26 -67v-782q0 -90 -86 -90q-55 0 -84 53q-104 -63 -234 -63q-174 0 -255 84t-81 264zM272 1204q0 61 58 86l317 131l19 6q4 2 16 3 q39 0 64.5 -25t25.5 -64q0 -55 -57 -81l-320 -134q-14 -6 -33 -6q-37 0 -63.5 22.5t-26.5 61.5z" />
<glyph unicode="&#xfb;" d="M143 338v534q0 41 26 67t66.5 26t66.5 -26t26 -67v-505q0 -117 41 -159t151 -42q100 0 178 57v649q0 41 26 67t66.5 26t66.5 -26t26 -67v-782q0 -90 -86 -90q-55 0 -84 53q-104 -63 -234 -63q-174 0 -255 84t-81 264zM184 1206q0 53 47 78l240 129q20 12 45 12 q14 0 43 -12l244 -131q43 -23 43 -78q0 -39 -26.5 -61.5t-67.5 -22.5q-16 0 -45 13l-191 102l-197 -102q-25 -12 -43 -13q-41 0 -66.5 24.5t-25.5 61.5z" />
<glyph unicode="&#xfc;" d="M143 338v534q0 41 26 67t66.5 26t66.5 -26t26 -67v-505q0 -117 41 -159t151 -42q100 0 178 57v649q0 41 26 67t66.5 26t66.5 -26t26 -67v-782q0 -90 -86 -90q-55 0 -84 53q-104 -63 -234 -63q-174 0 -255 84t-81 264zM309 1169v70q0 41 25.5 65.5t66.5 24.5t67 -24.5 t26 -65.5v-70q0 -41 -26 -65.5t-67 -24.5t-66.5 24.5t-25.5 65.5zM567 1169v70q0 41 25.5 65.5t66.5 24.5t67 -24.5t26 -65.5v-70q0 -41 -26 -65.5t-67 -24.5t-66.5 24.5t-25.5 65.5z" />
<glyph unicode="&#xfd;" horiz-adv-x="864" d="M-223 -223q0 37 28.5 63.5t61.5 26.5t55 -21q29 -25 44.5 -35t49 -21t76.5 -11q82 0 141.5 58.5t124.5 223.5q-14 23 -41 80q-51 109 -120.5 280t-113.5 287.5t-52 141.5q-4 12 -4 31q0 41 25.5 62.5t66.5 21.5q31 0 55.5 -20.5t32.5 -51.5q18 -47 53 -144.5t56.5 -157 t56.5 -141t69 -151.5q31 88 108 290t116 314q27 61 86 62q37 0 64.5 -26t27.5 -65q0 -12 -6 -28l-267 -737q-104 -281 -215.5 -394.5t-263.5 -113.5q-180 0 -282 102q-33 29 -33 74zM193 1163q0 61 57 86l317 131l19 6q4 2 16 3q39 0 64.5 -25t25.5 -64q0 -55 -57 -81 l-320 -134q-14 -6 -32 -6q-37 0 -63.5 22.5t-26.5 61.5z" />
<glyph unicode="&#xfe;" horiz-adv-x="1019" d="M143 -272v1560q0 41 26 65.5t66.5 24.5t66.5 -24.5t26 -65.5v-338q78 27 174 27q199 0 322.5 -134t123.5 -354q0 -213 -141 -356t-344 -143q-78 0 -135 22v-284q0 -41 -26 -67t-66.5 -26t-66.5 26t-26 67zM328 211q78 -45 135 -45q123 0 209 95t86 228q0 141 -70 225.5 t-186 84.5q-96 0 -174 -39v-549z" />
<glyph unicode="&#xff;" horiz-adv-x="864" d="M-223 -223q0 37 28.5 63.5t61.5 26.5t55 -21q29 -25 44.5 -35t49 -21t76.5 -11q82 0 141.5 58.5t124.5 223.5q-14 23 -41 80q-51 109 -120.5 280t-113.5 287.5t-52 141.5q-4 12 -4 31q0 41 25.5 62.5t66.5 21.5q31 0 55.5 -20.5t32.5 -51.5q18 -47 53 -144.5t56.5 -157 t56.5 -141t69 -151.5q31 88 108 290t116 314q27 61 86 62q37 0 64.5 -26t27.5 -65q0 -12 -6 -28l-267 -737q-104 -281 -215.5 -394.5t-263.5 -113.5q-180 0 -282 102q-33 29 -33 74zM221 1190v70q0 41 25.5 65.5t66.5 24.5t67 -25t26 -65v-70q0 -41 -26 -65.5t-67 -24.5 t-66.5 24.5t-25.5 65.5zM479 1190v70q0 41 25.5 65.5t66.5 24.5t67 -25t26 -65v-70q0 -41 -26 -65.5t-67 -24.5t-66.5 24.5t-25.5 65.5z" />
<glyph unicode="&#x152;" horiz-adv-x="1683" d="M102 655q0 289 142.5 477.5t357.5 188.5h832q41 0 66.5 -23.5t25.5 -64.5t-25.5 -65.5t-66.5 -24.5h-428v-361h393q41 0 66.5 -25.5t25.5 -66.5t-24.5 -63.5t-67.5 -22.5h-393v-426h462q41 0 67 -23.5t26 -64.5t-26 -65.5t-67 -24.5h-866q-217 0 -358.5 184t-141.5 471z M293 655q0 -211 85 -344t224 -133h221v965h-221q-135 0 -222 -137.5t-87 -350.5z" />
<glyph unicode="&#x153;" horiz-adv-x="1624" d="M76 481q0 221 118.5 358.5t309.5 137.5q162 0 262 -92q45 -39 72 -90q25 47 77 90q109 92 265 92q129 0 243.5 -84t114.5 -213q0 -86 -41 -144.5t-125 -91t-186.5 -47t-249.5 -18.5q18 -96 77.5 -154.5t153.5 -58.5q74 0 138.5 19.5t101.5 40t47 20.5q39 0 63.5 -26.5 t24.5 -65.5q0 -51 -45 -76q-37 -25 -135 -56.5t-195 -31.5q-154 0 -254 84q-45 37 -73 86q-27 -47 -76 -86q-109 -84 -260 -84q-190 0 -309 135t-119 356zM266 481q0 -141 64.5 -228t173.5 -87q115 0 178 84t63 231v15q-6 141 -69.5 222t-172 81t-173 -86.5t-64.5 -231.5z M932 553q45 0 115 4q158 10 229.5 40t71.5 83q0 39 -46.5 79t-121.5 40q-96 0 -162 -65.5t-86 -180.5z" />
<glyph unicode="&#x178;" horiz-adv-x="995" d="M41 1235q0 37 26.5 61.5t69.5 24.5q59 0 84 -61q174 -422 277 -568q66 100 154.5 293t121.5 275q25 61 84 61q43 0 69.5 -24.5t26.5 -61.5q0 -16 -6 -31q-31 -84 -137 -308t-182 -333q-16 -25 -39 -47v-424q0 -41 -25.5 -66.5t-66.5 -25.5t-66.5 25.5t-25.5 66.5v424 q-16 16 -39 51q-78 111 -192 344.5t-128 292.5q-6 15 -6 31zM295 1579v70q0 41 25.5 65.5t66.5 24.5t66.5 -24.5t25.5 -65.5v-70q0 -41 -25.5 -65.5t-66.5 -24.5t-66.5 24.5t-25.5 65.5zM553 1579v70q0 41 25.5 65.5t66.5 24.5t66.5 -24.5t25.5 -65.5v-70q0 -41 -25.5 -65.5 t-66.5 -24.5t-66.5 24.5t-25.5 65.5z" />
<glyph unicode="&#x2c6;" horiz-adv-x="866" d="M102 1165q0 53 48 78l239 129q20 12 45 12q14 0 43 -12l244 -131q43 -23 43 -78q0 -39 -26.5 -61.5t-67.5 -22.5q-16 0 -45 13l-191 102l-196 -102q-25 -12 -43 -13q-41 0 -67 24.5t-26 61.5z" />
<glyph unicode="&#x2dc;" horiz-adv-x="813" d="M102 1165q0 63 58.5 99t130.5 36q45 0 110.5 -21.5t116.5 -21.5q18 0 45 17.5t53 17.5q37 0 66 -25.5t29 -62.5q0 -61 -60.5 -93t-132.5 -32q-47 0 -110.5 21.5t-116.5 21.5q-16 0 -46 -16t-50 -16q-39 0 -66 19t-27 56z" />
<glyph unicode="&#x2000;" horiz-adv-x="935" />
<glyph unicode="&#x2001;" horiz-adv-x="1871" />
<glyph unicode="&#x2002;" horiz-adv-x="935" />
<glyph unicode="&#x2003;" horiz-adv-x="1871" />
<glyph unicode="&#x2004;" horiz-adv-x="622" />
<glyph unicode="&#x2005;" horiz-adv-x="466" />
<glyph unicode="&#x2006;" horiz-adv-x="311" />
<glyph unicode="&#x2007;" horiz-adv-x="311" />
<glyph unicode="&#x2008;" horiz-adv-x="233" />
<glyph unicode="&#x2009;" horiz-adv-x="372" />
<glyph unicode="&#x200a;" horiz-adv-x="102" />
<glyph unicode="&#x2010;" horiz-adv-x="993" d="M184 491.5q0 40.5 26 65.5t66 25h441q41 0 66.5 -25t25.5 -65.5t-25.5 -64.5t-66.5 -24h-441q-41 0 -66.5 24t-25.5 64.5z" />
<glyph unicode="&#x2011;" horiz-adv-x="993" d="M184 491.5q0 40.5 26 65.5t66 25h441q41 0 66.5 -25t25.5 -65.5t-25.5 -64.5t-66.5 -24h-441q-41 0 -66.5 24t-25.5 64.5z" />
<glyph unicode="&#x2012;" horiz-adv-x="993" d="M184 491.5q0 40.5 26 65.5t66 25h441q41 0 66.5 -25t25.5 -65.5t-25.5 -64.5t-66.5 -24h-441q-41 0 -66.5 24t-25.5 64.5z" />
<glyph unicode="&#x2013;" horiz-adv-x="1024" d="M143 494q0 41 26 64.5t67 23.5h552q41 0 67 -23.5t26 -64.5t-25 -63.5t-68 -22.5h-552q-43 0 -68 22.5t-25 63.5z" />
<glyph unicode="&#x2014;" horiz-adv-x="1241" d="M143 489.5q0 40.5 26 66.5t67 26h770q41 0 66.5 -26t25.5 -66.5t-25.5 -64.5t-66.5 -24h-770q-41 0 -67 24t-26 64.5z" />
<glyph unicode="&#x2018;" horiz-adv-x="505" d="M123 1219v14q0 37 25.5 62.5t66.5 25.5t65.5 -24.5t24.5 -65.5q0 -129 41 -191q27 -37 27 -65q0 -37 -27 -65.5t-65 -28.5q-51 0 -86 45t-48.5 112.5t-18.5 110.5t-5 70z" />
<glyph unicode="&#x2019;" horiz-adv-x="505" d="M123 975q0 39 27 65q51 51 51 191q0 41 24.5 65.5t65.5 24.5q39 0 64.5 -23.5t27.5 -64.5v-14q0 -25 -5 -66t-19.5 -109.5t-51.5 -115.5t-92 -47q-37 0 -64.5 26.5t-27.5 67.5z" />
<glyph unicode="&#x201a;" horiz-adv-x="507" d="M123 -133q0 37 27 63q49 49 49 191q0 41 26.5 65.5t67.5 24.5t66.5 -23.5t25.5 -64.5v-14q0 -23 -5 -66t-20.5 -110.5t-53.5 -114.5t-91 -47q-37 0 -64.5 27.5t-27.5 68.5z" />
<glyph unicode="&#x201c;" horiz-adv-x="782" d="M123 1219v14q0 37 25.5 62.5t66.5 25.5t65.5 -24.5t24.5 -65.5q0 -129 41 -191q27 -37 27 -65q0 -37 -27 -65.5t-65 -28.5q-51 0 -86 45t-48.5 112.5t-18.5 110.5t-5 70zM399 1219v14q0 37 26 62.5t66.5 25.5t65.5 -24.5t25 -65.5q0 -139 51 -191q27 -27 26 -65 q0 -37 -26.5 -65.5t-65.5 -28.5q-55 0 -92 47t-51 115.5t-19.5 109.5t-5.5 66z" />
<glyph unicode="&#x201d;" horiz-adv-x="782" d="M123 975q0 39 27 65q51 51 51 191q0 41 24.5 65.5t65.5 24.5q39 0 64.5 -23.5t27.5 -64.5v-14q0 -25 -5 -66t-19.5 -109.5t-51.5 -115.5t-92 -47q-37 0 -64.5 26.5t-27.5 67.5zM410 975q0 29 26 65q41 61 41 191q0 41 24.5 65.5t65.5 24.5q39 0 64.5 -23.5t27.5 -64.5 v-14q0 -27 -5 -70t-18 -110.5t-48 -112.5t-86 -45q-37 0 -64.5 26.5t-27.5 67.5z" />
<glyph unicode="&#x201e;" horiz-adv-x="782" d="M123 -133q0 39 27 65q51 51 51 189q0 41 24.5 65.5t65.5 24.5t66.5 -23.5t25.5 -64.5v-14q0 -23 -5 -65t-19.5 -109.5t-51.5 -114.5t-92 -47q-37 0 -64.5 26.5t-27.5 67.5zM410 -133q0 29 26 65q41 61 41 189q0 41 24.5 65.5t65.5 24.5t66.5 -23.5t25.5 -64.5v-14 q0 -27 -5 -69t-18 -109.5t-48 -112.5t-86 -45q-37 0 -64.5 26.5t-27.5 67.5z" />
<glyph unicode="&#x2022;" horiz-adv-x="571" d="M143 540.5q0 59.5 42 101.5t101.5 42t100.5 -42t41 -101.5t-41 -100.5t-100.5 -41t-101.5 41t-42 100.5z" />
<glyph unicode="&#x2026;" horiz-adv-x="901" d="M143 80v65q0 41 26 67t66.5 26t64.5 -26t24 -67v-65q0 -41 -24 -65.5t-64.5 -24.5t-66.5 24.5t-26 65.5zM358 80v65q0 41 27 67t68 26t65.5 -26t24.5 -67v-65q0 -41 -24.5 -65.5t-65.5 -24.5t-68 24.5t-27 65.5zM573 80v65q0 41 26 67t67 26t65.5 -26t24.5 -67v-65 q0 -41 -24.5 -65.5t-65.5 -24.5t-67 24.5t-26 65.5z" />
<glyph unicode="&#x202f;" horiz-adv-x="372" />
<glyph unicode="&#x2039;" horiz-adv-x="624" d="M123 479q0 29 14 51l197 283q27 39 76 39q41 0 66.5 -26.5t25.5 -65.5q0 -23 -19 -53l-161 -230l165 -239q14 -23 15 -52q0 -39 -26.5 -65.5t-67.5 -26.5q-47 0 -74 39l-199 299q-12 20 -12 47z" />
<glyph unicode="&#x203a;" horiz-adv-x="624" d="M123 186q0 29 14 52l166 239l-162 230q-18 31 -18 53q0 39 25.5 65.5t66.5 26.5q49 0 76 -39l196 -283q14 -23 15 -51q0 -27 -13 -47l-198 -299q-27 -39 -74 -39q-39 0 -66.5 26.5t-27.5 65.5z" />
<glyph unicode="&#x205f;" horiz-adv-x="466" />
<glyph unicode="&#x20ac;" horiz-adv-x="1181" d="M123 504q0 74 94 84v8q0 6 -1 19.5t-1 30t1 29.5t1 19v8q-41 0 -67.5 21.5t-26.5 64.5q0 41 25.5 65t66.5 24h25q51 197 184 326.5t307 129.5q143 0 254 -71q39 -25 39 -78q0 -41 -28.5 -66.5t-65.5 -25.5q-29 0 -49 14q-61 51 -150 51q-111 0 -191.5 -80t-115.5 -200 h391q43 0 67.5 -23t24.5 -63.5t-25.5 -64.5t-66.5 -24h-414v-8q0 -6 -1 -19t-1 -29.5t1 -30t1 -19.5v-8h414q92 0 92 -84q0 -41 -25.5 -65.5t-66.5 -24.5h-385q37 -111 109.5 -180.5t173.5 -69.5q37 0 66.5 7t46 15.5t44 26.5t43.5 27q27 14 54 14q43 0 67.5 -26.5 t24.5 -67.5q0 -47 -33 -68q-141 -102 -313 -102q-176 0 -301 115.5t-172 308.5h-25q-41 0 -66.5 24.5t-25.5 65.5z" />
<glyph unicode="&#x2122;" horiz-adv-x="1523" d="M123 1442q0 31 18.5 48t48.5 17h408q31 0 49.5 -17t18.5 -48t-18.5 -48.5t-49.5 -17.5h-139v-545q0 -29 -19.5 -48t-48.5 -19t-48 19.5t-19 47.5v545h-134q-31 0 -49 17.5t-18 48.5zM645 834l72 614q4 25 24.5 42t40.5 17h39q49 0 62 -49l139 -481l145 481q12 49 64 49 h37q53 0 65 -61l68 -612q0 -31 -17.5 -50.5t-46.5 -19.5q-61 0 -71 59l-41 420q-16 -53 -56.5 -195.5t-70.5 -236.5q-16 -47 -62 -47h-28q-47 0 -64 47l-123 436l-41 -424q-10 -59 -69 -59q-66 0 -66 70z" />
<glyph unicode="&#xe000;" horiz-adv-x="965" d="M0 965h965v-965h-965v965z" />
<glyph unicode="&#xfb01;" horiz-adv-x="1142" d="M2 872q0 41 25.5 67t66.5 26h72q10 113 46 196.5t81 128.5t105.5 73t105.5 35t92 7q231 0 365 -94l4 -4q10 -4 22 -22.5t12 -43.5v-70q0 -41 -25.5 -66.5t-66.5 -25.5t-66.5 25.5t-25.5 66.5v21q-96 35 -219 35q-88 0 -161 -56.5t-87 -205.5h203q41 0 66.5 -23.5 t25.5 -64.5t-25.5 -66t-66.5 -25h-205v-694q0 -41 -25.5 -66.5t-66.5 -25.5t-66.5 25.5t-25.5 66.5v694h-68q-43 0 -67.5 22.5t-24.5 63.5zM815 92v780q0 41 25.5 67t66.5 26t66.5 -26t25.5 -67v-780q0 -41 -25.5 -66.5t-66.5 -25.5t-66.5 25.5t-25.5 66.5z" />
<glyph unicode="&#xfb02;" horiz-adv-x="1185" d="M2 877q0 41 25.5 64.5t66.5 23.5h72q12 137 61 232t120 136t129.5 56.5t119.5 15.5q94 0 197.5 -25.5t167.5 -68.5l22 -23q18 -18 18 -51v-875q0 -104 14.5 -142t57.5 -38q41 0 66.5 -24.5t25.5 -65.5t-25.5 -66.5t-66.5 -25.5q-150 0 -203 76t-53 286v830 q-96 35 -221 35q-37 0 -73 -11.5t-72.5 -37t-63.5 -81t-35 -132.5h201q41 0 66.5 -23.5t25.5 -64.5t-25.5 -66t-66.5 -25h-205v-694q0 -41 -25.5 -66.5t-66.5 -25.5t-66.5 25.5t-25.5 66.5v694h-70q-41 0 -66.5 25t-25.5 66z" />
<glyph unicode="&#xfb03;" horiz-adv-x="1814" d="M1486 92v780q0 41 26 67t66.5 26t66.5 -26t26 -67v-780q0 -41 -26 -66.5t-66.5 -25.5t-66.5 25.5t-26 66.5zM1486 1169v68q0 41 26 66.5t66.5 25.5t66.5 -25.5t26 -66.5v-68q0 -41 -26 -66.5t-66.5 -25.5t-66.5 25.5t-26 66.5zM674 872q0 41 25.5 67t66.5 26h76 q10 113 44 196.5t76 128.5t96 73t94 35t81 7q88 0 164 -31q59 -23 59 -86q0 -39 -25.5 -62.5t-64.5 -23.5q-2 0 -12 3t-18 3q-74 18 -103 19q-70 0 -131 -56.5t-76 -205.5h199q41 0 66.5 -26t25.5 -67t-24.5 -63.5t-67.5 -22.5h-201v-694q0 -41 -25.5 -66.5t-66.5 -25.5 t-66.5 25.5t-25.5 66.5v694h-74q-43 0 -67.5 22.5t-24.5 63.5zM2 872q0 41 25.5 67t66.5 26h76q10 113 44 196.5t76 128.5t96 73t94 35t81 7q88 0 164 -31q59 -23 59 -86q0 -39 -25.5 -62.5t-64.5 -23.5q-2 0 -12 3t-18 3q-74 18 -103 19q-70 0 -131 -56.5t-76 -205.5h199 q41 0 66.5 -26t25.5 -67t-24.5 -63.5t-67.5 -22.5h-201v-694q0 -41 -25.5 -66.5t-66.5 -25.5t-66.5 25.5t-25.5 66.5v694h-74q-43 0 -67.5 22.5t-24.5 63.5z" />
<glyph unicode="&#xfb04;" horiz-adv-x="1857" d="M1486 362v955q0 41 26 66.5t66.5 25.5t66.5 -25.5t26 -66.5v-955q0 -104 15 -144t58 -40q41 0 67 -23.5t26 -64.5t-26 -65.5t-67 -24.5q-150 0 -204 75.5t-54 286.5zM674 872q0 41 25.5 67t66.5 26h76q10 113 44 196.5t76 128.5t96 73t94 35t81 7q88 0 164 -31 q59 -23 59 -86q0 -39 -25.5 -62.5t-64.5 -23.5q-2 0 -12 3t-18 3q-74 18 -103 19q-70 0 -131 -56.5t-76 -205.5h199q41 0 66.5 -26t25.5 -67t-24.5 -63.5t-67.5 -22.5h-201v-694q0 -41 -25.5 -66.5t-66.5 -25.5t-66.5 25.5t-25.5 66.5v694h-74q-43 0 -67.5 22.5t-24.5 63.5z M2 872q0 41 25.5 67t66.5 26h76q10 113 44 196.5t76 128.5t96 73t94 35t81 7q88 0 164 -31q59 -23 59 -86q0 -39 -25.5 -62.5t-64.5 -23.5q-2 0 -12 3t-18 3q-74 18 -103 19q-70 0 -131 -56.5t-76 -205.5h199q41 0 66.5 -26t25.5 -67t-24.5 -63.5t-67.5 -22.5h-201v-694 q0 -41 -25.5 -66.5t-66.5 -25.5t-66.5 25.5t-25.5 66.5v694h-74q-43 0 -67.5 22.5t-24.5 63.5z" />
</font>
</defs>
</svg>
